<?xml version="1.0" standalone="no"?>
<!DOCTYPE svg PUBLIC "-//W3C//DTD SVG 1.1//EN" "http://www.w3.org/Graphics/SVG/1.1/DTD/svg11.dtd" >
<svg>
<metadata>
Created by FontForge 20090914 at Sat Dec  6 16:42:07 2014
 By www-data
Copyright Erik Spiekermann, 1991, 93, 98. Published by FontShop International for  FontFont Release 23. Copyright (c) ParaType, Inc., 2000. All rights reserved. Meta is a trademark of FSI Fonts and Software GmbH.
</metadata>
<defs>
<font id="MetaBoldC" horiz-adv-x="562" >
  <font-face 
    font-family="MetaBoldC"
    font-weight="400"
    font-stretch="normal"
    units-per-em="1000"
    panose-1="2 0 5 3 5 0 0 2 0 4"
    ascent="800"
    descent="-200"
    x-height="512"
    cap-height="695"
    bbox="-45.002 -223.999 960 937"
    underline-thickness="50"
    underline-position="-50"
    unicode-range="U+0020-U+F6D4"
  />
<missing-glyph horiz-adv-x="225" 
 />
    <glyph glyph-name=".notdef" horiz-adv-x="225" 
 />
    <glyph glyph-name="space" unicode=" " horiz-adv-x="225" 
 />
    <glyph glyph-name="exclam" unicode="!" horiz-adv-x="295" 
d="M230 70c0 -23.333 -8.16699 -43 -24.5 -59s-36.166 -24 -59.499 -24c-22.667 0 -41.834 8 -57.501 24s-23.5 35.667 -23.5 59s8 43 24 59s35.667 24 59 24c22.667 0 42 -8 58 -24s24 -35.667 24 -59zM198 221h-102l-30 466l160 23z" />
    <glyph glyph-name="quotedbl" unicode="&#x22;" horiz-adv-x="488" 
d="M65 426v282h126v-282h-126zM297 426v282h126v-282h-126z" />
    <glyph glyph-name="numbersign" unicode="#" 
d="M240 416l-17 -125h99l17 125h-99zM436 416l-17 -125h84v-90h-96l-28 -201h-97l28 201h-99l-28 -201h-97l28 201h-84v90h96l17 125h-84v90h96l28 201h97l-28 -201h99l28 201h97l-28 -201h84v-90h-96z" />
    <glyph glyph-name="dollar" unicode="$" horiz-adv-x="584" 
d="M378 426c57.333 -15.333 100.997 -40.666 130.997 -75.999s45 -79 45 -131c0 -32 -5.66699 -61.333 -17 -88s-27.666 -50 -48.999 -70s-47 -36.333 -77 -49s-63.333 -21 -100 -25v-81h-86v81c-34 3.33301 -67.667 10.166 -101 20.499s-64.666 23.833 -93.999 40.5l52 109
c32.667 -17.333 63.834 -31 93.501 -41s62.167 -15 97.5 -15c81.333 0 122 31.667 122 95c0 43.333 -30.333 73.333 -91 90l-77 21c-34.667 9.33301 -63 21 -85 35s-39.333 31.667 -52 53c-19.333 31.333 -29 66.666 -29 105.999c0 28.667 5 55.167 15 79.5
s24.167 45.833 42.5 64.5s40.333 33.834 66 45.501s54.167 19.5 85.5 23.5v72h86v-73c35.333 -3.33301 68.833 -10.833 100.5 -22.5s60.167 -26.5 85.5 -44.5l-66 -100c-32 19.333 -60.5 33 -85.5 41s-50.5 12 -76.5 12c-28.667 0 -52 -7.5 -70 -22.5s-27 -34.167 -27 -57.5
c0 -18 5.5 -32.167 16.5 -42.5s31.167 -19.5 60.5 -27.5z" />
    <glyph glyph-name="percent" unicode="%" horiz-adv-x="840" 
d="M260 535c0 40.667 -6.66699 67.332 -20 79.999c-10.667 10.667 -24.667 16 -42 16c-24.667 0 -41.334 -10 -50.001 -30c-3.33301 -8.66699 -5.66602 -18.167 -6.99902 -28.5s-2 -23.166 -2 -38.499c0 -17.333 0.833008 -32.333 2.5 -45s4.5 -22.667 8.5 -30
c4.66699 -7.33301 11.334 -13.333 20.001 -18s18.667 -7 30 -7c21.333 0 36.666 7.83301 45.999 23.5s14 41.5 14 77.5zM699 165.998c0 40.667 -6.66699 67.332 -20 79.999c-10.667 10.667 -24.667 16 -42 16c-24.667 0 -41.334 -10 -50.001 -30
c-3.33301 -8.66699 -5.66602 -18.167 -6.99902 -28.5s-2 -23.166 -2 -38.499c0 -17.333 0.833008 -32.333 2.5 -45s4.5 -22.667 8.5 -30c4.66699 -7.33301 11.334 -13.333 20.001 -18s18.667 -7 30 -7c21.333 0 36.666 7.83301 45.999 23.5s14 41.5 14 77.5zM371 532.996
c0 -28.667 -3.66895 -53.167 -11.002 -73.5s-19.333 -38.5 -36 -54.5c-15.333 -14.667 -32.666 -26 -51.999 -34s-43.666 -12 -72.999 -12c-52 0 -93.167 15.5 -123.5 46.5s-45.5 72.833 -45.5 125.5c0 26 4 49.667 12 71s19.333 39.666 34 54.999s32.5 27.166 53.5 35.499
s44.167 12.5 69.5 12.5c54 0 96.667 -16.667 128 -50c15.333 -15.333 26.5 -32.666 33.5 -51.999s10.5 -42.666 10.5 -69.999zM285.998 -0.00390625h-95l364 695h95zM809.998 163.996c0 -28.667 -3.66895 -53.167 -11.002 -73.5s-19.333 -38.5 -36 -54.5
c-15.333 -14.667 -32.666 -26 -51.999 -34s-43.666 -12 -72.999 -12c-52 0 -93.167 15.5 -123.5 46.5s-45.5 72.833 -45.5 125.5c0 26 4 49.667 12 71s19.333 39.666 34 54.999s32.5 27.166 53.5 35.499s44.167 12.5 69.5 12.5c54 0 96.667 -16.667 128 -50
c15.333 -15.333 26.5 -32.666 33.5 -51.999s10.5 -42.666 10.5 -69.999z" />
    <glyph glyph-name="ampersand" unicode="&#x26;" horiz-adv-x="705" 
d="M237 275c-36 -22 -54 -52.667 -54 -92c0 -32 9.66699 -56.5 29 -73.5s47 -25.5 83 -25.5c48 0 83 11.333 105 34zM347 506c0 19.333 -5.83398 35.335 -17.501 48.002s-26.5 19 -44.5 19c-19.333 0 -34.833 -6 -46.5 -18s-17.5 -27.667 -17.5 -47
c0 -7.33301 0.666992 -14 2 -20s4 -12.333 8 -19s9.33301 -13.834 16 -21.501s15.334 -16.834 26.001 -27.501l8 -8c44 22.667 66 54 66 94zM523.999 0.00195312l-42.001 41.9971c-7.33301 -6.66699 -16.666 -13.334 -27.999 -20.001s-22 -12 -32 -16
c-34 -13.333 -77.667 -20 -131 -20c-80.667 0 -142.667 16.333 -186 49s-65 79.334 -65 140.001c0 76.667 41.667 134.334 125 173.001c-18 14 -32 26.333 -42 37s-17.667 22 -23 34c-4.66699 9.33301 -8.5 21.5 -11.5 36.5s-4.5 29.167 -4.5 42.5
c0 24.667 4.83301 47.334 14.5 68.001s23.334 38.334 41.001 53.001s38.834 26.167 63.501 34.5s51.667 12.5 81 12.5c30 0 57.333 -3.83301 82 -11.5s46 -18.5 64 -32.5s32 -30.667 42 -50s15 -40.666 15 -63.999c0 -18.667 -3 -36.334 -9 -53.001s-14.333 -31 -25 -43
c-10 -11.333 -21.5 -21.333 -34.5 -30s-30.833 -19.334 -53.5 -32.001l-9 -5l116 -110l5 20.5c1.33301 5.66699 2.16602 11.834 2.49902 18.501s0.666016 14.5 0.999023 23.5s0.5 20.833 0.5 35.5v7h112v-6c0 -75.333 -10.667 -137.333 -32 -186l149 -148h-186z" />
    <glyph glyph-name="quotesingle" unicode="'" horiz-adv-x="256" 
d="M65 426v282h126v-282h-126z" />
    <glyph glyph-name="parenleft" unicode="(" horiz-adv-x="312" 
d="M297 -169c-48.667 16.667 -91.3301 42.8369 -127.997 78.5039s-65.334 78.5 -86.001 128.5c-11.333 27.333 -20 57.166 -26 89.499s-10.667 71.166 -14 116.499c-2 28.667 -3 54.667 -3 78c0 34 1.83301 67.833 5.5 101.5s8.5 63.167 14.5 88.5
c7.33301 30 18.833 59.5 34.5 88.5s34.167 55.167 55.5 78.5c41.333 44 89.666 78 144.999 102l35 -79c-14 -10 -24.333 -17.667 -31 -23s-14.334 -12.333 -23.001 -21c-17.333 -17.333 -32.333 -36 -45 -56s-22.667 -41.667 -30 -65
c-6.66699 -18.667 -11.834 -37.834 -15.501 -57.501s-6.16699 -44.167 -7.5 -73.5c-1.33301 -14.667 -2 -28.834 -2 -42.501v-39.5c0 -22.667 0.666992 -47.5 2 -74.5s3.33301 -53.5 6 -79.5c4 -36 9.5 -66.5 16.5 -91.5s17.167 -49.167 30.5 -72.5
c6 -11.333 12.333 -21.5 19 -30.5s14 -17.167 22 -24.5s16.833 -14.5 26.5 -21.5s20.834 -13.833 33.501 -20.5z" />
    <glyph glyph-name="parenright" unicode=")" horiz-adv-x="310" 
d="M15 782c48.667 -17.333 91.5029 -43.501 128.503 -78.501s65.5 -78.167 85.5 -129.5c10.667 -27.333 19 -57.166 25 -89.499s10.667 -71.166 14 -116.499c1.33301 -14 2 -27.167 2 -39.5v-35.5c0 -34.667 -1.5 -69.167 -4.5 -103.5s-7.83301 -64.166 -14.5 -89.499
c-7.33301 -30 -19 -59.333 -35 -88s-34.667 -54.667 -56 -78c-40.667 -44.667 -89.334 -78.667 -146.001 -102l-34 79l17.5 12.5c5 3.66699 9.5 7.16699 13.5 10.5s7.66699 6.66602 11 9.99902s7.33301 7 12 11c35.333 35.333 60.666 75.666 75.999 120.999
c6 18 10.667 37 14 57s6 44.667 8 74c2 30 3 58 3 84c0 22 -0.5 46.5 -1.5 73.5s-3.16699 53.167 -6.5 78.5c-4 36 -9.33301 66.5 -16 91.5s-16.667 49.167 -30 72.5c-6.66699 11.333 -13.167 21.5 -19.5 30.5s-13.5 17.167 -21.5 24.5s-16.833 14.333 -26.5 21
s-20.834 13.667 -33.501 21z" />
    <glyph glyph-name="asterisk" unicode="*" horiz-adv-x="476" 
d="M320 476l83 -114l-83 -61l-84 115l-81 -110l-81 61l84 109l-133 46l32 95l131 -47v138h102v-138l131 43l30 -95z" />
    <glyph glyph-name="plus" unicode="+" horiz-adv-x="628" 
d="M377 240v-211h-126v211h-211v126h211v211h126v-211h211v-126h-211z" />
    <glyph glyph-name="comma" unicode="," horiz-adv-x="284" 
d="M40 -89c22 5.33301 39.501 13.166 52.501 23.499s19.5 21.5 19.5 33.5c0 6.66699 -1.83301 12.167 -5.5 16.5s-10.5 9.5 -20.5 15.5c-26 15.333 -39 38.666 -39 69.999c0 24 8.5 44.333 25.5 61s37.5 25 61.5 25c29.333 0 53.333 -11.167 72 -33.5s28 -51.166 28 -86.499
c0 -22 -3.33301 -42.667 -10 -62s-16.334 -37 -29.001 -53s-27.667 -29.667 -45 -41s-36.333 -19.666 -57 -24.999z" />
    <glyph glyph-name="hyphen" unicode="-" horiz-adv-x="320" 
d="M40 216v116h240v-116h-240z" />
    <glyph glyph-name="hyphen" unicode="&#xad;" horiz-adv-x="320" 
d="M40 216v116h240v-116h-240z" />
    <glyph glyph-name="period" unicode="." horiz-adv-x="276" 
d="M226 73c0 -12 -2.33301 -23.5 -7 -34.5s-11 -20.5 -19 -28.5s-17.333 -14.333 -28 -19s-22 -7 -34 -7c-24.667 0 -45.5 8.66699 -62.5 26s-25.5 38.333 -25.5 63c0 24 8.5 44.5 25.5 61.5s37.5 25.5 61.5 25.5c24.667 0 45.667 -8.5 63 -25.5s26 -37.5 26 -61.5z" />
    <glyph glyph-name="slash" unicode="/" horiz-adv-x="436" 
d="M128 -154h-88l268 918h88z" />
    <glyph glyph-name="zero" unicode="0" horiz-adv-x="555" 
d="M368 253c0 35.333 -2.33301 64.166 -7 86.499s-11 39.666 -19 51.999s-17.5 20.833 -28.5 25.5s-22.833 7 -35.5 7c-34 0 -57.667 -15.167 -71 -45.5s-20 -70.833 -20 -121.5c0 -35.333 2.33301 -64.166 7 -86.499s11 -39.666 19 -51.999s17.5 -20.833 28.5 -25.5
s22.833 -7 35.5 -7c34 0 57.667 15.167 71 45.5s20 70.833 20 121.5zM515 256c0 -40 -5.83398 -76.5 -17.501 -109.5s-28 -61.333 -49 -85s-46 -41.834 -75 -54.501s-61.167 -19 -96.5 -19c-36.667 0 -69.667 6.33301 -99 19s-54.166 30.5 -74.499 53.5s-36 51 -47 84
s-16.5 69.5 -16.5 109.5s5.83301 76.5 17.5 109.5s28 61.333 49 85s46 41.834 75 54.501s61.167 19 96.5 19c36.667 0 69.5 -6.33301 98.5 -19s53.833 -30.5 74.5 -53.5s36.5 -51 47.5 -84s16.5 -69.5 16.5 -109.5z" />
    <glyph glyph-name="one" unicode="1" horiz-adv-x="423" 
d="M71 0l0.000976562 109h108v259c-18.667 -11.333 -37.834 -22 -57.501 -32s-40.5 -18.667 -62.5 -26l-34 72l193 140h90v-413h80v-109h-317z" />
    <glyph glyph-name="two" unicode="2" horiz-adv-x="556" 
d="M477 0l-417 -0.00292969v122c8.66699 4.66699 16.167 8.33398 22.5 11.001s13 5.66699 20 9l24.5 12c9.33301 4.66699 21.333 11.334 36 20.001c34.667 19.333 63.167 36.833 85.5 52.5s40 30.334 53 44.001s22 26.334 27 38.001s7.5 23.167 7.5 34.5
c0 22 -7.5 38.667 -22.5 50s-34.167 17 -57.5 17c-21.333 0 -42.333 -4.83301 -63 -14.5s-45 -26.167 -73 -49.5l-80 83c36 32 74 56.5 114 73.5s86 25.5 138 25.5c60 0 107.5 -15 142.5 -45s52.5 -69.667 52.5 -119c0 -36.667 -8.83301 -67.834 -26.5 -93.501
s-40.167 -48.5 -67.5 -68.5c-9.33301 -6.66699 -19.666 -13.667 -30.999 -21s-23.333 -14.5 -36 -21.5l-37 -20.5l-33 -19l-11 -5.5l-15 -7.5c11.333 1.33301 26.166 2.5 44.499 3.5s35.833 1.5 52.5 1.5h179z" />
    <glyph glyph-name="three" unicode="3" horiz-adv-x="538" 
d="M30 439c13.333 10.667 28.167 20.6719 44.5 30.0049s32.5 17.333 48.5 24c23.333 9.33301 47 16.666 71 21.999s48 8 72 8c31.333 0 60.166 -4.33301 86.499 -13s49.166 -20.834 68.499 -36.501s34.333 -34.167 45 -55.5s16 -44.333 16 -69
c0 -27.333 -5.66699 -52.333 -17 -75s-27.666 -40.667 -48.999 -54c-6.66699 -4 -12.167 -7.16699 -16.5 -9.5s-11.166 -5.16602 -20.499 -8.49902c38 -12.667 67.333 -32.334 88 -59.001s31 -57.667 31 -93c0 -34.667 -8.66699 -66.334 -26 -95.001
s-41.5 -53.334 -72.5 -74.001s-68 -36.667 -111 -48s-90.5 -17 -142.5 -17c-15.333 0 -28.333 0.166992 -39 0.5s-25.334 1.83301 -44.001 4.5l-32 93c15.333 -3.33301 27.833 -5.33301 37.5 -6s22.5 -1 38.5 -1c34.667 0 66.334 3.83301 95.001 11.5
s53.334 18.167 74.001 31.5s36.667 29.5 48 48.5s17 39.833 17 62.5c0 16.667 -3.83301 32 -11.5 46s-18.5 24 -32.5 30c-19.333 8 -50.333 12 -93 12h-25c-10 0 -18.667 -0.333008 -26 -1v112c12 -1.33301 23.667 -2.33301 35 -3s22.666 -1 33.999 -1
c74 0 111 26.333 111 79c0 21.333 -6.83301 39.166 -20.5 53.499s-35.167 21.5 -64.5 21.5c-34 0 -63.333 -6.16699 -88 -18.5s-44.667 -24.833 -60 -37.5z" />
    <glyph glyph-name="four" unicode="4" horiz-adv-x="533" 
d="M442 380l-1 -236c0 -5.33301 -0.166992 -10.5 -0.5 -15.5s-0.833008 -9.83301 -1.5 -14.5c8 0.666992 14.5 1 19.5 1h12.5h42v-115h-45c-5.33301 -0 -11.333 0.333008 -18 1s-11 1 -13 1c1.33301 -5.33301 2.5 -11.5 3.5 -18.5s1.5 -12.833 1.5 -17.5v-141l-127 -16v169
v10.5c0 3.66699 0.666992 8.5 2 14.5c-7.33301 -2 -13.5 -3 -18.5 -3h-13.5h-265v91l193 427h138l-144 -324l-13.5 -27.5l-10 -20.5c-3 -6 -6.16699 -11.5 -9.5 -16.5s-7.33301 -10.5 -12 -16.5c4 1.33301 6.66699 2 8 2h3h10h113h10c3.33301 0 8 -0.333008 14 -1
c-0.666992 3.33301 -1 6.5 -1 9.5v8.5c0 25.333 0.666992 46 2 62s3 31 5 45l11 117z" />
    <glyph glyph-name="five" unicode="5" horiz-adv-x="510" 
d="M203 259c10.667 2 18.8369 3.33398 24.5039 4.00098s13.167 1 22.5 1c30.667 0 59 -4.83301 85 -14.5s48.167 -23 66.5 -40s32.666 -37.333 42.999 -61s15.5 -49.834 15.5 -78.501c0 -37.333 -7.83301 -71.5 -23.5 -102.5s-37.334 -57.667 -65.001 -80
s-60.834 -39.833 -99.501 -52.5s-81 -19 -127 -19c-16 0 -28.667 0.333008 -38 1s-22 2.66699 -38 6l-29 99c19.333 -5.33301 36.166 -9 50.499 -11s28.833 -3 43.5 -3c26.667 0 51 3.5 73 10.5s41 17 57 30s28.5 28.5 37.5 46.5s13.5 37.667 13.5 59
c0 32 -10 57.667 -30 77s-46.333 29 -79 29c-20.667 0 -42.167 -2.16699 -64.5 -6.5s-49.5 -11.5 -81.5 -21.5l32 380h341l-20 -114h-196z" />
    <glyph glyph-name="six" unicode="6" horiz-adv-x="575" 
d="M389 212c0 32 -8.16699 57.499 -24.5 76.499s-38.5 28.5 -66.5 28.5c-16 0 -32.333 -2.66699 -49 -8s-35 -13.666 -55 -24.999c-1.33301 -6 -2.16602 -14.667 -2.49902 -26s-0.5 -22.666 -0.5 -33.999c0 -42.667 8.66699 -75.834 26 -99.501s41.666 -35.5 72.999 -35.5
c30 0 54 11 72 33s27 52 27 90zM469 622.999c-25.333 -8 -51 -17.998 -77 -29.998s-50.5 -27 -73.5 -45s-44 -39.833 -63 -65.5s-34.5 -55.834 -46.5 -90.501c26.667 22 62.334 33 107.001 33c30 0 58.167 -5.33301 84.5 -16s49 -25.5 68 -44.5s34 -41.333 45 -67
s16.5 -53.5 16.5 -83.5c0 -32 -6 -62 -18 -90s-28.5 -52.167 -49.5 -72.5s-45.833 -36.333 -74.5 -48s-59.334 -17.5 -92.001 -17.5c-36.667 0 -70.334 7 -101.001 21s-57.167 33.5 -79.5 58.5s-39.666 54.667 -51.999 89s-18.5 72.166 -18.5 113.499
c0 24.667 2.16699 49.5 6.5 74.5s10.833 48.167 19.5 69.5c11.333 28.667 26.5 57 45.5 85s41.167 53.667 66.5 77c14.667 14 32.5 28.333 53.5 43s43 28.5 66 41.5s46.5 24.833 70.5 35.5s46.333 19 67 25z" />
    <glyph glyph-name="seven" unicode="7" horiz-adv-x="487" 
d="M445 395l-41.5029 -64.999c-17.667 -28 -36.667 -60.5 -57 -97.5s-40.5 -77.333 -60.5 -121s-37 -88.834 -51 -135.501c-1.33301 -4 -2.66602 -9 -3.99902 -15l-5.5 -24c-2.33301 -10 -5 -23 -8 -39l-11.5 -61l-147 -37c6.66699 28 12.834 52.667 18.501 74
s11.334 41 17.001 59l17 52.5c5.66699 17 12.167 35.167 19.5 54.5c13.333 36 26.833 69.667 40.5 101s29.5 64.666 47.5 99.999l27 51c8 14.667 15.667 27.834 23 39.501l21 32.5c6.66699 10 14 20.333 22 31c-5.33301 -1.33301 -11.5 -2.33301 -18.5 -3
s-14.167 -1 -21.5 -1h-252l30 121h417z" />
    <glyph glyph-name="eight" unicode="8" horiz-adv-x="595" 
d="M404 165c0 31.333 -12.666 55.333 -37.999 72c-26.667 17.333 -64.334 34.333 -113.001 51c-42.667 -24.667 -64 -60 -64 -106c0 -32 10.167 -57.167 30.5 -75.5s47.833 -27.5 82.5 -27.5c30 0 54.5 8 73.5 24s28.5 36.667 28.5 62zM380.001 507
c0 23.333 -7.66699 41.1689 -23 53.502s-38 18.5 -68 18.5c-28 0 -50.333 -6.83301 -67 -20.5s-25 -31.834 -25 -54.501c0 -16 4.66699 -29.833 14 -41.5s25 -23.167 47 -34.5l19.5 -9.5c5 -2.33301 12.167 -5.5 21.5 -9.5c8.66699 4 17.667 9 27 15s18 12.833 26 20.5
s14.667 16.667 20 27s8 22.166 8 35.499zM555.001 183.003c0 -22.667 -4.00098 -44.333 -12.001 -65s-19.167 -39.334 -33.5 -56.001s-31.5 -31 -51.5 -43s-42 -21 -66 -27c-16 -4 -33 -7 -51 -9s-36 -3 -54 -3c-34 0 -63.333 2.83301 -88 8.5s-48 15.167 -70 28.5
c-59.333 36 -89 87.667 -89 155c0 38 10.833 72.5 32.5 103.5s50.167 52.833 85.5 65.5c-11.333 3.33301 -23.333 10.166 -36 20.499s-23.667 21.833 -33 34.5c-9.33301 13.333 -16.666 28.333 -21.999 45s-8 33.667 -8 51c0 27.333 5.83301 52.333 17.5 75
s28 42.167 49 58.5s46.167 29 75.5 38s62 13.5 98 13.5c34 0 65 -4.33301 93 -13s52.167 -20.667 72.5 -36s36.166 -33.666 47.499 -54.999s17 -44.666 17 -69.999c0 -34 -11.667 -64.5 -35 -91.5s-54.666 -45.833 -93.999 -56.5c19.333 -5.33301 38.833 -14 58.5 -26
s37.167 -24.667 52.5 -38c29.333 -27.333 44 -63.333 44 -108z" />
    <glyph glyph-name="nine" unicode="9" horiz-adv-x="561" 
d="M376 292c0 42 -8.66797 74.833 -26.001 98.5s-41 35.5 -71 35.5c-28.667 0 -51.5 -11.5 -68.5 -34.5s-25.5 -53.833 -25.5 -92.5c0 -36 9.16699 -64.833 27.5 -86.5s42.833 -32.5 73.5 -32.5c16.667 0 30.834 2.83301 42.501 8.5s24.167 15.167 37.5 28.5
c6.66699 22.667 10 47.667 10 75zM71.999 -123c26.667 6.66699 54.1709 17.668 82.5039 33.001s54.666 33 78.999 53s45.666 41 63.999 63s31.166 43.667 38.499 65c-15.333 -7.33301 -29 -12.333 -41 -15s-25.333 -4 -40 -4c-30.667 0 -59 5.66699 -85 17
s-48.667 27 -68 47s-34.5 43.5 -45.5 70.5s-16.5 56.5 -16.5 88.5c0 34 6 65.167 18 93.5s28.833 53 50.5 74s47.167 37.333 76.5 49s61.666 17.5 96.999 17.5c37.333 0 70.833 -6.33301 100.5 -19s54.667 -30.667 75 -54s36 -51.833 47 -85.5s16.5 -71.834 16.5 -114.501
c0 -67.333 -13.333 -129 -40 -185s-68 -107 -124 -153c-30.667 -25.333 -64.667 -49 -102 -71s-74 -39.333 -110 -52z" />
    <glyph glyph-name="colon" unicode=":" horiz-adv-x="294" 
d="M233 68c0 -23.333 -8.50195 -43.166 -25.502 -59.499s-37.5 -24.5 -61.5 -24.5c-23.333 0 -43.5 8.16699 -60.5 24.5s-25.5 36.166 -25.5 59.499c0 12 2.33301 23.5 7 34.5s10.834 20.5 18.501 28.5s16.834 14.333 27.501 19s22 7 34 7
c24 -0.666992 44.333 -9.5 61 -26.5s25 -37.833 25 -62.5zM233.998 368c0 -24 -8.5 -44.333 -25.5 -61s-37.5 -25 -61.5 -25c-23.333 0 -43.333 8.33301 -60 25s-25 36.667 -25 60c0 12 2.16699 23.333 6.5 34s10.333 20 18 28s16.667 14.333 27 19s21.5 7 33.5 7
c24 0 44.5 -8.5 61.5 -25.5s25.5 -37.5 25.5 -61.5z" />
    <glyph glyph-name="semicolon" unicode=";" horiz-adv-x="314" 
d="M60 -89c21.333 5.33301 38.499 13.168 51.499 23.501s19.5 21.5 19.5 33.5c0 6 -1.5 11.167 -4.5 15.5s-9.16699 9.16602 -18.5 14.499c-15.333 9.33301 -26.166 19.5 -32.499 30.5s-9.5 24.167 -9.5 39.5c0 25.333 8.33301 46.333 25 63s37.667 25 63 25
c29.333 0 53.333 -11.333 72 -34s28 -51.667 28 -87c0 -21.333 -3.5 -41.666 -10.5 -60.999s-16.833 -37 -29.5 -53s-27.667 -29.833 -45 -41.5s-36.333 -19.834 -57 -24.501zM240.999 369.002c0 -12 -2.16504 -23.166 -6.49805 -33.499s-10.333 -19.333 -18 -27
s-16.667 -13.834 -27 -18.501s-21.5 -7 -33.5 -7s-23.333 2.16699 -34 6.5s-19.834 10.333 -27.501 18s-13.834 16.667 -18.501 27s-7 21.5 -7 33.5s2.16699 23.333 6.5 34s10.333 20 18 28s16.5 14.333 26.5 19s21 7 33 7c24 0 44.667 -8.5 62 -25.5s26 -37.5 26 -61.5z
" />
    <glyph glyph-name="semicolon" unicode="&#x37e;" horiz-adv-x="314" 
d="M60 -89c21.333 5.33301 38.499 13.168 51.499 23.501s19.5 21.5 19.5 33.5c0 6 -1.5 11.167 -4.5 15.5s-9.16699 9.16602 -18.5 14.499c-15.333 9.33301 -26.166 19.5 -32.499 30.5s-9.5 24.167 -9.5 39.5c0 25.333 8.33301 46.333 25 63s37.667 25 63 25
c29.333 0 53.333 -11.333 72 -34s28 -51.667 28 -87c0 -21.333 -3.5 -41.666 -10.5 -60.999s-16.833 -37 -29.5 -53s-27.667 -29.833 -45 -41.5s-36.333 -19.834 -57 -24.501zM240.999 369.002c0 -12 -2.16504 -23.166 -6.49805 -33.499s-10.333 -19.333 -18 -27
s-16.667 -13.834 -27 -18.501s-21.5 -7 -33.5 -7s-23.333 2.16699 -34 6.5s-19.834 10.333 -27.501 18s-13.834 16.667 -18.501 27s-7 21.5 -7 33.5s2.16699 23.333 6.5 34s10.333 20 18 28s16.5 14.333 26.5 19s21 7 33 7c24 0 44.667 -8.5 62 -25.5s26 -37.5 26 -61.5z
" />
    <glyph glyph-name="less" unicode="&#x3c;" horiz-adv-x="406" 
d="M261 -12l-241 311l241 311l105 -92l-168 -219l168 -221z" />
    <glyph glyph-name="equal" unicode="=" horiz-adv-x="628" 
d="M40 144v126h548v-126h-548zM40 336v126h548v-126h-548z" />
    <glyph glyph-name="greater" unicode="&#x3e;" horiz-adv-x="406" 
d="M145 -12l-105 90l168 221l-168 219l105 92l241 -311z" />
    <glyph glyph-name="question" unicode="?" horiz-adv-x="474" 
d="M291 70c0 -23.333 -8.16699 -43 -24.5 -59s-36.166 -24 -59.499 -24c-22.667 0 -41.834 8 -57.501 24s-23.5 35.667 -23.5 59s8 43 24 59s35.667 24 59 24c22.667 0 42 -8 58 -24s24 -35.667 24 -59zM35 629c6 6.66699 14.6699 14.3311 26.0029 22.998
s25.166 17 41.499 25s35 14.667 56 20s44.5 8 70.5 8c25.333 0 49.5 -3.83301 72.5 -11.5s43.167 -18.667 60.5 -33s31.166 -31.833 41.499 -52.5s15.5 -44 15.5 -70c0 -23.333 -3.16699 -43.166 -9.5 -59.499s-14 -30.5 -23 -42.5s-19 -21.833 -30 -29.5l-29.5 -20.5
c-30.667 -19.333 -51 -40.5 -61 -63.5s-15.333 -45.167 -16 -66.5c0 -6 0.166992 -12 0.5 -18s0.833008 -11.667 1.5 -17h-115l-5 26c-2.66699 12.667 -4 26 -4 40c0 30.667 7.66699 58.167 23 82.5s38.333 47.5 69 69.5l22 15c8 5.33301 15.167 11.166 21.5 17.499
s11.666 13.5 15.999 21.5s6.5 17 6.5 27c0 24.667 -8.16699 42.334 -24.5 53.001s-35.5 16 -57.5 16c-14 0 -26.667 -1.66699 -38 -5s-21.5 -7.5 -30.5 -12.5s-16.667 -10.167 -23 -15.5s-11.833 -9.66602 -16.5 -12.999z" />
    <glyph glyph-name="at" unicode="@" horiz-adv-x="891" 
d="M539 372c-5.33301 2.66699 -10.499 4.5 -15.499 5.5s-11.833 1.5 -20.5 1.5c-30 0 -55.333 -7.33301 -76 -22s-37.667 -33.5 -51 -56.5s-23 -48.667 -29 -77s-9 -56.5 -9 -84.5c0 -20 3.16699 -35.5 9.5 -46.5s17.166 -16.5 32.499 -16.5c10 0 21.333 2.83301 34 8.5
s24.667 13.667 36 24s21.833 23.333 31.5 39s16.5 33.5 20.5 53.5zM598.001 -151c-24.667 -8 -50.834 -14.6641 -78.501 -19.9971s-55.5 -8 -83.5 -8c-57.333 0 -110.166 8.66699 -158.499 26s-90 42.166 -125 74.499s-62.5 72 -82.5 119s-30 100.5 -30 160.5
c0 58.667 10.333 114 31 166s49.334 97.5 86.001 136.5s80.334 69.833 131.001 92.5s106 34 166 34c56 0 108.167 -8.5 156.5 -25.5s90.333 -41 126 -72s63.667 -68.333 84 -112s30.5 -91.834 30.5 -144.501c0 -44 -6 -84.167 -18 -120.5s-28.333 -67.333 -49 -93
s-44.834 -45.667 -72.501 -60s-56.834 -21.5 -87.501 -21.5c-25.333 0 -45.333 2.66699 -60 8s-25.834 12.333 -33.501 21s-13 18.5 -16 29.5s-4.83301 22.167 -5.5 33.5c-17.333 -21.333 -39.166 -40 -65.499 -56s-54.5 -24 -84.5 -24c-40.667 0 -72.667 12.5 -96 37.5
s-35 62.5 -35 112.5c0 41.333 6.33301 81 19 119s31 71.5 55 100.5s53.667 52.167 89 69.5s75.666 26 120.999 26c24.667 0 49.167 -4 73.5 -12s47.166 -17.667 68.499 -29c-13.333 -44.667 -24.833 -89.334 -34.5 -134.001l-28.5 -135
c-5.33301 -25.333 -8 -43.666 -8 -54.999c0 -14 3.5 -23.333 10.5 -28s18.167 -7 33.5 -7s29.5 5.33301 42.5 16s24.167 25.667 33.5 45s16.666 42.333 21.999 69s8 56 8 88c0 39.333 -6.66699 75.333 -20 108s-32.166 60.5 -56.499 83.5s-53.666 40.833 -87.999 53.5
s-72.5 19 -114.5 19c-40 0 -77.833 -8.83301 -113.5 -26.5s-67 -41.834 -94 -72.501s-48.333 -66.667 -64 -108s-23.5 -85.333 -23.5 -132c0 -46 7.16699 -87 21.5 -123s34 -66.167 59 -90.5s54.333 -43 88 -56s69.834 -19.5 108.501 -19.5
c27.333 0 52.833 1.83301 76.5 5.5s46.167 9.16699 67.5 16.5z" />
    <glyph glyph-name="A" unicode="A" horiz-adv-x="582" 
d="M357 281c-11.333 34.667 -19.501 62.333 -24.501 83l-13.5 57c-2 9.33301 -4 17.833 -6 25.5l-6.5 24.5c-2.33301 8.66699 -4.66602 18.667 -6.99902 30l-8.5 42l-8.5 -34l-9 -36l-8.5 -34.5l-7 -28.5l-21 -75.5l-16 -53.5h136zM439.999 -0.000976562l-49 165h-204
l-49 -165h-146l228 697h151l219 -697h-150z" />
    <glyph glyph-name="B" unicode="B" horiz-adv-x="600" 
d="M309 114c13.333 0 26.168 1.83398 38.501 5.50098s24.166 13.167 35.499 28.5c12.667 18 19 39 19 63c0 14 -2.33301 27.333 -7 40s-11 22.667 -19 30c-10 9.33301 -21 15.166 -33 17.499s-23.333 3.5 -34 3.5h-99v-188h99zM208.002 417.001l94.002 -0.000976562
c10.667 0 21.667 1 33 3s22 8.66699 32 20c6.66699 7.33301 11.667 16 15 26s5 20.333 5 31c0 15.333 -3.33301 29.5 -10 42.5s-16.667 22.167 -30 27.5c-10.667 4.66699 -21.334 7.33398 -32.001 8.00098s-19.334 1 -26.001 1h-81v-159zM305.004 695
c34.667 0 65.998 -3 93.998 -9s54 -19.667 78 -41c17.333 -16 31 -34.167 41 -54.5s15 -43.5 15 -69.5c0 -14.667 -2.66699 -32.834 -8 -54.501s-18.333 -42.167 -39 -61.5c-5.33301 -4.66699 -13.166 -10.5 -23.499 -17.5s-23.833 -13.167 -40.5 -18.5
c13.333 -3.33301 26.333 -8 39 -14s25.334 -14.333 38.001 -25c21.333 -18 36.833 -37.833 46.5 -59.5s14.5 -47.167 14.5 -76.5c0 -27.333 -4.33301 -52.666 -13 -75.999s-21.834 -43.833 -39.501 -61.5s-39.667 -31.5 -66 -41.5s-57.166 -15 -92.499 -15h-279v695h235z
" />
    <glyph glyph-name="C" unicode="C" 
d="M542 53c-22 -18 -48.498 -33.332 -79.498 -45.999s-68.5 -19 -112.5 -19c-55.333 0 -101 9.16699 -137 27.5s-65.667 41.166 -89 68.499c-30 34 -51.5 71.5 -64.5 112.5s-19.5 86.167 -19.5 135.5c0 40.667 4 79.334 12 116.001s19.667 69.667 35 99
c26.667 50 63.5 89.167 110.5 117.5s98.5 42.5 154.5 42.5c25.333 0 48 -2.33301 68 -7s37.333 -10.167 52 -16.5s26.667 -12.5 36 -18.5s15.666 -10.333 18.999 -13l-63 -94c-19.333 16 -39.166 26.5 -59.499 31.5s-36.5 7.5 -48.5 7.5c-26 0 -49.5 -5.66699 -70.5 -17
s-37.5 -25.666 -49.5 -42.999c-8.66699 -12.667 -15.667 -27.334 -21 -44.001s-9.33301 -33.667 -12 -51s-4.33398 -34.333 -5.00098 -51s-1 -31.667 -1 -45c0 -23.333 0.666992 -43.833 2 -61.5s3.16602 -33.334 5.49902 -47.001s5.33301 -25.667 9 -36
s7.83398 -19.833 12.501 -28.5c16 -29.333 36.167 -49.5 60.5 -60.5s48.833 -16.5 73.5 -16.5c21.333 0 42.166 3.83301 62.499 11.5s38.833 18.5 55.5 32.5z" />
    <glyph glyph-name="D" unicode="D" horiz-adv-x="618" 
d="M287 114c17.333 0 33.999 2.83301 49.999 8.5s30.333 16.5 43 32.5s22.667 38.167 30 66.5s11 65.166 11 110.499c0 36.667 -2 72 -6 106s-13.667 63.667 -29 89c-8 14 -17 24.833 -27 32.5s-19.833 13.334 -29.5 17.001s-19.167 6 -28.5 7s-17.666 1.5 -24.999 1.5h-64
v-471h75zM273.999 695c28.667 0 54.001 -2 76.001 -6s41.167 -9.5 57.5 -16.5s30.666 -14.833 42.999 -23.5s23.166 -17.667 32.499 -27c34.667 -34 59.167 -73.833 73.5 -119.5s21.5 -98.167 21.5 -157.5c0 -13.333 -0.666992 -29.333 -2 -48s-4.33301 -38.667 -9 -60
s-11.667 -43.5 -21 -66.5s-22 -45.167 -38 -66.5c-14.667 -19.333 -31.667 -36.833 -51 -52.5s-39.666 -27.167 -60.999 -34.5c-16 -6 -34.667 -10.333 -56 -13s-40.333 -4 -57 -4h-213v695h204z" />
    <glyph glyph-name="E" unicode="E" horiz-adv-x="495" 
d="M70 0v695h396l-18 -114h-238v-161h199v-114h-197v-186h263v-120h-405z" />
    <glyph glyph-name="F" unicode="F" horiz-adv-x="439" 
d="M433 582h-221v-159h177v-114h-177v-309h-142v695h379z" />
    <glyph glyph-name="G" unicode="G" horiz-adv-x="646" 
d="M586 50c-24 -14 -47.167 -25.0029 -69.5 -33.0029s-43.5 -14.167 -63.5 -18.5s-38.5 -7.16602 -55.5 -8.49902s-31.833 -2 -44.5 -2c-29.333 0 -55.833 2.5 -79.5 7.5s-45 12.167 -64 21.5s-36.333 20.5 -52 33.5s-29.834 27.833 -42.501 44.5
c-26 33.333 -45 69.5 -57 108.5s-18 84.167 -18 135.5c0 73.333 11.833 136.5 35.5 189.5s60.5 96.167 110.5 129.5c18 12 40.5 23.167 67.5 33.5s61.167 15.5 102.5 15.5c34.667 0 71.667 -5.66699 111 -17s76.666 -32.666 111.999 -63.999l-75 -87
c-14 12 -28 21.667 -42 29s-27.5 12.833 -40.5 16.5s-24.833 6 -35.5 7s-20 1.5 -28 1.5c-20.667 0 -39.167 -2.66699 -55.5 -8s-31.166 -14.333 -44.499 -27c-14.667 -14 -26 -30.333 -34 -49s-14 -38 -18 -58s-6.33301 -40.333 -7 -61s-1 -40 -1 -58
c0 -13.333 0.333008 -29 1 -47s2.83398 -36.167 6.50098 -54.5s9 -36.166 16 -53.499s16.833 -32 29.5 -44c8.66699 -8 22 -16.5 40 -25.5s41 -13.5 69 -13.5c23.333 0 41.5 2 54.5 6s22.833 7.66699 29.5 11v160h-111l-18 114h271v-335z" />
    <glyph glyph-name="H" unicode="H" horiz-adv-x="623" 
d="M411 0v310h-199v-310h-142v695h142v-270h199v270h142v-695h-142z" />
    <glyph glyph-name="I" unicode="I" horiz-adv-x="282" 
d="M70 0v695h142v-695h-142z" />
    <glyph glyph-name="J" unicode="J" horiz-adv-x="287" 
d="M217 135v-40.999c0 -18.667 -0.5 -35.167 -1.5 -49.5s-3.83301 -29.5 -8.5 -45.5c-7.33301 -24.667 -17.333 -46 -30 -64s-26.667 -33.5 -42 -46.5s-31 -23.833 -47 -32.5s-30.333 -15.334 -43 -20.001l-65 72c11.333 7.33301 25 17.833 41 31.5s29.333 31.167 40 52.5
c6.66699 17.333 10.667 32.333 12 45s2 27 2 43v40v575h142v-560z" />
    <glyph glyph-name="K" unicode="K" horiz-adv-x="587" 
d="M423 0l-211 363v-363h-142v695h142v-317l198 317h172l-222 -322l247 -373h-184z" />
    <glyph glyph-name="L" unicode="L" horiz-adv-x="467" 
d="M437 0h-367v695h142v-579h250z" />
    <glyph glyph-name="M" unicode="M" horiz-adv-x="818" 
d="M631 0l-26.002 370.998c-0.666992 9.33301 -1.16699 15.5 -1.5 18.5s-0.666016 7.33301 -0.999023 13s-0.666016 14.334 -0.999023 26.001s-0.833008 31.167 -1.5 58.5c-4 -21.333 -8.16699 -40.5 -12.5 -57.5s-8.83301 -33.5 -13.5 -49.5l-110 -380h-119l-99 365
c-6.66699 25.333 -12.167 47 -16.5 65s-8.16602 37.333 -11.499 58c-0.666992 -29.333 -1.16699 -50.5 -1.5 -63.5s-0.666016 -22.5 -0.999023 -28.5s-0.666016 -10.5 -0.999023 -13.5s-0.833008 -9.5 -1.5 -19.5l-24 -363h-139l65 695h179l91 -348l10.5 -40
c2.33301 -9.33301 4.16602 -17.666 5.49902 -24.999c1.33301 -5.33301 2.16602 -10.166 2.49902 -14.499s1.16602 -9.16602 2.49902 -14.499c0.666992 -2.66699 1.16699 -5.33398 1.5 -8.00098s0.833008 -5.33398 1.5 -8.00098c2 12 4.16699 24 6.5 36
s4.83301 23.167 7.5 33.5l7 27c2 7.66699 3.33301 13.167 4 16.5l94 345h178l62 -695h-137z" />
    <glyph glyph-name="N" unicode="N" horiz-adv-x="623" 
d="M407 0l-119 265.999l-29.5 65.5l-23 51.5c-7 16 -13.667 32.667 -20 50l-21.5 61c0.666992 -12.667 1.5 -25.167 2.5 -37.5s1.66699 -25.666 2 -39.999s0.833008 -30 1.5 -47s1 -36.167 1 -57.5l4 -312h-135v695h155l133 -278c13.333 -28 26.333 -57.5 39 -88.5
s25 -67.167 37 -108.5c-0.666992 10 -1.66699 23.667 -3 41s-2.5 35.333 -3.5 54l-3 54.5c-1 17.667 -1.5 31.5 -1.5 41.5l-3 284h133v-695h-146z" />
    <glyph glyph-name="O" unicode="O" horiz-adv-x="682" 
d="M341 600c-18 0 -33.5 -2.66699 -46.5 -8s-24 -12 -33 -20s-16.333 -16.167 -22 -24.5s-9.83398 -15.5 -12.501 -21.5c-3.33301 -6.66699 -6.66602 -14.5 -9.99902 -23.5s-6.5 -20.333 -9.5 -34s-5.33301 -30.334 -7 -50.001s-2.5 -43.5 -2.5 -71.5
c0 -27.333 0.833008 -50.833 2.5 -70.5s4 -36.334 7 -50.001s6.16699 -25 9.5 -34s6.66602 -16.833 9.99902 -23.5c4.66699 -9.33301 10 -18.333 16 -27s13.5 -16.5 22.5 -23.5s19.667 -12.667 32 -17s26.833 -6.5 43.5 -6.5s31 2.16699 43 6.5s22.5 10 31.5 17
s16.667 14.833 23 23.5s11.833 17.667 16.5 27c3.33301 6.66699 6.66602 14.5 9.99902 23.5s6.5 20.333 9.5 34s5.33301 30.334 7 50.001s2.5 43.167 2.5 70.5c0 28 -0.833008 51.833 -2.5 71.5s-4 36.334 -7 50.001s-6.16699 25 -9.5 34s-6.66602 16.833 -9.99902 23.5
c-3.33301 6 -7.66602 13.167 -12.999 21.5s-12.5 16.5 -21.5 24.5s-20 14.667 -33 20s-28.5 8 -46.5 8zM341 707c27.333 0 52.166 -2.66699 74.499 -8s42.333 -12.333 60 -21s33.167 -18.5 46.5 -29.5s25 -22.167 35 -33.5c28 -31.333 49.167 -69.833 63.5 -115.5
s21.5 -96.5 21.5 -152.5c0 -55.333 -7.16699 -105.666 -21.5 -150.999s-35.5 -84 -63.5 -116c-10 -11.333 -21.667 -22.5 -35 -33.5s-28.833 -20.833 -46.5 -29.5s-37.667 -15.667 -60 -21s-47.166 -8 -74.499 -8s-52.166 2.66699 -74.499 8s-42.333 12.333 -60 21
s-33.167 18.5 -46.5 29.5s-25 22.167 -35 33.5c-28 32 -49.167 70.667 -63.5 116s-21.5 95.666 -21.5 150.999c0 56 7.16699 106.833 21.5 152.5s35.5 84.167 63.5 115.5c10 11.333 21.667 22.5 35 33.5s28.833 20.833 46.5 29.5s37.667 15.667 60 21s47.166 8 74.499 8z
" />
    <glyph glyph-name="P" unicode="P" horiz-adv-x="568" 
d="M285 370c16 0 29.168 0.667969 39.501 2.00098s18.833 3.5 25.5 6.5s12.167 6.83301 16.5 11.5s8.16602 10 11.499 16s7 14.333 11 25s6 26 6 46c0 17.333 -2.16699 32.333 -6.5 45s-9.5 22.667 -15.5 30c-4.66699 5.33301 -12.667 11.666 -24 18.999s-27.333 11 -48 11
h-89v-212h73zM288.001 695.001c42 0 75.333 -3.49902 100 -10.499s44.667 -14.833 60 -23.5c32.667 -18 57.5 -42.5 74.5 -73.5s25.5 -66.5 25.5 -106.5c0 -14 -1.5 -30 -4.5 -48s-8.83301 -36.333 -17.5 -55s-20.834 -36.667 -36.501 -54s-36.167 -32.333 -61.5 -45
c-9.33301 -4.66699 -18.666 -8.5 -27.999 -11.5s-19.333 -5.33301 -30 -7s-22.5 -2.83398 -35.5 -3.50098s-28.167 -1 -45.5 -1h-77v-256h-142v695h218z" />
    <glyph glyph-name="Q" unicode="Q" horiz-adv-x="680" 
d="M482 347c0 69.333 -6.33398 123 -19.001 161c-2.66699 8.66699 -7 18.334 -13 29.001s-14 20.667 -24 30s-22 17.166 -36 23.499s-30.333 9.5 -49 9.5c-23.333 0 -44.666 -5.66699 -63.999 -17s-34 -27.333 -44 -48c-23.333 -44 -35 -107.333 -35 -190
c0 -120.667 20.667 -195.667 62 -225c22 -16 49.667 -24 83 -24c48.667 0 84 19.667 106 59s33 103.333 33 192zM675.999 -118c-4 -2 -8.99902 -4.00195 -14.999 -6.00195c-5.33301 -1.33301 -11.833 -2.66602 -19.5 -3.99902s-16.834 -2 -27.501 -2
c-13.333 0 -26.333 1.83301 -39 5.5s-24.5 8 -35.5 13s-21 10.333 -30 16l-23.5 14.5c-16.667 11.333 -37.5 23.666 -62.5 36.999s-51.167 24.333 -78.5 33c-52 0 -95.833 7.66699 -131.5 23s-66.834 40.333 -93.501 75c-53.333 68.667 -80 154.667 -80 258
c0 75.333 13.667 141.5 41 198.5s66 99.167 116 126.5c20.667 12.667 43.334 22 68.001 28s50 9 76 9c46 0 87.5 -8.16699 124.5 -24.5s68.5 -39.833 94.5 -70.5s45.833 -68 59.5 -112s20.5 -93.667 20.5 -149c0 -76 -12.333 -141.167 -37 -195.5s-58 -95.5 -100 -123.5
c9.33301 -3.33301 20 -8.66602 32 -15.999s22 -13.666 30 -18.999c12.667 -7.33301 26.334 -14 41.001 -20s29.667 -9 45 -9c7.33301 0 14.666 0.166992 21.999 0.5s14 0.833008 20 1.5c7.33301 0.666992 14 1.66699 20 3z" />
    <glyph glyph-name="R" unicode="R" horiz-adv-x="589" 
d="M259 395c19.333 0 38.502 1.00098 57.502 3.00098s34.833 8.66699 47.5 20c7.33301 6.66699 13.666 15.667 18.999 27s8 25.666 8 42.999c0 6.66699 -0.5 14 -1.5 22s-3.33301 16 -7 24s-8.83398 15.5 -15.501 22.5s-15.334 12.5 -26.001 16.5
c-12.667 4.66699 -26.167 7.5 -40.5 8.5s-27.166 1.5 -38.499 1.5h-50v-188h47zM212.002 0.000976562l-142 -0.000976562v695h264c24.667 0 49.667 -3.66699 75 -11s49.333 -22 72 -44c23.333 -22.667 38.666 -47.667 45.999 -75s11 -52 11 -74s-2.5 -41.833 -7.5 -59.5
s-11.5 -33.5 -19.5 -47.5s-17 -26.167 -27 -36.5s-20 -18.833 -30 -25.5c-13.333 -8.66699 -25.666 -14.5 -36.999 -17.5s-22.666 -4.83301 -33.999 -5.5c3.33301 -2 7.16602 -5 11.499 -9s10.166 -10.667 17.499 -20c4 -4.66699 9 -11.334 15 -20.001s15 -22.667 27 -42
l48 -78.5l77 -129.5h-165c-4.66699 6.66699 -8.33398 12.5 -11.001 17.5l-7 13.5c-2 4 -4.16699 7.83301 -6.5 11.5s-4.83301 8.16699 -7.5 13.5c-2 4 -3.83301 7.33301 -5.5 10s-3.5 5.83398 -5.5 9.50098l-8 14l-14 24.5l-36 65l-25.5 43l-17.5 27.5
c-4.66699 7 -9 12.5 -13 16.5c-3.33301 3.33301 -6.66602 6.5 -9.99902 9.5s-7.66602 5.83301 -12.999 8.5s-9.83301 4.33398 -13.5 5.00098s-6.5 1 -8.5 1v-290z" />
    <glyph glyph-name="S" unicode="S" horiz-adv-x="584" 
d="M476 546c-23.333 15.333 -49.001 28.0059 -77.001 38.0059s-56 15 -84 15c-10 0 -20.5 -1 -31.5 -3s-21.833 -6.66699 -32.5 -14c-10 -6.66699 -18.167 -15.334 -24.5 -26.001s-9.5 -24 -9.5 -40c0 -5.33301 0.833008 -11.166 2.5 -17.499s5.16699 -12.5 10.5 -18.5
c3.33301 -3.33301 9.33301 -7.83301 18 -13.5s24 -11.5 46 -17.5l84 -23c22 -6 44.333 -14.5 67 -25.5s43.334 -27.167 62.001 -48.5c12 -13.333 22.833 -30.666 32.5 -51.999s14.5 -48.333 14.5 -81c0 -39.333 -7.16699 -71.833 -21.5 -97.5s-29.5 -46.167 -45.5 -61.5
c-10 -9.33301 -21.833 -18.5 -35.5 -27.5s-29.5 -17 -47.5 -24s-38.333 -12.667 -61 -17s-48 -6.5 -76 -6.5c-27.333 0 -53 2.16699 -77 6.5s-46 9.66602 -66 15.999s-38 13.166 -54 20.499s-29.333 14 -40 20l52 109c22 -12.667 49.5 -25.167 82.5 -37.5
s69.167 -18.5 108.5 -18.5c19.333 0 37 2 53 6s30.667 12 44 24c5.33301 5.33301 10.833 13.166 16.5 23.499s8.5 24.166 8.5 41.499c0 13.333 -2.16699 24.5 -6.5 33.5s-9.16602 16.167 -14.499 21.5c-9.33301 9.33301 -20.666 16.666 -33.999 21.999
s-25.333 9.66602 -36 12.999l-77 21c-38.667 10.667 -68 23.167 -88 37.5s-36.333 31.166 -49 50.499c-6 9.33301 -12.333 22.333 -19 39s-10 39 -10 67c0 10.667 1 22.5 3 35.5s5.66699 26.5 11 40.5s12.666 27.833 21.999 41.5s21.333 26.834 36 39.501
c27.333 23.333 56.666 38.833 87.999 46.5s61 11.5 89 11.5c31.333 0 60 -2.83301 86 -8.5s48.833 -12.334 68.5 -20.001s36 -15.5 49 -23.5s22.5 -14 28.5 -18z" />
    <glyph glyph-name="T" unicode="T" horiz-adv-x="491" 
d="M488 580h-166v-580h-142v580h-170v115h501z" />
    <glyph glyph-name="U" unicode="U" horiz-adv-x="636" 
d="M568 194c0 -11.333 -0.498047 -22.8359 -1.49805 -34.5029s-4.16699 -25.167 -9.5 -40.5c-14.667 -42 -43 -74.333 -85 -97s-92.333 -34 -151 -34c-19.333 0 -39.5 1.33301 -60.5 4s-41.333 7.33398 -61 14.001s-38.334 16 -56.001 28s-32.834 27.667 -45.501 47
c-12.667 18.667 -20.834 37.834 -24.501 57.501s-5.5 44.167 -5.5 73.5v483h142v-456c0 -25.333 1.16699 -43.666 3.5 -54.999s5.5 -20.666 9.5 -27.999c2.66699 -5.33301 6.5 -10.833 11.5 -16.5s11.167 -10.834 18.5 -15.501s16.333 -8.5 27 -11.5
s23.334 -4.5 38.001 -4.5c14 0 26 1.33301 36 4s18.5 6 25.5 10s12.667 8 17 12s7.5 7.33301 9.5 10c9.33301 11.333 15 23.5 17 36.5s3 25.5 3 37.5v477h142v-501z" />
    <glyph glyph-name="V" unicode="V" horiz-adv-x="565" 
d="M343 -5l-127.001 -0.000976562l-236 700h153l115 -362c3.33301 -10.667 7.33301 -24.667 12 -42s11.334 -43.666 20.001 -78.999c5.33301 25.333 11.333 49 18 71s14 44.667 22 68l118 344h147z" />
    <glyph glyph-name="W" unicode="W" horiz-adv-x="832" 
d="M496 695l64 -310.998c2 -9.33301 4.33301 -22.166 7 -38.499l8.5 -51.5l8.5 -52c2.66699 -16.667 4.66699 -30.334 6 -41.001c1.33301 11.333 3.5 27.333 6.5 48s6.33301 42.334 10 65.001s7.5 44.5 11.5 65.5l10 51.5l57 264h147l-168 -701h-153l-62 283
c-3.33301 14.667 -6.66602 31 -9.99902 49s-6.5 36.167 -9.5 54.5s-5.66699 36 -8 53s-4.16602 32.167 -5.49902 45.5c-5.33301 -47.333 -11 -87 -17 -119s-11.333 -59 -16 -81l-58 -285h-159l-166 701h148l60 -274c8.66699 -40 16.167 -79.833 22.5 -119.5
s11.166 -75.834 14.499 -108.501l7 55.5c2 15.667 4.16699 31.167 6.5 46.5s5.16602 32.166 8.49902 50.499s8 41.166 14 68.499l62 281h153z" />
    <glyph glyph-name="X" unicode="X" 
d="M408 0l-125 245l-124 -245h-174l218 372l-188 323h171l94 -187l95 187h167l-181 -314l216 -381h-169z" />
    <glyph glyph-name="Y" unicode="Y" horiz-adv-x="534" 
d="M335 286v-286h-142v286l-218 409h168l89 -190l18 -39.5c6 -13.667 11.667 -30.167 17 -49.5l37 87l90 192h165z" />
    <glyph glyph-name="Z" unicode="Z" horiz-adv-x="530" 
d="M464 0l-433.996 -0.000976562v98l256 423c5.33301 8.66699 12.166 19 20.499 31l22.5 32c-4.66699 0 -10.334 -0.333008 -17.001 -1s-13.5 -1.16699 -20.5 -1.5s-13.667 -0.666016 -20 -0.999023s-10.833 -0.5 -13.5 -0.5h-214l31 115h416v-101l-258 -435
c-4.66699 -7.33301 -10.334 -15.5 -17.001 -24.5s-13 -17.167 -19 -24.5c13.333 2 25.166 3.33301 35.499 4s21.5 1 33.5 1h234z" />
    <glyph glyph-name="bracketleft" unicode="[" horiz-adv-x="300" 
d="M70 -156v888h210v-90h-90v-708h90v-90h-210z" />
    <glyph glyph-name="backslash" unicode="\" horiz-adv-x="433" 
d="M310 -53l-300 779l114 35l299 -779z" />
    <glyph glyph-name="bracketright" unicode="]" horiz-adv-x="300" 
d="M20 -156v90h90v708h-90v90h210v-888h-210z" />
    <glyph glyph-name="asciicircum" unicode="^" horiz-adv-x="596" 
d="M409 343l-111 238l-112 -238h-141l180 365h146l180 -365h-142z" />
    <glyph glyph-name="underscore" unicode="_" horiz-adv-x="500" 
d="M0 -125v50h500v-50h-500z" />
    <glyph glyph-name="grave" unicode="`" horiz-adv-x="325" 
d="M254 557l-224 100l58 104l207 -130z" />
    <glyph glyph-name="a" unicode="a" horiz-adv-x="512" 
d="M303 224c-7.33301 0 -15.499 -0.168945 -24.499 -0.501953s-18.333 -1.16602 -28 -2.49902s-18.834 -3.16602 -27.501 -5.49902s-16 -5.83301 -22 -10.5c-10.667 -8 -17.167 -17.667 -19.5 -29s-3.5 -20.333 -3.5 -27c0 -21.333 5.5 -38.333 16.5 -51
s25.167 -19 42.5 -19c13.333 0 26 3.16699 38 9.5s22.667 14.833 32 25.5l2 110h-6zM417.001 -26.002c-12 5.33301 -24.667 12.8369 -38 22.5039s-24.666 22.834 -33.999 39.501c-7.33301 -7.33301 -13 -12.833 -17 -16.5s-8.66699 -7.16699 -14 -10.5
c-9.33301 -7.33301 -22 -13.833 -38 -19.5s-37.667 -8.5 -65 -8.5c-55.333 0 -98 13.333 -128 40c-12 11.333 -23 26.666 -33 45.999s-15 44 -15 74c0 33.333 6.66699 62.666 20 87.999s36.333 45.666 69 60.999c20.667 9.33301 45 16.166 73 20.499s55.333 6.5 82 6.5h16
c5.33301 0 10.666 -0.333008 15.999 -1v21c0 29.333 -4 49.5 -12 60.5s-23.667 16.5 -47 16.5c-26.667 0 -53.167 -6 -79.5 -18s-49.5 -25.667 -69.5 -41l-57 96c16.667 10.667 31.167 19 43.5 25s25.166 11.667 38.499 17c22 9.33301 42.833 16.833 62.5 22.5
s44.5 8.5 74.5 8.5c26 0 48.5 -2.33301 67.5 -7s35.167 -11 48.5 -19s24.333 -17.5 33 -28.5s15.334 -22.833 20.001 -35.5c4 -11.333 6.5 -25.5 7.5 -42.5s1.5 -30.5 1.5 -40.5v-9l-3 -172c0 -3.33301 -0.166992 -7 -0.5 -11s-0.5 -7.66699 -0.5 -11
c0 -14.667 2.83301 -29.834 8.5 -45.501s19.167 -31.167 40.5 -46.5z" />
    <glyph glyph-name="b" unicode="b" horiz-adv-x="551" 
d="M202 137c9.33301 -8 20.001 -15.833 32.001 -23.5s27.667 -11.5 47 -11.5c32.667 0 54.334 14 65.001 42c6 14 10 29.333 12 46s3 40.667 3 72c0 23.333 -0.333008 40.833 -1 52.5s-2.33398 23.167 -5.00098 34.5c-5.33301 21.333 -14.5 37.333 -27.5 48
s-28.167 16 -45.5 16c-18.667 0 -34.334 -4.33301 -47.001 -13s-23.667 -17.667 -33 -27v-236zM202.001 529c0 -7.33301 -0.169922 -15.668 -0.50293 -25.001s-1.16602 -16 -2.49902 -20c26 26.667 62.333 40 109 40c31.333 0 59.5 -6 84.5 -18s46.333 -29.333 64 -52
s31.167 -49.834 40.5 -81.501s14 -67.5 14 -107.5c0 -52 -7.83301 -97.833 -23.5 -137.5s-39.5 -72.167 -71.5 -97.5c-17.333 -15.333 -35 -26.166 -53 -32.499s-37.667 -9.5 -59 -9.5c-25.333 0 -47 3.83301 -65 11.5s-34.333 20.167 -49 37.5
c-2 -9.33301 -3.66699 -16 -5 -20s-4.33301 -9.66699 -9 -17h-119c2.66699 6 4.83398 11.667 6.50098 17s3 11.833 4 19.5s1.66699 17.167 2 28.5s0.5 26 0.5 44v474c0 32 -0.666992 57.333 -2 76s-3.66602 35.334 -6.99902 50.001l136 32c2 -17.333 3.33301 -32.5 4 -45.5
s1 -28.167 1 -45.5v-121z" />
    <glyph glyph-name="c" unicode="c" horiz-adv-x="455" 
d="M435 58c-9.33301 -9.33301 -17.6631 -17.002 -24.9961 -23.002s-14.666 -11 -21.999 -15c-24 -14 -47 -22.833 -69 -26.5s-40.667 -5.5 -56 -5.5c-30.667 0 -59.334 4.66699 -86.001 14s-50.667 25.666 -72 48.999c-13.333 14.667 -24.333 30.334 -33 47.001
s-15.334 33.667 -20.001 51s-7.83398 34.833 -9.50098 52.5s-2.5 34.5 -2.5 50.5c0 40.667 4.5 75.334 13.5 104.001s19.5 52.334 31.5 71.001s23.667 32.834 35 42.501s19.666 16.167 24.999 19.5c9.33301 6 19.833 11.333 31.5 16s23.334 8.33398 35.001 11.001
s23 4.66699 34 6s20.833 2 29.5 2c25.333 0 45.833 -2.83301 61.5 -8.5s27.167 -10.5 34.5 -14.5c9.33301 -5.33301 18 -10.666 26 -15.999s16 -12 24 -20l-65 -88c-16.667 15.333 -31.834 25.833 -45.501 31.5s-26.5 8.5 -38.5 8.5c-19.333 0 -34.166 -5.5 -44.499 -16.5
s-17.833 -21.5 -22.5 -31.5c-4 -8.66699 -7.83301 -22.5 -11.5 -41.5s-5.5 -47.5 -5.5 -85.5c0 -8 0.166992 -17.333 0.5 -28s1.5 -21.834 3.5 -33.501s4.66699 -22.834 8 -33.501s8 -20 14 -28c6 -7.33301 14.167 -14 24.5 -20s22.166 -9 35.499 -9
c9.33301 0 18.166 1.16699 26.499 3.5s15.833 5.16602 22.5 8.49902c9.33301 4.66699 17.5 9.66699 24.5 15s13.167 10.333 18.5 15l8 7z" />
    <glyph glyph-name="d" unicode="d" horiz-adv-x="549" 
d="M349 379c-16.667 15.333 -31.665 24.665 -44.998 27.998s-23.333 5 -30 5c-9.33301 0 -19.833 -2.16699 -31.5 -6.5s-22.167 -15.166 -31.5 -32.499c-6 -12 -11 -27.667 -15 -47s-6 -46 -6 -80c0 -10 0.166992 -21 0.5 -33s1.5 -24 3.5 -36s5.16699 -23.167 9.5 -33.5
s10.5 -18.833 18.5 -25.5c1.33301 -1.33301 6.66602 -4.66602 15.999 -9.99902s22.666 -8 39.999 -8c10 0 21.333 2 34 6s25 13 37 27v246zM379.002 -0.000976562c-2.66699 5.33301 -4.33301 9.83203 -5 13.499l-3 16.5c-17.333 -14 -35.166 -24.5 -53.499 -31.5
s-39.833 -10.5 -64.5 -10.5c-32 0 -61.333 5.83301 -88 17.5s-50 30.5 -70 56.5c-19.333 24 -33.333 51.5 -42 82.5s-13 65.167 -13 102.5c0 44 5.33301 83 16 117s25 62.333 43 85c21.333 26.667 46.5 45.834 75.5 57.501s57.5 17.5 85.5 17.5c25.333 0 45 -3.66699 59 -11
s24.667 -15 32 -23c-0.666992 4 -1.33398 9.33301 -2.00098 16s-1.16699 13.5 -1.5 20.5s-0.5 14 -0.5 21v16.5v176l132 -21v-532c0 -25.333 0.166992 -47.5 0.5 -66.5s1.33301 -35.833 3 -50.5s3.66699 -27.5 6 -38.5s5.5 -21.5 9.5 -31.5h-119z" />
    <glyph glyph-name="e" unicode="e" horiz-adv-x="506" 
d="M342 318c0 13.333 -0.832031 27.333 -2.49902 42s-7.16699 28 -16.5 40c-7.33301 9.33301 -16 16 -26 20s-20 6 -30 6c-24 0 -42.667 -8.33301 -56 -25c-10.667 -12.667 -17.334 -27.167 -20.001 -43.5s-4 -30.833 -4 -43.5v-2h155v6zM185.001 214l-0.00292969 -11.0049
c0 -18.667 3 -35.667 9 -51s14 -27.666 24 -36.999c11.333 -11.333 23.833 -18.666 37.5 -21.999s26.834 -5 39.501 -5c4.66699 0 11.334 0.333008 20.001 1s18.5 2.83398 29.5 6.50098s23.167 8.83398 36.5 15.501s27.333 16 42 28l52 -80
c-32.667 -27.333 -66 -46 -100 -56s-65 -15 -93 -15c-35.333 0 -67.666 6 -96.999 18s-54.666 28.667 -75.999 50c-19.333 20 -35.666 46 -48.999 78s-20 73 -20 123c0 48.667 5.83301 88.334 17.5 119.001s27.167 56.667 46.5 78c25.333 28 51.5 46.667 78.5 56
s54.5 14 82.5 14c34.667 0 64.167 -5.33301 88.5 -16s44.166 -23.667 59.499 -39c16 -16 28.5 -34 37.5 -54s15.667 -40.167 20 -60.5s7.16602 -40 8.49902 -59s2 -35.833 2 -50.5v-31h-296z" />
    <glyph glyph-name="f" unicode="f" horiz-adv-x="305" 
d="M312 626c-14.667 7.33301 -25.501 12 -32.501 14s-14.5 3 -22.5 3c-17.333 0 -31 -5 -41 -15s-15 -24.333 -15 -43v-73h130l-34 -92h-95v-420h-132v420h-46v92h49c-1.33301 10.667 -2.5 22.167 -3.5 34.5s-1.5 24.166 -1.5 35.499c0 50.667 14.333 89.834 43 117.501
s69.334 41.5 122.001 41.5c22 0 42.667 -2.5 62 -7.5s39.333 -13.167 60 -24.5z" />
    <glyph glyph-name="g" unicode="g" horiz-adv-x="553" 
d="M341 347c0 24 -7.33105 42.666 -21.998 55.999s-34.334 20 -59.001 20c-25.333 0 -45 -6.66699 -59 -20s-21 -32 -21 -56c0 -17.333 3.16699 -31 9.5 -41s13.666 -17.333 21.999 -22s17 -7.5 26 -8.5s16.167 -1.5 21.5 -1.5c4.66699 0 11.667 0.5 21 1.5
s18.5 3.83301 27.5 8.5s16.833 11.834 23.5 21.501s10 23.5 10 41.5zM577.002 455.999c-14 -13.333 -28.499 -23.002 -43.499 -29.002s-31.167 -9 -48.5 -9h-10c-3.33301 0 -6.66602 0.333008 -9.99902 1l-17 2c11.333 -13.333 19.166 -27.166 23.499 -41.499
s6.5 -27.5 6.5 -39.5c0 -14 -3 -31.167 -9 -51.5s-19.667 -39.5 -41 -57.5c-18.667 -15.333 -40 -26.833 -64 -34.5s-48.333 -11.5 -73 -11.5h-11c-4 0 -7.66699 0.333008 -11 1l-16 -7c-6 -2.66699 -11.833 -5.66699 -17.5 -9s-10.334 -7.33301 -14.001 -12
s-5.5 -9.33398 -5.5 -14.001c0 -5.33301 2.83301 -8.66602 8.5 -9.99902s10.167 -2 13.5 -2l72 -1c10.667 0 22.5 -0.333008 35.5 -1s26.333 -2.5 40 -5.5s27.334 -7.5 41.001 -13.5s26.5 -14.667 38.5 -26c13.333 -11.333 24 -25.666 32 -42.999s12 -39.333 12 -66
c0 -17.333 -2.83301 -35 -8.5 -53s-16.5 -35.667 -32.5 -53c-14 -14.667 -29.833 -26.334 -47.5 -35.001s-35.667 -15.334 -54 -20.001s-36.166 -7.66699 -53.499 -9s-33 -2 -47 -2c-40.667 0 -77.667 4 -111 12s-61 22.333 -83 43c-17.333 16.667 -28.666 33 -33.999 49
s-8 30 -8 42c0 5.33301 0.666992 13.166 2 23.499s4.66602 19.833 9.99902 28.5h124c-3.33301 -6.66699 -5.16602 -13 -5.49902 -19s-0.5 -10.667 -0.5 -14c0 -7.33301 1.16699 -14.666 3.5 -21.999s7 -14 14 -20s16.833 -11 29.5 -15s29 -6 49 -6c11.333 0 25 1 41 3
s30.333 6.66699 43 14c7.33301 4 14.666 10.333 21.999 19s11 19.667 11 33c0 9.33301 -2.33301 18 -7 26s-10.334 14.333 -17.001 19c-5.33301 4 -11.666 7 -18.999 9s-14.5 3.5 -21.5 4.5s-13.167 1.66699 -18.5 2s-9 0.5 -11 0.5l-57 1
c-36 0.666992 -63 2.33398 -81 5.00098s-32 6.33398 -42 11.001c-8 3.33301 -16.5 9.66602 -25.5 18.999s-13.5 25.333 -13.5 48c0 5.33301 0.5 11.333 1.5 18s3.5 13.334 7.5 20.001c7.33301 12 19.666 22.333 36.999 31s33.333 14.334 48 17.001
c-18 4 -33.5 10.167 -46.5 18.5s-23.833 17.166 -32.5 26.499c-12.667 14 -21.167 29 -25.5 45s-6.5 33.333 -6.5 52c0 29.333 5.33301 54.5 16 75.5s25 38.833 43 53.5c21.333 16.667 45.833 28.667 73.5 36s54.5 11 80.5 11c18.667 0 36 -1.5 52 -4.5
s30.667 -6.16699 44 -9.5l35.5 -10c7 -2 15.5 -3 25.5 -3c21.333 0 41.166 4 59.499 12s34.5 18.667 48.5 32z" />
    <glyph glyph-name="h" unicode="h" 
d="M360 0v342c0 10.667 -1 21.334 -3 32.001s-5.66699 19 -11 25c-5.33301 5.33301 -11 8.83301 -17 10.5s-11.667 2.5 -17 2.5c-20 0 -39.667 -4.5 -59 -13.5s-36.333 -19.5 -51 -31.5v-367h-132v592c0 32 -1 56.667 -3 74s-4.33301 31.666 -7 42.999l133 32
c2.66699 -14 4.83398 -30 6.50098 -48s2.5 -43.667 2.5 -77v-102l-2 -43c26 21.333 52.333 35.5 79 42.5s48.667 10.5 66 10.5c9.33301 0 20.166 -0.833008 32.499 -2.5s24.833 -5 37.5 -10s24.5 -12.167 35.5 -21.5s20.167 -21.666 27.5 -36.999
c5.33301 -12.667 9 -27.334 11 -44.001s3 -31.667 3 -45v-364h-132z" />
    <glyph glyph-name="i" unicode="i" horiz-adv-x="274" 
d="M71 0v503l132 21v-524h-132zM220 653c0 -23.333 -8 -43 -24 -59s-35.667 -24 -59 -24s-42.833 8 -58.5 24s-23.5 35.667 -23.5 59s8.16699 43 24.5 59s36.166 24 59.499 24c22.667 0 41.834 -8 57.501 -24s23.5 -35.667 23.5 -59z" />
    <glyph glyph-name="j" unicode="j" horiz-adv-x="273" 
d="M202 14c0 -34.667 -2.66602 -65.001 -7.99902 -91.001s-15 -48.667 -29 -68c-11.333 -15.333 -26.333 -29.666 -45 -42.999s-38.334 -24 -59.001 -32l-56 74c12 10 22.167 20.333 30.5 31s14.5 19.667 18.5 27c7.33301 12.667 11.833 26.667 13.5 42s2.5 34 2.5 56v481
l132 32v-509zM221.001 654.999c0 -11.333 -2.16699 -22.166 -6.5 -32.499s-10.333 -19.333 -18 -27s-16.5 -13.667 -26.5 -18s-21 -6.5 -33 -6.5c-23.333 0 -42.833 7.83301 -58.5 23.5s-23.5 35.167 -23.5 58.5s8 43.166 24 59.499s35.667 24.5 59 24.5
s43 -7.83301 59 -23.5s24 -35.167 24 -58.5z" />
    <glyph glyph-name="k" unicode="k" horiz-adv-x="515" 
d="M70 0v576.999c0 33.333 -1 60.5 -3 81.5s-4 38.167 -6 51.5l133 33c2.66699 -20.667 4.66699 -43.667 6 -69s2 -57.666 2 -96.999v-577h-132zM377 -0.000976562l-172 290l131 222h161l-163 -214l201 -298h-158z" />
    <glyph glyph-name="l" unicode="l" horiz-adv-x="281" 
d="M281 2c-16.667 -6.66699 -32.333 -10.667 -47 -12s-25.667 -2 -33 -2c-33.333 0 -59.5 6.83301 -78.5 20.5s-32.5 30.167 -40.5 49.5c-5.33301 12.667 -8.66602 25.834 -9.99902 39.501s-2 26.5 -2 38.5v419v36c0 11.333 -0.333008 23 -1 35s-1.33398 24.667 -2.00098 38
s-2 28.333 -4 45l137 31c3.33301 -20 5.33301 -37.5 6 -52.5s1 -31.833 1 -50.5v-30v-462c0 -6.66699 0.5 -15.334 1.5 -26.001s3.5 -19 7.5 -25c3.33301 -5.33301 7.83301 -9 13.5 -11s10.167 -3 13.5 -3h3h3h2.5c1 0 3.16699 0.666992 6.5 2z" />
    <glyph glyph-name="m" unicode="m" horiz-adv-x="792" 
d="M592 0l0.00292969 338.004c0 16.667 -0.5 29.834 -1.5 39.501s-3.83301 17.167 -8.5 22.5s-9.83398 8.5 -15.501 9.5s-10.167 1.5 -13.5 1.5c-18.667 0 -36.167 -4.83301 -52.5 -14.5s-29.5 -19.167 -39.5 -28.5v-368h-130v333c0 17.333 -0.5 29.833 -1.5 37.5
s-2.16699 13.5 -3.5 17.5c-3.33301 9.33301 -8.16602 15.666 -14.499 18.999s-14.166 5 -23.499 5c-8.66699 0 -16.5 -0.833008 -23.5 -2.5s-13.167 -3.83398 -18.5 -6.50098c-15.333 -6 -30.666 -16 -45.999 -30v-373h-130v357c0 20.667 -0.5 38.167 -1.5 52.5
s-2.16699 26.5 -3.5 36.5s-3.33301 18.167 -6 24.5s-5.33398 12.166 -8.00098 17.499l120 33l5.5 -9c1.66699 -2.66699 3.16699 -6.33398 4.5 -11.001s2.66602 -9.83398 3.99902 -15.501l4 -16.5c17.333 18.667 36.666 32.5 57.999 41.5s43.666 13.5 66.999 13.5
c17.333 0 35 -3 53 -9s35 -18 51 -36c3.33301 -3.33301 6.33301 -6.83301 9 -10.5l11 -14.5c12.667 15.333 25.667 27.5 39 36.5s26.333 16 39 21s24.667 8.33301 36 10s22 2.5 32 2.5c27.333 0 48.166 -3.5 62.499 -10.5s26.833 -15.167 37.5 -24.5
c4.66699 -4 9.33398 -8.66699 14.001 -14s8.66699 -12.5 12 -21.5s6.16602 -20.667 8.49902 -35s3.5 -32.5 3.5 -54.5v-364h-130z" />
    <glyph glyph-name="n" unicode="n" horiz-adv-x="542" 
d="M340 0l-0.00488281 333.003c0 15.333 -0.666992 28.166 -2 38.499s-4.66602 18.5 -9.99902 24.5c-4.66699 5.33301 -9.5 8.66602 -14.5 9.99902s-9.83301 2 -14.5 2c-7.33301 0 -15.166 -0.833008 -23.499 -2.5s-17.166 -5.16699 -26.499 -10.5
c-7.33301 -4 -15.166 -9 -23.499 -15s-16.166 -12 -23.499 -18v-362h-132v371c0 14.667 -0.833008 32 -2.5 52s-6.83398 42.667 -15.501 68l117 34c4.66699 -7.33301 8.83398 -16 12.501 -26s5.83398 -22.667 6.50098 -38l17 12c4.66699 3.33301 9.5 7 14.5 11
s13.5 9.33301 25.5 16c5.33301 3.33301 16.5 8.16602 33.5 14.499s37.167 9.5 60.5 9.5c33.333 0 60.166 -7.66699 80.499 -23s34.5 -33.333 42.5 -54c5.33301 -13.333 8.33301 -26.5 9 -39.5s1 -24.167 1 -33.5v-374h-132z" />
    <glyph glyph-name="o" unicode="o" horiz-adv-x="536" 
d="M268 426c-8 0 -17.333 -1.5 -28 -4.5s-20.667 -10.833 -30 -23.5c-10.667 -14 -17.834 -32.667 -21.501 -56s-5.5 -52 -5.5 -86s1.83301 -62.667 5.5 -86s10.834 -42 21.501 -56c9.33301 -12.667 19.333 -20.5 30 -23.5s20 -4.5 28 -4.5s17.333 1.5 28 4.5
s20.667 10.833 30 23.5c10.667 14 17.834 32.667 21.501 56s5.5 52 5.5 86s-1.83301 62.667 -5.5 86s-10.834 42 -21.501 56c-9.33301 12.667 -19.333 20.5 -30 23.5s-20 4.5 -28 4.5zM268 524c31.333 0 61.333 -5.16699 90 -15.5s55.334 -29.5 80.001 -57.5
c26.667 -30 43.834 -61.5 51.501 -94.5s11.5 -66.5 11.5 -100.5s-3.83301 -67.5 -11.5 -100.5s-24.834 -64.5 -51.501 -94.5c-24.667 -28 -51.334 -47.167 -80.001 -57.5s-58.667 -15.5 -90 -15.5s-61.333 5.16699 -90 15.5s-55.334 29.5 -80.001 57.5
c-26.667 30 -43.834 61.5 -51.501 94.5s-11.5 66.5 -11.5 100.5s3.83301 67.5 11.5 100.5s24.834 64.5 51.501 94.5c24.667 28 51.334 47.167 80.001 57.5s58.667 15.5 90 15.5z" />
    <glyph glyph-name="p" unicode="p" horiz-adv-x="555" 
d="M202 125c11.333 -9.33301 23.667 -16.668 37 -22.001s26.666 -8 39.999 -8c20 0 35.833 4.83301 47.5 14.5s20.167 19.5 25.5 29.5c5.33301 11.333 9.5 27.5 12.5 48.5s4.5 44.167 4.5 69.5c0 34 -1.33301 59.167 -4 75.5s-5.66699 28.833 -9 37.5
c-6.66699 17.333 -15.5 28.833 -26.5 34.5s-23.167 8.5 -36.5 8.5c-20.667 0 -38.667 -4.16699 -54 -12.5s-27.666 -17.166 -36.999 -26.499v-249zM184.001 521.998c3.33301 -8 5.33398 -15.1689 6.00098 -21.502s1.66699 -15.166 3 -26.499l13 12.5
c6 5.66699 14 11.167 24 16.5s22.333 10.166 37 14.499s32 6.5 52 6.5c12.667 0 27.5 -2 44.5 -6s35.833 -12.667 56.5 -26c21.333 -14 38.333 -30.833 51 -50.5s22.167 -40.167 28.5 -61.5s10.5 -42.5 12.5 -63.5s3 -39.833 3 -56.5c0 -51.333 -5.66699 -93.333 -17 -126
s-29.333 -61.667 -54 -87c-5.33301 -5.33301 -12 -11.333 -20 -18s-17.667 -13 -29 -19s-24.333 -11.167 -39 -15.5s-31 -6.5 -49 -6.5c-4.66699 0 -11 0.333008 -19 1s-16.833 2 -26.5 4s-19.834 4.83301 -30.501 8.5s-21 8.5 -31 14.5c1.33301 -10 2 -17 2 -21v-10v-11
v-160l-132 -35v593c0 20.667 -0.166992 38.334 -0.5 53.001s-1 26.834 -2 36.501s-2 17.667 -3 24l-2.5 15.5z" />
    <glyph glyph-name="q" unicode="q" horiz-adv-x="556" 
d="M354 378c-9.33301 10.667 -20.668 19.335 -34.001 26.002s-27.666 10 -42.999 10c-20 0 -36 -4.83301 -48 -14.5s-21.167 -21.834 -27.5 -36.501s-10.333 -30.667 -12 -48s-2.5 -34 -2.5 -50c0 -16.667 0.5 -34.667 1.5 -54s4.33301 -37.333 10 -54
s14.5 -30.667 26.5 -42s29.333 -17 52 -17c15.333 0 30 4.16699 44 12.5s25 17.166 33 26.499v241zM497.998 512.001c-4.66699 -19.333 -7.83105 -41.499 -9.49805 -66.499s-2.5 -52.833 -2.5 -83.5v-549l-132 -35v194c0 10 0.166992 19.833 0.5 29.5
s1.16602 17.167 2.49902 22.5c-27.333 -24 -61.333 -36 -102 -36c-38.667 0 -71.5 7.16699 -98.5 21.5s-49.167 33.5 -66.5 57.5s-30 51.667 -38 83s-12 64 -12 98c0 46 4 84.167 12 114.5s21.333 57.5 40 81.5c19.333 24 43 43.333 71 58s57.667 22 89 22
c13.333 0 26.5 -1.33301 39.5 -4s25 -6.33398 36 -11.001s20.5 -10.167 28.5 -16.5s13.333 -12.833 16 -19.5c0.666992 9.33301 1.66699 16.333 3 21s3.66602 10.667 6.99902 18h116z" />
    <glyph glyph-name="r" unicode="r" horiz-adv-x="347" 
d="M325 395c-7.33301 4.66699 -14.335 7.50098 -21.002 8.50098s-12.667 1.5 -18 1.5c-20 0 -36.667 -4.83301 -50 -14.5s-24 -19.167 -32 -28.5v-362h-134v342c0 42.667 -2.16699 75.5 -6.5 98.5s-8.5 40.167 -12.5 51.5l120 32c3.33301 -5.33301 7.33301 -13.833 12 -25.5
s7.66699 -27.5 9 -47.5c8.66699 11.333 17.334 21 26.001 29s16.334 14.667 23.001 20c10.667 7.33301 21.667 13.166 33 17.499s24 6.5 38 6.5c19.333 0 36 -3.66699 50 -11z" />
    <glyph glyph-name="s" unicode="s" horiz-adv-x="477" 
d="M73 143c12 -7.33301 25.5 -14.502 40.5 -21.502s30 -13.167 45 -18.5s29.667 -9.5 44 -12.5s27.166 -4.5 38.499 -4.5c22 0 39.333 6.66699 52 20c10 10 15 22.333 15 37c0 15.333 -4.66699 27.666 -14 36.999c-4.66699 4.66699 -11.667 9.33398 -21 14.001
s-23.666 8.66699 -42.999 12l-59 11c-6 0.666992 -13 2.16699 -21 4.5s-16.167 5.5 -24.5 9.5s-16.666 9 -24.999 15s-15.833 13.333 -22.5 22s-12 17.834 -16 27.501s-7 18.834 -9 27.501s-3.16699 16.167 -3.5 22.5s-0.5 10.833 -0.5 13.5c0 20 4.5 42 13.5 66
s27.167 45.333 54.5 64c17.333 11.333 36.666 20 57.999 26s43.666 9 66.999 9c19.333 0 37.666 -1.5 54.999 -4.5s33.333 -6.5 48 -10.5s27.667 -8.33301 39 -13s20.333 -8.66699 27 -12l15 -7l-44 -89c-32 17.333 -58.5 27.666 -79.5 30.999s-35.833 5 -44.5 5
c-7.33301 0 -15.333 -0.833008 -24 -2.5s-16.667 -5.5 -24 -11.5c-5.33301 -4 -9.5 -8.83301 -12.5 -14.5s-4.5 -12.5 -4.5 -20.5c0 -7.33301 1.33301 -13.333 4 -18s5.66699 -8.66699 9 -12c5.33301 -5.33301 13.5 -10 24.5 -14s19.833 -6.66699 26.5 -8l61 -15
c16 -4 29.333 -8.16699 40 -12.5s19.834 -9 27.501 -14s14.167 -10.167 19.5 -15.5s10 -10.666 14 -15.999c10.667 -14 18 -27.667 22 -41s6 -28.333 6 -45c0 -29.333 -5.33301 -54 -16 -74s-24 -36.667 -40 -50c-19.333 -16 -42.5 -28.667 -69.5 -38s-57.5 -14 -91.5 -14
c-22 0 -43.167 2.16699 -63.5 6.5s-39.5 9.5 -57.5 15.5s-34.167 12.333 -48.5 19s-26.166 12.667 -35.499 18z" />
    <glyph glyph-name="t" unicode="t" horiz-adv-x="341" 
d="M326 11c-20 -9.33301 -39.665 -15.5 -58.998 -18.5s-36 -4.5 -50 -4.5c-32.667 0 -61.5 6.5 -86.5 19.5s-42.167 31.5 -51.5 55.5c-4 10.667 -6.5 21.5 -7.5 32.5s-1.5 22.167 -1.5 33.5v13v278h-51v92h51v35c0 18.667 0.333008 34.5 1 47.5s2 25.833 4 38.5l136 34
c-1.33301 -16 -3 -37.167 -5 -63.5s-3 -56.833 -3 -91.5h120l-34 -92h-86v-257c0 -24.667 1.66699 -41.5 5 -50.5s6.66602 -15.167 9.99902 -18.5s8.16602 -6.33301 14.499 -9s14.166 -4 23.499 -4c11.333 0 22.333 1.33301 33 4s17.334 4.66699 20.001 6z" />
    <glyph glyph-name="u" unicode="u" horiz-adv-x="536" 
d="M402 -14c-11.333 7.33301 -20.1699 15.8301 -26.5029 25.4971s-10.833 17.834 -13.5 24.501c-8 -7.33301 -17.167 -14.166 -27.5 -20.499s-21.166 -11.5 -32.499 -15.5c-9.33301 -3.33301 -20.666 -6.16602 -33.999 -8.49902s-27 -3.5 -41 -3.5c-39.333 0 -72 8 -98 24
s-43.667 35.667 -53 59c-5.33301 14.667 -8.5 31 -9.5 49s-1.5 35.333 -1.5 52v328l132 25v-329c0 -30 1.5 -50.833 4.5 -62.5s5.16699 -18.834 6.5 -21.501c4 -7.33301 9.83301 -13.166 17.5 -17.499s16.834 -6.5 27.501 -6.5c8 0 17 1.33301 27 4s19.333 6.66699 28 12
c12.667 8 22.667 19 30 33v360l128 27v-391c0 -12.667 2 -27.5 6 -44.5s12.333 -33.167 25 -48.5z" />
    <glyph glyph-name="v" unicode="v" horiz-adv-x="464" 
d="M287 0l-110.999 -0.000976562l-186 504l137 17l74 -231c4 -12 8.66699 -27.167 14 -45.5s11.666 -44.166 18.999 -77.499c1.33301 8.66699 4 23.5 8 44.5s11.667 49.5 23 85.5l69 215h140z" />
    <glyph glyph-name="w" unicode="w" horiz-adv-x="699" 
d="M699 512l-146.001 -512.002h-123l-46 176c-1.33301 4 -3.16602 10.833 -5.49902 20.5l-8 33l-9 37.5c-3 12.667 -5.16699 23.667 -6.5 33l-8 51c-1.33301 -8 -2.33301 -14.333 -3 -19s-1.33398 -9 -2.00098 -13s-1.5 -8.5 -2.5 -13.5s-2.5 -11.833 -4.5 -20.5
c-5.33301 -24 -12.166 -52.167 -20.499 -84.5s-16.166 -64.166 -23.499 -95.499l-26 -105h-125l-140 503l133 15l42 -197c5.33301 -25.333 10.5 -52 15.5 -80l13.5 -78c5.33301 34 11.5 66.833 18.5 98.5s13.167 57.834 18.5 78.501l48 172h126l41 -169l20.5 -93
c6.33301 -30 12.166 -59 17.499 -87c5.33301 31.333 9.83301 59.5 13.5 84.5s8.5 52.167 14.5 81.5l39 183h138z" />
    <glyph glyph-name="x" unicode="x" horiz-adv-x="500" 
d="M345 0l-54 93.999c-2 4 -5.16699 9.83301 -9.5 17.5s-8.5 15.5 -12.5 23.5l-11.5 22c-3.66699 6.66699 -5.83398 11 -6.50098 13c-2 -6 -7.66699 -18.5 -17 -37.5s-20.666 -39.5 -33.999 -61.5l-43 -71h-172l189 273l-142 215l139 39l24 -40.5
c6.66699 -11 12.5 -21.167 17.5 -30.5l14 -26.5c4.33301 -8.33301 8.83301 -17.5 13.5 -27.5l8.5 -17.5c3 -6.33301 5.5 -11.833 7.5 -16.5c1.33301 4 5.83301 14.667 13.5 32l31.5 68c4 8.66699 8.5 17.334 13.5 26.001l10.5 18h158l-152 -236l184 -276h-170z" />
    <glyph glyph-name="y" unicode="y" horiz-adv-x="497" 
d="M502 512l-185.994 -520c-11.333 -31.333 -21.833 -57 -31.5 -77s-18.5 -36.167 -26.5 -48.5s-15.333 -21.666 -22 -27.999s-12.667 -11.5 -18 -15.5c-8.66699 -6.66699 -23.167 -15 -43.5 -25s-47.166 -17.333 -80.499 -22l-46 88c13.333 3.33301 28.166 8 44.499 14
s29.166 12.667 38.499 20s17.166 14.833 23.499 22.5s11.166 14.167 14.499 19.5c3.33301 4 7.66602 10.833 12.999 20.5s10.666 22.834 15.999 39.501h-34l-169 504l137 16l89 -299c0.666992 -4 2.16699 -10 4.5 -18l7.5 -27l8 -31l7 -29c0.666992 4 1.66699 9.66699 3 17
s2.83301 15.166 4.5 23.499s3.16699 16.166 4.5 23.499s2.66602 13 3.99902 17l12.5 45.5c3 11 5.5 19.5 7.5 25.5l77 244h141z" />
    <glyph glyph-name="z" unicode="z" horiz-adv-x="469" 
d="M407 0h-377v83l241 335h-221v94h380v-92l-226 -327h235z" />
    <glyph glyph-name="braceleft" unicode="{" horiz-adv-x="382" 
d="M257 -156c-18 0 -34.833 2.66895 -50.5 8.00195s-29.334 14 -41.001 26s-20.834 27.167 -27.501 45.5s-10 40.5 -10 66.5v172c0 15.333 -4.5 27.666 -13.5 36.999s-19.5 16.333 -31.5 21s-24 7.66699 -36 9s-21 2 -27 2v114c6 0 15 0.666992 27 2s24 4.33301 36 9
s22.5 11.667 31.5 21s13.5 21.666 13.5 36.999v173c0 26 3.16699 48.167 9.5 66.5s15.333 33.333 27 45s25.334 20.167 41.001 25.5s32.834 8 51.501 8h105v-114h-49c-15.333 0 -27.333 -2 -36 -6s-15.167 -9.16699 -19.5 -15.5s-7 -13.333 -8 -21
s-1.5 -14.834 -1.5 -21.501v-161c0 -23.333 -3.16699 -41.666 -9.5 -54.999s-14.5 -23.5 -24.5 -30.5s-20.833 -11.667 -32.5 -14s-22.834 -3.83301 -33.501 -4.5v-2c10.667 -0.666992 21.834 -2 33.501 -4s22.5 -6.5 32.5 -13.5s18.167 -17.167 24.5 -30.5
s9.5 -31.666 9.5 -54.999v-162c0 -6.66699 0.5 -13.834 1.5 -21.501s3.66699 -14.667 8 -21s10.833 -11.5 19.5 -15.5s20.667 -6 36 -6h49v-114h-105z" />
    <glyph glyph-name="bar" unicode="|" horiz-adv-x="266" 
d="M70 -208v964h126v-964h-126z" />
    <glyph glyph-name="braceright" unicode="}" horiz-adv-x="382" 
d="M362 231c-7.33301 0 -17 -0.668945 -29 -2.00195s-23.833 -4.33301 -35.5 -9s-21.834 -11.667 -30.501 -21s-13 -21.666 -13 -36.999v-173c0 -26 -3.33301 -48.167 -10 -66.5s-15.667 -33.333 -27 -45s-24.833 -20.167 -40.5 -25.5s-32.834 -8 -51.501 -8h-105v114h49
c15.333 0 27.333 2 36 6s15.167 9.16699 19.5 15.5s7 13.333 8 21s1.5 14.834 1.5 21.501v161c0 23.333 3.16699 41.666 9.5 54.999s14.5 23.5 24.5 30.5s20.833 11.5 32.5 13.5s22.834 3.66699 33.501 5v2c-10.667 0.666992 -21.834 2 -33.501 4s-22.5 6.5 -32.5 13.5
s-18.167 17.167 -24.5 30.5s-9.5 31.666 -9.5 54.999v162c0 6.66699 -0.5 13.834 -1.5 21.501s-3.66699 14.667 -8 21s-10.833 11.5 -19.5 15.5s-20.667 6 -36 6h-49v114h108c16.667 0 32.667 -2.66699 48 -8s28.833 -14 40.5 -26s20.834 -27.167 27.501 -45.5
s10 -40.5 10 -66.5v-172c0 -15.333 4.33301 -27.666 13 -36.999s18.834 -16.333 30.501 -21s23.5 -7.66699 35.5 -9s21.667 -2 29 -2v-114z" />
    <glyph glyph-name="asciitilde" unicode="~" horiz-adv-x="552" 
d="M507 292c-5.33301 -10.667 -11.833 -21.167 -19.5 -31.5s-16.5 -19.5 -26.5 -27.5s-21.5 -14.5 -34.5 -19.5s-27.833 -7.5 -44.5 -7.5c-17.333 0 -35.333 3.16699 -54 9.5s-37.667 13.833 -57 22.5l-55 24c-18 8 -33.667 12 -47 12c-10 0 -19.167 -2.16699 -27.5 -6.5
s-16 -9.66602 -23 -15.999s-13.5 -13.5 -19.5 -21.5l-18 -24l-36 108c5.33301 10.667 11.833 21.167 19.5 31.5s16.5 19.5 26.5 27.5s21.5 14.5 34.5 19.5s27.833 7.5 44.5 7.5c17.333 0 35.333 -3.16699 54 -9.5s37.667 -13.833 57 -22.5l55 -24c18 -8 33.667 -12 47 -12
c10 0 19.167 2.16699 27.5 6.5s16 9.66602 23 15.999s13.5 13.5 19.5 21.5l18 24z" />
    <glyph glyph-name="nonbreakingspace" unicode="&#xa0;" horiz-adv-x="225" 
 />
    <glyph glyph-name="sterling" unicode="&#xa3;" horiz-adv-x="583" 
d="M493 545c-13.333 13.333 -28.501 23.833 -45.501 31.5s-32.167 11.5 -45.5 11.5c-22 0 -40.5 -3.66699 -55.5 -11s-27 -16.833 -36 -28.5s-15.333 -25 -19 -40s-5.5 -30.167 -5.5 -45.5v-49h156v-102h-156v-198h253v-114h-499v114h96v198h-96v102h96v71
c0 30 5.33301 59 16 87s26.5 53 47.5 75s46.833 39.667 77.5 53s66.334 20 107.001 20c38 0 75.333 -5 112 -15s69 -27.667 97 -53z" />
    <glyph glyph-name="currency" unicode="&#xa4;" horiz-adv-x="647" 
d="M162 315c0 -22 4 -42.5 12 -61.5s18.833 -35.333 32.5 -49s30 -24.5 49 -32.5s39.5 -12 61.5 -12s42.5 4 61.5 12s35.333 18.833 49 32.5s24.5 30 32.5 49s12 39.5 12 61.5s-4 42.5 -12 61.5s-18.833 35.333 -32.5 49s-30 24.5 -49 32.5s-39.5 12 -61.5 12
s-42.5 -4 -61.5 -12s-35.333 -18.833 -49 -32.5s-24.5 -30 -32.5 -49s-12 -39.5 -12 -61.5zM114 48l-64 64l67 68c-15.333 22 -26 43.667 -32 65s-9 44.666 -9 69.999s3 48.666 9 69.999s16.667 43 32 65l-67 68l65 63l67 -67c17.333 12 37.166 22 59.499 30
s47.5 12 75.5 12s53.167 -4 75.5 -12s42.166 -18 59.499 -30l68 68l64 -64l-67 -68c15.333 -22 26 -43.667 32 -65s9 -44.666 9 -69.999s-3 -48.666 -9 -69.999s-16.667 -43 -32 -65l68 -68l-66 -63l-67 66c-22 -15.333 -43.667 -26 -65 -32s-44.666 -9 -69.999 -9
s-48.666 3 -69.999 9s-43 16.667 -65 32z" />
    <glyph glyph-name="section" unicode="&#xa7;" horiz-adv-x="588" 
d="M376 192c22.667 13.333 34.001 33.668 34.001 61.001c0 9.33301 -2 17.666 -6 24.999s-9.16699 14 -15.5 20s-13.333 11.167 -21 15.5s-15.167 8.16602 -22.5 11.499l-116 55c-23.333 -13.333 -35 -33 -35 -59c0 -12 2.5 -22.167 7.5 -30.5s11.333 -15.666 19 -21.999
s16.167 -11.833 25.5 -16.5s18.666 -9 27.999 -13zM393.001 545.002c-7.33301 19.333 -19.5 34.3359 -36.5 45.0029s-35.5 16 -55.5 16c-16 0 -30.833 -4.33301 -44.5 -13s-20.5 -22 -20.5 -40c0 -16.667 7.66699 -30.667 23 -42s34.666 -22 57.999 -32
s48.333 -20.167 75 -30.5s51.667 -22.833 75 -37.5s42.666 -32.5 57.999 -53.5s23 -46.5 23 -76.5c0 -28 -8 -53.667 -24 -77s-36 -41 -60 -53c17.333 -14 30.833 -31.5 40.5 -52.5s14.5 -43.167 14.5 -66.5c0 -32.667 -7.83301 -60.667 -23.5 -84s-35.5 -42.333 -59.5 -57
s-50.5 -25.334 -79.5 -32.001s-56.833 -10 -83.5 -10c-24.667 0 -48.667 2 -72 6s-45 11 -65 21s-38.167 23 -54.5 39s-30.166 36 -41.499 60l128 63c2.66699 -12 7.83398 -22.333 15.501 -31s16.5 -15.834 26.5 -21.501s20.833 -9.83398 32.5 -12.501s23.167 -4 34.5 -4
c8 0 16.667 0.833008 26 2.5s18 4.5 26 8.5s14.667 9.33301 20 16s8 15 8 25c0 15.333 -7.5 28.333 -22.5 39s-33.5 20.834 -55.5 30.501s-46.167 19.5 -72.5 29.5s-50.5 22.5 -72.5 37.5s-40.5 33.333 -55.5 55s-22.5 48.5 -22.5 80.5c0 34 7.5 62.833 22.5 86.5
s36.5 44.167 64.5 61.5c-19.333 13.333 -34.666 29.833 -45.999 49.5s-17 41.5 -17 65.5c0 29.333 6.5 54.666 19.5 75.999s29.833 39 50.5 53s43.667 24.333 69 31s50.666 10 75.999 10c21.333 0 43 -1.66699 65 -5s43.167 -9.33301 63.5 -18s38.833 -20 55.5 -34
s30 -31.333 40 -52z" />
    <glyph glyph-name="dieresis" unicode="&#xa8;" horiz-adv-x="464" 
d="M203 635c0 -20.667 -7.50195 -38.667 -22.502 -54s-33.167 -23 -54.5 -23c-10 0 -19.667 2.16699 -29 6.5s-17.5 10 -24.5 17s-12.5 15.167 -16.5 24.5s-6 19 -6 29c0 20.667 7.83301 38.667 23.5 54s33.834 23 54.501 23s38.334 -7.66699 53.001 -23s22 -33.333 22 -54z
M413.998 635c0 -20.667 -7.50195 -38.667 -22.502 -54s-33.167 -23 -54.5 -23s-39.333 7.66699 -54 23s-22 33.333 -22 54c0 10 2 19.667 6 29s9.5 17.5 16.5 24.5s15.333 12.667 25 17s19.834 6.5 30.501 6.5c20.667 0 38.334 -7.5 53.001 -22.5s22 -33.167 22 -54.5z" />
    <glyph glyph-name="copyright" unicode="&#xa9;" horiz-adv-x="824" 
d="M540 198c-20.667 -15.333 -40.335 -26.3301 -59.002 -32.9971s-39.667 -10 -63 -10c-27.333 0 -52.166 4.5 -74.499 13.5s-41.5 21.833 -57.5 38.5s-28.333 36.667 -37 60s-13 49.666 -13 78.999c0 30 4.33301 57.667 13 83s20.834 47.166 36.501 65.499
s34.834 32.666 57.501 42.999s48 15.5 76 15.5c20.667 0 40.667 -3.16699 60 -9.5s36.666 -15.833 51.999 -28.5l-46 -66c-13.333 9.33301 -25 15.833 -35 19.5s-20 5.5 -30 5.5c-50 0 -75 -38 -75 -114c0 -46 6.16699 -78.833 18.5 -98.5s32.5 -29.5 60.5 -29.5
c13.333 0 25.5 2.33301 36.5 7s21.167 11.667 30.5 21zM681.999 354.003c0 38.667 -7 75.167 -21 109.5s-33.333 64.166 -58 89.499s-53.334 45.5 -86.001 60.5s-67.667 22.5 -105 22.5s-72.333 -7.5 -105 -22.5s-61.334 -35.167 -86.001 -60.5s-44 -55.166 -58 -89.499
s-21 -70.833 -21 -109.5s7 -75.167 21 -109.5s33.333 -64.166 58 -89.499s53.334 -45.5 86.001 -60.5s67.667 -22.5 105 -22.5s72.333 7.5 105 22.5s61.334 35.167 86.001 60.5s44 55.166 58 89.499s21 70.833 21 109.5zM783.999 354.003
c0 -51.333 -9.83301 -99.5 -29.5 -144.5s-46.334 -84.333 -80.001 -118s-73 -60.334 -118 -80.001s-93.167 -29.5 -144.5 -29.5s-99.5 9.83301 -144.5 29.5s-84.333 46.334 -118 80.001s-60.334 73 -80.001 118s-29.5 93.167 -29.5 144.5s9.83301 99.5 29.5 144.5
s46.334 84.333 80.001 118s73 60.334 118 80.001s93.167 29.5 144.5 29.5s99.5 -9.83301 144.5 -29.5s84.333 -46.334 118 -80.001s60.334 -73 80.001 -118s29.5 -93.167 29.5 -144.5z" />
    <glyph glyph-name="guillemotleft" unicode="&#xab;" horiz-adv-x="542" 
d="M184 15l-159 234l159 234l91 -61l-116 -173l116 -173zM426 15l-159 234l159 234l91 -61l-116 -173l116 -173z" />
    <glyph glyph-name="logicalnot" unicode="&#xac;" horiz-adv-x="521" 
d="M358 58v140h-318v109h441v-249h-123z" />
    <glyph glyph-name="registered" unicode="&#xae;" horiz-adv-x="824" 
d="M397 397c19.333 0 32.5 3 39.5 9s10.5 15.667 10.5 29c0 14 -4 24 -12 30s-20.333 9 -37 9h-27v-77h26zM465 171l-12 18.998l-9.5 15c-3 4.66699 -5.83301 9.33398 -8.5 14.001l-10 17l-23 38l-15 25c-4 6.66699 -7.16699 11.667 -9.5 15s-4.5 6 -6.5 8v-151h-97v382h153
c38 0 68 -10.667 90 -32s33 -49.666 33 -84.999c0 -28.667 -8.33301 -52.5 -25 -71.5s-37.667 -29.833 -63 -32.5c11.333 -4.66699 21 -12 29 -22s15.333 -20 22 -30c7.33301 -10.667 14.833 -22.167 22.5 -34.5l21.5 -35.5l23 -39h-115zM682 353.998
c0 38.667 -7 75.167 -21 109.5s-33.333 64.166 -58 89.499s-53.334 45.5 -86.001 60.5s-67.667 22.5 -105 22.5s-72.333 -7.5 -105 -22.5s-61.334 -35.167 -86.001 -60.5s-44 -55.166 -58 -89.499s-21 -70.833 -21 -109.5s7 -75.167 21 -109.5s33.333 -64.166 58 -89.499
s53.334 -45.5 86.001 -60.5s67.667 -22.5 105 -22.5s72.333 7.5 105 22.5s61.334 35.167 86.001 60.5s44 55.166 58 89.499s21 70.833 21 109.5zM784 353.998c0 -51.333 -9.83301 -99.5 -29.5 -144.5s-46.334 -84.333 -80.001 -118s-73 -60.334 -118 -80.001
s-93.167 -29.5 -144.5 -29.5s-99.5 9.83301 -144.5 29.5s-84.333 46.334 -118 80.001s-60.334 73 -80.001 118s-29.5 93.167 -29.5 144.5s9.83301 99.5 29.5 144.5s46.334 84.333 80.001 118s73 60.334 118 80.001s93.167 29.5 144.5 29.5s99.5 -9.83301 144.5 -29.5
s84.333 -46.334 118 -80.001s60.334 -73 80.001 -118s29.5 -93.167 29.5 -144.5z" />
    <glyph glyph-name="degree" unicode="&#xb0;" horiz-adv-x="401" 
d="M260 535c0 40.667 -6.66699 67.332 -20 79.999c-10.667 10.667 -24.667 16 -42 16c-24.667 0 -41.334 -10 -50.001 -30c-3.33301 -8.66699 -5.66602 -18.167 -6.99902 -28.5s-2 -23.166 -2 -38.499c0 -17.333 0.666992 -32.333 2 -45s4.33301 -22.667 9 -30
s11.334 -13.333 20.001 -18s18.667 -7 30 -7c21.333 0 36.666 7.83301 45.999 23.5s14 41.5 14 77.5zM371 532.998c0 -28.667 -3.66992 -53.167 -11.0029 -73.5s-19.333 -38.5 -36 -54.5c-15.333 -14.667 -32.666 -26 -51.999 -34s-43.666 -12 -72.999 -12
c-52 0 -93.167 15.5 -123.5 46.5s-45.5 72.833 -45.5 125.5c0 26 4 49.667 12 71s19.333 39.666 34 54.999s32.5 27.166 53.5 35.499s44.167 12.5 69.5 12.5c27.333 0 51.333 -4.16699 72 -12.5s39.334 -20.833 56.001 -37.5c15.333 -15.333 26.5 -32.666 33.5 -51.999
s10.5 -42.666 10.5 -69.999z" />
    <glyph glyph-name="plusminus" unicode="&#xb1;" horiz-adv-x="503" 
d="M42 0v113h419v-113h-419zM313 283v-143h-123v143h-150v113h150v137h123v-137h150v-113h-150z" />
    <glyph glyph-name="acute" unicode="&#xb4;" horiz-adv-x="325" 
d="M71 557l-41 74l207 130l58 -104z" />
    <glyph glyph-name="mu" unicode="&#xb5;" horiz-adv-x="541" 
d="M407 -14c-11.333 7.33301 -20.1689 15.8301 -26.502 25.4971s-10.833 17.834 -13.5 24.501c-12 -11.333 -24 -20.166 -36 -26.499s-23.667 -11.166 -35 -14.499s-22.166 -5.5 -32.499 -6.5s-19.5 -1.5 -27.5 -1.5c-5.33301 0 -11.333 0.666992 -18 2
s-13.667 5.33301 -21 12c1.33301 -7.33301 2 -13.5 2 -18.5v-12.5v-156l-129 -34v720l132 25v-329c0 -26.667 1 -46 3 -58s4.66699 -20.667 8 -26c4.66699 -8 11.167 -14 19.5 -18s17.5 -6 27.5 -6c5.33301 0 11.833 0.833008 19.5 2.5s15.334 4.33398 23.001 8.00098
s15.167 8.66699 22.5 15s13.333 14.166 18 23.499v360l128 27v-391c0 -12.667 2 -27.5 6 -44.5s12.333 -33.167 25 -48.5z" />
    <glyph glyph-name="mu" unicode="&#x3bc;" horiz-adv-x="541" 
d="M407 -14c-11.333 7.33301 -20.1689 15.8301 -26.502 25.4971s-10.833 17.834 -13.5 24.501c-12 -11.333 -24 -20.166 -36 -26.499s-23.667 -11.166 -35 -14.499s-22.166 -5.5 -32.499 -6.5s-19.5 -1.5 -27.5 -1.5c-5.33301 0 -11.333 0.666992 -18 2
s-13.667 5.33301 -21 12c1.33301 -7.33301 2 -13.5 2 -18.5v-12.5v-156l-129 -34v720l132 25v-329c0 -26.667 1 -46 3 -58s4.66699 -20.667 8 -26c4.66699 -8 11.167 -14 19.5 -18s17.5 -6 27.5 -6c5.33301 0 11.833 0.833008 19.5 2.5s15.334 4.33398 23.001 8.00098
s15.167 8.66699 22.5 15s13.333 14.166 18 23.499v360l128 27v-391c0 -12.667 2 -27.5 6 -44.5s12.333 -33.167 25 -48.5z" />
    <glyph glyph-name="paragraph" unicode="&#xb6;" horiz-adv-x="592" 
d="M432 -126v761h-107v-761h-90v464c-32.667 0 -62.167 4.5 -88.5 13.5s-48.833 21.5 -67.5 37.5s-33.167 35.167 -43.5 57.5s-15.5 46.5 -15.5 72.5c0 33.333 5.66699 62 17 86s27.166 43.5 47.499 58.5s44.833 26 73.5 33s60.334 10.5 95.001 10.5h269v-833h-90z" />
    <glyph glyph-name="guillemotright" unicode="&#xbb;" horiz-adv-x="542" 
d="M116 15l-91 61l116 173l-116 173l91 61l159 -234zM358 15l-91 61l116 173l-116 173l91 61l159 -234z" />
    <glyph glyph-name="divide" unicode="&#xf7;" horiz-adv-x="585" 
d="M377 68c0 -23.333 -8.5 -43.166 -25.5 -59.499s-37.5 -24.5 -61.5 -24.5c-23.333 0 -43.5 8.16699 -60.5 24.5s-25.5 36.166 -25.5 59.499c0 12 2.16699 23.333 6.5 34s10.333 20.167 18 28.5s16.667 14.833 27 19.5s21.5 7 33.5 7h2c24 -0.666992 44.333 -9.5 61 -26.5
s25 -37.833 25 -62.5zM40 214v105h505v-105h-505zM378 467c0 -24 -8.5 -44.333 -25.5 -61s-37.5 -25 -61.5 -25c-23.333 0 -43.333 8.33301 -60 25s-25 36.667 -25 60c0 12 2.16699 23.333 6.5 34s10.333 20 18 28s16.667 14.333 27 19s21.5 7 33.5 7
c24 0 44.5 -8.5 61.5 -25.5s25.5 -37.5 25.5 -61.5z" />
    <glyph glyph-name="dotlessi" unicode="&#x131;" horiz-adv-x="274" 
d="M70 0v503l134 21v-524h-134z" />
    <glyph glyph-name="florin" unicode="&#x192;" horiz-adv-x="312" 
d="M339 626c-13.333 7.33301 -23.166 11.999 -29.499 13.999s-13.5 3 -21.5 3c-15.333 0 -28.333 -5 -39 -15s-16.667 -24.333 -18 -43l-5 -73h118l-32 -94h-90l-27 -384c-3.33301 -42 -7.66602 -75.5 -12.999 -100.5s-13.333 -45.833 -24 -62.5s-24.667 -31.5 -42 -44.5
s-39.333 -28.5 -66 -46.5l-62 91c16 12 29 22.667 39 32s18.167 18.833 24.5 28.5s11 20.667 14 33s5.16699 27.5 6.5 45.5l27 408h-43v94h52c0 11.333 0.333008 23 1 35l2 35c3.33301 50.667 18.666 89.834 45.999 117.501s65.666 41.5 114.999 41.5
c21.333 0 41.5 -3.33301 60.5 -10s34.833 -14 47.5 -22z" />
    <glyph glyph-name="dotaccent" unicode="&#x2d9;" horiz-adv-x="205" 
d="M185 653c0 -23.333 -7.99902 -43 -23.999 -59s-35.667 -24 -59 -24s-42.833 8 -58.5 24s-23.5 35.667 -23.5 59s8.16699 43 24.5 59s36.166 24 59.499 24c11.333 0 22.5 -2.5 33.5 -7.5s20.5 -12.167 28.5 -21.5c12.667 -16 19 -34 19 -54z" />
    <glyph glyph-name="Delta" unicode="&#x394;" horiz-adv-x="668" 
d="M330 462l-132 -347h258zM30 0l244 638h124l240 -638h-608z" />
    <glyph glyph-name="Delta" unicode="&#x2206;" horiz-adv-x="668" 
d="M330 462l-132 -347h258zM30 0l244 638h124l240 -638h-608z" />
    <glyph glyph-name="afii10023" unicode="&#x401;" horiz-adv-x="495" 
d="M230 810c0 -20.667 -7.50195 -38.667 -22.502 -54s-33.167 -23 -54.5 -23c-10 0 -19.667 2.16699 -29 6.5s-17.5 10 -24.5 17s-12.5 15.167 -16.5 24.5s-6 19 -6 29c0 20.667 7.83301 38.667 23.5 54s33.834 23 54.501 23s38.334 -7.66699 53.001 -23s22 -33.333 22 -54z
M440.998 810c0 -20.667 -7.50195 -38.667 -22.502 -54s-33.167 -23 -54.5 -23s-39.333 7.66699 -54 23s-22 33.333 -22 54c0 10 2 19.667 6 29s9.5 17.5 16.5 24.5s15.333 12.667 25 17s19.834 6.5 30.501 6.5c20.667 0 38.334 -7.5 53.001 -22.5s22 -33.167 22 -54.5z
M69.9961 0v695h396l-18 -114h-238v-161h199v-114h-197v-186h263v-120h-405z" />
    <glyph glyph-name="afii10051" unicode="&#x402;" horiz-adv-x="693" 
d="M488 579l-178.999 -0.00292969v-170c26.667 11.333 51 19.333 73 24s44.667 7 68 7c22 0 43.167 -3.16699 63.5 -9.5s40.166 -18.166 59.499 -35.499c14 -12.667 25.333 -26.167 34 -40.5s15.167 -29.166 19.5 -44.499s7.33301 -30.833 9 -46.5s2.5 -31.167 2.5 -46.5
c0 -14.667 -0.666992 -30 -2 -46s-3.83301 -31.833 -7.5 -47.5s-9.16699 -31 -16.5 -46s-17 -28.833 -29 -41.5c-18.667 -19.333 -38.167 -32.166 -58.5 -38.499s-41.166 -9.5 -62.499 -9.5c-14.667 0 -29 1 -43 3s-29.333 6 -46 12l-14 5l22 99
c4 -2 7.66699 -3.66699 11 -5s7.33301 -2.66602 12 -3.99902c10 -3.33301 19.667 -5 29 -5c13.333 0 23.666 2.83301 30.999 8.5s12.833 12.667 16.5 21s5.83398 17.666 6.50098 27.999s1 20.166 1 29.499v37c0 30 -2.83301 51.5 -8.5 64.5s-10.834 21.833 -15.501 26.5
c-6 6 -14.333 11 -25 15s-23 6 -37 6c-18 0 -35 -2.16699 -51 -6.5s-30 -9.16602 -42 -14.499v-308h-142v579h-157v116h501z" />
    <glyph glyph-name="afii10052" unicode="&#x403;" horiz-adv-x="454" 
d="M155 733l-41 74l207 130l58 -104zM433 582h-221v-582h-142v695h379z" />
    <glyph glyph-name="afii10053" unicode="&#x404;" horiz-adv-x="565" 
d="M470 558c-18 13.333 -37.3252 23.1689 -57.9922 29.502s-40.667 9.5 -60 9.5c-7.33301 0 -16.166 -0.666992 -26.499 -2s-20.833 -3.83301 -31.5 -7.5s-21.334 -9 -32.001 -16s-20.334 -16.5 -29.001 -28.5c-6.66699 -9.33301 -12 -19 -16 -29s-7 -19.5 -9 -28.5
s-3.5 -17.167 -4.5 -24.5s-1.5 -13 -1.5 -17l-1 -22h199v-112h-202v-33c0 -19.333 2.5 -40.5 7.5 -63.5s12.833 -42.167 23.5 -57.5c4 -6 9.5 -12.333 16.5 -19s15.833 -12.834 26.5 -18.501s23.167 -10.5 37.5 -14.5s31.166 -6 50.499 -6c12 0 29 2.33301 51 7
s46.333 17.334 73 38.001l64 -90c-23.333 -18 -50.833 -33.333 -82.5 -46s-70.167 -19 -115.5 -19c-30 0 -57.167 3.16699 -81.5 9.5s-45.833 14.166 -64.5 23.499s-34.834 19.666 -48.501 30.999s-24.834 22 -33.501 32c-18.667 21.333 -33.334 43.666 -44.001 66.999
s-18.834 46.833 -24.501 70.5s-9.33398 46.5 -11.001 68.5s-2.5 42 -2.5 60c0 14.667 0.666992 32.334 2 53.001s4.66602 42.5 9.99902 65.5s13.166 46.667 23.499 71s24.5 47.166 42.5 68.499c19.333 22.667 39.833 40.667 61.5 54s42.834 23.333 63.501 30
s40 10.834 58 12.501s33 2.5 45 2.5c44.667 0 82 -5.66699 112 -17s55 -24 75 -38z" />
    <glyph glyph-name="afii10054" unicode="&#x405;" horiz-adv-x="584" 
d="M476 546c-23.333 15.333 -49.001 28.0059 -77.001 38.0059s-56 15 -84 15c-10 0 -20.5 -1 -31.5 -3s-21.833 -6.66699 -32.5 -14c-10 -6.66699 -18.167 -15.334 -24.5 -26.001s-9.5 -24 -9.5 -40c0 -5.33301 0.833008 -11.166 2.5 -17.499s5.16699 -12.5 10.5 -18.5
c3.33301 -3.33301 9.33301 -7.83301 18 -13.5s24 -11.5 46 -17.5l84 -23c22 -6 44.333 -14.5 67 -25.5s43.334 -27.167 62.001 -48.5c12 -13.333 22.833 -30.666 32.5 -51.999s14.5 -48.333 14.5 -81c0 -39.333 -7.16699 -71.833 -21.5 -97.5s-29.5 -46.167 -45.5 -61.5
c-10 -9.33301 -21.833 -18.5 -35.5 -27.5s-29.5 -17 -47.5 -24s-38.333 -12.667 -61 -17s-48 -6.5 -76 -6.5c-27.333 0 -53 2.16699 -77 6.5s-46 9.66602 -66 15.999s-38 13.166 -54 20.499s-29.333 14 -40 20l52 109c22 -12.667 49.5 -25.167 82.5 -37.5
s69.167 -18.5 108.5 -18.5c19.333 0 37 2 53 6s30.667 12 44 24c5.33301 5.33301 10.833 13.166 16.5 23.499s8.5 24.166 8.5 41.499c0 13.333 -2.16699 24.5 -6.5 33.5s-9.16602 16.167 -14.499 21.5c-9.33301 9.33301 -20.666 16.666 -33.999 21.999
s-25.333 9.66602 -36 12.999l-77 21c-38.667 10.667 -68 23.167 -88 37.5s-36.333 31.166 -49 50.499c-6 9.33301 -12.333 22.333 -19 39s-10 39 -10 67c0 10.667 1 22.5 3 35.5s5.66699 26.5 11 40.5s12.666 27.833 21.999 41.5s21.333 26.834 36 39.501
c27.333 23.333 56.666 38.833 87.999 46.5s61 11.5 89 11.5c31.333 0 60 -2.83301 86 -8.5s48.833 -12.334 68.5 -20.001s36 -15.5 49 -23.5s22.5 -14 28.5 -18z" />
    <glyph glyph-name="afii10056" unicode="&#x407;" horiz-adv-x="287" 
d="M217 135v-40.999c0 -18.667 -0.5 -35.167 -1.5 -49.5s-3.83301 -29.5 -8.5 -45.5c-7.33301 -24.667 -17.333 -46 -30 -64s-26.667 -33.5 -42 -46.5s-31 -23.833 -47 -32.5s-30.333 -15.334 -43 -20.001l-65 72c11.333 7.33301 25 17.833 41 31.5s29.333 31.167 40 52.5
c6.66699 17.333 10.667 32.333 12 45s2 27 2 43v40v575h142v-560z" />
    <glyph glyph-name="afii10057" unicode="&#x408;" horiz-adv-x="287" 
d="M217 135v-40.999c0 -18.667 -0.5 -35.167 -1.5 -49.5s-3.83301 -29.5 -8.5 -45.5c-7.33301 -24.667 -17.333 -46 -30 -64s-26.667 -33.5 -42 -46.5s-31 -23.833 -47 -32.5s-30.333 -15.334 -43 -20.001l-65 72c11.333 7.33301 25 17.833 41 31.5s29.333 31.167 40 52.5
c6.66699 17.333 10.667 32.333 12 45s2 27 2 43v40v575h142v-560z" />
    <glyph glyph-name="afii10058" unicode="&#x409;" horiz-adv-x="916" 
d="M614 112c13.333 0 27.5 1.83105 42.5 5.49805s28.5 13.167 40.5 28.5c9.33301 12 15.333 24.833 18 38.5s4 26.167 4 37.5c0 14.667 -1.83301 28.334 -5.5 41.001s-11.167 24.334 -22.5 35.001c-12.667 12.667 -25.5 20.167 -38.5 22.5s-25.833 3.5 -38.5 3.5h-75v-212
h75zM626 435.998c28 0 57.165 -2.50098 87.498 -7.50098s59.5 -19.167 87.5 -42.5c14.667 -12.667 26.667 -26 36 -40s16.5 -28.333 21.5 -43s8.33301 -29 10 -43s2.5 -27.333 2.5 -40c0 -14 -1 -28.833 -3 -44.5s-6.16699 -31.334 -12.5 -47.001s-15.166 -31 -26.499 -46
s-26 -28.833 -44 -41.5c-25.333 -17.333 -51.666 -28.5 -78.999 -33.5s-52 -7.5 -74 -7.5h-235v585h-129l-4 -108c-2 -60.667 -5 -115.667 -9 -165s-8.66699 -90.333 -14 -123c-3.33301 -24.667 -8.83301 -49 -16.5 -73s-20.167 -45.333 -37.5 -64
c-18.667 -19.333 -39.5 -32.666 -62.5 -39.999s-44.5 -12.333 -64.5 -15l-44 -7l-26 101l17 5c9.33301 2.66699 17.833 5.33398 25.5 8.00098s16.5 7.66699 26.5 15c6 4.66699 13 11.167 21 19.5s14.667 19.833 20 34.5c2.66699 6 6 17.333 10 34s8 44 12 82
c2.66699 24.667 5 50.5 7 77.5s3.66699 53.167 5 78.5s2.5 49 3.5 71s1.5 40.667 1.5 56l2 123h398v-259h87z" />
    <glyph glyph-name="afii10059" unicode="&#x40a;" horiz-adv-x="924" 
d="M622 112c13.333 0 27.332 1.83105 41.999 5.49805s28.334 13.167 41.001 28.5c9.33301 11.333 15.333 23.333 18 36s4 24.667 4 36c0 14.667 -1.83301 28.334 -5.5 41.001s-11.167 24.334 -22.5 35.001c-12.667 12.667 -25.5 20.167 -38.5 22.5s-25.833 3.5 -38.5 3.5
h-75v-208h75zM546.999 694.998l-0.000976562 -263h87c28 0 57.167 -2.5 87.5 -7.5s59.5 -19.167 87.5 -42.5c14.667 -12.667 26.667 -26 36 -40s16.5 -28.167 21.5 -42.5s8.33301 -28.333 10 -42s2.5 -26.167 2.5 -37.5c0 -42.667 -7.66699 -78.5 -23 -107.5
s-36.333 -52.833 -63 -71.5c-25.333 -17.333 -51.666 -28.5 -78.999 -33.5s-52 -7.5 -74 -7.5h-235v318h-193v-318h-142v695h142v-262h193v262h142z" />
    <glyph glyph-name="afii10060" unicode="&#x40b;" horiz-adv-x="695" 
d="M488 579l-178.999 -0.000976562v-170c27.333 11.333 51.833 19.333 73.5 24s44.167 7 67.5 7c35.333 0 63.833 -5 85.5 -15s38.5 -21 50.5 -33s22.333 -27.667 31 -47s13 -43 13 -71v-274h-142v217c0 30 -2.83301 51.5 -8.5 64.5s-10.834 21.833 -15.501 26.5
c-6 6 -14.333 11 -25 15s-23 6 -37 6c-18 0 -35 -2.16699 -51 -6.5s-30 -9.16602 -42 -14.499v-308h-142v579h-157v116h501z" />
    <glyph glyph-name="afii10061" unicode="&#x40c;" horiz-adv-x="629" 
d="M243 733l-41 74l207 130l58 -104zM595 612l-32.001 -8.00195c-6 -1.33301 -11.5 -3 -16.5 -5s-10.167 -5 -15.5 -9s-10.166 -9.16699 -14.499 -15.5s-8.5 -16.5 -12.5 -30.5l-19 -66c-3.33301 -12 -7.5 -24.833 -12.5 -38.5s-13.167 -26.167 -24.5 -37.5
c-7.33301 -7.33301 -15.666 -13.833 -24.999 -19.5s-20 -10.167 -32 -13.5c13.333 -4 24.333 -9 33 -15s15.667 -11.667 21 -17c11.333 -11.333 20 -23.666 26 -36.999s10.667 -25.666 14 -36.999l30 -103c3.33301 -10 7 -19.5 11 -28.5s11.333 -16.5 22 -22.5
c3.33301 -2 9.5 -4.83301 18.5 -8.5s16.167 -6.16699 21.5 -7.5l21 -6l-26 -97l-79 9c-22.667 2.66699 -40.5 8 -53.5 16s-23.167 16 -30.5 24c-9.33301 11.333 -16.333 24.5 -21 39.5s-8.66699 30.5 -12 46.5l-23 101c-2.66699 10.667 -7.16699 22.5 -13.5 35.5
s-12.833 22.5 -19.5 28.5c-9.33301 8.66699 -20.333 14.167 -33 16.5s-24 3.5 -34 3.5h-52v-310h-142v695h142v-270h62c12.667 0 25.334 1.5 38.001 4.5s23 8.16699 31 15.5c8.66699 7.33301 15 16.833 19 28.5s7.33301 23.167 10 34.5l22 87c2.66699 10 6 21.333 10 34
s11.667 24.667 23 36c9.33301 10 20.166 17.167 32.499 21.5s26.166 7.5 41.499 9.5l67 9z" />
    <glyph glyph-name="afii10062" unicode="&#x40e;" horiz-adv-x="541" 
d="M435 858c-3.33301 -11.333 -9.00293 -24.166 -17.0029 -38.499s-20.667 -28.166 -38 -41.499c-19.333 -14 -37.666 -22.667 -54.999 -26s-35.666 -5 -54.999 -5s-37.666 1.66699 -54.999 5s-35.666 12 -54.999 26c-17.333 13.333 -30 27.166 -38 41.499
s-13.667 27.166 -17 38.499l70 29c3.33301 -7.33301 8.5 -14 15.5 -20s13.167 -10.667 18.5 -14c9.33301 -5.33301 19.5 -8.83301 30.5 -10.5s21.167 -2.5 30.5 -2.5c10.667 0 21.167 0.833008 31.5 2.5s20.166 5.16699 29.499 10.5c5.33301 3.33301 11.5 8 18.5 14
s12.167 12.667 15.5 20zM238.997 436c9.33301 -26 17.332 -49.333 23.999 -70s13.334 -44 20.001 -70c4.66699 20.667 9 38.667 13 54s8 29.333 12 42s8 24.667 12 36l13 37l81 230h147l-182 -489c-10 -26 -18.333 -48.5 -25 -67.5s-12.834 -35.167 -18.501 -48.5
s-11.167 -24.666 -16.5 -33.999s-11.333 -17.666 -18 -24.999c-9.33301 -10 -19.666 -18.333 -30.999 -25s-22.666 -12 -33.999 -16s-22 -7 -32 -9s-18.667 -3.66699 -26 -5l-44 -7l-26 101l17 5c9.33301 2.66699 17.666 5.16699 24.999 7.5s16.333 7.16602 27 14.499
c19.333 12.667 32.833 26.667 40.5 42s14.167 29.666 19.5 42.999l12 32l-68 -9l-191 490h153z" />
    <glyph glyph-name="afii10145" unicode="&#x40f;" horiz-adv-x="607" 
d="M212 115h183v580h142v-695h-165v-172h-134v172h-168v695h142v-580z" />
    <glyph glyph-name="afii10017" unicode="&#x410;" horiz-adv-x="582" 
d="M357 280c-11.333 35.333 -19.5 63.333 -24.5 84l-13.5 57c-2 9.33301 -4 17.833 -6 25.5l-6.5 24.5c-2.33301 8.66699 -4.66602 18.667 -6.99902 30l-8.5 42l-8.5 -34.5l-9 -36.5l-8.5 -34l-7 -28c-4.66699 -16.667 -8.5 -31 -11.5 -43s-5.83301 -22.833 -8.5 -32.5
s-5.33398 -18.667 -8.00098 -27l-9 -27.5h136zM440 0l-49 165h-204l-49 -165h-146l228 697h151l219 -697h-150z" />
    <glyph glyph-name="afii10018" unicode="&#x411;" horiz-adv-x="604" 
d="M306 114c4 0 9.16504 0.333984 15.498 1.00098s13 2 20 4s13.833 5 20.5 9s13 9.66699 19 17c4 5.33301 8.33301 13.333 13 24s7 25.667 7 45c0 13.333 -2.16699 27.166 -6.5 41.499s-14.166 26.833 -29.499 37.5c-8.66699 6 -18.667 10.333 -30 13s-22.666 4 -33.999 4
h-89v-196h94zM509.998 695.001l-17.9971 -113.999h-280v-157h109c46 0 82.333 -5.5 109 -16.5s46.667 -21.833 60 -32.5c8 -6.66699 16.167 -14.834 24.5 -24.501s15.666 -21.167 21.999 -34.5s11.666 -28.5 15.999 -45.5s6.5 -35.833 6.5 -56.5
c0 -23.333 -2.33301 -44.333 -7 -63s-10.834 -35 -18.501 -49s-16.5 -26.167 -26.5 -36.5s-20 -18.833 -30 -25.5c-21.333 -14.667 -45.333 -25 -72 -31s-52.667 -9 -78 -9h-257v695h440z" />
    <glyph glyph-name="afii10019" unicode="&#x412;" horiz-adv-x="600" 
d="M309 114c13.333 0 26.168 1.83398 38.501 5.50098s24.166 13.167 35.499 28.5c12.667 18 19 39 19 63c0 14 -2.33301 27.333 -7 40s-11 22.667 -19 30c-10 9.33301 -21 15.166 -33 17.499s-23.333 3.5 -34 3.5h-99v-188h99zM208.002 417.001l94.002 -0.000976562
c10.667 0 21.667 1 33 3s22 8.66699 32 20c6.66699 7.33301 11.667 16 15 26s5 20.333 5 31c0 15.333 -3.33301 29.5 -10 42.5s-16.667 22.167 -30 27.5c-10.667 4.66699 -21.334 7.33398 -32.001 8.00098s-19.334 1 -26.001 1h-81v-159zM305.004 695
c34.667 0 65.998 -3 93.998 -9s54 -19.667 78 -41c17.333 -16 31 -34.167 41 -54.5s15 -43.5 15 -69.5c0 -14.667 -2.66699 -32.834 -8 -54.501s-18.333 -42.167 -39 -61.5c-5.33301 -4.66699 -13.166 -10.5 -23.499 -17.5s-23.833 -13.167 -40.5 -18.5
c13.333 -3.33301 26.333 -8 39 -14s25.334 -14.333 38.001 -25c21.333 -18 36.833 -37.833 46.5 -59.5s14.5 -47.167 14.5 -76.5c0 -27.333 -4.33301 -52.666 -13 -75.999s-21.834 -43.833 -39.501 -61.5s-39.667 -31.5 -66 -41.5s-57.166 -15 -92.499 -15h-279v695h235z
" />
    <glyph glyph-name="afii10020" unicode="&#x413;" horiz-adv-x="454" 
d="M433 582h-221v-582h-142v695h379z" />
    <glyph glyph-name="afii10021" unicode="&#x414;" horiz-adv-x="650" 
d="M273 514c-1.33301 -25.333 -3 -48 -5 -68s-4.5 -39.5 -7.5 -58.5s-7 -38.5 -12 -58.5s-11.167 -42.667 -18.5 -68l-13 -42.5c-4 -13 -8.5 -25.5 -13.5 -37.5s-10.333 -23.667 -16 -35s-12.167 -23.333 -19.5 -36h250v475h-141zM560 110l71.998 0.00195312v-278h-135v168
h-362v-168h-135v278h45c17.333 35.333 34.333 75.666 51 120.999s29.667 92 39 140c2.66699 14 5.33398 30.667 8.00098 50s5 39.833 7 61.5s3.83301 43.167 5.5 64.5s2.83398 40.666 3.50098 57.999l3 90h398v-585z" />
    <glyph glyph-name="afii10022" unicode="&#x415;" horiz-adv-x="495" 
d="M70 0v695h396l-18 -115h-238v-160h199v-115h-197v-185h263v-120h-405z" />
    <glyph glyph-name="afii10024" unicode="&#x416;" horiz-adv-x="929" 
d="M894 614l-32.0039 -8c-5.33301 -1.33301 -10.666 -3 -15.999 -5s-10.666 -5 -15.999 -9c-7.33301 -5.33301 -13.166 -12.833 -17.499 -22.5s-7.16602 -17.5 -8.49902 -23.5l-19 -68c-4 -13.333 -8.33301 -26.666 -13 -39.999s-12.667 -26 -24 -38
c-13.333 -14.667 -31.333 -25.667 -54 -33c20.667 -7.33301 38 -18 52 -32c7.33301 -7.33301 15 -18.333 23 -33s13.667 -27.667 17 -39l29 -103c3.33301 -10 7 -19.5 11 -28.5s11.333 -16.5 22 -22.5c3.33301 -2 9.5 -4.83301 18.5 -8.5s16.167 -6.16699 21.5 -7.5l21 -6
l-26 -97l-79 9c-10.667 1.33301 -24.167 4.5 -40.5 9.5s-30.833 15.167 -43.5 30.5c-9.33301 11.333 -16.333 24.5 -21 39.5s-8.66699 30.5 -12 46.5l-23 101c-2 8 -5.33301 18 -10 30s-12.334 22.667 -23.001 32c-11.333 10.667 -22.666 17 -33.999 19s-22.333 3 -33 3h-30
v-310h-139v310h-30c-10.667 0 -21.667 -1 -33 -3s-22.666 -8.33301 -33.999 -19c-10.667 -9.33301 -18.334 -20 -23.001 -32s-8 -22 -10 -30l-23 -101c-3.33301 -16 -7.33301 -31.5 -12 -46.5s-11.667 -28.167 -21 -39.5c-12.667 -15.333 -27.167 -25.5 -43.5 -30.5
s-29.833 -8.16699 -40.5 -9.5l-79 -9l-26 97l21 6c5.33301 1.33301 12.5 3.83301 21.5 7.5s15.167 6.5 18.5 8.5c10.667 6 18 13.5 22 22.5s7.66699 18.5 11 28.5l29 103c3.33301 11.333 9 24.333 17 39s15.667 25.667 23 33c14 14 31.333 24.667 52 32
c-22.667 7.33301 -40.667 18.333 -54 33c-11.333 12 -19.333 24.667 -24 38s-9 26.666 -13 39.999l-19 68c-1.33301 6 -4.16602 13.833 -8.49902 23.5s-10.166 17.167 -17.499 22.5c-5.33301 4 -10.666 7 -15.999 9s-10.666 3.66699 -15.999 5l-32 8l27 93l67 -9
c15.333 -2 29.166 -5.16699 41.499 -9.5s23.166 -11.5 32.499 -21.5c11.333 -11.333 19 -23.333 23 -36s7.33301 -24 10 -34l21 -89c3.33301 -11.333 7 -22.833 11 -34.5s10 -21.167 18 -28.5c6 -5.33301 15.333 -10 28 -14s24 -6 34 -6h47v270h139v-270h47
c10 0 21.333 2 34 6s22 8.66699 28 14c8 7.33301 14 16.833 18 28.5s7.66699 23.167 11 34.5l21 89c2.66699 10 6 21.333 10 34s11.667 24.667 23 36c9.33301 10 20.166 17.167 32.499 21.5s26.166 7.5 41.499 9.5l67 9z" />
    <glyph glyph-name="afii10025" unicode="&#x417;" horiz-adv-x="535" 
d="M146 306v105h69c4 0 9.33301 0.166992 16 0.5s13.667 1.16602 21 2.49902s14.666 3.66602 21.999 6.99902s14 7.66602 20 12.999c11.333 10 18.333 21.5 21 34.5s4 24.5 4 34.5c0 18 -2.33301 32.5 -7 43.5s-9.66699 19.167 -15 24.5c-7.33301 8 -17.833 14.667 -31.5 20
s-30.167 8 -49.5 8c-33.333 0 -59.666 -4.66699 -78.999 -14s-33 -17.333 -41 -24l-66 89c36 22.667 70.5 37.834 103.5 45.501s67.833 11.5 104.5 11.5c24 0 50 -2.5 78 -7.5s55.333 -17.167 82 -36.5c20 -14.667 37 -33.667 51 -57s21 -52.333 21 -87
c0 -24 -3.5 -44.167 -10.5 -60.5s-14.167 -29.166 -21.5 -38.499s-17.333 -19.166 -30 -29.499s-29.334 -18.833 -50.001 -25.5c14.667 -2 29.5 -6.16699 44.5 -12.5s28.5 -14.5 40.5 -24.5c4 -3.33301 9 -8.33301 15 -15s11.667 -15.167 17 -25.5s10 -22.833 14 -37.5
s6 -31.334 6 -50.001c0 -26 -5.83301 -53.667 -17.5 -83s-33.5 -55.666 -65.5 -78.999c-20.667 -15.333 -45.667 -27.5 -75 -36.5s-67.666 -13.5 -114.999 -13.5c-50 0 -91.833 6 -125.5 18s-62.5 27.667 -86.5 47l64 91c18 -14 38.667 -25.5 62 -34.5s50 -13.5 80 -13.5
c44 0 76 10.667 96 32c6 6 10.667 12.833 14 20.5s5.83301 15 7.5 22s2.66699 13.5 3 19.5s0.5 11 0.5 15c0 11.333 -1.33301 23.5 -4 36.5s-9 24.833 -19 35.5c-12 13.333 -26.167 21.5 -42.5 24.5s-30.833 4.5 -43.5 4.5h-82z" />
    <glyph glyph-name="afii10026" unicode="&#x418;" horiz-adv-x="640" 
d="M428 0v344.002c0 8.66699 0.166992 19.167 0.5 31.5s0.833008 25.166 1.5 38.499l2 40c0.666992 13.333 1.33398 25.666 2.00098 36.999c-8.66699 -28 -16.667 -50.5 -24 -67.5l-24 -53.5l-169 -370h-147v695h142v-344c0 -8.66699 -0.166992 -19.167 -0.5 -31.5
s-0.833008 -25.166 -1.5 -38.499l-2 -40.5c-0.666992 -13.667 -1.33398 -25.834 -2.00098 -36.501c4 14 8 26.333 12 37s8 20.667 12 30l12 27l12 27l169 370h147v-695h-142z" />
    <glyph glyph-name="afii10027" unicode="&#x419;" horiz-adv-x="640" 
d="M485 854c-3.33301 -11.333 -8.99805 -24.166 -16.998 -38.499s-20.667 -28.166 -38 -41.499c-19.333 -14 -37.833 -22.667 -55.5 -26s-35.834 -5 -54.501 -5s-36.834 1.66699 -54.501 5s-36.167 12 -55.5 26c-17.333 13.333 -30 27.166 -38 41.499
s-13.667 27.166 -17 38.499l70 29c4 -7.33301 9.16699 -14 15.5 -20s12.5 -10.667 18.5 -14c8 -4.66699 17.5 -8 28.5 -10s21.833 -3 32.5 -3c6 0 15 0.666992 27 2s23.333 5 34 11c6 3.33301 12.167 8 18.5 14s11.5 12.667 15.5 20zM428.002 0v344.002
c0 8.66699 0.166992 19.167 0.5 31.5s0.833008 25.166 1.5 38.499l2 40c0.666992 13.333 1.33398 25.666 2.00098 36.999c-8.66699 -28 -16.667 -50.5 -24 -67.5l-24 -53.5l-169 -370h-147v695h142v-344c0 -8.66699 -0.166992 -19.167 -0.5 -31.5
s-0.833008 -25.166 -1.5 -38.499l-2 -40.5c-0.666992 -13.667 -1.33398 -25.834 -2.00098 -36.501c4 14 8 26.333 12 37s8 20.667 12 30l12 27l12 27l169 370h147v-695h-142z" />
    <glyph glyph-name="afii10028" unicode="&#x41a;" horiz-adv-x="629" 
d="M595 612l-32.001 -8.00195c-6 -1.33301 -11.5 -3 -16.5 -5s-10.167 -5 -15.5 -9s-10.166 -9.16699 -14.499 -15.5s-8.5 -16.5 -12.5 -30.5l-19 -66c-3.33301 -12 -7.5 -24.833 -12.5 -38.5s-13.167 -26.167 -24.5 -37.5c-7.33301 -7.33301 -15.666 -13.833 -24.999 -19.5
s-20 -10.167 -32 -13.5c13.333 -4 24.333 -9 33 -15s15.667 -11.667 21 -17c11.333 -11.333 20 -23.666 26 -36.999s10.667 -25.666 14 -36.999l30 -103c3.33301 -10 7 -19.5 11 -28.5s11.333 -16.5 22 -22.5c3.33301 -2 9.5 -4.83301 18.5 -8.5s16.167 -6.16699 21.5 -7.5
l21 -6l-26 -97l-79 9c-22.667 2.66699 -40.5 8 -53.5 16s-23.167 16 -30.5 24c-9.33301 11.333 -16.333 24.5 -21 39.5s-8.66699 30.5 -12 46.5l-23 101c-2.66699 10.667 -7.16699 22.5 -13.5 35.5s-12.833 22.5 -19.5 28.5c-9.33301 8.66699 -20.333 14.167 -33 16.5
s-24 3.5 -34 3.5h-52v-310h-142v695h142v-270h62c12.667 0 25.334 1.5 38.001 4.5s23 8.16699 31 15.5c8.66699 7.33301 15 16.833 19 28.5s7.33301 23.167 10 34.5l22 87c2.66699 10 6 21.333 10 34s11.667 24.667 23 36c9.33301 10 20.166 17.167 32.499 21.5
s26.166 7.5 41.499 9.5l67 9z" />
    <glyph glyph-name="afii10029" unicode="&#x41b;" horiz-adv-x="609" 
d="M397 0l0.000976562 579.996h-129l-4 -103c-0.666992 -13.333 -1.5 -31.166 -2.5 -53.499s-2.33301 -46.666 -4 -72.999s-3.83398 -53.5 -6.50098 -81.5s-6 -54.667 -10 -80c-3.33301 -24.667 -8.83301 -49 -16.5 -73s-20.167 -45.333 -37.5 -64
c-18.667 -19.333 -39.5 -32.666 -62.5 -39.999s-44.5 -12.333 -64.5 -15l-44 -7l-26 101l17 5c9.33301 2.66699 17.833 5.33398 25.5 8.00098s16.5 7.66699 26.5 15c6 4.66699 13 11.167 21 19.5s14.667 19.833 20 34.5c2.66699 6 6 17.333 10 34s8 44 12 82
c2.66699 24.667 5 50.5 7 77.5s3.66699 53.167 5 78.5s2.5 49 3.5 71s1.5 40.667 1.5 56l2 123h398v-695h-142z" />
    <glyph glyph-name="afii10030" unicode="&#x41c;" horiz-adv-x="818" 
d="M631 0l-26.001 379.001c-0.666992 10 -1.16699 16.5 -1.5 19.5s-0.666016 7.16699 -0.999023 12.5s-0.666016 13.833 -0.999023 25.5s-0.833008 31.167 -1.5 58.5c-4 -22 -8 -41 -12 -57s-8.66699 -32.667 -14 -50l-110 -388h-119l-99 373c-6 22 -11.167 42 -15.5 60
s-8.5 39 -12.5 63c-0.666992 -30 -1.16699 -51.5 -1.5 -64.5s-0.666016 -22.333 -0.999023 -28s-0.666016 -10 -0.999023 -13s-0.833008 -9.5 -1.5 -19.5l-24 -371h-139l65 695h179l91 -353l10 -37.5c2.66699 -9.66699 4.66699 -18.834 6 -27.501
c1.33301 -5.33301 2.16602 -10.166 2.49902 -14.499s1.16602 -9.16602 2.49902 -14.499c0.666992 -2.66699 1.16699 -5.33398 1.5 -8.00098s0.833008 -5.33398 1.5 -8.00098c1.33301 5.33301 3.66602 17.5 6.99902 36.5s9.33301 44.5 18 76.5l94 350h178l62 -695h-137z" />
    <glyph glyph-name="afii10031" unicode="&#x41d;" horiz-adv-x="623" 
d="M411 0v310h-199v-310h-142v695h142v-270h199v270h142v-695h-142z" />
    <glyph glyph-name="afii10032" unicode="&#x41e;" horiz-adv-x="682" 
d="M341 600c-18 0 -33.5 -2.66699 -46.5 -8s-24 -12 -33 -20s-16.333 -16.167 -22 -24.5s-9.83398 -15.5 -12.501 -21.5c-3.33301 -6.66699 -6.66602 -14.5 -9.99902 -23.5s-6.5 -20.333 -9.5 -34s-5.33301 -30.334 -7 -50.001s-2.5 -43.5 -2.5 -71.5
c0 -27.333 0.833008 -50.833 2.5 -70.5s4 -36.334 7 -50.001s6.16699 -25 9.5 -34s6.66602 -16.833 9.99902 -23.5c4.66699 -9.33301 10 -18.333 16 -27s13.5 -16.5 22.5 -23.5s19.667 -12.667 32 -17s26.833 -6.5 43.5 -6.5s31 2.16699 43 6.5s22.5 10 31.5 17
s16.667 14.833 23 23.5s11.833 17.667 16.5 27c3.33301 6.66699 6.66602 14.5 9.99902 23.5s6.5 20.333 9.5 34s5.33301 30.334 7 50.001s2.5 43.167 2.5 70.5c0 28 -0.833008 51.833 -2.5 71.5s-4 36.334 -7 50.001s-6.16699 25 -9.5 34s-6.66602 16.833 -9.99902 23.5
c-3.33301 6 -7.66602 13.167 -12.999 21.5s-12.5 16.5 -21.5 24.5s-20 14.667 -33 20s-28.5 8 -46.5 8zM341 707c27.333 0 52.166 -2.66699 74.499 -8s42.333 -12.333 60 -21s33.167 -18.5 46.5 -29.5s25 -22.167 35 -33.5c28 -31.333 49.167 -69.833 63.5 -115.5
s21.5 -96.5 21.5 -152.5c0 -55.333 -7.16699 -105.666 -21.5 -150.999s-35.5 -84 -63.5 -116c-10 -11.333 -21.667 -22.5 -35 -33.5s-28.833 -20.833 -46.5 -29.5s-37.667 -15.667 -60 -21s-47.166 -8 -74.499 -8s-52.166 2.66699 -74.499 8s-42.333 12.333 -60 21
s-33.167 18.5 -46.5 29.5s-25 22.167 -35 33.5c-28 32 -49.167 70.667 -63.5 116s-21.5 95.666 -21.5 150.999c0 56 7.16699 106.833 21.5 152.5s35.5 84.167 63.5 115.5c10 11.333 21.667 22.5 35 33.5s28.833 20.833 46.5 29.5s37.667 15.667 60 21s47.166 8 74.499 8z
" />
    <glyph glyph-name="afii10033" unicode="&#x41f;" horiz-adv-x="611" 
d="M401 0v580h-191v-580h-140v695h471v-695h-140z" />
    <glyph glyph-name="afii10034" unicode="&#x420;" horiz-adv-x="568" 
d="M285 370c16 0 29.168 0.667969 39.501 2.00098s18.833 3.5 25.5 6.5s12.167 6.83301 16.5 11.5s8.16602 10 11.499 16s7 14.333 11 25s6 26 6 46c0 17.333 -2.16699 32.333 -6.5 45s-9.5 22.667 -15.5 30c-4.66699 5.33301 -12.667 11.666 -24 18.999s-27.333 11 -48 11
h-89v-212h73zM288.001 695.001c42 0 75.333 -3.49902 100 -10.499s44.667 -14.833 60 -23.5c32.667 -18 57.5 -42.5 74.5 -73.5s25.5 -66.5 25.5 -106.5c0 -14 -1.5 -30 -4.5 -48s-8.83301 -36.333 -17.5 -55s-20.834 -36.667 -36.501 -54s-36.167 -32.333 -61.5 -45
c-9.33301 -4.66699 -18.666 -8.5 -27.999 -11.5s-19.333 -5.33301 -30 -7s-22.5 -2.83398 -35.5 -3.50098s-28.167 -1 -45.5 -1h-77v-256h-142v695h218z" />
    <glyph glyph-name="afii10035" unicode="&#x421;" 
d="M542 53c-22 -18 -48.498 -33.332 -79.498 -45.999s-68.5 -19 -112.5 -19c-55.333 0 -101 9.16699 -137 27.5s-65.667 41.166 -89 68.499c-30 34 -51.5 71.5 -64.5 112.5s-19.5 86.167 -19.5 135.5c0 40.667 4 79.334 12 116.001s19.667 69.667 35 99
c26.667 50 63.5 89.167 110.5 117.5s98.5 42.5 154.5 42.5c25.333 0 48 -2.33301 68 -7s37.333 -10.167 52 -16.5s26.667 -12.5 36 -18.5s15.666 -10.333 18.999 -13l-63 -94c-19.333 16 -39.166 26.5 -59.499 31.5s-36.5 7.5 -48.5 7.5c-26 0 -49.5 -5.66699 -70.5 -17
s-37.5 -25.666 -49.5 -42.999c-8.66699 -12.667 -15.667 -27.334 -21 -44.001s-9.33301 -33.667 -12 -51s-4.33398 -34.333 -5.00098 -51s-1 -31.667 -1 -45c0 -23.333 0.666992 -43.833 2 -61.5s3.16602 -33.334 5.49902 -47.001s5.33301 -25.667 9 -36
s7.83398 -19.833 12.501 -28.5c16 -29.333 36.167 -49.5 60.5 -60.5s48.833 -16.5 73.5 -16.5c21.333 0 42.166 3.83301 62.499 11.5s38.833 18.5 55.5 32.5z" />
    <glyph glyph-name="afii10036" unicode="&#x422;" horiz-adv-x="491" 
d="M488 580h-166v-580h-142v580h-170v115h501z" />
    <glyph glyph-name="afii10037" unicode="&#x423;" horiz-adv-x="541" 
d="M239 436c9.33301 -26 17.332 -49.333 23.999 -70s13.334 -44 20.001 -70c4.66699 20.667 9 38.667 13 54s8 29.333 12 42s8 24.667 12 36l13 37l81 230h147l-182 -489c-10 -26 -18.333 -48.5 -25 -67.5s-12.834 -35.167 -18.501 -48.5s-11.167 -24.666 -16.5 -33.999
s-11.333 -17.666 -18 -24.999c-9.33301 -10 -19.666 -18.333 -30.999 -25s-22.666 -12 -33.999 -16s-22 -7 -32 -9s-18.667 -3.66699 -26 -5l-44 -7l-26 101l17 5c9.33301 2.66699 17.666 5.16699 24.999 7.5s16.333 7.16602 27 14.499c19.333 12.667 32.833 26.667 40.5 42
s14.167 29.666 19.5 42.999l12 32l-68 -9l-191 490h153z" />
    <glyph glyph-name="afii10038" unicode="&#x424;" horiz-adv-x="786" 
d="M317 538c-23.333 0 -41.668 -3.50293 -55.001 -10.5029s-23.333 -13.5 -30 -19.5c-9.33301 -9.33301 -16.666 -19.666 -21.999 -30.999s-9.16602 -23 -11.499 -35s-3.83301 -23.833 -4.5 -35.5s-1 -22.5 -1 -32.5v-11c0 -10.667 0.166992 -21.834 0.5 -33.501
s1.66602 -23.167 3.99902 -34.5s6 -22.666 11 -33.999s12.167 -21.666 21.5 -30.999c14.667 -15.333 30 -24.666 46 -27.999s29.667 -5 41 -5h12v341h-12zM456.998 196.997l11.998 0.00292969c11.333 0 25 1.66699 41 5s31.333 12.666 46 27.999
c9.33301 9.33301 16.5 19.666 21.5 30.999s8.66699 22.666 11 33.999s3.66602 22.833 3.99902 34.5s0.5 22.834 0.5 33.501v11c0 10 -0.333008 20.833 -1 32.5s-2.16699 23.5 -4.5 35.5s-6.16602 23.667 -11.499 35s-12.666 21.666 -21.999 30.999
c-6.66699 6 -16.667 12.5 -30 19.5s-31.666 10.5 -54.999 10.5h-12v-341zM321.996 0l0.00195312 102h-24c-49.333 0 -89.833 8.16699 -121.5 24.5s-56.834 35.166 -75.501 56.499c-18 21.333 -32.667 47.666 -44 78.999s-17 66.666 -17 105.999c0 40 6.33301 78.333 19 115
s32 66.667 58 90c22 19.333 49.333 34.166 82 44.499s65.667 15.5 99 15.5h24v97h142v-97h24c33.333 0 66.333 -5.16699 99 -15.5s60 -25.166 82 -44.499c26 -23.333 45.333 -53.333 58 -90s19 -75 19 -115c0 -39.333 -5.66699 -74.666 -17 -105.999
s-26 -57.666 -44 -78.999c-18.667 -21.333 -43.834 -40.166 -75.501 -56.499s-72.167 -24.5 -121.5 -24.5h-24v-102h-142z" />
    <glyph glyph-name="afii10039" unicode="&#x425;" 
d="M408 0l-125 245l-124 -245h-174l218 372l-188 323h171l94 -187l95 187h167l-181 -314l216 -381h-169z" />
    <glyph glyph-name="afii10040" unicode="&#x426;" horiz-adv-x="627" 
d="M212 115h183v580h142v-581h72v-286h-135v172h-404v695h142v-580z" />
    <glyph glyph-name="afii10041" unicode="&#x427;" horiz-adv-x="583" 
d="M371 0l-0.00195312 289c-25.333 -12 -51.166 -20.167 -77.499 -24.5s-49.166 -6.5 -68.499 -6.5c-8 0 -17.5 0.5 -28.5 1.5s-22.667 3 -35 6s-25 7.66699 -38 14s-24.833 15.166 -35.5 26.499c-20 20 -32.167 40.833 -36.5 62.5s-6.5 40.167 -6.5 55.5v271h142v-218
c0 -11.333 0.833008 -25 2.5 -41s6.83398 -29.667 15.501 -41c10 -13.333 21.833 -21.666 35.5 -24.999s25.167 -5 34.5 -5c14 0 28.167 1.5 42.5 4.5s32.166 8.5 53.499 16.5v309h142v-695h-142z" />
    <glyph glyph-name="afii10042" unicode="&#x428;" horiz-adv-x="916" 
d="M210 111h178v584h140v-584h178v584h140v-695h-776v695h140v-584z" />
    <glyph glyph-name="afii10043" unicode="&#x429;" horiz-adv-x="936" 
d="M210 111h178v584h140v-584h178v584h140v-581h72v-286h-135v172h-713v695h140v-584z" />
    <glyph glyph-name="afii10044" unicode="&#x42a;" horiz-adv-x="696" 
d="M396 112c13.333 0 27.332 2.00195 41.999 6.00195s28.334 13.667 41.001 29c9.33301 11.333 15.333 23.666 18 36.999s4 25.666 4 36.999s-1.5 24.333 -4.5 39s-10.833 27.667 -23.5 39c-6.66699 6 -13.667 10.667 -21 14s-14.5 5.83301 -21.5 7.5s-13.5 2.66699 -19.5 3
s-11 0.5 -15 0.5h-79v-212h79zM316.999 436.002l91 0.000976562c28 0 57.833 -2.66699 89.5 -8s61.167 -19.333 88.5 -42c14.667 -12 26.667 -25.167 36 -39.5s16.5 -28.833 21.5 -43.5s8.33301 -29.167 10 -43.5s2.5 -27.5 2.5 -39.5c0 -14 -1 -28.833 -3 -44.5
s-6.16699 -31.5 -12.5 -47.5s-15.166 -31.5 -26.499 -46.5s-26 -28.5 -44 -40.5c-14.667 -10 -29.834 -17.667 -45.501 -23s-30.667 -9.33301 -45 -12s-27.333 -4.33398 -39 -5.00098s-20.5 -1 -26.5 -1h-239v580h-170v115h312v-259z" />
    <glyph glyph-name="afii10045" unicode="&#x42b;" horiz-adv-x="856" 
d="M786 695v-695h-142v695h142zM287 112c15.333 0 30.666 3.00098 45.999 9.00098s27.666 14.333 36.999 25c8 9.33301 13.667 20.666 17 33.999s5 27.333 5 42c0 10 -1.5 22.333 -4.5 37s-10.833 27.667 -23.5 39c-9.33301 8.66699 -21.166 15.167 -35.499 19.5
s-28.166 6.5 -41.499 6.5h-75v-212h75zM212 695.001l-0.00195312 -258.999h87c28 0 57.167 -2.5 87.5 -7.5s59.5 -19.167 87.5 -42.5c14.667 -12.667 26.667 -26 36 -40s16.5 -28.333 21.5 -43s8.33301 -29 10 -43s2.5 -27.333 2.5 -40c0 -14 -1 -28.833 -3 -44.5
s-6.16699 -31.334 -12.5 -47.001s-15.166 -31 -26.499 -46s-26 -28.833 -44 -41.5c-25.333 -17.333 -51.666 -28.5 -78.999 -33.5s-52 -7.5 -74 -7.5h-235v695h142z" />
    <glyph glyph-name="afii10046" unicode="&#x42c;" horiz-adv-x="591" 
d="M291 112c10 0 21.1709 1.16797 33.5039 3.50098s23.666 7.16602 33.999 14.499s19.166 18 26.499 32s11 33 11 57c0 26 -4.16699 46.167 -12.5 60.5s-18.333 24.833 -30 31.5s-23.334 10.5 -35.001 11.5s-20.834 1.5 -27.501 1.5h-79v-212h79zM212.004 695.001
l-0.000976562 -259h91c12.667 0 27.667 -0.666992 45 -2s35.333 -4.5 54 -9.5s36.834 -12.333 54.501 -22s33.5 -22.5 47.5 -38.5s25.333 -35.667 34 -59s13 -51.666 13 -84.999c0 -38.667 -6.5 -71.834 -19.5 -99.501s-30.5 -50.5 -52.5 -68.5s-47.667 -31.167 -77 -39.5
s-60.333 -12.5 -93 -12.5h-239v695h142z" />
    <glyph glyph-name="afii10047" unicode="&#x42d;" horiz-adv-x="565" 
d="M32 652c20 14 45.0049 26.6641 75.0049 37.9971s67.333 17 112 17c12 0 27 -0.833008 45 -2.5s37.333 -5.83398 58 -12.501s41.834 -16.667 63.501 -30s42.167 -31.333 61.5 -54c18 -21.333 32.167 -44.166 42.5 -68.499s18.166 -48 23.499 -71
s8.66602 -44.833 9.99902 -65.5s2 -38.334 2 -53.001c0 -18 -0.833008 -38 -2.5 -60s-5.33398 -44.833 -11.001 -68.5s-13.834 -47.167 -24.501 -70.5s-25.334 -45.666 -44.001 -66.999c-8.66699 -10 -19.834 -20.667 -33.501 -32s-29.834 -21.666 -48.501 -30.999
s-40.167 -17.166 -64.5 -23.499s-51.5 -9.5 -81.5 -9.5c-45.333 0 -83.833 6.33301 -115.5 19s-59.167 28 -82.5 46l64 90c26.667 -20.667 51 -33.334 73 -38.001s39 -7 51 -7c18.667 0 35.334 2 50.001 6s27.334 8.83301 38.001 14.5s19.5 11.834 26.5 18.501
s12.5 13 16.5 19c10.667 15.333 18.5 34.5 23.5 57.5s7.5 44.167 7.5 63.5v33h-202v112h199l-1 22c0 4 -0.5 9.66699 -1.5 17s-2.5 15.5 -4.5 24.5s-5 18.5 -9 28.5s-9.33301 19.667 -16 29c-8.66699 12 -18.334 21.5 -29.001 28.5s-21.334 12.333 -32.001 16
s-21.167 6.16699 -31.5 7.5s-19.166 2 -26.499 2c-19.333 0 -39.333 -3.16699 -60 -9.5s-40 -16.166 -58 -29.499z" />
    <glyph glyph-name="afii10048" unicode="&#x42e;" horiz-adv-x="941" 
d="M606 600c-18 0 -33.1641 -2.66699 -45.4971 -8s-22.833 -11.666 -31.5 -18.999s-15.667 -15.333 -21 -24s-9.33301 -16.334 -12 -23.001c-2.66699 -6 -5.66699 -13.667 -9 -23s-6.33301 -20.833 -9 -34.5s-4.83398 -30.334 -6.50098 -50.001s-2.5 -43.167 -2.5 -70.5
s0.833008 -50.833 2.5 -70.5s3.83398 -36.334 6.50098 -50.001s5.66699 -25.167 9 -34.5s6.33301 -17 9 -23c3.33301 -7.33301 7.5 -15.333 12.5 -24s11.833 -16.834 20.5 -24.501s19.167 -14 31.5 -19s27.5 -7.5 45.5 -7.5s33.167 2.5 45.5 7.5s22.666 11.333 30.999 19
s15.166 15.834 20.499 24.501s9.66602 16.667 12.999 24c2.66699 6 5.66699 13.667 9 23s6.33301 20.833 9 34.5s4.83398 30.334 6.50098 50.001s2.5 43.167 2.5 70.5s-0.833008 50.833 -2.5 70.5s-3.83398 36.334 -6.50098 50.001s-5.66699 25.167 -9 34.5
s-6.33301 17 -9 23c-3.33301 6.66699 -7.5 14.334 -12.5 23.001s-11.833 16.667 -20.5 24s-19.167 13.666 -31.5 18.999s-27.5 8 -45.5 8zM209.003 695l0.00585938 -269.999h112c3.33301 30 10.666 62.667 21.999 98s28.666 66.666 51.999 93.999
c8 10 18.167 20.167 30.5 30.5s27.166 20 44.499 29s37.166 16.333 59.499 22s47.833 8.5 76.5 8.5c47.333 0 88 -8.16699 122 -24.5s63.667 -39.166 89 -68.499c27.333 -32 48.166 -70.5 62.499 -115.5s21.5 -95.167 21.5 -150.5c0 -36.667 -2.83301 -69.334 -8.5 -98.001
s-12.834 -53.834 -21.501 -75.501s-17.834 -40.167 -27.501 -55.5s-18.5 -27.666 -26.5 -36.999c-25.333 -30 -55 -53.167 -89 -69.5s-74.667 -24.5 -122 -24.5c-28.667 0 -54.667 3 -78 9s-44.5 14.333 -63.5 25s-35.667 23 -50 37s-26.833 28.667 -37.5 44
c-19.333 29.333 -34.166 62.333 -44.499 99s-15.5 72.667 -15.5 108h-108v-310h-139v695h139z" />
    <glyph glyph-name="afii10049" unicode="&#x42f;" horiz-adv-x="614" 
d="M325 583c-10.667 0 -21.501 -0.668945 -32.501 -2.00195s-21.167 -4.66602 -30.5 -9.99902c-7.33301 -4.66699 -15.666 -12.834 -24.999 -24.501s-14 -29.167 -14 -52.5c0 -11.333 1.5 -23.666 4.5 -36.999s8.5 -24.666 16.5 -33.999c11.333 -13.333 24 -21.333 38 -24
s25 -4 33 -4h3h84v188h-77zM543.999 -0.00195312l-141.998 0.00390625v283h-59c-13.333 0 -26 -2.33301 -38 -7s-21.667 -10.667 -29 -18c-7.33301 -6.66699 -14 -15.834 -20 -27.501s-10.333 -23.167 -13 -34.5l-16 -71c-3.33301 -16 -7.33301 -31.5 -12 -46.5
s-11.667 -28.167 -21 -39.5c-12.667 -15.333 -27.167 -25.5 -43.5 -30.5s-29.833 -8.16699 -40.5 -9.5l-79 -9l-26 97l21 6c5.33301 1.33301 12.5 3.83301 21.5 7.5s15.167 6.5 18.5 8.5c10.667 6 18 13.5 22 22.5s7.66699 18.5 11 28.5l23 79
c4 13.333 9.33301 26.333 16 39s14.667 23.334 24 32.001c7.33301 7.33301 16.166 13.666 26.499 18.999s20.166 9.66602 29.499 12.999c-19.333 3.33301 -38.166 9.66602 -56.499 18.999s-33.5 20.666 -45.5 33.999c-13.333 15.333 -23.333 33.333 -30 54s-10 42 -10 64
c0 25.333 5.66699 50.333 17 75s27.666 45.667 48.999 63c25.333 20 52.333 32.333 81 37s56 7 82 7h239v-695z" />
    <glyph glyph-name="afii10065" unicode="&#x430;" horiz-adv-x="512" 
d="M303 224c-7.33301 0 -15.499 -0.168945 -24.499 -0.501953s-18.333 -1.16602 -28 -2.49902s-18.834 -3.16602 -27.501 -5.49902s-16 -5.83301 -22 -10.5c-10.667 -8 -17.167 -17.667 -19.5 -29s-3.5 -20.333 -3.5 -27c0 -21.333 5.5 -38.333 16.5 -51
s25.167 -19 42.5 -19c13.333 0 26 3.16699 38 9.5s22.667 14.833 32 25.5l2 110h-6zM417.001 -26.002c-12 5.33301 -24.667 12.8369 -38 22.5039s-24.666 22.834 -33.999 39.501c-7.33301 -7.33301 -13 -12.833 -17 -16.5s-8.66699 -7.16699 -14 -10.5
c-9.33301 -7.33301 -22 -13.833 -38 -19.5s-37.667 -8.5 -65 -8.5c-55.333 0 -98 13.333 -128 40c-12 11.333 -23 26.666 -33 45.999s-15 44 -15 74c0 33.333 6.66699 62.666 20 87.999s36.333 45.666 69 60.999c20.667 9.33301 45 16.166 73 20.499s55.333 6.5 82 6.5h16
c5.33301 0 10.666 -0.333008 15.999 -1v21c0 29.333 -4 49.5 -12 60.5s-23.667 16.5 -47 16.5c-26.667 0 -53.167 -6 -79.5 -18s-49.5 -25.667 -69.5 -41l-57 96c16.667 10.667 31.167 19 43.5 25s25.166 11.667 38.499 17c22 9.33301 42.833 16.833 62.5 22.5
s44.5 8.5 74.5 8.5c26 0 48.5 -2.33301 67.5 -7s35.167 -11 48.5 -19s24.333 -17.5 33 -28.5s15.334 -22.833 20.001 -35.5c4 -11.333 6.5 -25.5 7.5 -42.5s1.5 -30.5 1.5 -40.5v-9l-3 -172c0 -3.33301 -0.166992 -7 -0.5 -11s-0.5 -7.66699 -0.5 -11
c0 -14.667 2.83301 -29.834 8.5 -45.501s19.167 -31.167 40.5 -46.5z" />
    <glyph glyph-name="afii10066" unicode="&#x431;" horiz-adv-x="541" 
d="M273 414c-17.333 0 -30.5 -3.33301 -39.5 -10s-15.167 -12.334 -18.5 -17.001c-10.667 -14 -17.834 -31.833 -21.501 -53.5s-5.5 -49.167 -5.5 -82.5c0 -32.667 1.83301 -60.167 5.5 -82.5s10.834 -40.5 21.501 -54.5c8 -11.333 17 -18.833 27 -22.5s20.333 -5.5 31 -5.5
s21 1.83301 31 5.5s19 11.167 27 22.5c10.667 14 17.834 32.167 21.501 54.5s5.5 49.833 5.5 82.5c0 33.333 -1.83301 60.833 -5.5 82.5s-10.834 39.5 -21.501 53.5c-3.33301 4.66699 -9.5 10.334 -18.5 17.001s-22.167 10 -39.5 10zM153 425
c13.333 22.667 29.666 40.6611 48.999 53.9941c18.667 13.333 36.667 22.166 54 26.499s36.333 6.5 57 6.5c22.667 0 44.834 -4.16699 66.501 -12.5s44.167 -26.166 67.5 -53.499c22 -26 37.333 -53.833 46 -83.5s13 -65.167 13 -106.5c0 -33.333 -4 -66.666 -12 -99.999
s-24.667 -65 -50 -95c-14 -16 -28.5 -28.667 -43.5 -38s-29.833 -16.666 -44.5 -21.999s-29 -8.83301 -43 -10.5s-27 -2.5 -39 -2.5c-8.66699 0 -19.667 0.666992 -33 2s-27.666 4.33301 -42.999 9s-31.333 11.834 -48 21.501s-32.334 22.834 -47.001 39.501
c-15.333 16.667 -27.166 34.834 -35.499 54.501s-14.5 40 -18.5 61s-6.5 42.333 -7.5 64s-1.5 43.167 -1.5 64.5c0 14 0.333008 29.833 1 47.5s1.83398 36.167 3.50098 55.5s4.16699 38.833 7.5 58.5s8 38.5 14 56.5c7.33301 22.667 16.5 42.5 27.5 59.5s23.667 32 38 45
s30.833 24.667 49.5 35s39.334 20.166 62.001 29.499l87 36l29.5 12c8.33301 3.33301 16.5 6.83301 24.5 10.5l24.5 11c8.33301 3.66699 18.166 8.5 29.499 14.5l45 -105c-21.333 -13.333 -41 -23.5 -59 -30.5l-55 -20.5l-55.5 -19l-38.5 -14
c-10.667 -4 -19.5 -7.5 -26.5 -10.5l-19.5 -8.5c-12.667 -6.66699 -25.334 -15.167 -38.001 -25.5s-22.667 -24.5 -30 -42.5c-4.66699 -11.333 -7.83398 -24.166 -9.50098 -38.499s-2.5 -26.166 -2.5 -35.499h4z" />
    <glyph glyph-name="afii10067" unicode="&#x432;" horiz-adv-x="529" 
d="M198 85l53 0.00292969c12.667 0 25.667 0.666992 39 2s25 6.66602 35 15.999c8.66699 7.33301 14 15.666 16 24.999s3 18.666 3 27.999c0 7.33301 -1.16699 16.333 -3.5 27s-8.5 20 -18.5 28c-7.33301 6 -16 9.83301 -26 11.5s-19.333 2.5 -28 2.5h-70v-140zM198 307.003
l59.999 -0.000976562c5.33301 0 14.333 0.833008 27 2.5s23 6.83398 31 15.501c9.33301 10.667 14 25.667 14 45c0 11.333 -1.83301 20.833 -5.5 28.5s-7.83398 13.167 -12.501 16.5c-5.33301 4 -12.666 7 -21.999 9s-17.666 3 -24.999 3h-67v-120zM306.999 512.002
c17.333 0 34.999 -1.33105 52.999 -3.99805s34.667 -9.33398 50 -20.001l15 -13c6 -5.33301 11.833 -12.333 17.5 -21s10.334 -19.167 14.001 -31.5s5.5 -26.5 5.5 -42.5s-2.33301 -29.833 -7 -41.5s-12 -23.167 -22 -34.5c-13.333 -14.667 -30 -25.667 -50 -33
c15.333 -2.66699 28.333 -7.16699 39 -13.5s19.667 -12.833 27 -19.5c10.667 -10 19.167 -22.333 25.5 -37s9.5 -32.334 9.5 -53.001c0 -22 -3.83301 -42.5 -11.5 -61.5s-17.834 -34.167 -30.501 -45.5c-8.66699 -8 -23.167 -16.833 -43.5 -26.5
s-49.166 -14.5 -86.499 -14.5h-242v512h237z" />
    <glyph glyph-name="afii10068" unicode="&#x433;" horiz-adv-x="403" 
d="M70 0v512h338l-14 -94h-192v-418h-132z" />
    <glyph glyph-name="afii10069" unicode="&#x434;" horiz-adv-x="533" 
d="M225 418l-5 -70.0029c-0.666992 -9.33301 -1.66699 -19.666 -3 -30.999s-3 -22.666 -5 -33.999l-5.5 -32.5c-1.66699 -10.333 -3.5 -19.166 -5.5 -26.499c-4 -17.333 -10 -38 -18 -62s-18.667 -46.667 -32 -68h171v324h-97zM518 -140.003h-125.004v140h-273v-140h-125
v234h41c12.667 23.333 24.334 48 35.001 74s19.334 52.333 26.001 79c3.33301 12.667 6.5 28 9.5 46s5.83301 36.5 8.5 55.5s4.83398 37.333 6.50098 55s2.83398 33.167 3.50098 46.5l2 62h327v-418h64v-234z" />
    <glyph glyph-name="afii10070" unicode="&#x435;" horiz-adv-x="506" 
d="M342 318c0 13.333 -0.832031 27.333 -2.49902 42s-7.16699 28 -16.5 40c-7.33301 9.33301 -16 16 -26 20s-20 6 -30 6c-24 0 -42.667 -8.33301 -56 -25c-10.667 -12.667 -17.334 -27.167 -20.001 -43.5s-4 -30.833 -4 -43.5v-2h155v6zM185.001 214l-0.00292969 -11.0049
c0 -18.667 3 -35.667 9 -51s14 -27.666 24 -36.999c11.333 -11.333 23.833 -18.666 37.5 -21.999s26.834 -5 39.501 -5c4.66699 0 11.334 0.333008 20.001 1s18.5 2.83398 29.5 6.50098s23.167 8.83398 36.5 15.501s27.333 16 42 28l52 -80
c-32.667 -27.333 -66 -46 -100 -56s-65 -15 -93 -15c-35.333 0 -67.666 6 -96.999 18s-54.666 28.667 -75.999 50c-19.333 20 -35.666 46 -48.999 78s-20 73 -20 123c0 48.667 5.83301 88.334 17.5 119.001s27.167 56.667 46.5 78c25.333 28 51.5 46.667 78.5 56
s54.5 14 82.5 14c34.667 0 64.167 -5.33301 88.5 -16s44.166 -23.667 59.499 -39c16 -16 28.5 -34 37.5 -54s15.667 -40.167 20 -60.5s7.16602 -40 8.49902 -59s2 -35.833 2 -50.5v-31h-296z" />
    <glyph glyph-name="afii10072" unicode="&#x436;" horiz-adv-x="760" 
d="M444 525l0.000976562 -208h20c4.66699 0 12.5 0.666992 23.5 2s20.5 5.66602 28.5 12.999c7.33301 6.66699 12.333 14.5 15 23.5s4.66699 16.833 6 23.5l11 50c2 9.33301 5.16699 19.833 9.5 31.5s11.5 22.167 21.5 31.5c11.333 10 24.5 16.5 39.5 19.5
s28.167 5.16699 39.5 6.5l48 4l24 -91l-22 -5c-4 -1.33301 -8.33301 -2.5 -13 -3.5s-9 -3.16699 -13 -6.5c-6.66699 -5.33301 -11.5 -11.166 -14.5 -17.499s-5.16699 -11.833 -6.5 -16.5l-17 -46c-4 -11.333 -11.333 -24 -22 -38s-26.334 -22.667 -47.001 -26
c12 -3.33301 22 -7.66602 30 -12.999s14.667 -11.166 20 -17.499s9.66602 -13.166 12.999 -20.499s6.33301 -14.666 9 -21.999l25 -63c2.66699 -6 5.33398 -12.333 8.00098 -19s8.33398 -13 17.001 -19c8 -6 18 -10 30 -12l18 -4l-24 -92l-44 3
c-17.333 1.33301 -35.5 3.66602 -54.5 6.99902s-34.833 12 -47.5 26c-6.66699 7.33301 -12.5 17 -17.5 29s-8.83301 23.667 -11.5 35l-17 71c-2 9.33301 -5.16699 18.5 -9.5 27.5s-9.5 16.167 -15.5 21.5c-10.667 8.66699 -27 13 -49 13h-11v-223h-128v223h-11
c-22 0 -38.333 -4.33301 -49 -13c-6 -5.33301 -11.167 -12.5 -15.5 -21.5s-7.5 -18.167 -9.5 -27.5l-17 -71c-2.66699 -11.333 -6.5 -23 -11.5 -35s-10.833 -21.667 -17.5 -29c-12.667 -14 -28.5 -22.667 -47.5 -26s-37.167 -5.66602 -54.5 -6.99902l-44 -3l-24 92l18 4
c12 2 22 6 30 12c8.66699 6 14.334 12.333 17.001 19s5.33398 13 8.00098 19l25 63c2.66699 7.33301 5.66699 14.666 9 21.999s7.66602 14.166 12.999 20.499s12 12.166 20 17.499s18 9.66602 30 12.999c-10.667 2 -19.834 5.33301 -27.501 10s-14.334 10 -20.001 16
s-10.167 12.333 -13.5 19s-6 13 -8 19l-17 46c-1.33301 4.66699 -3.5 10.167 -6.5 16.5s-7.83301 12.166 -14.5 17.499c-4 3.33301 -8.33301 5.5 -13 6.5s-9 2.16699 -13 3.5l-22 5l24 91l48 -4c11.333 -1.33301 24.5 -3.5 39.5 -6.5s28.167 -9.5 39.5 -19.5
c10 -9.33301 17.167 -19.833 21.5 -31.5s7.5 -22.167 9.5 -31.5l11 -50c1.33301 -6.66699 3.33301 -14.5 6 -23.5s7.66699 -16.833 15 -23.5c8 -7.33301 17.5 -11.666 28.5 -12.999s18.833 -2 23.5 -2h20v183z" />
    <glyph glyph-name="afii10073" unicode="&#x437;" horiz-adv-x="450" 
d="M195 314c22.667 0 39.334 6.33008 50.001 18.9971c5.33301 6 8.66602 12.667 9.99902 20s2 13.333 2 18c0 8.66699 -1 16.334 -3 23.001s-6.66699 12.667 -14 18c-7.33301 6 -15.333 9.83301 -24 11.5s-17 2.5 -25 2.5c-16 0 -30 -1.66699 -42 -5
s-21 -6.66602 -27 -9.99902c-9.33301 -4 -17.166 -8.5 -23.499 -13.5l-16.5 -13.5l-54 78c6.66699 6 15.334 12.5 26.001 19.5s23.334 13.833 38.001 20.5c35.333 14.667 73.666 22 114.999 22c20.667 0 43.167 -2.5 67.5 -7.5s46.166 -14.167 65.499 -27.5
c13.333 -9.33301 26 -22.833 38 -40.5s18 -41.5 18 -71.5c0 -24.667 -5 -45.334 -15 -62.001c-3.33301 -6 -9.33301 -13.833 -18 -23.5s-21.334 -17.5 -38.001 -23.5c18 -5.33301 32.167 -12.333 42.5 -21s17.166 -15.667 20.499 -21c9.33301 -13.333 15.333 -26.5 18 -39.5
s4 -25.167 4 -36.5c0 -25.333 -5.5 -48.666 -16.5 -69.999s-28.5 -39.666 -52.5 -54.999c-22 -14.667 -46.167 -24.5 -72.5 -29.5s-51.5 -7.5 -75.5 -7.5c-33.333 0 -60 3.16699 -80 9.5s-37 14.166 -51 23.499c-10 6 -19 12.333 -27 19s-14.667 12.667 -20 18l60 80
c7.33301 -8 14.833 -14.833 22.5 -20.5s15.167 -10.5 22.5 -14.5c20.667 -11.333 42 -17 64 -17c9.33301 0 20 1 32 3s21.667 6.33301 29 13c5.33301 4 10.166 10.167 14.499 18.5s6.5 19.833 6.5 34.5c0 11.333 -1.66699 21.833 -5 31.5s-10.333 17.834 -21 24.501
c-9.33301 5.33301 -18.666 8.5 -27.999 9.5s-19.666 1.5 -30.999 1.5h-38v92h52z" />
    <glyph glyph-name="afii10074" unicode="&#x438;" horiz-adv-x="564" 
d="M70 0l-0.00292969 499.999l132 25v-236c0 -18 -0.666992 -38.167 -2 -60.5s-2.66602 -41.166 -3.99902 -56.499l12.5 29l15 35c5 12 10.167 23.667 15.5 35l14 29l104 200l137 25v-525h-132v186c0 23.333 0.333008 46.333 1 69s2.33398 48.667 5.00098 78
c-8 -24.667 -16.167 -46.5 -24.5 -65.5s-17.166 -37.5 -26.499 -55.5l-110 -212h-137z" />
    <glyph glyph-name="afii10075" unicode="&#x439;" horiz-adv-x="564" 
d="M450 713c-5.33301 -18.667 -12.832 -35.667 -22.499 -51s-20.834 -27.666 -33.501 -36.999c-15.333 -11.333 -32.833 -19.666 -52.5 -24.999s-39.5 -8 -59.5 -8s-40 2.66699 -60 8s-37.333 13.666 -52 24.999c-14 11.333 -25.667 25.166 -35 41.499
s-16.333 31.833 -21 46.5l71 29c4 -7.33301 9.5 -14.333 16.5 -21s13.5 -11.667 19.5 -15c10 -6 19.833 -9.83301 29.5 -11.5s20.167 -2.5 31.5 -2.5c10 0 20.5 0.833008 31.5 2.5s21.167 5.5 30.5 11.5c6 3.33301 12.5 8.5 19.5 15.5s12.167 13.833 15.5 20.5zM70.001 0
l-0.00292969 499.999l132 25v-236c0 -18 -0.666992 -38.167 -2 -60.5s-2.66602 -41.166 -3.99902 -56.499l12.5 29l15 35c5 12 10.167 23.667 15.5 35l14 29l104 200l137 25v-525h-132v186c0 23.333 0.333008 46.333 1 69s2.33398 48.667 5.00098 78
c-8 -24.667 -16.167 -46.5 -24.5 -65.5s-17.166 -37.5 -26.499 -55.5l-110 -212h-137z" />
    <glyph glyph-name="afii10076" unicode="&#x43a;" horiz-adv-x="541" 
d="M202 525v-208.003h33c4.66699 0 12.5 0.666992 23.5 2s20.5 5.66602 28.5 12.999c7.33301 6.66699 12.333 14.5 15 23.5s4.66699 16.833 6 23.5l11 50c2 9.33301 5.16699 19.833 9.5 31.5s11.5 22.167 21.5 31.5c11.333 10 24.5 16.5 39.5 19.5s28.167 5.16699 39.5 6.5
l48 4l24 -91l-22 -5c-4 -1.33301 -8.33301 -2.5 -13 -3.5s-9 -3.16699 -13 -6.5c-6.66699 -5.33301 -11.5 -11.166 -14.5 -17.499s-5.16699 -11.833 -6.5 -16.5l-17 -46c-4 -11.333 -11.333 -24 -22 -38s-26.334 -22.667 -47.001 -26c12 -3.33301 22 -7.66602 30 -12.999
s14.667 -11.166 20 -17.499s9.66602 -13.166 12.999 -20.499s6.33301 -14.666 9 -21.999l25 -63c2.66699 -6 5.33398 -12.333 8.00098 -19s8.33398 -13 17.001 -19c8 -6 18 -10 30 -12l18 -4l-24 -92l-44 3c-17.333 1.33301 -35.5 3.66602 -54.5 6.99902
s-34.833 12 -47.5 26c-6.66699 7.33301 -12.5 17 -17.5 29s-8.83301 23.667 -11.5 35l-17 71c-2 9.33301 -5.16699 18.5 -9.5 27.5s-9.5 16.167 -15.5 21.5c-10.667 8.66699 -27 13 -49 13h-24v-223h-132v500z" />
    <glyph glyph-name="afii10077" unicode="&#x43b;" horiz-adv-x="522" 
d="M320 418l-91.001 0.00292969l-2 -43v-12.5c0 -3 -0.166992 -8 -0.5 -15l-1.5 -30.5c-0.666992 -13.333 -2 -33 -4 -59s-4.16699 -52 -6.5 -78s-6.5 -50.667 -12.5 -74c-3.33301 -13.333 -8 -26.833 -14 -40.5s-15.333 -26.167 -28 -37.5
c-10 -8.66699 -22.333 -15.834 -37 -21.501s-33.334 -9.5 -56.001 -11.5l-50 -5l-24 92l25 7c5.33301 1.33301 13.5 4.66602 24.5 9.99902s20.167 13.666 27.5 24.999c2.66699 4 5.83398 10.5 9.50098 19.5s7.16699 22.833 10.5 41.5c1.33301 8 2.83301 17.5 4.5 28.5
s3.16699 22.667 4.5 35s2.5 24.666 3.5 36.999s1.83301 23.5 2.5 33.5c2 26 3.33301 48.333 4 67s1.33398 39.334 2.00098 62.001l2 64h339v-512h-132v418z" />
    <glyph glyph-name="afii10078" unicode="&#x43c;" horiz-adv-x="696" 
d="M534 0l-21.0039 266.002c-1.33301 21.333 -2.16602 39.166 -2.49902 53.499s-0.5 25.166 -0.5 32.499c-1.33301 -6.66699 -3.16602 -14.167 -5.49902 -22.5l-6.5 -23.5c-2 -7.33301 -4 -14 -6 -20s-3.33301 -10.333 -4 -13l-94 -273h-102l-84 261l-11 36
c-4 13.333 -8.33301 31.666 -13 54.999c0 -9.33301 -0.166992 -21.5 -0.5 -36.5s-1.16602 -33.833 -2.49902 -56.5l-19 -259h-119l53 512h156l74 -253l11.5 -38c3.66699 -12 6.83398 -26.333 9.50098 -43c1.33301 5.33301 3.33301 14.833 6 28.5s7.66699 31.834 15 54.501
l76 251h156l53 -512h-119z" />
    <glyph glyph-name="afii10079" unicode="&#x43d;" horiz-adv-x="542" 
d="M70 0v500l132 25v-208h138v183l132 25v-525h-132v223h-138v-223h-132z" />
    <glyph glyph-name="afii10080" unicode="&#x43e;" horiz-adv-x="536" 
d="M268 426c-8 0 -17.333 -1.5 -28 -4.5s-20.667 -10.833 -30 -23.5c-10.667 -14 -17.834 -32.667 -21.501 -56s-5.5 -52 -5.5 -86s1.83301 -62.667 5.5 -86s10.834 -42 21.501 -56c9.33301 -12.667 19.333 -20.5 30 -23.5s20 -4.5 28 -4.5s17.333 1.5 28 4.5
s20.667 10.833 30 23.5c10.667 14 17.834 32.667 21.501 56s5.5 52 5.5 86s-1.83301 62.667 -5.5 86s-10.834 42 -21.501 56c-9.33301 12.667 -19.333 20.5 -30 23.5s-20 4.5 -28 4.5zM268 524c31.333 0 61.333 -5.16699 90 -15.5s55.334 -29.5 80.001 -57.5
c26.667 -30 43.834 -61.5 51.501 -94.5s11.5 -66.5 11.5 -100.5s-3.83301 -67.5 -11.5 -100.5s-24.834 -64.5 -51.501 -94.5c-24.667 -28 -51.334 -47.167 -80.001 -57.5s-58.667 -15.5 -90 -15.5s-61.333 5.16699 -90 15.5s-55.334 29.5 -80.001 57.5
c-26.667 30 -43.834 61.5 -51.501 94.5s-11.5 66.5 -11.5 100.5s3.83301 67.5 11.5 100.5s24.834 64.5 51.501 94.5c24.667 28 51.334 47.167 80.001 57.5s58.667 15.5 90 15.5z" />
    <glyph glyph-name="afii10081" unicode="&#x43f;" horiz-adv-x="534" 
d="M70 0v512h394v-512h-132v418h-130v-418h-132z" />
    <glyph glyph-name="afii10082" unicode="&#x440;" horiz-adv-x="555" 
d="M202 125c11.333 -9.33301 23.667 -16.668 37 -22.001s26.666 -8 39.999 -8c20 0 35.833 4.83301 47.5 14.5s20.167 19.5 25.5 29.5c5.33301 11.333 9.5 27.5 12.5 48.5s4.5 44.167 4.5 69.5c0 34 -1.33301 59.167 -4 75.5s-5.66699 28.833 -9 37.5
c-6.66699 17.333 -15.5 28.833 -26.5 34.5s-23.167 8.5 -36.5 8.5c-20.667 0 -38.667 -4.16699 -54 -12.5s-27.666 -17.166 -36.999 -26.499v-249zM184.001 521.998c3.33301 -8 5.33398 -15.1689 6.00098 -21.502s1.66699 -15.166 3 -26.499l13 12.5
c6 5.66699 14 11.167 24 16.5s22.333 10.166 37 14.499s32 6.5 52 6.5c12.667 0 27.5 -2 44.5 -6s35.833 -12.667 56.5 -26c21.333 -14 38.333 -30.833 51 -50.5s22.167 -40.167 28.5 -61.5s10.5 -42.5 12.5 -63.5s3 -39.833 3 -56.5c0 -51.333 -5.66699 -93.333 -17 -126
s-29.333 -61.667 -54 -87c-5.33301 -5.33301 -12 -11.333 -20 -18s-17.667 -13 -29 -19s-24.333 -11.167 -39 -15.5s-31 -6.5 -49 -6.5c-4.66699 0 -11 0.333008 -19 1s-16.833 2 -26.5 4s-19.834 4.83301 -30.501 8.5s-21 8.5 -31 14.5c1.33301 -10 2 -17 2 -21v-10v-11
v-160l-132 -35v593c0 20.667 -0.166992 38.334 -0.5 53.001s-1 26.834 -2 36.501s-2 17.667 -3 24l-2.5 15.5z" />
    <glyph glyph-name="afii10083" unicode="&#x441;" horiz-adv-x="455" 
d="M435 58c-9.33301 -9.33301 -17.6631 -17.002 -24.9961 -23.002s-14.666 -11 -21.999 -15c-24 -14 -47 -22.833 -69 -26.5s-40.667 -5.5 -56 -5.5c-30.667 0 -59.334 4.66699 -86.001 14s-50.667 25.666 -72 48.999c-13.333 14.667 -24.333 30.334 -33 47.001
s-15.334 33.667 -20.001 51s-7.83398 34.833 -9.50098 52.5s-2.5 34.5 -2.5 50.5c0 40.667 4.5 75.334 13.5 104.001s19.5 52.334 31.5 71.001s23.667 32.834 35 42.501s19.666 16.167 24.999 19.5c9.33301 6 19.833 11.333 31.5 16s23.334 8.33398 35.001 11.001
s23 4.66699 34 6s20.833 2 29.5 2c25.333 0 45.833 -2.83301 61.5 -8.5s27.167 -10.5 34.5 -14.5c9.33301 -5.33301 18 -10.666 26 -15.999s16 -12 24 -20l-65 -88c-16.667 15.333 -31.834 25.833 -45.501 31.5s-26.5 8.5 -38.5 8.5c-19.333 0 -34.166 -5.5 -44.499 -16.5
s-17.833 -21.5 -22.5 -31.5c-4 -8.66699 -7.83301 -22.5 -11.5 -41.5s-5.5 -47.5 -5.5 -85.5c0 -8 0.166992 -17.333 0.5 -28s1.5 -21.834 3.5 -33.501s4.66699 -22.834 8 -33.501s8 -20 14 -28c6 -7.33301 14.167 -14 24.5 -20s22.166 -9 35.499 -9
c9.33301 0 18.166 1.16699 26.499 3.5s15.833 5.16602 22.5 8.49902c9.33301 4.66699 17.5 9.66699 24.5 15s13.167 10.333 18.5 15l8 7z" />
    <glyph glyph-name="afii10084" unicode="&#x442;" horiz-adv-x="391" 
d="M140 0v418h-130v94h401l-18 -94h-121v-418h-132z" />
    <glyph glyph-name="afii10085" unicode="&#x443;" horiz-adv-x="497" 
d="M502 512l-186.001 -520c-11.333 -31.333 -21.833 -57 -31.5 -77s-18.5 -36.167 -26.5 -48.5s-15.333 -21.666 -22 -27.999s-12.667 -11.5 -18 -15.5c-8.66699 -6.66699 -23.167 -15 -43.5 -25s-47.166 -17.333 -80.499 -22l-46 88
c23.333 5.33301 41.666 11.5 54.999 18.5s22.666 12.5 27.999 16.5c4.66699 3.33301 10.334 8 17.001 14s13.334 14 20.001 24c4 6.66699 9 16.334 15 29.001s11 24 15 34h-34l-18 55l-14 40c-3.33301 8 -6.16602 16.167 -8.49902 24.5s-4.83301 16.5 -7.5 24.5l-121 360
l137 16l89 -299c0.666992 -4 2.16699 -10 4.5 -18l7.5 -27l8 -31l7 -29c0.666992 4 1.66699 9.66699 3 17s2.83301 15.166 4.5 23.499s3.16699 16.166 4.5 23.499s2.66602 13 3.99902 17l12.5 45.5c3 11 5.5 19.5 7.5 25.5l77 244h141z" />
    <glyph glyph-name="afii10086" unicode="&#x444;" horiz-adv-x="752" 
d="M310 389c-11.333 10.667 -22 18 -32 22s-20.667 6 -32 6c-10 0 -19 -1.83301 -27 -5.5s-15.667 -11.167 -23 -22.5c-10 -16 -16 -35 -18 -57s-3 -44.333 -3 -67c0 -36 1.16699 -64 3.5 -84s7.5 -37.333 15.5 -52c8.66699 -15.333 17.834 -24.833 27.501 -28.5
s20.167 -5.5 31.5 -5.5s20.666 1.5 27.999 4.5s17 10.167 29 21.5v268zM442 121c12 -11.333 21.667 -18.5 29 -21.5s16.666 -4.5 27.999 -4.5s21.833 1.83301 31.5 5.5s18.834 13.167 27.501 28.5c8 14.667 13.167 32 15.5 52s3.5 48 3.5 84c0 22.667 -1 45 -3 67
s-8 41 -18 57c-7.33301 11.333 -15 18.833 -23 22.5s-17 5.5 -27 5.5c-11.333 0 -22 -2 -32 -6s-20.667 -11.333 -32 -22v-268zM442 -202h-131.994v218c-17.333 -12.667 -32.333 -20.5 -45 -23.5s-24.667 -4.5 -36 -4.5c-30 0 -56 5.83301 -78 17.5
s-40.667 26.834 -56 45.501c-12.667 14.667 -22.834 30.834 -30.501 48.501s-13.667 35.667 -18 54s-7.33301 36.5 -9 54.5s-2.5 35 -2.5 51c0 12.667 0.5 27.667 1.5 45s3.66699 35.333 8 54s10.5 37.5 18.5 56.5s19 36.833 33 53.5c32 37.333 71.667 56 119 56
c19.333 0 36.666 -3 51.999 -9s29.666 -14 42.999 -24v218l132 32v-250c13.333 10 27.666 18 42.999 24s32.666 9 51.999 9c47.333 0 87 -18.667 119 -56c14 -16.667 25 -34.5 33 -53.5s14.167 -37.833 18.5 -56.5s7 -36.667 8 -54s1.5 -32.333 1.5 -45
c0 -16 -0.833008 -33 -2.5 -51s-4.66699 -36.167 -9 -54.5s-10.333 -36.333 -18 -54s-17.834 -33.834 -30.501 -48.501c-15.333 -18.667 -34 -33.834 -56 -45.501s-48 -17.5 -78 -17.5c-11.333 0 -23.333 1.5 -36 4.5s-27.667 10.833 -45 23.5v-218z" />
    <glyph glyph-name="afii10087" unicode="&#x445;" horiz-adv-x="500" 
d="M345 0l-54 93.999c-2 4 -5.16699 9.83301 -9.5 17.5s-8.5 15.5 -12.5 23.5l-11.5 22c-3.66699 6.66699 -5.83398 11 -6.50098 13c-2 -6 -7.66699 -18.5 -17 -37.5s-20.666 -39.5 -33.999 -61.5l-43 -71h-172l189 273l-142 215l139 39l24 -40.5
c6.66699 -11 12.5 -21.167 17.5 -30.5l14 -26.5c4.33301 -8.33301 8.83301 -17.5 13.5 -27.5l8.5 -17.5c3 -6.33301 5.5 -11.833 7.5 -16.5c1.33301 4 5.83301 14.667 13.5 32l31.5 68c4 8.66699 8.5 17.334 13.5 26.001l10.5 18h158l-152 -236l184 -276h-170z" />
    <glyph glyph-name="afii10088" unicode="&#x446;" horiz-adv-x="549" 
d="M460 525v-431h64v-234h-125v140h-329v500l132 25v-431h126v406z" />
    <glyph glyph-name="afii10089" unicode="&#x447;" horiz-adv-x="487" 
d="M417 525l-0.000976562 -524.999h-132v198c-15.333 -6 -31.833 -10.833 -49.5 -14.5s-34.5 -5.5 -50.5 -5.5c-28 0 -52.333 4.16699 -73 12.5s-36.667 19.5 -48 33.5c-13.333 16 -21.5 32.833 -24.5 50.5s-4.5 34.167 -4.5 49.5v176l132 25v-188
c0 -8.66699 0.833008 -17.5 2.5 -26.5s6.16699 -17.167 13.5 -24.5c3.33301 -3.33301 8.33301 -6.5 15 -9.5s15.334 -4.5 26.001 -4.5c9.33301 0 19.333 1.16699 30 3.5s21 6.16602 31 11.499v213z" />
    <glyph glyph-name="afii10090" unicode="&#x448;" horiz-adv-x="772" 
d="M451 525v-435h121v410l130 25v-525h-632v500l130 25v-435h121v410z" />
    <glyph glyph-name="afii10091" unicode="&#x449;" horiz-adv-x="791" 
d="M451 525v-435h121v410l130 25v-431h64v-234h-125v140h-571v500l130 25v-435h121v410z" />
    <glyph glyph-name="afii10092" unicode="&#x44a;" horiz-adv-x="560" 
d="M263 92h52.9971c9.33301 0 18.833 1.33301 28.5 4s17.834 6.66699 24.501 12c4.66699 4 9.33398 10.5 14.001 19.5s7 21.167 7 36.5s-2 27.333 -6 36s-8.66699 15.667 -14 21c-13.333 12 -32.666 18 -57.999 18h-49v-147zM347.997 331c25.333 0 49.498 -3.5 72.498 -10.5
s42.5 -17.167 58.5 -30.5c12.667 -10.667 24.334 -26.167 35.001 -46.5s16 -48.5 16 -84.5c0 -33.333 -5.66699 -59.5 -17 -78.5s-23 -33.5 -35 -43.5c-15.333 -13.333 -33.666 -22.833 -54.999 -28.5s-43 -8.5 -65 -8.5h-227v418h-121l-10 94h263v-181h85z" />
    <glyph glyph-name="afii10093" unicode="&#x44b;" horiz-adv-x="745" 
d="M675 525v-525h-132v500zM202 92h48.9971c9.33301 0 18.833 1.33301 28.5 4s17.834 6.66699 24.501 12c4.66699 4 9.33398 10.5 14.001 19.5s7 21.167 7 36.5s-2 27.333 -6 36s-8.66699 15.667 -14 21c-13.333 12 -32.666 18 -57.999 18h-45v-147zM201.997 525
l-0.00195312 -194h75c25.333 0 49.5 -3.5 72.5 -10.5s42.5 -17.167 58.5 -30.5c12.667 -10.667 24.334 -26.167 35.001 -46.5s16 -48.5 16 -84.5c0 -33.333 -5.66699 -59.5 -17 -78.5s-23 -33.5 -35 -43.5c-15.333 -13.333 -33.666 -22.833 -54.999 -28.5s-43 -8.5 -65 -8.5
h-217v500z" />
    <glyph glyph-name="afii10094" unicode="&#x44c;" horiz-adv-x="499" 
d="M202 92h52.9971c9.33301 0 18.833 1.33301 28.5 4s17.834 6.66699 24.501 12c4.66699 4 9.33398 10.5 14.001 19.5s7 21.167 7 36.5s-2 27.333 -6 36s-8.66699 15.667 -14 21c-13.333 12 -32.666 18 -57.999 18h-49v-147zM201.997 525l-0.00195312 -194h85
c25.333 0 49.5 -3.5 72.5 -10.5s42.5 -17.167 58.5 -30.5c12.667 -10.667 24.334 -26.167 35.001 -46.5s16 -48.5 16 -84.5c0 -33.333 -5.66699 -59.5 -17 -78.5s-23 -33.5 -35 -43.5c-15.333 -13.333 -33.666 -22.833 -54.999 -28.5s-43 -8.5 -65 -8.5h-227v500z" />
    <glyph glyph-name="afii10095" unicode="&#x44d;" horiz-adv-x="474" 
d="M163 317l128 0.00390625v13c0 12.667 -1.83301 26.167 -5.5 40.5s-9.5 25.833 -17.5 34.5c-6 7.33301 -14.667 13.166 -26 17.499s-23.666 6.5 -36.999 6.5c-22.667 0 -44 -5 -64 -15c-14 -6.66699 -26 -15 -36 -25l-61 79c14 12 27 21.167 39 27.5
s19.667 10.166 23 11.499c21.333 9.33301 42.166 15 62.499 17s36.166 3 47.499 3c12.667 0 26 -0.833008 40 -2.5s28 -4.83398 42 -9.50098s27.667 -11.334 41 -20.001s25.666 -19.667 36.999 -33s21 -28.666 29 -45.999s14.5 -35.166 19.5 -53.499
s8.66699 -36.833 11 -55.5s3.5 -36 3.5 -52c0 -15.333 -1 -33 -3 -53s-6.5 -40.5 -13.5 -61.5s-17 -41.667 -30 -62s-30.167 -37.833 -51.5 -52.5c-5.33301 -4 -12 -8.16699 -20 -12.5s-17.667 -8.33301 -29 -12s-24.5 -6.83398 -39.5 -9.50098s-31.833 -4 -50.5 -4
c-28.667 0 -53.167 3.5 -73.5 10.5s-36.833 14.167 -49.5 21.5c-7.33301 4.66699 -15.666 10.667 -24.999 18s-17.333 14 -24 20l61 77c6.66699 -8 17 -16.667 31 -26c13.333 -8.66699 26.5 -14.667 39.5 -18s26.167 -5 39.5 -5c18 0 33 3 45 9s21 12.667 27 20
c4.66699 5.33301 8.83398 14.166 12.501 26.499s5.5 30.5 5.5 54.5v27h-128v94z" />
    <glyph glyph-name="afii10096" unicode="&#x44e;" horiz-adv-x="760" 
d="M497 424c-13.333 0 -24.5 -2.83301 -33.5 -8.5s-16.167 -12.167 -21.5 -19.5c-6.66699 -9.33301 -12.5 -24.166 -17.5 -44.499s-7.5 -52.166 -7.5 -95.499s2.5 -75.166 7.5 -95.499s10.833 -35.166 17.5 -44.499c5.33301 -7.33301 12.5 -13.833 21.5 -19.5
s20.167 -8.5 33.5 -8.5s24.5 2.83301 33.5 8.5s16.167 12.167 21.5 19.5c6.66699 9.33301 12.5 24.166 17.5 44.499s7.5 52.166 7.5 95.499s-2.5 75.166 -7.5 95.499s-10.833 35.166 -17.5 44.499c-5.33301 7.33301 -12.5 13.833 -21.5 19.5s-20.167 8.5 -33.5 8.5zM202 317
l78.999 -0.000976562c3.33301 22 8.83301 44.667 16.5 68s17.834 43 30.501 59c6 8 14 16.5 24 25.5s22 17.333 36 25s30.167 14.167 48.5 19.5s38.833 8 61.5 8c20.667 0 39.667 -2.16699 57 -6.5s32.833 -9.83301 46.5 -16.5s25.667 -14.334 36 -23.001
s19.166 -17 26.499 -25c23.333 -26.667 39.333 -56.834 48 -90.501s13 -68.5 13 -104.5c0 -37.333 -4.33301 -72.166 -13 -104.499s-24.667 -62.166 -48 -89.499c-7.33301 -8 -16.166 -16.333 -26.499 -25s-22.333 -16.5 -36 -23.5s-29.167 -12.667 -46.5 -17
s-36.333 -6.5 -57 -6.5c-13.333 0 -27.5 1 -42.5 3s-30 6 -45 12s-29.667 14 -44 24s-27.5 23 -39.5 39c-28 36.667 -44.333 88.334 -49 155.001h-76v-223h-132v500l132 25v-208z" />
    <glyph glyph-name="afii10097" unicode="&#x44f;" horiz-adv-x="501" 
d="M275 418c-9.33301 0 -19.168 -0.832031 -29.501 -2.49902s-19.833 -6.5 -28.5 -14.5c-7.33301 -7.33301 -12.166 -14.833 -14.499 -22.5s-3.5 -15.167 -3.5 -22.5c0 -14.667 1.16699 -26.334 3.5 -35.001s5.83301 -15.667 10.5 -21c5.33301 -6 13 -10.833 23 -14.5
s21.667 -5.5 35 -5.5h53v138h-49zM455.998 0.000976562l-132.001 -0.00195312v195h-31c-7.33301 0 -15.166 -0.666992 -23.499 -2s-16.833 -5.66602 -25.5 -12.999c-7.33301 -6.66699 -12.833 -14.167 -16.5 -22.5s-6.5 -16.5 -8.5 -24.5l-10 -43
c-2.66699 -11.333 -6.5 -23 -11.5 -35s-10.833 -21.667 -17.5 -29c-12.667 -14 -28.5 -22.667 -47.5 -26s-37.167 -5.66602 -54.5 -6.99902l-44 -3l-24 92l18 4c12 2 22 6 30 12c8.66699 6 14.334 12.333 17.001 19s5.33398 13 8.00098 19l15 37c2.66699 6 6 12.833 10 20.5
s9.66699 14.834 17 21.501c5.33301 5.33301 11.666 10 18.999 14s15.666 7.33301 24.999 10c-18 2 -33.5 6.83301 -46.5 14.5s-23.167 15.834 -30.5 24.501c-8 9.33301 -15 21.166 -21 35.499s-9 31.833 -9 52.5c0 30 5.83301 54 17.5 72s23.167 31.333 34.5 40
c10 8 21.167 14.167 33.5 18.5s24.5 7.66602 36.5 9.99902s23.167 3.83301 33.5 4.5s18.833 1 25.5 1h213v-512z" />
    <glyph glyph-name="afii10071" unicode="&#x451;" horiz-adv-x="506" 
d="M234 635c0 -20.667 -7.50195 -38.667 -22.502 -54s-33.167 -23 -54.5 -23c-10 0 -19.667 2.16699 -29 6.5s-17.5 10 -24.5 17s-12.5 15.167 -16.5 24.5s-6 19 -6 29c0 20.667 7.83301 38.667 23.5 54s33.834 23 54.501 23s38.334 -7.66699 53.001 -23s22 -33.333 22 -54z
M444.998 635c0 -20.667 -7.50195 -38.667 -22.502 -54s-33.167 -23 -54.5 -23s-39.333 7.66699 -54 23s-22 33.333 -22 54c0 10 2 19.667 6 29s9.5 17.5 16.5 24.5s15.333 12.667 25 17s19.834 6.5 30.501 6.5c20.667 0 38.334 -7.5 53.001 -22.5s22 -33.167 22 -54.5z
M341.996 318c0 13.333 -0.832031 27.333 -2.49902 42s-7.16699 28 -16.5 40c-7.33301 9.33301 -16 16 -26 20s-20 6 -30 6c-24 0 -42.667 -8.33301 -56 -25c-10.667 -12.667 -17.334 -27.167 -20.001 -43.5s-4 -30.833 -4 -43.5v-2h155v6zM184.997 214l-0.00292969 -11.0049
c0 -18.667 3 -35.667 9 -51s14 -27.666 24 -36.999c11.333 -11.333 23.833 -18.666 37.5 -21.999s26.834 -5 39.501 -5c4.66699 0 11.334 0.333008 20.001 1s18.5 2.83398 29.5 6.50098s23.167 8.83398 36.5 15.501s27.333 16 42 28l52 -80
c-32.667 -27.333 -66 -46 -100 -56s-65 -15 -93 -15c-35.333 0 -67.666 6 -96.999 18s-54.666 28.667 -75.999 50c-19.333 20 -35.666 46 -48.999 78s-20 73 -20 123c0 48.667 5.83301 88.334 17.5 119.001s27.167 56.667 46.5 78c25.333 28 51.5 46.667 78.5 56
s54.5 14 82.5 14c34.667 0 64.167 -5.33301 88.5 -16s44.166 -23.667 59.499 -39c16 -16 28.5 -34 37.5 -54s15.667 -40.167 20 -60.5s7.16602 -40 8.49902 -59s2 -35.833 2 -50.5v-31h-296z" />
    <glyph glyph-name="afii10099" unicode="&#x452;" horiz-adv-x="558" 
d="M203 750l-0.00390625 -117.002h195l-23 -68h-172v-66l-2 -43c22.667 19.333 46.834 33.333 72.501 42s49.834 13 72.501 13c50.667 0 87.834 -13 111.501 -39s35.5 -65 35.5 -117v-301c0 -54 -6.16699 -97 -18.5 -129s-27.166 -57.667 -44.499 -77
c-6.66699 -7.33301 -17.667 -17.5 -33 -30.5s-37 -25.5 -65 -37.5l-56 74c7.33301 6.66699 16 15.5 26 26.5s17.667 20.5 23 28.5c8.66699 12.667 15.5 25.834 20.5 39.501s8.66699 27 11 40s3.66602 24.833 3.99902 35.5s0.5 19.334 0.5 26.001v279
c0 26 -4 44.167 -12 54.5s-20.667 15.5 -38 15.5c-18 0 -36.667 -4.5 -56 -13.5s-36.666 -20.167 -51.999 -33.5v-352h-132v565h-51v68h51v85z" />
    <glyph glyph-name="afii10100" unicode="&#x453;" horiz-adv-x="403" 
d="M153 558l-41 74l207 130l58 -104zM70 0v512h338l-14 -94h-192v-418h-132z" />
    <glyph glyph-name="afii10101" unicode="&#x454;" horiz-adv-x="469" 
d="M183 223l-0.000976562 -27.001c0 -24 1.83301 -42.167 5.5 -54.5s7.83398 -21.166 12.501 -26.499c6 -7.33301 15 -14 27 -20s27 -9 45 -9c13.333 0 26.5 1.66699 39.5 5s26.167 9.33301 39.5 18c14 9.33301 24.333 18 31 26l61 -77c-6.66699 -6 -14.667 -12.667 -24 -20
s-17.666 -13.333 -24.999 -18c-12.667 -7.33301 -29.167 -14.5 -49.5 -21.5s-44.833 -10.5 -73.5 -10.5c-38 0 -68 4.5 -90 13.5s-38.333 17.167 -49 24.5c-21.333 14.667 -38.5 32.167 -51.5 52.5s-23 41 -30 62s-11.5 41.5 -13.5 61.5s-3 37.667 -3 53
c0 16 1.16699 33.333 3.5 52s6 37.167 11 55.5s11.5 36.166 19.5 53.499s17.667 32.666 29 45.999c22.667 26.667 48.5 44.167 77.5 52.5s56.5 12.5 82.5 12.5c11.333 0 27.166 -1 47.499 -3s41.166 -7.66699 62.499 -17c3.33301 -1.33301 11 -5.16602 23 -11.499
s25 -15.5 39 -27.5l-61 -79c-10 10 -22 18.333 -36 25c-20 10 -41.333 15 -64 15c-13.333 0 -25.666 -2.16699 -36.999 -6.5s-20 -10.166 -26 -17.499c-8 -8.66699 -13.833 -20.167 -17.5 -34.5s-5.5 -27.833 -5.5 -40.5v-13h128v-94h-128z" />
    <glyph glyph-name="afii10102" unicode="&#x455;" horiz-adv-x="477" 
d="M73 143c12 -7.33301 25.5 -14.502 40.5 -21.502s30 -13.167 45 -18.5s29.667 -9.5 44 -12.5s27.166 -4.5 38.499 -4.5c22 0 39.333 6.66699 52 20c10 10 15 22.333 15 37c0 15.333 -4.66699 27.666 -14 36.999c-4.66699 4.66699 -11.667 9.33398 -21 14.001
s-23.666 8.66699 -42.999 12l-59 11c-6 0.666992 -13 2.16699 -21 4.5s-16.167 5.5 -24.5 9.5s-16.666 9 -24.999 15s-15.833 13.333 -22.5 22s-12 17.834 -16 27.501s-7 18.834 -9 27.501s-3.16699 16.167 -3.5 22.5s-0.5 10.833 -0.5 13.5c0 20 4.5 42 13.5 66
s27.167 45.333 54.5 64c17.333 11.333 36.666 20 57.999 26s43.666 9 66.999 9c19.333 0 37.666 -1.5 54.999 -4.5s33.333 -6.5 48 -10.5s27.667 -8.33301 39 -13s20.333 -8.66699 27 -12l15 -7l-44 -89c-32 17.333 -58.5 27.666 -79.5 30.999s-35.833 5 -44.5 5
c-7.33301 0 -15.333 -0.833008 -24 -2.5s-16.667 -5.5 -24 -11.5c-5.33301 -4 -9.5 -8.83301 -12.5 -14.5s-4.5 -12.5 -4.5 -20.5c0 -7.33301 1.33301 -13.333 4 -18s5.66699 -8.66699 9 -12c5.33301 -5.33301 13.5 -10 24.5 -14s19.833 -6.66699 26.5 -8l61 -15
c16 -4 29.333 -8.16699 40 -12.5s19.834 -9 27.501 -14s14.167 -10.167 19.5 -15.5s10 -10.666 14 -15.999c10.667 -14 18 -27.667 22 -41s6 -28.333 6 -45c0 -29.333 -5.33301 -54 -16 -74s-24 -36.667 -40 -50c-19.333 -16 -42.5 -28.667 -69.5 -38s-57.5 -14 -91.5 -14
c-22 0 -43.167 2.16699 -63.5 6.5s-39.5 9.5 -57.5 15.5s-34.167 12.333 -48.5 19s-26.166 12.667 -35.499 18z" />
    <glyph glyph-name="afii10103" unicode="&#x456;" horiz-adv-x="274" 
d="M71 0v503l132 21v-524h-132zM220 653c0 -23.333 -8 -43 -24 -59s-35.667 -24 -59 -24s-42.833 8 -58.5 24s-23.5 35.667 -23.5 59s8.16699 43 24.5 59s36.166 24 59.499 24c22.667 0 41.834 -8 57.501 -24s23.5 -35.667 23.5 -59z" />
    <glyph glyph-name="afii10104" unicode="&#x457;" horiz-adv-x="274" 
d="M108 635c0 -20.667 -7.50195 -38.667 -22.502 -54s-33.167 -23 -54.5 -23c-10 0 -19.667 2.16699 -29 6.5s-17.5 10 -24.5 17s-12.5 15.167 -16.5 24.5s-6 19 -6 29c0 20.667 7.83301 38.667 23.5 54s33.834 23 54.501 23s38.334 -7.66699 53.001 -23s22 -33.333 22 -54z
M318.998 635c0 -20.667 -7.50195 -38.667 -22.502 -54s-33.167 -23 -54.5 -23s-39.333 7.66699 -54 23s-22 33.333 -22 54c0 10 2 19.667 6 29s9.5 17.5 16.5 24.5s15.333 12.667 25 17s19.834 6.5 30.501 6.5c20.667 0 38.334 -7.5 53.001 -22.5s22 -33.167 22 -54.5z
M69.9961 0v503l134 21v-524h-134z" />
    <glyph glyph-name="afii10105" unicode="&#x458;" horiz-adv-x="273" 
d="M202 14c0 -34.667 -2.66602 -65.001 -7.99902 -91.001s-15 -48.667 -29 -68c-11.333 -15.333 -26.333 -29.666 -45 -42.999s-38.334 -24 -59.001 -32l-56 74c12 10 22.167 20.333 30.5 31s14.5 19.667 18.5 27c7.33301 12.667 11.833 26.667 13.5 42s2.5 34 2.5 56v481
l132 32v-509zM221.001 654.999c0 -11.333 -2.16699 -22.166 -6.5 -32.499s-10.333 -19.333 -18 -27s-16.5 -13.667 -26.5 -18s-21 -6.5 -33 -6.5c-23.333 0 -42.833 7.83301 -58.5 23.5s-23.5 35.167 -23.5 58.5s8 43.166 24 59.499s35.667 24.5 59 24.5
s43 -7.83301 59 -23.5s24 -35.167 24 -58.5z" />
    <glyph glyph-name="afii10106" unicode="&#x459;" horiz-adv-x="734" 
d="M447 92h48.9971c9.33301 0 18.833 1.33301 28.5 4s17.834 6.66699 24.501 12c4.66699 4 9.33398 10.5 14.001 19.5s7 21.167 7 36.5s-2 27.333 -6 36s-8.66699 15.667 -14 21c-13.333 12 -32.666 18 -57.999 18h-45v-147zM521.997 331
c25.333 0 49.4971 -3.49805 72.4971 -10.498s42.5 -17.167 58.5 -30.5c12.667 -10.667 24.334 -26.167 35.001 -46.5s16 -48.5 16 -84.5c0 -33.333 -5.66699 -59.5 -17 -78.5s-23 -33.5 -35 -43.5c-15.333 -13.333 -33.666 -22.833 -54.999 -28.5s-43 -8.5 -65 -8.5h-217
v416h-86l-2 -41v-14c0 -3.33301 -0.166992 -8.16602 -0.5 -14.499l-1.5 -29.5c-0.666992 -13.333 -2 -33 -4 -59s-4.16699 -52 -6.5 -78s-6.5 -50.667 -12.5 -74c-3.33301 -13.333 -8 -26.833 -14 -40.5s-15.333 -26.167 -28 -37.5
c-10 -8.66699 -22.333 -15.834 -37 -21.501s-33.334 -9.5 -56.001 -11.5l-50 -5l-24 92l25 7c5.33301 1.33301 13.5 4.66602 24.5 9.99902s20.167 13.666 27.5 24.999c2.66699 4 5.83398 10.5 9.50098 19.5s7.16699 22.833 10.5 41.5c1.33301 8 2.83301 17.5 4.5 28.5
s3.16699 22.667 4.5 35s2.5 24.666 3.5 36.999s1.83301 23.5 2.5 33.5c2 26 3.33301 48.333 4 67s1.33398 39.334 2.00098 62.001l2 64h334v-181h75z" />
    <glyph glyph-name="afii10107" unicode="&#x45a;" horiz-adv-x="752" 
d="M465 92l48.999 0.000976562c9.33301 0 18.833 1.33301 28.5 4s17.834 6.66699 24.501 12c6 5.33301 11 12.166 15 20.499s6 19.166 6 32.499c0 14 -2 25.333 -6 34s-8.66699 15.334 -14 20.001c-8.66699 7.33301 -18.5 11.833 -29.5 13.5s-20.5 2.5 -28.5 2.5h-45v-139z
M539.999 323.001c24.667 0 48.832 -3.33203 72.499 -9.99902s43.167 -16.334 58.5 -29.001c16 -13.333 28.5 -30 37.5 -50s13.5 -45 13.5 -75c0 -33.333 -5.66699 -59.5 -17 -78.5s-23 -33.5 -35 -43.5c-15.333 -13.333 -33.666 -22.833 -54.999 -28.5s-43 -8.5 -65 -8.5
h-217v231h-131v-231h-132v500l132 25v-200h131v175l132 25v-202h75z" />
    <glyph glyph-name="afii10108" unicode="&#x45b;" horiz-adv-x="558" 
d="M361 0l-0.00195312 329.001c0 19.333 -1.83301 33 -5.5 41s-6.5 13.333 -8.5 16c-3.33301 3.33301 -7.83301 6.33301 -13.5 9s-13.167 4 -22.5 4c-18 0 -36.667 -4.5 -56 -13.5s-36.666 -20.167 -51.999 -33.5v-352h-132v565h-51v68h51v85l132 32v-117h195l-23 -68h-172
v-66l-2 -43c22.667 19.333 46.834 33.333 72.501 42s49.834 13 72.501 13c18 0 37.167 -2.83301 57.5 -8.5s37.166 -14.834 50.499 -27.501c14 -13.333 24 -30.333 30 -51s9 -43.667 9 -69v-355h-132z" />
    <glyph glyph-name="afii10109" unicode="&#x45c;" horiz-adv-x="541" 
d="M179 557l-41 74l207 130l58 -104zM202 525v-208.003h33c4.66699 0 12.5 0.666992 23.5 2s20.5 5.66602 28.5 12.999c7.33301 6.66699 12.333 14.5 15 23.5s4.66699 16.833 6 23.5l11 50c2 9.33301 5.16699 19.833 9.5 31.5s11.5 22.167 21.5 31.5
c11.333 10 24.5 16.5 39.5 19.5s28.167 5.16699 39.5 6.5l48 4l24 -91l-22 -5c-4 -1.33301 -8.33301 -2.5 -13 -3.5s-9 -3.16699 -13 -6.5c-6.66699 -5.33301 -11.5 -11.166 -14.5 -17.499s-5.16699 -11.833 -6.5 -16.5l-17 -46c-4 -11.333 -11.333 -24 -22 -38
s-26.334 -22.667 -47.001 -26c12 -3.33301 22 -7.66602 30 -12.999s14.667 -11.166 20 -17.499s9.66602 -13.166 12.999 -20.499s6.33301 -14.666 9 -21.999l25 -63c2.66699 -6 5.33398 -12.333 8.00098 -19s8.33398 -13 17.001 -19c8 -6 18 -10 30 -12l18 -4l-24 -92l-44 3
c-17.333 1.33301 -35.5 3.66602 -54.5 6.99902s-34.833 12 -47.5 26c-6.66699 7.33301 -12.5 17 -17.5 29s-8.83301 23.667 -11.5 35l-17 71c-2 9.33301 -5.16699 18.5 -9.5 27.5s-9.5 16.167 -15.5 21.5c-10.667 8.66699 -27 13 -49 13h-24v-223h-132v500z" />
    <glyph glyph-name="afii10110" unicode="&#x45e;" horiz-adv-x="497" 
d="M397 716c-5.33301 -18.667 -12.832 -35.667 -22.499 -51s-20.834 -27.666 -33.501 -36.999c-15.333 -11.333 -32.833 -19.666 -52.5 -24.999s-39.5 -8 -59.5 -8s-40 2.66699 -60 8s-37.333 13.666 -52 24.999c-14 11.333 -25.667 25.166 -35 41.499
s-16.333 31.833 -21 46.5l71 29c4 -7.33301 9.5 -14.333 16.5 -21s13.5 -11.667 19.5 -15c10 -6 19.833 -9.83301 29.5 -11.5s20.167 -2.5 31.5 -2.5c10 0 20.5 0.833008 31.5 2.5s21.167 5.5 30.5 11.5c6 3.33301 12.5 8.5 19.5 15.5s12.167 13.833 15.5 20.5zM502.001 512
l-186.001 -520c-11.333 -31.333 -21.833 -57 -31.5 -77s-18.5 -36.167 -26.5 -48.5s-15.333 -21.666 -22 -27.999s-12.667 -11.5 -18 -15.5c-8.66699 -6.66699 -23.167 -15 -43.5 -25s-47.166 -17.333 -80.499 -22l-46 88c23.333 5.33301 41.666 11.5 54.999 18.5
s22.666 12.5 27.999 16.5c4.66699 3.33301 10.334 8 17.001 14s13.334 14 20.001 24c4 6.66699 9 16.334 15 29.001s11 24 15 34h-34l-18 55l-14 40c-3.33301 8 -6.16602 16.167 -8.49902 24.5s-4.83301 16.5 -7.5 24.5l-121 360l137 16l89 -299
c0.666992 -4 2.16699 -10 4.5 -18l7.5 -27l8 -31l7 -29c0.666992 4 1.66699 9.66699 3 17s2.83301 15.166 4.5 23.499s3.16699 16.166 4.5 23.499s2.66602 13 3.99902 17l12.5 45.5c3 11 5.5 19.5 7.5 25.5l77 244h141z" />
    <glyph glyph-name="afii10193" unicode="&#x45f;" horiz-adv-x="530" 
d="M460 525v-525h-133v-140h-124v140h-133v500l132 25v-431h126v406z" />
    <glyph glyph-name="afii10050" unicode="&#x490;" horiz-adv-x="464" 
d="M324 695v87h135v-202h-247v-580h-142v695h254z" />
    <glyph glyph-name="afii10098" unicode="&#x491;" horiz-adv-x="418" 
d="M70 0v512h222v97h121v-191h-211v-418h-132z" />
    <glyph glyph-name="endash" unicode="&#x2013;" horiz-adv-x="567" 
d="M40 223v103h487v-103h-487z" />
    <glyph glyph-name="emdash" unicode="&#x2014;" horiz-adv-x="793" 
d="M40 223v103h713v-103h-713z" />
    <glyph glyph-name="quoteleft" unicode="&#x2018;" horiz-adv-x="259" 
d="M229 661c-22 -5.33301 -39.501 -12.999 -52.501 -22.999s-19.5 -21.333 -19.5 -34c0 -6.66699 1.83301 -12.334 5.5 -17.001s10.5 -9.66699 20.5 -15c26 -14.667 39 -38 39 -70c0 -24 -8.5 -44.333 -25.5 -61s-37.5 -25 -61.5 -25c-29.333 0 -53.333 11.333 -72 34
s-28 51.334 -28 86.001c0 22 3.33301 42.667 10 62s16.334 37 29.001 53s27.5 29.667 44.5 41s36.167 19.666 57.5 24.999z" />
    <glyph glyph-name="quoteright" unicode="&#x2019;" horiz-adv-x="259" 
d="M30 466c21.333 5.33301 38.667 13.167 52 23.5s20 21.5 20 33.5c0 6.66699 -1.83301 12.167 -5.5 16.5s-10.5 9.5 -20.5 15.5c-26 15.333 -39 38.666 -39 69.999c0 24 8.33301 44.333 25 61s37.334 25 62.001 25c29.333 0 53.333 -11.167 72 -33.5s28 -51.166 28 -86.499
c0 -21.333 -3.33301 -41.833 -10 -61.5s-16.334 -37.334 -29.001 -53.001s-27.667 -29.167 -45 -40.5s-36.333 -19.666 -57 -24.999z" />
    <glyph glyph-name="quotedblleft" unicode="&#x201c;" horiz-adv-x="484" 
d="M229 662c-22 -5.33301 -39.5 -12.999 -52.5 -22.999s-19.5 -21.333 -19.5 -34c0 -6.66699 1.83301 -12.167 5.5 -16.5s10.5 -9.5 20.5 -15.5c26 -15.333 39 -38.666 39 -69.999c0 -24 -8.5 -44.333 -25.5 -61s-37.833 -25 -62.5 -25
c-28.667 0 -52.334 11.167 -71.001 33.5s-28 51.166 -28 86.499c0 22 3.33301 42.667 10 62s16.334 37 29.001 53s27.5 29.667 44.5 41s36.167 19.666 57.5 24.999zM454 662.001c-21.333 -5.33301 -38.501 -12.999 -51.501 -22.999s-19.5 -21.333 -19.5 -34
c0 -6.66699 1.66699 -12 5 -16s10.333 -9.33301 21 -16c26 -16 39 -39.333 39 -70c0 -24 -8.5 -44.333 -25.5 -61s-37.833 -25 -62.5 -25c-29.333 0 -53.166 11.167 -71.499 33.5s-27.5 51.166 -27.5 86.499c0 44 12.833 82.5 38.5 115.5s59.5 54.833 101.5 65.5z" />
    <glyph glyph-name="quotedblright" unicode="&#x201d;" horiz-adv-x="484" 
d="M30 466c21.333 5.33301 38.667 13.167 52 23.5s20 21.5 20 33.5c0 6.66699 -1.83301 12.167 -5.5 16.5s-10.5 9.5 -20.5 15.5c-26 15.333 -39 38.666 -39 69.999c0 24 8.33301 44.333 25 61s37.334 25 62.001 25c29.333 0 53.333 -11.167 72 -33.5s28 -51.166 28 -86.499
c0 -21.333 -3.33301 -41.833 -10 -61.5s-16.334 -37.334 -29.001 -53.001s-27.667 -29.167 -45 -40.5s-36.333 -19.666 -57 -24.999zM256.001 466.001c21.333 5.33301 38.499 13.167 51.499 23.5s19.5 21.5 19.5 33.5c0 6.66699 -1.66699 12.167 -5 16.5s-10 9.5 -20 15.5
c-26 15.333 -39 38.666 -39 69.999c0 24 8.33301 44.333 25 61s37.334 25 62.001 25c29.333 0 53.166 -11.167 71.499 -33.5s27.5 -51.166 27.5 -86.499c0 -21.333 -3.33301 -41.833 -10 -61.5s-16.167 -37.334 -28.5 -53.001s-27.166 -29.167 -44.499 -40.5
s-36.333 -19.666 -57 -24.999z" />
    <glyph glyph-name="quotedblbase" unicode="&#x201e;" horiz-adv-x="485" 
d="M30 -89c22 5.33301 39.501 13.166 52.501 23.499s19.5 21.5 19.5 33.5c0 6.66699 -1.83301 12.167 -5.5 16.5s-10.5 9.5 -20.5 15.5c-26 15.333 -39 38.666 -39 69.999c0 24 8.5 44.333 25.5 61s37.5 25 61.5 25c29.333 0 53.333 -11.167 72 -33.5s28 -51.166 28 -86.499
c0 -22 -3.33301 -42.667 -10 -62s-16.334 -37 -29.001 -53s-27.667 -29.667 -45 -41s-36.333 -19.666 -57 -24.999zM256.001 -89c21.333 5.33301 38.5 13.166 51.5 23.499s19.5 21.5 19.5 33.5c0 6.66699 -1.66699 12.167 -5 16.5s-10 9.5 -20 15.5
c-26 15.333 -39 38.666 -39 69.999c0 24 8.33301 44.333 25 61s37.334 25 62.001 25c29.333 0 53.333 -11.167 72 -33.5s28 -51.166 28 -86.499c0 -22 -3.33301 -42.667 -10 -62s-16.334 -37 -29.001 -53s-27.667 -29.667 -45 -41s-36.333 -19.666 -57 -24.999z" />
    <glyph glyph-name="dagger" unicode="&#x2020;" horiz-adv-x="484" 
d="M441 424h-139v-424h-132v424h-150v121h150v150h132v-150h162z" />
    <glyph glyph-name="bullet" unicode="&#x2022;" horiz-adv-x="474" 
d="M414 354c0 -24.667 -4.66699 -47.667 -14 -69s-22 -40 -38 -56s-34.667 -28.667 -56 -38s-44.333 -14 -69 -14s-47.667 4.66699 -69 14s-40 22 -56 38s-28.667 34.667 -38 56s-14 44.333 -14 69s4.66699 47.667 14 69s22 40 38 56s34.667 28.667 56 38s44.333 14 69 14
s47.667 -4.66699 69 -14s40 -22 56 -38s28.667 -34.667 38 -56s14 -44.333 14 -69z" />
    <glyph glyph-name="ellipsis" unicode="&#x2026;" horiz-adv-x="776" 
d="M226 73c0 -12 -2.33301 -23.5 -7 -34.5s-11 -20.5 -19 -28.5s-17.333 -14.333 -28 -19s-22 -7 -34 -7c-24.667 0 -45.5 8.66699 -62.5 26s-25.5 38.333 -25.5 63c0 24 8.5 44.5 25.5 61.5s37.5 25.5 61.5 25.5c24.667 0 45.667 -8.5 63 -25.5s26 -37.5 26 -61.5zM476 73
c0 -12 -2.33301 -23.5 -7 -34.5s-11 -20.5 -19 -28.5s-17.333 -14.333 -28 -19s-22 -7 -34 -7c-24.667 0 -45.5 8.66699 -62.5 26s-25.5 38.333 -25.5 63c0 24 8.5 44.5 25.5 61.5s37.5 25.5 61.5 25.5c24.667 0 45.667 -8.5 63 -25.5s26 -37.5 26 -61.5zM726 73
c0 -12 -2.33301 -23.5 -7 -34.5s-11 -20.5 -19 -28.5s-17.333 -14.333 -28 -19s-22 -7 -34 -7c-24.667 0 -45.5 8.66699 -62.5 26s-25.5 38.333 -25.5 63c0 24 8.5 44.5 25.5 61.5s37.5 25.5 61.5 25.5c24.667 0 45.667 -8.5 63 -25.5s26 -37.5 26 -61.5z" />
    <glyph glyph-name="afii61352" unicode="&#x2116;" horiz-adv-x="982" 
d="M634 201v61h277v-61h-277zM827 531c0 24.667 -1.33398 43.4951 -4.00098 56.4951s-7 23.167 -13 30.5c-2.66699 2.66699 -6.66699 5.83398 -12 9.50098s-13.333 5.5 -24 5.5c-14.667 0 -25.5 -4.16699 -32.5 -12.5s-11.5 -15.166 -13.5 -20.499
c-3.33301 -7.33301 -5.66602 -17.166 -6.99902 -29.499s-2 -25.833 -2 -40.5c0 -12 0.833008 -25.667 2.5 -41s4.5 -27.666 8.5 -36.999c5.33301 -11.333 12.333 -19.166 21 -23.499s16.334 -6.5 23.001 -6.5c7.33301 0 14 1.5 20 4.5s11 7.16699 15 12.5
c5.33301 7.33301 9.66602 17.5 12.999 30.5s5 33.5 5 61.5zM916.999 529.995c0 -22 -2.83594 -43.832 -8.50293 -65.499s-16.167 -41.167 -31.5 -58.5c-11.333 -12 -25.666 -22.333 -42.999 -31s-38.333 -13 -63 -13c-19.333 0 -37.666 3.5 -54.999 10.5
s-32.5 17.333 -45.5 31s-23.333 30.834 -31 51.501s-11.5 44.667 -11.5 72c0 28 4.33301 53.167 13 75.5s19.334 40.166 32.001 53.499c16 17.333 32.667 28.166 50 32.499s33.333 6.5 48 6.5c16 0 33.667 -2.66699 53 -8s38 -18.333 56 -39
c15.333 -17.333 25.333 -36 30 -56s7 -40.667 7 -62zM401.996 -0.00390625l-116.998 274l-24.5 53.5l-26.5 60c-8.66699 20.333 -16.834 40.5 -24.501 60.5l-20.5 54c1.33301 -18 2.5 -36 3.5 -54s1.66699 -35 2 -51s0.666016 -30.667 0.999023 -44s0.5 -24.333 0.5 -33
v-320h-126v695h144l130 -289l33.5 -70.5c9 -19.667 16.5 -37 22.5 -52s10.833 -28.333 14.5 -40l10.5 -34.5c-1.33301 14 -2.33301 27.333 -3 40s-1.5 26 -2.5 40s-2 29.833 -3 47.5l-3.5 63.5v295h126v-695h-137z" />
    <glyph glyph-name="trademark" unicode="&#x2122;" horiz-adv-x="1020" 
d="M267 611v-316h-108v316h-119v96h346v-96h-119zM852 295v268h-2l-98 -268h-70l-98 268h-2v-268h-108v412h145l98 -268l98 268h145v-412h-108z" />
    <glyph glyph-name="radical" unicode="&#x221a;" horiz-adv-x="590" 
d="M324 -8l-109.001 0.000976562l-149 426h-66v94h166l87 -239c4 -10.667 7.33301 -23 10 -37s5.66699 -26 9 -36c2.66699 8 5.33398 18.167 8.00098 30.5s5.66699 23.166 9 32.499l165 459h136z" />
    <glyph glyph-name="infinity" unicode="&#x221e;" horiz-adv-x="948" 
d="M320 290c-12.667 9.33301 -26.168 16.667 -40.501 22s-29.166 8 -44.499 8c-14 0 -25.667 -2 -35 -6s-16.833 -9.16699 -22.5 -15.5s-9.66699 -13.333 -12 -21s-3.5 -15.167 -3.5 -22.5c0 -18.667 6.66699 -34 20 -46s31 -18 53 -18c16.667 0 34 4 52 12
s34.667 17.667 50 29l32 23zM786.999 261.001c0 18.667 -6.66602 33.999 -19.999 45.999s-31 18 -53 18c-16 0 -33.333 -3.66699 -52 -11s-35.334 -16.666 -50.001 -27.999l-33 -25l50 -33c13.333 -8.66699 27 -16.167 41 -22.5s28.667 -9.5 44 -9.5c14 0 25.667 2 35 6
s16.833 9.16699 22.5 15.5s9.66699 13.333 12 21s3.5 15.167 3.5 22.5zM918 262c0 -32 -6.16504 -59.666 -18.498 -82.999s-28.333 -42.5 -48 -57.5s-41.5 -26.167 -65.5 -33.5s-47.667 -11 -71 -11c-32 0 -62.667 5.16699 -92 15.5s-56 24.166 -80 41.499l-73 51l-66 -48
c-29.333 -21.333 -58 -36.833 -86 -46.5s-58 -14.5 -90 -14.5c-20 0 -41.5 2.66699 -64.5 8s-44.5 14.666 -64.5 27.999s-36.5 31.5 -49.5 54.5s-19.5 52.167 -19.5 87.5c0 32.667 6.16699 60.834 18.5 84.501s28.166 43 47.499 58s41.333 26 66 33s49 10.5 73 10.5
c31.333 0 62 -5.5 92 -16.5s59 -26.167 87 -45.5l66 -46l67 50c27.333 20 56.166 34.833 86.499 44.5s59.833 14.5 88.5 14.5c20 0 41.5 -2.66699 64.5 -8s44.167 -14.833 63.5 -28.5s35.5 -32 48.5 -55s19.5 -52.167 19.5 -87.5z" />
    <glyph glyph-name="approxequal" unicode="&#x2248;" 
d="M512 162c-5.33301 -10.667 -11.833 -21.167 -19.5 -31.5s-16.5 -19.5 -26.5 -27.5s-21.5 -14.5 -34.5 -19.5s-27.833 -7.5 -44.5 -7.5c-17.333 0 -35.333 3.16699 -54 9.5s-37.667 13.833 -57 22.5l-55 24c-18 8 -33.667 12 -47 12c-10 0 -19.167 -2.16699 -27.5 -6.5
s-16 -9.66602 -23 -15.999s-13.5 -13.5 -19.5 -21.5l-18 -24l-36 108c5.33301 10.667 11.833 21.167 19.5 31.5s16.5 19.5 26.5 27.5s21.5 14.5 34.5 19.5s27.833 7.5 44.5 7.5c17.333 0 35.333 -3.16699 54 -9.5s37.667 -13.833 57 -22.5l55 -24c18 -8 33.667 -12 47 -12
c10 0 19.167 2.16699 27.5 6.5s16 9.66602 23 15.999s13.5 13.5 19.5 21.5l18 24zM512 362c-5.33301 -10.667 -11.833 -21.167 -19.5 -31.5s-16.5 -19.5 -26.5 -27.5s-21.5 -14.5 -34.5 -19.5s-27.833 -7.5 -44.5 -7.5c-17.333 0 -35.333 3.16699 -54 9.5
s-37.667 13.833 -57 22.5l-55 24c-18 8 -33.667 12 -47 12c-10 0 -19.167 -2.16699 -27.5 -6.5s-16 -9.66602 -23 -15.999s-13.5 -13.5 -19.5 -21.5l-18 -24l-36 108c5.33301 10.667 11.833 21.167 19.5 31.5s16.5 19.5 26.5 27.5s21.5 14.5 34.5 19.5s27.833 7.5 44.5 7.5
c17.333 0 35.333 -3.16699 54 -9.5s37.667 -13.833 57 -22.5l55 -24c18 -8 33.667 -12 47 -12c10 0 19.167 2.16699 27.5 6.5s16 9.66602 23 15.999s13.5 13.5 19.5 21.5l18 24z" />
    <glyph glyph-name="notequal" unicode="&#x2260;" horiz-adv-x="648" 
d="M50 336v125.999h315l91 153l80 -49l-33 -55c-6 -9.33301 -13.667 -19.666 -23 -30.999c-4.66699 -6 -9.66699 -12 -15 -18h133v-126h-208l-37 -66h245v-126h-315l-91 -153l-80 49l33 55c2.66699 4.66699 6.16699 9.66699 10.5 15l12.5 16c4.66699 6 9.66699 12 15 18
h-133v126h208l37 66h-245z" />
    <glyph glyph-name="lessequal" unicode="&#x2264;" horiz-adv-x="433" 
d="M20 0v109h383v-109h-383zM20 258v96l383 178v-131l-206 -87l206 -70v-128z" />
    <glyph glyph-name="greaterequal" unicode="&#x2265;" horiz-adv-x="433" 
d="M30 0v109h383v-109h-383zM30 116v130l206 68l-206 87v131l383 -178v-96z" />
    <glyph glyph-name="Acute" unicode="&#xf6c9;" horiz-adv-x="365" 
d="M111 733l-41 74l207 130l58 -104z" />
    <glyph glyph-name="Dieresis" unicode="&#xf6cb;" horiz-adv-x="504" 
d="M223 810c0 -20.667 -7.50195 -38.667 -22.502 -54s-33.167 -23 -54.5 -23c-10 0 -19.667 2.16699 -29 6.5s-17.5 10 -24.5 17s-12.5 15.167 -16.5 24.5s-6 19 -6 29c0 20.667 7.83301 38.667 23.5 54s33.834 23 54.501 23s38.334 -7.66699 53.001 -23s22 -33.333 22 -54z
M433.998 810c0 -20.667 -7.50195 -38.667 -22.502 -54s-33.167 -23 -54.5 -23s-39.333 7.66699 -54 23s-22 33.333 -22 54c0 10 2 19.667 6 29s9.5 17.5 16.5 24.5s15.333 12.667 25 17s19.834 6.5 30.501 6.5c20.667 0 38.334 -7.5 53.001 -22.5s22 -33.167 22 -54.5z" />
    <glyph glyph-name="cyrBreve" unicode="&#xf6d1;" horiz-adv-x="470" 
d="M400 858c-3.33301 -11.333 -9.00293 -24.166 -17.0029 -38.499s-20.667 -28.166 -38 -41.499c-19.333 -14 -37.666 -22.667 -54.999 -26s-35.666 -5 -54.999 -5s-37.666 1.66699 -54.999 5s-35.666 12 -54.999 26c-17.333 13.333 -30 27.166 -38 41.499
s-13.667 27.166 -17 38.499l70 29c3.33301 -7.33301 8.5 -14 15.5 -20s13.167 -10.667 18.5 -14c9.33301 -5.33301 19.5 -8.83301 30.5 -10.5s21.167 -2.5 30.5 -2.5c10.667 0 21.167 0.833008 31.5 2.5s20.166 5.16699 29.499 10.5c5.33301 3.33301 11.5 8 18.5 14
s12.167 12.667 15.5 20z" />
    <glyph glyph-name="cyrbreve" unicode="&#xf6d4;" horiz-adv-x="476" 
d="M406 713c-5.33301 -18.667 -12.832 -35.667 -22.499 -51s-20.834 -27.666 -33.501 -36.999c-15.333 -11.333 -32.833 -19.666 -52.5 -24.999s-39.5 -8 -59.5 -8s-40 2.66699 -60 8s-37.333 13.666 -52 24.999c-14 11.333 -25.667 25.166 -35 41.499
s-16.333 31.833 -21 46.5l71 29c4 -7.33301 9.5 -14.333 16.5 -21s13.5 -11.667 19.5 -15c10 -6 19.833 -9.83301 29.5 -11.5s20.167 -2.5 31.5 -2.5c10 0 20.5 0.833008 31.5 2.5s21.167 5.5 30.5 11.5c6 3.33301 12.5 8.5 19.5 15.5s12.167 13.833 15.5 20.5z" />
    <glyph glyph-name=".null" horiz-adv-x="0" 
 />
    <glyph glyph-name="nonmarkingreturn" horiz-adv-x="225" 
 />
    <glyph glyph-name="afii10055" horiz-adv-x="282" 
d="M112 810c0 -20.667 -7.50195 -38.667 -22.502 -54s-33.167 -23 -54.5 -23c-10 0 -19.667 2.16699 -29 6.5s-17.5 10 -24.5 17s-12.5 15.167 -16.5 24.5s-6 19 -6 29c0 20.667 7.83301 38.667 23.5 54s33.834 23 54.501 23s38.334 -7.66699 53.001 -23s22 -33.333 22 -54z
M322.998 810c0 -20.667 -7.50195 -38.667 -22.502 -54s-33.167 -23 -54.5 -23s-39.333 7.66699 -54 23s-22 33.333 -22 54c0 10 2 19.667 6 29s9.5 17.5 16.5 24.5s15.333 12.667 25 17s19.834 6.5 30.501 6.5c20.667 0 38.334 -7.5 53.001 -22.5s22 -33.167 22 -54.5z
M69.9961 0v695h142v-695h-142z" />
  </font>
</defs>
</svg>
