<?xml version="1.0" standalone="no"?>
<!DOCTYPE svg PUBLIC "-//W3C//DTD SVG 1.1//EN" "http://www.w3.org/Graphics/SVG/1.1/DTD/svg11.dtd" >
<svg>
<metadata>
Created by FontForge 20090914 at Sat Dec  6 16:42:42 2014
 By www-data
Copyright Erik Spiekermann, 1991, 93, 98. Published by FontShop International for  FontFont Release 23. Copyright (c) ParaType, Inc., 2000. All rights reserved. Meta is a trademark of FSI Fonts and Software GmbH.
</metadata>
<defs>
<font id="MetaBoldC-Italic" horiz-adv-x="504" >
  <font-face 
    font-family="MetaBoldC"
    font-weight="400"
    font-style="italic"
    font-stretch="normal"
    units-per-em="1000"
    panose-1="2 0 5 3 5 0 0 2 0 4"
    ascent="800"
    descent="-200"
    x-height="512"
    cap-height="695"
    bbox="-99 -223.999 986.996 951"
    underline-thickness="50"
    underline-position="-50"
    slope="-13"
    unicode-range="U+0020-U+F6D4"
  />
<missing-glyph horiz-adv-x="225" 
 />
    <glyph glyph-name=".notdef" horiz-adv-x="225" 
 />
    <glyph glyph-name="space" unicode=" " horiz-adv-x="225" 
 />
    <glyph glyph-name="exclam" unicode="!" horiz-adv-x="303" 
d="M188 70c0 -23.333 -8.16699 -43 -24.5 -59s-36.166 -24 -59.499 -24c-22.667 0 -41.834 8 -57.501 24s-23.5 35.667 -23.5 59s8 43 24 59s35.667 24 59 24c22.667 0 42 -8 58 -24s24 -35.667 24 -59zM186 221h-102l69 466l165 23z" />
    <glyph glyph-name="quotedbl" unicode="&#x22;" horiz-adv-x="406" 
d="M146 426h-126l59 282h126zM378 426h-126l59 282h126z" />
    <glyph glyph-name="numbersign" unicode="#" horiz-adv-x="522" 
d="M255 417l-36 -126h99l36 126h-99zM451 417l-36 -126h79v-90h-103l-57 -201h-97l57 201h-99l-57 -201h-97l57 201h-78v90h102l36 126h-78v90h102l56 201h97l-56 -201h99l56 201h97l-56 -201h79v-90h-103z" />
    <glyph glyph-name="dollar" unicode="$" horiz-adv-x="583" 
d="M534 549c-28 19.333 -54.001 32.502 -78.001 39.502s-49 10.5 -75 10.5c-16 0 -31 -2.5 -45 -7.5s-26.167 -11.667 -36.5 -20s-18.666 -18.333 -24.999 -30s-9.5 -23.834 -9.5 -36.501c0 -14 4.83301 -25.333 14.5 -34s26.167 -17 49.5 -25l80 -27
c45.333 -15.333 79.5 -35.666 102.5 -60.999s34.5 -58 34.5 -98c0 -35.333 -6.83301 -68.666 -20.5 -99.999s-33.334 -59.166 -59.001 -83.499s-57 -44.333 -94 -60s-78.833 -25.5 -125.5 -29.5l-17 -81h-86l17 81c-32.667 3.33301 -64.667 10.166 -96 20.499
s-59.666 23.833 -84.999 40.5l74 107c29.333 -17.333 57.833 -30.666 85.5 -39.999s59.167 -14 94.5 -14c44 0 79.167 10.5 105.5 31.5s39.5 48.833 39.5 83.5c0 17.333 -6 31.666 -18 42.999s-30.667 21.333 -56 30l-73 25c-20 6.66699 -37.833 14 -53.5 22
s-29 17.5 -40 28.5s-19.333 24.167 -25 39.5s-8.5 33.666 -8.5 54.999c0 33.333 6.5 64.666 19.5 93.999s30.833 55.166 53.5 77.499s49.667 40.833 81 55.5s65 24 101 28l8 36l8 36h86l-15 -73c34 -3.33301 65.833 -10.833 95.5 -22.5s55.167 -26.5 76.5 -44.5z" />
    <glyph glyph-name="percent" unicode="%" horiz-adv-x="820" 
d="M680 215c0 17.333 -3.50098 29.667 -10.501 37s-18.167 11 -33.5 11s-28.666 -4 -39.999 -12s-20.666 -19 -27.999 -33s-12.833 -30.5 -16.5 -49.5s-5.5 -39.5 -5.5 -61.5c0 -15.333 4.16699 -26 12.5 -32s20.166 -9 35.499 -9c14 0 26.333 4.16699 37 12.5
s19.667 19.333 27 33s12.833 29.5 16.5 47.5s5.5 36.667 5.5 56zM318.999 583.001c0 17.333 -3.50098 29.667 -10.501 37s-18.167 11 -33.5 11s-28.666 -4 -39.999 -12s-20.666 -19 -27.999 -33s-12.833 -30.5 -16.5 -49.5s-5.5 -39.5 -5.5 -61.5
c0 -15.333 4.16699 -26 12.5 -32s20.166 -9 35.499 -9c14 0 26.333 4.16699 37 12.5s19.667 19.333 27 33s12.833 29.5 16.5 47.5s5.5 36.667 5.5 56zM788.998 207.002c0 -28 -4.66602 -55.001 -13.999 -81.001s-23 -49 -41 -69s-40.333 -36 -67 -48
s-57.334 -18 -92.001 -18c-43.333 0 -77 10.833 -101 32.5s-36 51.5 -36 89.5c0 34 5.33301 64.833 16 92.5s25.5 51.334 44.5 71.001s41.333 34.667 67 45s53.5 15.5 83.5 15.5c44 0 78.333 -11.667 103 -35s37 -55 37 -95zM230.999 0.000976562h-107l512 695h107z
M427.999 575.001c0 -28 -4.66602 -55.001 -13.999 -81.001s-23 -49 -41 -69s-40.333 -36 -67 -48s-57.334 -18 -92.001 -18c-43.333 0 -77 10.833 -101 32.5s-36 51.5 -36 89.5c0 34 5.33301 64.833 16 92.5s25.5 51.334 44.5 71.001s41.333 34.667 67 45
s53.5 15.5 83.5 15.5c44 0 78.333 -11.667 103 -35s37 -55 37 -95z" />
    <glyph glyph-name="ampersand" unicode="&#x26;" horiz-adv-x="701" 
d="M249 276c-25.333 -13.333 -44.667 -30.168 -58 -50.501s-20 -43.166 -20 -68.499c0 -23.333 8.16699 -41.333 24.5 -54s39.5 -19 69.5 -19c48 0 86 12 114 36zM408.999 523.998c0 14.667 -4.5 26.499 -13.5 35.499s-21.167 13.5 -36.5 13.5c-22 0 -41 -8 -57 -24
s-24 -35.333 -24 -58c0 -10.667 2.83301 -22.167 8.5 -34.5s16.167 -27.5 31.5 -45.5c28.667 11.333 51 27.333 67 48s24 42.334 24 65.001zM478.999 -0.00292969l-34 44.002c-24.667 -17.333 -52.834 -31.333 -84.501 -42s-71.834 -16 -120.501 -16
c-34.667 0 -65.5 4 -92.5 12s-49.667 19.167 -68 33.5s-32.166 31.333 -41.499 51s-14 40.834 -14 63.501c0 42 14.167 80.667 42.5 116s70.166 64.666 125.499 87.999c-20.667 19.333 -34.5 37.833 -41.5 55.5s-10.5 37.5 -10.5 59.5c0 28 6 54.167 18 78.5
s28.667 45.5 50 63.5s46.5 32.333 75.5 43s60.5 16 94.5 16c52 0 93 -11.5 123 -34.5s45 -52.833 45 -89.5c0 -19.333 -2.16699 -37.5 -6.5 -54.5s-12.166 -33.333 -23.499 -49s-27 -30.834 -47 -45.501s-45.667 -29.334 -77 -44.001l-13 -6l92 -111
c4.66699 6.66699 8.83398 15.334 12.501 26.001s7 21.167 10 31.5s5.5 20.166 7.5 29.499s3.33301 16.333 4 21h112c-6 -34 -15.667 -68.833 -29 -104.5s-29 -66.167 -47 -91.5l115 -144h-177z" />
    <glyph glyph-name="quotesingle" unicode="'" horiz-adv-x="255" 
d="M226 426h-126l59 282h126z" />
    <glyph glyph-name="parenleft" unicode="(" horiz-adv-x="335" 
d="M465 699c-24 -15.333 -44.502 -29.1689 -61.502 -41.502s-31.667 -24.5 -44 -36.5s-23.166 -24.667 -32.499 -38s-18.666 -28.666 -27.999 -45.999c-15.333 -28 -28.833 -61 -40.5 -99s-21.5 -76 -29.5 -114l-10.5 -54.5c-3.66699 -19.667 -7 -39.5 -10 -59.5
s-5.5 -39.5 -7.5 -58.5s-3 -35.833 -3 -50.5c0 -24 1.5 -45.5 4.5 -64.5s8 -36.167 15 -51.5s16.667 -29.5 29 -42.5s27.833 -25.5 46.5 -37.5l-48 -74c-56 20.667 -99.833 54.667 -131.5 102s-47.5 107.333 -47.5 180c0 29.333 2.33301 62 7 98s11 73 19 111
c15.333 74.667 37.833 141.834 67.5 201.501s69.167 111.5 118.5 155.5c50 44 105.667 78 167 102z" />
    <glyph glyph-name="parenright" unicode=")" horiz-adv-x="335" 
d="M121 782c55.333 -21.333 98.498 -55.1689 129.498 -101.502s46.5 -106.5 46.5 -180.5c0 -14 -0.666992 -29.833 -2 -47.5s-3.16602 -35.667 -5.49902 -54s-5 -36.5 -8 -54.5s-6.16699 -35 -9.5 -51c-15.333 -74.667 -37.666 -142.167 -66.999 -202.5
s-69 -112.5 -119 -156.5c-49.333 -44 -105.333 -78 -168 -102l-17 85c24 14.667 44.333 28 61 40s31 23.833 43 35.5s22.667 24.167 32 37.5s19 28.666 29 45.999c15.333 28 28.833 61.333 40.5 100s21.834 77 30.501 115c4 16.667 7.66699 34.834 11 54.501
s6.16602 39.334 8.49902 59.001s4.33301 38.834 6 57.501s2.5 35.667 2.5 51c0 22 -1.16699 42.167 -3.5 60.5s-6.83301 35.5 -13.5 51.5s-16 30.833 -28 44.5s-27.333 26.5 -46 38.5z" />
    <glyph glyph-name="asterisk" unicode="*" horiz-adv-x="462" 
d="M381 476l83 -114l-83 -61l-84 115l-81 -110l-81 61l84 109l-133 46l32 95l131 -47v138h102v-138l131 43l30 -95z" />
    <glyph glyph-name="plus" unicode="+" horiz-adv-x="619" 
d="M573 240h-206l-45 -211h-137l45 211h-204l27 126h204l45 211h137l-45 -211h206z" />
    <glyph glyph-name="comma" unicode="," horiz-adv-x="279" 
d="M-32 -90c22 8 41.1689 16.9961 57.502 26.9961s24.5 20.333 24.5 31c0 12.667 -4.66699 21.667 -14 27c-10 6 -18.167 15.333 -24.5 28s-9.5 27.334 -9.5 44.001c0 12.667 2.33301 24.5 7 35.5s11.167 20.5 19.5 28.5s17.833 14.167 28.5 18.5s22 6.5 34 6.5
c29.333 0 52.666 -9.16699 69.999 -27.5s26 -45.166 26 -80.499c0 -23.333 -5.5 -45.666 -16.5 -66.999s-25.167 -40.666 -42.5 -57.999s-36.833 -32 -58.5 -44s-42.834 -20.667 -63.501 -26z" />
    <glyph glyph-name="hyphen" unicode="-" horiz-adv-x="349" 
d="M289 219h-240l25 110h240z" />
    <glyph glyph-name="hyphen" unicode="&#xad;" horiz-adv-x="349" 
d="M289 219h-240l25 110h240z" />
    <glyph glyph-name="period" unicode="." horiz-adv-x="278" 
d="M189 73c0 -12 -2.33301 -23.5 -7 -34.5s-11 -20.5 -19 -28.5s-17.333 -14.333 -28 -19s-22 -7 -34 -7c-24.667 0 -45.5 8.66699 -62.5 26s-25.5 38.333 -25.5 63c0 24 8.5 44.5 25.5 61.5s37.5 25.5 61.5 25.5c24.667 0 45.667 -8.5 63 -25.5s26 -37.5 26 -61.5z" />
    <glyph glyph-name="slash" unicode="/" horiz-adv-x="405" 
d="M35 -154h-96l463 918h96z" />
    <glyph glyph-name="zero" unicode="0" horiz-adv-x="572" 
d="M389 346c0 30.667 -6.16699 51.334 -18.5 62.001s-27.833 16 -46.5 16c-25.333 0 -46.666 -9.33301 -63.999 -28s-31.5 -41.334 -42.5 -68.001s-19 -54.667 -24 -84s-7.5 -54.666 -7.5 -75.999c0 -16.667 1.66699 -30.334 5 -41.001s7.83301 -19 13.5 -25
s12.5 -10.167 20.5 -12.5s16.667 -3.5 26 -3.5c25.333 0 46.666 9.5 63.999 28.5s31.5 42 42.5 69s19 55.5 24 85.5s7.5 55.667 7.5 77zM534 323c0 -38 -6.66895 -76.666 -20.002 -115.999s-33 -75.333 -59 -108s-57.833 -59.334 -95.5 -80.001s-80.834 -31 -129.501 -31
c-60.667 0 -107.167 16.667 -139.5 50s-48.5 83.333 -48.5 150c0 38 6.66699 76.833 20 116.5s32.833 75.5 58.5 107.5s57.334 58.333 95.001 79s80.834 31 129.501 31c60.667 0 107.334 -16.167 140.001 -48.5s49 -82.5 49 -150.5z" />
    <glyph glyph-name="one" unicode="1" horiz-adv-x="452" 
d="M300 109h86l-23 -109h-323l23 109h108l55 259l-64.5 -33c-21.667 -10.667 -44.167 -19.667 -67.5 -27l-19 78l223 136h90z" />
    <glyph glyph-name="two" unicode="2" horiz-adv-x="547" 
d="M73 429c43.333 32 86.6709 56.499 130.004 73.499s91 25.5 143 25.5c51.333 0 91.166 -12.5 119.499 -37.5s42.5 -56.5 42.5 -94.5c0 -40.667 -11.167 -77.167 -33.5 -109.5s-52.166 -60.5 -89.499 -84.5c-21.333 -13.333 -42.666 -25.666 -63.999 -36.999l-71 -36
l-46 -22c5.33301 0.666992 12.666 1.33398 21.999 2.00098s19.166 1.16699 29.499 1.5l31.5 1c10.667 0.333008 20 0.5 28 0.5h157l-53 -112h-417l26 122l25 11.5l21.5 10l27 13l40.5 20.5c44.667 22.667 80.667 42.667 108 60s48.666 33.166 63.999 47.499
s25.666 27.5 30.999 39.5s8 23.667 8 35c0 16 -6.33301 28.5 -19 37.5s-29 13.5 -49 13.5c-21.333 0 -43.333 -5.33301 -66 -16s-50.334 -27.667 -83.001 -51z" />
    <glyph glyph-name="three" unicode="3" horiz-adv-x="532" 
d="M63 439c40.667 26.667 82.168 47.3359 124.501 62.0029s85.5 22 129.5 22c55.333 0 99.333 -13 132 -39s49 -59.667 49 -101c0 -38 -10.833 -73.333 -32.5 -106s-56.167 -57.667 -103.5 -75c14 -2.66699 26.667 -7.83398 38 -15.501s20.833 -16.834 28.5 -27.501
s13.667 -22.5 18 -35.5s6.5 -26.5 6.5 -40.5c0 -37.333 -10.167 -72.333 -30.5 -105s-48.5 -61 -84.5 -85s-78.833 -42.833 -128.5 -56.5s-103.834 -20.5 -162.501 -20.5h-21c-6 0 -12 0.166992 -18 0.5s-12.333 0.833008 -19 1.5s-14.667 1.66699 -24 3l-13 98
c14.667 -3.33301 26.667 -5.33301 36 -6s22 -1 38 -1c40 0 76.667 4.5 110 13.5s61.833 21.167 85.5 36.5s42 33.666 55 54.999s19.5 44.333 19.5 69c0 22.667 -8.83301 38.834 -26.5 48.501s-48.834 14.5 -93.501 14.5h-25.5c-10.333 0 -19.166 -0.333008 -26.499 -1
l24 112c12 -1.33301 23.5 -2.33301 34.5 -3s22.167 -1 33.5 -1c42 0 74.5 9.33301 97.5 28s34.5 43 34.5 73c0 16 -5.83301 29 -17.5 39s-29.5 15 -53.5 15c-34 0 -65 -6.33301 -93 -19s-51 -25.334 -69 -38.001z" />
    <glyph glyph-name="four" unicode="4" horiz-adv-x="544" 
d="M464 0l-44.998 -0.000976562c-11.333 0 -18.666 0.333008 -21.999 1c-2.66699 0 -5.33398 0.333008 -8.00098 1v-9c0 -7.33301 -1 -16.333 -3 -27l-30 -141l-130 -16l36 169c0.666992 2 1.16699 4.5 1.5 7.5s1.16602 5.83301 2.49902 8.5
c0.666992 2.66699 1.66699 5.66699 3 9c-2.66699 -0.666992 -5.66699 -1.33398 -9 -2.00098s-6.83301 -1 -10.5 -1h-13.5h-265l20 91l284 427h138l-213 -324c-2 -3.33301 -5.66699 -8.83301 -11 -16.5l-17.5 -24.5c-6.33301 -8.66699 -12.5 -16.667 -18.5 -24
s-11 -12.666 -15 -15.999c5.33301 1.33301 9.33301 2 12 2h9h113c3.33301 0 6.16602 -0.166992 8.49902 -0.5s4.83301 -0.5 7.5 -0.5h8c0 1.33301 0.333008 3.33301 1 6c0 2.66699 0.666992 6.66699 2 12c2.66699 14 6.33398 29.167 11.001 45.5l18 61.5l36 117l110 24
l-37 -177c-2.66699 -11.333 -5 -21.666 -7 -30.999s-4.33301 -18.666 -7 -27.999l-3.5 -13.5c-1 -3.66699 -1.83301 -6.83398 -2.5 -9.50098s-1.33398 -5 -2.00098 -7h11c3.33301 0 6.83301 0.166992 10.5 0.5s7.16699 0.5 10.5 0.5h42z" />
    <glyph glyph-name="five" unicode="5" horiz-adv-x="485" 
d="M421 398h-196.002l-44 -139c11.333 2 19.833 3.33301 25.5 4s13.167 1 22.5 1c55.333 0 98 -14.5 128 -43.5s45 -66.5 45 -112.5c0 -38.667 -8.83301 -75.5 -26.5 -110.5s-42.667 -66 -75 -93s-71.5 -48.5 -117.5 -64.5s-97.333 -24 -154 -24
c-16 0 -28.667 0.333008 -38 1s-21.666 2.66699 -36.999 6l-8 102c18 -5.33301 34 -9 48 -11s28.333 -3 43 -3c32 0 61.333 4.83301 88 14.5s49.334 22.5 68.001 38.5s33.167 34.333 43.5 55s15.5 42 15.5 64c0 23.333 -9.83301 41.833 -29.5 55.5s-43.167 20.5 -70.5 20.5
c-22.667 0 -46.5 -1.5 -71.5 -4.5s-47.167 -7.16699 -66.5 -12.5l110 370h341z" />
    <glyph glyph-name="six" unicode="6" horiz-adv-x="559" 
d="M381 243c0 23.333 -6.33496 41.499 -19.002 54.499s-30.667 19.5 -54 19.5c-16 0 -32.833 -2.66699 -50.5 -8s-37.834 -13.666 -60.501 -24.999c-2 -5.33301 -4.16699 -12.333 -6.5 -21s-4.66602 -18 -6.99902 -28s-4.16602 -20.167 -5.49902 -30.5s-2 -19.833 -2 -28.5
c0 -27.333 6.83301 -48.666 20.5 -63.999s32.834 -23 57.501 -23c17.333 0 33.666 4.33301 48.999 13s28.833 20.167 40.5 34.5s20.834 30.666 27.501 48.999s10 37.5 10 57.5zM543.998 618.999c-27.333 -8 -55.167 -17.834 -83.5 -29.501s-56 -26.334 -83 -44.001
s-52.667 -39 -77 -64s-46.166 -54.833 -65.499 -89.5c32 22 70 33 114 33c26 0 49.833 -4.16699 71.5 -12.5s40 -19.666 55 -33.999s26.667 -31.5 35 -51.5s12.5 -42 12.5 -66c0 -38 -7.5 -73.667 -22.5 -107s-35.5 -62.5 -61.5 -87.5s-56.333 -44.667 -91 -59
s-72 -21.5 -112 -21.5c-65.333 0 -114.833 18 -148.5 54s-50.5 87.333 -50.5 154c0 72.667 18.5 141.334 55.5 206.001s88.167 122.667 153.5 174c18 14 39 28.333 63 43s49.167 28.5 75.5 41.5s52.666 24.833 78.999 35.5s50.5 19 72.5 25z" />
    <glyph glyph-name="seven" unicode="7" horiz-adv-x="467" 
d="M478 395c-26 -28.667 -55.666 -65.499 -88.999 -110.499s-66 -93.333 -98 -145s-61.5 -103.834 -88.5 -156.501s-46.833 -101.334 -59.5 -146.001l-159 -38c20.667 53.333 44.667 107.5 72 162.5s56.666 108.333 87.999 160s64 100.834 98 147.501s68.333 88.667 103 126
c-6 -1.33301 -12.5 -2.33301 -19.5 -3s-14.167 -1 -21.5 -1h-252l47 121h414z" />
    <glyph glyph-name="eight" unicode="8" horiz-adv-x="583" 
d="M386 189c0 23.333 -10.501 42.168 -31.501 56.501s-51.167 28.5 -90.5 42.5c-28 -14 -50.333 -31.667 -67 -53s-25 -47.333 -25 -78c0 -24.667 8 -43.834 24 -57.501s39 -20.5 69 -20.5c18 0 34.333 3 49 9s27.334 14 38.001 24s19 21.667 25 35s9 27.333 9 42z
M434.999 525.002c0 36 -25.668 54 -77.001 54c-15.333 0 -29.666 -2.33301 -42.999 -7s-24.833 -11.167 -34.5 -19.5s-17.167 -18 -22.5 -29s-8 -22.833 -8 -35.5c0 -16.667 7 -30.5 21 -41.5s34 -23.167 60 -36.5c10.667 4.66699 22 10.5 34 17.5s23.167 15.167 33.5 24.5
s19 20 26 32s10.5 25.667 10.5 41zM580.998 535.002c0 -18 -4.00195 -36.499 -12.002 -55.499s-19 -36.833 -33 -53.5s-30.667 -31.167 -50 -43.5s-40.333 -21.5 -63 -27.5c13.333 -5.33301 27 -12.333 41 -21s26.5 -19 37.5 -31s20 -25.333 27 -40
s10.5 -30.334 10.5 -47.001c0 -33.333 -6.66699 -64.333 -20 -93s-33.166 -53.5 -59.499 -74.5s-59.5 -37.667 -99.5 -50s-86.333 -18.5 -139 -18.5c-64.667 0 -113.667 14.5 -147 43.5s-50 66.167 -50 111.5c0 22.667 4 44.667 12 66s19 41.166 33 59.499
s30.667 34.5 50 48.5s40.333 25.333 63 34c-19.333 8.66699 -35.833 23.334 -49.5 44.001s-20.5 43.667 -20.5 69c0 32.667 7.16699 62.5 21.5 89.5s34 50.167 59 69.5s54.333 34.5 88 45.5s69.834 16.5 108.501 16.5c60 0 107 -13.167 141 -39.5s51 -60.5 51 -102.5z" />
    <glyph glyph-name="nine" unicode="9" horiz-adv-x="525" 
d="M351 339c0 28 -6.33301 49.501 -19 64.501s-31 22.5 -55 22.5c-17.333 0 -33.5 -4.5 -48.5 -13.5s-28.167 -21.167 -39.5 -36.5s-20.333 -33.166 -27 -53.499s-10 -41.833 -10 -64.5c0 -24 7.16699 -43 21.5 -57s33.5 -21 57.5 -21c16.667 0 31.5 2.83301 44.5 8.5
s27.5 15.167 43.5 28.5c9.33301 19.333 17 39.666 23 60.999s9 41.666 9 60.999zM-46 -120.999c28.667 6.66699 58.502 17.667 89.502 33s60.667 32.666 89 51.999s54 40 77 62s40.5 43.667 52.5 65c-16.667 -7.33301 -31.334 -12.333 -44.001 -15s-26.334 -4 -41.001 -4
c-26 0 -49.5 4.33301 -70.5 13s-38.667 20.667 -53 36s-25.333 33.5 -33 54.5s-11.5 44.167 -11.5 69.5c0 40 7.83301 77.333 23.5 112s36.834 64.667 63.501 90s57.667 45.333 93 60s72.666 22 111.999 22c61.333 0 108.5 -15.167 141.5 -45.5s49.5 -77.833 49.5 -142.5
c0 -38 -5 -76 -15 -114s-24.833 -75.167 -44.5 -111.5s-44.5 -71.166 -74.5 -104.499s-65 -64 -105 -92c-18 -12.667 -37.333 -25.167 -58 -37.5s-41.667 -23.833 -63 -34.5s-42.5 -20.5 -63.5 -29.5s-41.167 -16.5 -60.5 -22.5z" />
    <glyph glyph-name="colon" unicode=":" horiz-adv-x="292" 
d="M196 70c0 -24 -8.5 -44.333 -25.5 -61s-37.5 -25 -61.5 -25s-44.5 8.33301 -61.5 25s-25.5 37 -25.5 61s8.5 44.5 25.5 61.5s37.5 25.5 61.5 25.5s44.5 -8.5 61.5 -25.5s25.5 -37.5 25.5 -61.5zM260 368c0 -24 -8.5 -44.333 -25.5 -61s-37.5 -25 -61.5 -25
s-44.5 8.33301 -61.5 25s-25.5 37 -25.5 61s8.5 44.5 25.5 61.5s37.5 25.5 61.5 25.5s44.5 -8.5 61.5 -25.5s25.5 -37.5 25.5 -61.5z" />
    <glyph glyph-name="semicolon" unicode=";" horiz-adv-x="315" 
d="M-12 -90c22 8 41.1689 16.9961 57.502 26.9961s24.5 20.333 24.5 31c0 12.667 -4.66699 21.667 -14 27c-10 6 -18.167 15.333 -24.5 28s-9.5 27.334 -9.5 44.001c0 12.667 2.33301 24.5 7 35.5s11.167 20.5 19.5 28.5s17.833 14.167 28.5 18.5s22 6.5 34 6.5
c29.333 0 52.666 -9.16699 69.999 -27.5s26 -45.166 26 -80.499c0 -23.333 -5.5 -45.666 -16.5 -66.999s-25.167 -40.666 -42.5 -57.999s-36.833 -32 -58.5 -44s-42.834 -20.667 -63.501 -26zM267.002 367.996c0 -24 -8.5 -44.333 -25.5 -61s-37.5 -25 -61.5 -25
s-44.5 8.33301 -61.5 25s-25.5 37 -25.5 61s8.5 44.5 25.5 61.5s37.5 25.5 61.5 25.5s44.5 -8.5 61.5 -25.5s25.5 -37.5 25.5 -61.5z" />
    <glyph glyph-name="semicolon" unicode="&#x37e;" horiz-adv-x="315" 
d="M-12 -90c22 8 41.1689 16.9961 57.502 26.9961s24.5 20.333 24.5 31c0 12.667 -4.66699 21.667 -14 27c-10 6 -18.167 15.333 -24.5 28s-9.5 27.334 -9.5 44.001c0 12.667 2.33301 24.5 7 35.5s11.167 20.5 19.5 28.5s17.833 14.167 28.5 18.5s22 6.5 34 6.5
c29.333 0 52.666 -9.16699 69.999 -27.5s26 -45.166 26 -80.499c0 -23.333 -5.5 -45.666 -16.5 -66.999s-25.167 -40.666 -42.5 -57.999s-36.833 -32 -58.5 -44s-42.834 -20.667 -63.501 -26zM267.002 367.996c0 -24 -8.5 -44.333 -25.5 -61s-37.5 -25 -61.5 -25
s-44.5 8.33301 -61.5 25s-25.5 37 -25.5 61s8.5 44.5 25.5 61.5s37.5 25.5 61.5 25.5s44.5 -8.5 61.5 -25.5s25.5 -37.5 25.5 -61.5z" />
    <glyph glyph-name="less" unicode="&#x3c;" horiz-adv-x="369" 
d="M189 292l119 -218l-119 -86l-175 311l307 311l88 -95z" />
    <glyph glyph-name="equal" unicode="=" horiz-adv-x="666" 
d="M603 137h-548l26 126h548zM647 343h-548l27 126h548z" />
    <glyph glyph-name="greater" unicode="&#x3e;" horiz-adv-x="369" 
d="M76 -12l-87 95l220 223l-119 218l119 86l175 -311z" />
    <glyph glyph-name="question" unicode="?" horiz-adv-x="444" 
d="M252 70c0 -23.333 -8.16699 -43 -24.5 -59s-36.166 -24 -59.499 -24c-22.667 0 -41.834 8 -57.501 24s-23.5 35.667 -23.5 59s8 43 24 59s35.667 24 59 24c22.667 0 42 -8 58 -24s24 -35.667 24 -59zM116 629c7.33301 6.66699 17.498 14.333 30.498 23s28.167 17 45.5 25
s37 14.667 59 20s46 8 72 8c24 0 45.833 -3.5 65.5 -10.5s36.5 -16.833 50.5 -29.5s24.833 -27.667 32.5 -45s11.5 -36.333 11.5 -57c0 -39.333 -11.333 -74.333 -34 -105s-53.667 -57 -93 -79c-22 -12.667 -40.167 -26.167 -54.5 -40.5s-25.666 -28.833 -33.999 -43.5
s-14.333 -29.167 -18 -43.5s-6.16699 -27.833 -7.5 -40.5h-115c-3.33301 50.667 7.33398 94.667 32.001 132s58.334 69.333 101.001 96l29.5 18.5c10.333 6.33301 19.666 13.5 27.999 21.5s15.166 16.833 20.499 26.5s8 20.5 8 32.5c0 18.667 -6.5 32.167 -19.5 40.5
s-29.167 12.5 -48.5 12.5c-14 0 -27.167 -2 -39.5 -6s-23.666 -8.66699 -33.999 -14s-19.5 -10.833 -27.5 -16.5s-14.333 -10.5 -19 -14.5z" />
    <glyph glyph-name="at" unicode="@" horiz-adv-x="896" 
d="M543 372c-5.33301 2.66699 -10.499 4.5 -15.499 5.5s-11.833 1.5 -20.5 1.5c-30 0 -55.333 -7.33301 -76 -22s-37.667 -33.5 -51 -56.5s-23 -48.667 -29 -77s-9 -56.5 -9 -84.5c0 -20 3.16699 -35.5 9.5 -46.5s17.166 -16.5 32.499 -16.5c10 0 21.333 2.83301 34 8.5
s24.667 13.667 36 24s21.833 23.333 31.5 39s16.5 33.5 20.5 53.5zM602.001 -151c-24.667 -8 -50.8301 -14.6641 -78.4971 -19.9971s-55.5 -8 -83.5 -8c-57.333 0 -110.166 8 -158.499 24s-90 39.667 -125 71s-62.5 70 -82.5 116s-30 99 -30 159
c0 58.667 10.833 114.5 32.5 167.5s51.5 99.667 89.5 140s82.833 72.333 134.5 96s107.5 35.5 167.5 35.5c56 0 107.5 -8.5 154.5 -25.5s87.833 -41 122.5 -72s61.667 -68.333 81 -112s29 -91.834 29 -144.501c0 -44 -6 -84.167 -18 -120.5s-28.333 -67.333 -49 -93
s-44.834 -45.667 -72.501 -60s-56.834 -21.5 -87.501 -21.5c-25.333 0 -45.333 2.66699 -60 8s-25.834 12.333 -33.501 21s-13 18.5 -16 29.5s-4.83301 22.167 -5.5 33.5c-17.333 -21.333 -39.166 -40 -65.499 -56s-54.5 -24 -84.5 -24c-40.667 0 -72.667 12.5 -96 37.5
s-35 62.5 -35 112.5c0 41.333 6.33301 81 19 119s31 71.5 55 100.5s53.667 52.167 89 69.5s75.666 26 120.999 26c24.667 0 49.167 -4 73.5 -12s47.166 -17.667 68.499 -29c-13.333 -44.667 -24.833 -89.334 -34.5 -134.001l-28.5 -135
c-5.33301 -25.333 -8 -43.666 -8 -54.999c0 -14 3.5 -23.333 10.5 -28s18.167 -7 33.5 -7s29.5 5.33301 42.5 16s24.167 25.667 33.5 45s16.666 42.333 21.999 69s8 56 8 88c0 39.333 -6.16699 75.333 -18.5 108s-30 60.5 -53 83.5s-51.167 40.833 -84.5 53.5
s-71 19 -113 19c-40 0 -78.333 -9.33301 -115 -28s-69 -44 -97 -76s-50.5 -69.167 -67.5 -111.5s-25.5 -86.833 -25.5 -133.5c0 -46 7.16699 -86.333 21.5 -121s34 -63.834 59 -87.501s54.333 -41.334 88 -53.001s69.834 -17.5 108.501 -17.5
c27.333 0 52.833 1.83301 76.5 5.5s46.167 9.16699 67.5 16.5z" />
    <glyph glyph-name="A" unicode="A" horiz-adv-x="578" 
d="M370 281l-9.99902 145c-2 30.667 -3 60 -3 88v30c-7.33301 -19.333 -13.833 -35.5 -19.5 -48.5s-10.834 -24.333 -15.501 -34s-9.16699 -18.5 -13.5 -26.5s-8.5 -16.333 -12.5 -25l-62 -129h136zM467.001 695l71 -695h-145l-14 165h-204l-84 -165h-151l376 695h151z" />
    <glyph glyph-name="B" unicode="B" horiz-adv-x="588" 
d="M275 114c14.667 0 28 1.83398 40 5.50098s22.667 8.5 32 14.5c15.333 10.667 28 25.667 38 45s15 38.666 15 57.999c0 24.667 -7 41.667 -21 51s-36.667 14 -68 14h-87l-40 -188h91zM330 417.001c19.333 0 34.168 1.83398 44.501 5.50098s19.833 8.5 28.5 14.5
c11.333 8 21.166 18.667 29.499 32s12.5 28.666 12.5 45.999c0 21.333 -5.5 36.833 -16.5 46.5s-31.167 14.5 -60.5 14.5h-87l-33 -159h82zM415.002 695.002c26 0 50.166 -3.17188 72.499 -9.50488s41.5 -15.666 57.5 -27.999s28.5 -28 37.5 -47s13.5 -40.833 13.5 -65.5
c0 -17.333 -2.83301 -34.666 -8.5 -51.999s-14.334 -34 -26.001 -50s-26.667 -30.5 -45 -43.5s-40.5 -23.167 -66.5 -30.5c32 -7.33301 57.333 -23.5 76 -48.5s28 -53.833 28 -86.5c0 -11.333 -1.16699 -23.666 -3.5 -36.999s-6.16602 -27.166 -11.499 -41.499
s-12 -28.5 -20 -42.5s-18 -27 -30 -39c-12.667 -13.333 -26 -24.666 -40 -33.999s-29.667 -17 -47 -23s-36.666 -10.333 -57.999 -13s-45.333 -4 -72 -4h-252l148 695h247z" />
    <glyph glyph-name="C" unicode="C" horiz-adv-x="539" 
d="M525 561c-8.66699 8 -21.166 16.0029 -37.499 24.0029s-38.5 12 -66.5 12c-25.333 0 -49 -5.5 -71 -16.5s-41.667 -26.167 -59 -45.5c-14 -16 -26.667 -36.667 -38 -62s-21.333 -52.333 -30 -81s-15.334 -57.5 -20.001 -86.5s-7 -55.167 -7 -78.5
c0 -15.333 1.66699 -31.833 5 -49.5s11.333 -33.5 24 -47.5c14 -15.333 29.667 -24.833 47 -28.5s31.666 -5.5 42.999 -5.5c10.667 0 27.167 2.33301 49.5 7s49.166 18 80.499 40l48 -90c-36 -25.333 -71.667 -42.5 -107 -51.5s-69 -13.5 -101 -13.5
c-24.667 0 -46.667 2 -66 6s-36.166 9 -50.499 15s-26.833 12.667 -37.5 20s-19.334 14.333 -26.001 21c-7.33301 6.66699 -14.666 15.167 -21.999 25.5s-14.333 23 -21 38s-12 32.167 -16 51.5s-6 41.333 -6 66c0 26.667 2.5 54.5 7.5 83.5s12 57.667 21 86
s20 55.666 33 81.999s27.5 50.166 43.5 71.499c35.333 47.333 79 84.666 131 111.999s107.667 41 167 41c22.667 0 42.834 -1.83301 60.501 -5.5s33.167 -8.33398 46.5 -14.001s24.5 -11.667 33.5 -18s16.5 -12.166 22.5 -17.499z" />
    <glyph glyph-name="D" unicode="D" horiz-adv-x="618" 
d="M256 114c29.333 0 54.832 6.66797 76.499 20.001s39.5 30.666 53.5 51.999c13.333 20 24.833 42.5 34.5 67.5s17.5 50 23.5 75s10.333 49 13 72s4 42.833 4 59.5c0 28 -3.66699 50.333 -11 67s-16.666 29.167 -27.999 37.5s-23.5 13.833 -36.5 16.5s-24.833 4 -35.5 4
h-63l-100 -471h69zM327.999 695.001c24.667 0 48.166 -0.668945 70.499 -2.00195s43.333 -4.33301 63 -9s37.5 -11.5 53.5 -20.5s30.667 -21.167 44 -36.5c23.333 -27.333 38 -55.666 44 -84.999s9 -56.666 9 -81.999c0 -36 -3.16699 -71.167 -9.5 -105.5
s-15.333 -66.833 -27 -97.5s-25.167 -59 -40.5 -85s-32 -48.667 -50 -68c-22 -24 -44.333 -42.833 -67 -56.5s-46.167 -24 -70.5 -31s-49.666 -11.5 -75.999 -13.5s-53.833 -3 -82.5 -3h-169l148 695h160z" />
    <glyph glyph-name="E" unicode="E" horiz-adv-x="485" 
d="M521 581h-236l-34 -161h197l-24 -114h-196l-39 -186h262l-26 -120h-405l148 695h396z" />
    <glyph glyph-name="F" unicode="F" horiz-adv-x="428" 
d="M505 582h-219l-34 -159h175l-24 -114h-175l-66 -309h-142l148 695h377z" />
    <glyph glyph-name="G" unicode="G" horiz-adv-x="659" 
d="M571 541c-4.66699 4.66699 -11.001 10.0029 -19.001 16.0029s-17.5 11.667 -28.5 17s-23.5 9.83301 -37.5 13.5s-30 5.5 -48 5.5c-26 0 -48.333 -3.66699 -67 -11s-34 -16 -46 -26c-20.667 -16.667 -38.5 -39.5 -53.5 -68.5s-27.5 -59.667 -37.5 -92s-17.333 -64 -22 -95
s-7 -56.5 -7 -76.5c0 -12 1.33301 -26.333 4 -43s9 -31.667 19 -45c9.33301 -12.667 22.166 -22.834 38.499 -30.501s37.833 -11.5 64.5 -11.5c12.667 0 25.834 1.16699 39.501 3.5s27.834 6.83301 42.501 13.5l35 159h-104v115h274l-73 -339
c-10 -5.33301 -22.667 -11.333 -38 -18s-33.333 -13 -54 -19s-43.667 -11 -69 -15s-53 -6 -83 -6c-12 0 -25.667 0.666992 -41 2s-31.333 4.33301 -48 9s-33.5 11.5 -50.5 20.5s-32.833 20.833 -47.5 35.5c-23.333 23.333 -39.666 49.833 -48.999 79.5s-14 61.5 -14 95.5
c0 31.333 3.16699 64.333 9.5 99s16.166 69.167 29.499 103.5s30.166 67.333 50.499 99s44.833 60.167 73.5 85.5c40 35.333 80.333 59.166 121 71.499s81.334 18.5 122.001 18.5c49.333 0 90.333 -7.83301 123 -23.5s60 -34.834 82 -57.501z" />
    <glyph glyph-name="H" unicode="H" horiz-adv-x="626" 
d="M504 0h-142l66 310h-200l-66 -310h-142l148 695h142l-58 -270h200l58 270h142z" />
    <glyph glyph-name="I" unicode="I" horiz-adv-x="284" 
d="M162 0h-142l148 695h142z" />
    <glyph glyph-name="J" unicode="J" horiz-adv-x="284" 
d="M191 135c-5.33301 -26 -10 -47.1689 -14 -63.502s-7.5 -29.166 -10.5 -38.499s-5.66699 -16.333 -8 -21l-6.5 -13c-6.66699 -12 -14.834 -25.333 -24.501 -40s-22 -29.5 -37 -44.5s-33.667 -29.5 -56 -43.5s-49.166 -26.667 -80.499 -38l-49 75
c19.333 10.667 38.333 23.834 57 39.501s32.667 30.5 42 44.5c12.667 20.667 21.5 40.5 26.5 59.5s10.167 41.833 15.5 68.5l122 575h142z" />
    <glyph glyph-name="K" unicode="K" horiz-adv-x="589" 
d="M386 368l168 -368h-178l-137 363l-77 -363h-142l148 695h142l-68 -317l263 317h175z" />
    <glyph glyph-name="L" unicode="L" horiz-adv-x="461" 
d="M386 0h-366l148 695h142l-123 -579h249z" />
    <glyph glyph-name="M" unicode="M" horiz-adv-x="817" 
d="M718 0l-134.999 -0.00488281l53 371c1.33301 8 2.5 15.667 3.5 23l3.5 24.5c1.33301 9 3 18.833 5 29.5s4.66699 23.667 8 39c-3.33301 -9.33301 -8.66602 -22.166 -15.999 -38.499s-18.333 -39.166 -33 -68.499l-191 -380h-119l-21 365
c-0.666992 9.33301 -1.33398 20.5 -2.00098 33.5s-1 28.5 -1 46.5v20.5c0 7 0.333008 14.5 1 22.5l-10 -43c-4 -17.333 -11.333 -44.666 -22 -81.999l-101 -363h-141l213 695h177l17 -348c0.666992 -9.33301 1 -16.666 1 -21.999v-15v-28v-20v-11
c0 -4 -0.333008 -8.66699 -1 -14c8.66699 23.333 17.667 45.333 27 66s16.666 36.334 21.999 47.001l168 345h180z" />
    <glyph glyph-name="N" unicode="N" horiz-adv-x="625" 
d="M503 0h-144l-70 300l-14.5 63.5l-11.5 50.5c-3.33301 15.333 -6.16602 29.5 -8.49902 42.5s-4.16602 26.167 -5.49902 39.5c-3.33301 -23.333 -6.5 -44.5 -9.5 -63.5s-6 -36.333 -9 -52l-8.5 -44l-8 -39.5l-59 -297h-135l148 695h153l74 -278
c7.33301 -28 14.166 -58.167 20.499 -90.5s11.5 -68.833 15.5 -109.5c0.666992 10 2 22.5 4 37.5l6.5 48.5c2.33301 17.333 5.16602 35.333 8.49902 54l10 54l58 284h133z" />
    <glyph glyph-name="O" unicode="O" horiz-adv-x="688" 
d="M523 485c0 15.333 -1.66504 30.3311 -4.99805 44.998s-11 28.334 -23 41.001c-9.33301 10 -20.666 17 -33.999 21s-27.666 6 -42.999 6c-4.66699 0 -11.334 -0.5 -20.001 -1.5s-18.5 -3.5 -29.5 -7.5s-22.667 -10.167 -35 -18.5s-24.5 -19.5 -36.5 -33.5
c-14.667 -18 -27.834 -41.167 -39.501 -69.5s-21.5 -58 -29.5 -89s-14 -61.167 -18 -90.5s-6 -54 -6 -74c0 -5.33301 0.333008 -11.833 1 -19.5s2 -16 4 -25s5 -17.833 9 -26.5s9.66699 -16.334 17 -23.001c6 -5.33301 15.167 -10.666 27.5 -15.999s29.166 -8 50.499 -8
c30 0 53.5 5.33301 70.5 16s31.167 22.667 42.5 36c15.333 18.667 29 42.334 41 71.001s22.167 58.667 30.5 90s14.666 62.5 18.999 93.5s6.5 58.5 6.5 82.5zM681.002 455.998c0 -44 -5.33398 -88.165 -16.001 -132.498s-26 -86 -46 -125s-44.333 -74 -73 -105
s-61 -55.167 -97 -72.5c-18.667 -9.33301 -41.167 -17.166 -67.5 -23.499s-56.166 -9.5 -89.499 -9.5c-46 0 -83.167 6.33301 -111.5 19s-51.166 28.334 -68.499 47.001c-22.667 24 -38.334 51.167 -47.001 81.5s-13 64.5 -13 102.5c0 40 4.16699 79.667 12.5 119
s20.5 76.666 36.5 111.999s35.5 67.833 58.5 97.5s49.167 55.5 78.5 77.5c8 6 18.333 12.667 31 20s27.5 14.166 44.5 20.499s36.333 11.666 58 15.999s45.5 6.5 71.5 6.5c77.333 0 137 -23.667 179 -71c24.667 -28 40.667 -57.833 48 -89.5s11 -61.834 11 -90.501z" />
    <glyph glyph-name="P" unicode="P" horiz-adv-x="560" 
d="M311 370c27.333 0 48.832 2.83203 64.499 8.49902s28.167 14.167 37.5 25.5c10.667 12.667 19.334 28.334 26.001 47.001s10 38 10 58c0 23.333 -6.33301 41.333 -19 54s-32 19 -58 19h-86l-45 -212h70zM349.999 694.999c47.333 0 84.833 -2.5 112.5 -7.5
s50.167 -13.167 67.5 -24.5c22 -13.333 39.167 -31 51.5 -53s18.5 -46.667 18.5 -74c0 -60.667 -13.833 -112.5 -41.5 -155.5s-67.5 -76.5 -119.5 -100.5c-17.333 -8 -39.5 -14 -66.5 -18s-54.5 -6 -82.5 -6h-74l-54 -256h-142l148 695h182z" />
    <glyph glyph-name="Q" unicode="Q" horiz-adv-x="689" 
d="M524 485c0 17.333 -1.66504 33.001 -4.99805 47.001s-10.666 26.667 -21.999 38s-23.666 18.833 -36.999 22.5s-27 5.5 -41 5.5c-31.333 0 -57.5 -7.5 -78.5 -22.5s-38.167 -32.167 -51.5 -51.5c-14 -19.333 -26.167 -42.5 -36.5 -69.5s-19 -54.833 -26 -83.5
s-12.333 -56.5 -16 -83.5s-5.5 -50.5 -5.5 -70.5c0 -15.333 1.66699 -32 5 -50s11.666 -33.333 24.999 -46c6 -5.33301 15.333 -10.833 28 -16.5s29.667 -8.5 51 -8.5c29.333 0 52.666 5.33301 69.999 16s31.666 22.667 42.999 36c15.333 18.667 29 42.334 41 71.001
s22.167 58.667 30.5 90s14.666 62.666 18.999 93.999s6.5 58.666 6.5 81.999zM612.002 -122.999c-11.333 -3.33301 -22.001 -5.66992 -32.001 -7.00293s-19.667 -2 -29 -2c-30 0 -55.5 5.66699 -76.5 17s-38.833 22.333 -53.5 33l-34.5 23.5
c-10.333 7 -20.5 13.333 -30.5 19s-20 10.667 -30 15s-21 8.5 -33 12.5h-13c-19.333 0 -40.5 2.5 -63.5 7.5s-45.167 14.167 -66.5 27.5c-20 12.667 -36.333 27.5 -49 44.5s-22.5 35 -29.5 54s-11.833 38.333 -14.5 58s-4 38.834 -4 57.501c0 48 5.16699 92.833 15.5 134.5
s24 79.667 41 114s36.667 64.833 59 91.5s45.166 48.667 68.499 66c34 25.333 68.5 42.333 103.5 51s69.5 13 103.5 13c34.667 0 65.834 -4.33301 93.501 -13s52.5 -23.667 74.5 -45c26 -25.333 44.167 -54.833 54.5 -88.5s15.5 -68.5 15.5 -104.5
c0 -46.667 -5.66699 -92.5 -17 -137.5s-26 -84.833 -44 -119.5c-21.333 -41.333 -45.833 -76.166 -73.5 -104.499s-57.5 -52.166 -89.5 -71.499c10.667 -4 19.167 -8.33301 25.5 -13l18.5 -14l7 -5c10.667 -7.33301 23.834 -14.333 39.501 -21s33.5 -10 53.5 -10
c18.667 0 37.667 2 57 6z" />
    <glyph glyph-name="R" unicode="R" horiz-adv-x="566" 
d="M288 395c23.333 0 43.667 1.16895 61 3.50195s33.666 9.16602 48.999 20.499c14 10.667 25 25.5 33 44.5s12 36.833 12 53.5c0 8.66699 -1.33301 17.167 -4 25.5s-8.66699 16.166 -18 23.499c-10.667 8 -22.667 12.833 -36 14.5s-23.666 2.5 -30.999 2.5h-69l-40 -188h43
zM427.001 695.002c28.667 0 52.332 -3.66895 70.999 -11.002s33.334 -15.333 44.001 -24c19.333 -15.333 32.666 -33.166 39.999 -53.499s11 -43.166 11 -68.499c0 -28.667 -5.16699 -57.5 -15.5 -86.5s-27.166 -55.833 -50.499 -80.5
c-24.667 -26 -49.334 -43.667 -74.001 -53s-44.667 -15.333 -60 -18c8 -6 15.667 -14.333 23 -25c14.667 -22 28.667 -50.667 42 -86l9.5 -24.5l13.5 -36l14 -38c4.66699 -12.333 8.33398 -22.5 11.001 -30.5l20 -60h-164l-36 113l-14 43c-6 18 -12.667 36 -20 54
s-15.5 34.167 -24.5 48.5s-18.167 23.5 -27.5 27.5c-7.33301 2.66699 -12 4 -14 4h-3l-62 -290h-141l148 695h259z" />
    <glyph glyph-name="S" unicode="S" horiz-adv-x="592" 
d="M536 544c-14.667 10.667 -29.3291 19.3379 -43.9961 26.0049s-28.5 11.5 -41.5 14.5s-24.833 5 -35.5 6s-19 1.5 -25 1.5c-19.333 0 -36 -2.33301 -50 -7s-26 -11 -36 -19c-14 -11.333 -23 -22.5 -27 -33.5s-6 -19.833 -6 -26.5c0 -17.333 6 -31 18 -41
c6 -5.33301 13 -10 21 -14s16 -7.66699 24 -11l78 -30c15.333 -6 32.333 -13.833 51 -23.5s35 -22.834 49 -39.501c9.33301 -11.333 17.5 -25.333 24.5 -42s10.5 -36.667 10.5 -60c0 -8 -0.666992 -18.333 -2 -31s-4.5 -26.667 -9.5 -42s-12.667 -31.333 -23 -48
s-24.166 -33 -41.499 -49c-11.333 -10.667 -25 -21.167 -41 -31.5s-34.5 -19.666 -55.5 -27.999s-44.667 -15 -71 -20s-55.833 -7.5 -88.5 -7.5c-32 0 -67.333 4 -106 12s-78.334 24.667 -119.001 50l73 105c19.333 -12 44 -23.833 74 -35.5s64.333 -17.5 103 -17.5
c21.333 0 41.166 2.66699 59.499 8s35.166 15 50.499 29c5.33301 5.33301 12.166 13.666 20.499 24.999s12.5 26.666 12.5 45.999c0 10 -1.5 19.167 -4.5 27.5s-7.16699 15.166 -12.5 20.499c-7.33301 8 -16.333 14.333 -27 19s-20.334 8.66699 -29.001 12l-72 27
c-25.333 9.33301 -45.5 19.166 -60.5 29.499s-26.167 20.166 -33.5 29.499c-9.33301 10.667 -16.833 23.667 -22.5 39s-8.5 33 -8.5 53c0 12.667 1.33301 26.334 4 41.001s7.5 29.667 14.5 45s16.5 30.833 28.5 46.5s27 30.5 45 44.5c24 18 52.667 33 86 45
s71.333 18 114 18c34 0 70 -4.83301 108 -14.5s73.333 -27.834 106 -54.501z" />
    <glyph glyph-name="T" unicode="T" horiz-adv-x="491" 
d="M557 579h-164l-123 -579h-142l123 579h-170l25 116h501z" />
    <glyph glyph-name="U" unicode="U" horiz-adv-x="634" 
d="M565 227c-3.33301 -16 -6.99707 -32.001 -10.9971 -48.001s-9.16699 -31.667 -15.5 -47s-14.666 -30.166 -24.999 -44.499s-23.833 -27.833 -40.5 -40.5s-34 -22.834 -52 -30.501s-36 -13.667 -54 -18s-35.5 -7.16602 -52.5 -8.49902s-32.833 -2 -47.5 -2
c-36.667 0 -68.334 3.83301 -95.001 11.5s-48.834 18.334 -66.501 32.001s-30.667 29.5 -39 47.5s-12.5 37.333 -12.5 58c0 8.66699 0.833008 20.834 2.5 36.501s3.5 28.167 5.5 37.5l103 484h142l-97 -457c-2 -9.33301 -3.66699 -20.666 -5 -33.999s-2 -23 -2 -29
c0 -6.66699 1.16699 -13.834 3.5 -21.501s6.66602 -14.834 12.999 -21.501s15 -12.334 26 -17.001s25.167 -7 42.5 -7c27.333 0 49.166 4.66699 65.499 14s28.833 19 37.5 29c11.333 13.333 19.5 28.833 24.5 46.5s9.16699 35.167 12.5 52.5l95 445h142z" />
    <glyph glyph-name="V" unicode="V" horiz-adv-x="585" 
d="M300 -5h-127.001l-87 700h149l36 -372l2 -19.5c0.666992 -6.33301 1.33398 -14 2.00098 -23s1.16699 -19.667 1.5 -32s0.5 -27.833 0.5 -46.5l13.5 29l14 29.5c5 10.333 11 22 18 35l24.5 45.5l193 354h151z" />
    <glyph glyph-name="W" unicode="W" horiz-adv-x="812" 
d="M601 -4l-152.997 0.000976562l-2 281v17c0 28 0.5 51.333 1.5 70s2.16699 35.167 3.5 49.5s2.66602 27.5 3.99902 39.5s2.33301 25.667 3 41c-14 -42 -28.333 -82 -43 -120s-27.334 -69.667 -38.001 -95l-118 -283h-156l-17 699h145l1 -274
c0 -19.333 -0.5 -49.333 -1.5 -90s-4.16699 -88 -9.5 -142c5.33301 17.333 11.666 36.666 18.999 57.999s15 42.5 23 63.5l23 59c7.33301 18.333 13.666 33.166 18.999 44.499l122 281h151l-2 -311c0 -13.333 -0.333008 -28 -1 -44l-2 -49.5
c-0.666992 -17 -1.66699 -33.667 -3 -50s-2.33301 -30.833 -3 -43.5l24.5 71l24.5 66l22 56c6.66699 16.667 12.334 30.334 17.001 41.001l113 264h150z" />
    <glyph glyph-name="X" unicode="X" horiz-adv-x="528" 
d="M379 366l134 -366h-164l-74 240l-171 -240h-180l300 375l-122 320h163l61 -194l136 194h167z" />
    <glyph glyph-name="Y" unicode="Y" horiz-adv-x="544" 
d="M351 286l-61.002 -286.002h-146l61 286l-129 409h162l48 -190c6.66699 -25.333 10.834 -44.666 12.501 -57.999s2.83398 -23.666 3.50098 -30.999l56 87l131 192h171z" />
    <glyph glyph-name="Z" unicode="Z" horiz-adv-x="530" 
d="M593 695l-22.001 -101.001l-346 -435l-17.5 -20c-7 -8 -15.5 -16.333 -25.5 -25c16.667 1.33301 30.167 2 40.5 2h25.5h228l-48 -116h-444l21 98l342 423l13.5 15.5l16.5 19c5.33301 6.33301 10.333 12 15 17s7.66699 8.16699 9 9.5
c-11.333 -1.33301 -21.166 -2.16602 -29.499 -2.49902s-15.833 -0.5 -22.5 -0.5h-18h-207l45 116h424z" />
    <glyph glyph-name="bracketleft" unicode="[" horiz-adv-x="305" 
d="M344 642h-90l-150 -708h90l-19 -90h-210l189 888h210z" />
    <glyph glyph-name="backslash" unicode="\" horiz-adv-x="415" 
d="M237 -49l-135 779l124 26l133 -779z" />
    <glyph glyph-name="bracketright" unicode="]" horiz-adv-x="305" 
d="M152 -156h-210l19 90h90l150 708h-90l20 90h210z" />
    <glyph glyph-name="asciicircum" unicode="^" horiz-adv-x="588" 
d="M415 343l-61 238l-162 -238h-142l257 365h146l103 -365h-141z" />
    <glyph glyph-name="underscore" unicode="_" horiz-adv-x="463" 
d="M404 -132h-501l14 57h501z" />
    <glyph glyph-name="grave" unicode="`" horiz-adv-x="292" 
d="M315 557l-216 100l66 106l196 -134z" />
    <glyph glyph-name="a" unicode="a" horiz-adv-x="519" 
d="M351 412c-6 3.33301 -13.1689 5.49902 -21.502 6.49902s-15.166 1.5 -20.499 1.5c-19.333 0 -36 -3.5 -50 -10.5s-26.667 -18.167 -38 -33.5c-13.333 -17.333 -23.666 -35.5 -30.999 -54.5s-13 -36.833 -17 -53.5c-4 -16 -7.5 -34.167 -10.5 -54.5
s-4.5 -40.166 -4.5 -59.499c0 -15.333 1.16699 -26.333 3.5 -33s3.83301 -10.667 4.5 -12c4 -7.33301 9.16699 -12.166 15.5 -14.499s12.166 -3.5 17.499 -3.5c10.667 0 21.167 2.5 31.5 7.5s19.833 11.333 28.5 19s16.334 16.167 23.001 25.5s12 18.666 16 27.999z
M336.998 -14.001c-8 5.33301 -15.332 12.666 -21.999 21.999s-12.334 23 -17.001 41c-17.333 -19.333 -37.666 -34.333 -60.999 -45s-48.333 -16 -75 -16c-28.667 0 -51.167 4.5 -67.5 13.5s-28.833 18.5 -37.5 28.5c-14.667 16.667 -24.334 35 -29.001 55s-7 41.333 -7 64
c0 60 9.83301 116 29.5 168s45.834 94.333 78.501 127c18 18 36.167 32.333 54.5 43s36.5 18.667 54.5 24s35 8.83301 51 10.5s30.667 2.5 44 2.5c44 0 79 -3.5 105 -10.5s47.667 -15.167 65 -24.5c-6.66699 -21.333 -12.834 -43.166 -18.501 -65.499
s-10.5 -42.5 -14.5 -60.5l-41 -194c-2 -10.667 -3.16699 -19.667 -3.5 -27s-0.5 -12 -0.5 -14c0 -13.333 2 -24.5 6 -33.5s9.66699 -17.5 17 -25.5z" />
    <glyph glyph-name="b" unicode="b" horiz-adv-x="558" 
d="M182 108c5.33301 -5.33301 14.001 -10.335 26.001 -15.002s26.333 -7 43 -7c14.667 0 30 5.83301 46 17.5s28.667 25.834 38 42.501c6.66699 12.667 13 28.5 19 47.5s11.167 38.333 15.5 58s7.66602 38.334 9.99902 56.001s3.5 31.5 3.5 41.5c0 44.667 -13.333 67 -40 67
c-20.667 0 -41 -7.5 -61 -22.5s-36.667 -34.167 -50 -57.5zM270.001 528.998c-0.666992 -4 -1.83301 -9.33398 -3.5 -16.001l-5.5 -21c-2 -7.33301 -4 -14 -6 -20l-4 -12c14.667 17.333 34.334 32.333 59.001 45s52 19 82 19c48 0 82.833 -15.667 104.5 -47
s32.5 -74.666 32.5 -129.999c0 -31.333 -3.33301 -62.166 -10 -92.499s-16.167 -59 -28.5 -86s-27.833 -52.167 -46.5 -75.5s-40 -43.333 -64 -60s-48 -28.334 -72 -35.001s-49 -10 -75 -10c-20.667 0 -40.834 1.16699 -60.501 3.5s-38.5 5.66602 -56.5 9.99902
s-34.5 9.5 -49.5 15.5s-27.833 12.333 -38.5 19c3.33301 9.33301 7 21.333 11 36s7 27 9 37l96 451c4.66699 22 8.16699 41.5 10.5 58.5s3.5 32.167 3.5 45.5c0 15.333 -1.33301 28.333 -4 39l139 43c2.66699 -10 4 -24.333 4 -43c0 -14 -0.833008 -29.167 -2.5 -45.5
s-4.16699 -32.166 -7.5 -47.499z" />
    <glyph glyph-name="c" unicode="c" horiz-adv-x="432" 
d="M385 380c-8 9.33301 -18.5078 17.999 -31.5078 25.999s-27.5 12 -43.5 12c-9.33301 0 -19.5 -2.16699 -30.5 -6.5s-21.833 -12.166 -32.5 -23.499c-10 -11.333 -18.667 -24.833 -26 -40.5s-13 -28.834 -17 -39.501c-7.33301 -20.667 -13.666 -44.334 -18.999 -71.001
s-8 -51 -8 -73c0 -8 0.666992 -16.667 2 -26s4.33301 -17.666 9 -24.999c10 -17.333 26.333 -26 49 -26c10.667 0 20.834 1.5 30.501 4.5s17.834 6.16699 24.501 9.5c8.66699 4 18 9.33301 28 16s19.333 13.667 28 21l45 -82c-19.333 -15.333 -38.166 -27.5 -56.499 -36.5
s-35.666 -15.833 -51.999 -20.5s-31.166 -7.66699 -44.499 -9s-24.666 -2 -33.999 -2c-25.333 0 -49.166 3.5 -71.499 10.5s-41.833 19.167 -58.5 36.5c-16 17.333 -27.333 37 -34 59s-10 46.333 -10 73c0 28.667 3.16699 57.167 9.5 85.5s15.166 55.333 26.499 81
s24.833 49.667 40.5 72s33.167 41.833 52.5 58.5c6 5.33301 14 11.5 24 18.5s21.833 13.5 35.5 19.5s29.334 11.167 47.001 15.5s37.5 6.5 59.5 6.5c8 0 17.167 -0.666992 27.5 -2s21.5 -4.16602 33.5 -8.49902s24.333 -10.5 37 -18.5s25 -18.333 37 -31z" />
    <glyph glyph-name="d" unicode="d" horiz-adv-x="540" 
d="M370 392l0.000976562 0.999023c0 2.66699 -2.66699 5.33398 -8 8.00098s-11.5 5 -18.5 7s-14.167 3.66699 -21.5 5s-13 2 -17 2c-19.333 0 -34.333 -4.83301 -45 -14.5s-19 -19.167 -25 -28.5c-10.667 -15.333 -19.5 -30.833 -26.5 -46.5s-12.833 -30.834 -17.5 -45.501
c-5.33301 -17.333 -9.66602 -36 -12.999 -56s-5 -39 -5 -57c0 -9.33301 0.833008 -19.166 2.5 -29.499s5.5 -19.5 11.5 -27.5c5.33301 -6.66699 11.166 -11.167 17.499 -13.5s13.166 -3.5 20.499 -3.5c10 0 19.5 2.5 28.5 7.5s17.167 10.5 24.5 16.5
c10.667 8 19 15.5 25 22.5s11.333 14.167 16 21.5zM460.001 186.999c-5.33301 -23.333 -9.5 -43.502 -12.5 -60.502s-5.33301 -31.667 -7 -44s-2.83398 -23 -3.50098 -32s-1 -17.5 -1 -25.5s1 -16.333 3 -25h-115c-1.33301 6 -2.5 13.667 -3.5 23s-1.5 17.333 -1.5 24
c-16.667 -18.667 -36.167 -33.167 -58.5 -43.5s-47.166 -15.5 -74.499 -15.5c-25.333 0 -47.833 4 -67.5 12s-35.167 18.667 -46.5 32c-10 11.333 -19 27.833 -27 49.5s-12 49.5 -12 83.5c0 28 3 56.333 9 85s13.333 54 22 76c9.33301 24 20.833 46.167 34.5 66.5
s29.167 39.166 46.5 56.499c6.66699 6.66699 15.167 14.334 25.5 23.001s22.5 16.834 36.5 24.501s29.667 14.167 47 19.5s36.333 8 57 8c12.667 0 26.834 -1.66699 42.501 -5s30.167 -8 43.5 -14c0.666992 2.66699 1.16699 5 1.5 7s0.666016 4.83301 0.999023 8.5
s1 8.83398 2 15.501s2.83301 16 5.5 28l37 176l129 -21z" />
    <glyph glyph-name="e" unicode="e" horiz-adv-x="506" 
d="M201 307c5.33301 -1.33301 11.002 -2.5 17.002 -3.5s13 -1.5 21 -1.5c11.333 0 25.166 1 41.499 3s31.166 6.66699 44.499 14c12 6 21.5 13.5 28.5 22.5s10.5 20.167 10.5 33.5c0 17.333 -4.66699 30 -14 38c-3.33301 3.33301 -8 6.33301 -14 9s-14.667 4 -26 4
c-16 0 -29.833 -3 -41.5 -9s-22.167 -14.333 -31.5 -25c-10 -12 -18 -26.167 -24 -42.5s-10 -30.5 -12 -42.5zM436.002 58c-22 -16 -43.166 -28.501 -63.499 -37.501s-39.333 -16 -57 -21s-34 -8.16699 -49 -9.5s-27.833 -2 -38.5 -2s-22.334 0.5 -35.001 1.5
s-25.5 3.33301 -38.5 7s-25.833 9 -38.5 16s-24.334 16.167 -35.001 27.5c-17.333 18 -29.5 38.833 -36.5 62.5s-10.5 48.167 -10.5 73.5s2.83301 51.166 8.5 77.499s13.5 51.666 23.5 75.999s22 47.333 36 69s29.667 40.834 47 57.501c30 28.667 59.667 47.167 89 55.5
s58.333 12.5 87 12.5c25.333 0 49 -2.66699 71 -8s42 -15.333 60 -30c3.33301 -2.66699 7.5 -6.66699 12.5 -12s9.66699 -12 14 -20s8.16602 -17.833 11.499 -29.5s5 -25.167 5 -40.5c0 -28.667 -6 -52.5 -18 -71.5s-26.667 -35.167 -44 -48.5
c-28 -21.333 -58.5 -35.833 -91.5 -43.5s-68.167 -11.5 -105.5 -11.5c-11.333 0 -21.5 0.333008 -30.5 1s-19.167 2.66699 -30.5 6c-3.33301 -15.333 -5 -30.666 -5 -45.999c0 -18 2.66699 -32.333 8 -43s11.666 -18.667 18.999 -24
c9.33301 -7.33301 19.833 -11.666 31.5 -12.999s20.834 -2 27.501 -2c28.667 0 55.334 6 80.001 18s45.334 24 62.001 36z" />
    <glyph glyph-name="f" unicode="f" horiz-adv-x="315" 
d="M404 628c-19.333 10 -37.3369 15.001 -54.0039 15.001c-17.333 0 -32.166 -5 -44.499 -15s-20.5 -24.333 -24.5 -43l-15 -73h130l-54 -92h-91l-82 -420c-4.66699 -24 -11.5 -47 -20.5 -69s-19.333 -42.5 -31 -61.5s-24.167 -36.5 -37.5 -52.5s-26.333 -29.667 -39 -41
l-83 74c6.66699 6.66699 14 15.834 22 27.501s15.667 24.167 23 37.5s13.833 27.333 19.5 42s9.83398 29 12.501 43l84 420h-50l20 92h47c0.666992 10.667 1.83398 22.167 3.50098 34.5s3.83398 24.166 6.50098 35.499c11.333 55.333 34.5 95.666 69.5 120.999
s78.833 38 131.5 38c22 0 43.333 -3 64 -9s37.667 -13.667 51 -23z" />
    <glyph glyph-name="g" unicode="g" horiz-adv-x="548" 
d="M377 405c-4.66699 2.66699 -11.001 5.33496 -19.001 8.00195s-18.333 4 -31 4c-19.333 0 -36.833 -4.33301 -52.5 -13s-28.5 -19 -38.5 -31c-9.33301 -11.333 -17.833 -25.833 -25.5 -43.5s-14.167 -36.167 -19.5 -55.5s-9.33301 -38.5 -12 -57.5s-4 -35.5 -4 -49.5
c0 -2.66699 0.333008 -8.33398 1 -17.001s2.66699 -17.5 6 -26.5s8.5 -17 15.5 -24s16.833 -10.5 29.5 -10.5s23.834 2.83301 33.501 8.5s18.167 11.5 25.5 17.5s13.833 12.167 19.5 18.5s11.167 14.166 16.5 23.499zM15.999 -82.999
c4 -2.66699 10.0049 -6.00391 18.0049 -10.0039s18 -8 30 -12s26 -7.33301 42 -10s34 -4 54 -4c19.333 0 37 2.5 53 7.5s30.667 13.167 44 24.5c6 5.33301 11.833 12.166 17.5 20.499s10.5 20.166 14.5 35.499c2 7.33301 3.83301 15.833 5.5 25.5s4.83398 21.5 9.50098 35.5
c-23.333 -18.667 -44.833 -30.334 -64.5 -35.001s-37.167 -7 -52.5 -7c-6.66699 0 -14.5 0.333008 -23.5 1s-18.5 2.33398 -28.5 5.00098s-20.333 6.66699 -31 12s-20.334 12.666 -29.001 21.999c-9.33301 10 -16.833 20.833 -22.5 32.5s-9.83398 23.334 -12.501 35.001
s-4.33398 23 -5.00098 34s-1 20.5 -1 28.5c0 65.333 10.667 122.833 32 172.5s47.666 89.5 78.999 119.5c32.667 31.333 66 51.5 100 60.5s66 13.5 96 13.5c52 0 93.333 -4.16699 124 -12.5s53.667 -16.166 69 -23.499c-1.33301 -3.33301 -2.83301 -8 -4.5 -14l-5.5 -19.5
l-5.5 -20c-1.66699 -6.33301 -2.83398 -11.166 -3.50098 -14.499l-57 -263c-4.66699 -20 -8.33398 -37.167 -11.001 -51.5s-4.83398 -26.666 -6.50098 -36.999s-3 -19.166 -4 -26.499s-2.16699 -14.333 -3.5 -21l-11 -61c-3.33301 -16.667 -8 -31.667 -14 -45
s-12.833 -25.166 -20.5 -35.499s-15.334 -19.166 -23.001 -26.499s-14.5 -13.333 -20.5 -18c-16 -12 -32.667 -21.5 -50 -28.5s-34.5 -12.5 -51.5 -16.5s-33.5 -6.5 -49.5 -7.5s-30.667 -1.5 -44 -1.5c-23.333 0 -50.166 2.66699 -80.499 8s-63.166 18 -98.499 38z" />
    <glyph glyph-name="h" unicode="h" horiz-adv-x="566" 
d="M286 746c2 -7.33301 3.33203 -14.501 3.99902 -21.501s1 -15.167 1 -24.5c0 -32.667 -3.66699 -66.334 -11 -101.001l-18 -85c-1.33301 -4 -3 -11 -5 -21s-6 -23.667 -12 -41c11.333 12.667 23.333 23.167 36 31.5s26.667 15.5 42 21.5c11.333 4.66699 24.5 9 39.5 13
s31.833 6 50.5 6c23.333 0 42.833 -3 58.5 -9s27.5 -13.667 35.5 -23c7.33301 -7.33301 13 -16.833 17 -28.5s6 -25.167 6 -40.5c0 -12.667 -1.16699 -24.667 -3.5 -36s-4.16602 -21 -5.49902 -29l-76 -358h-132l73 344c2.66699 12.667 4 23.334 4 32.001
c0 11.333 -2 19.666 -6 24.999c-1.33301 2.66699 -4.5 5.5 -9.5 8.5s-12.167 4.5 -21.5 4.5c-10.667 0 -21.834 -2.16699 -33.501 -6.5s-22.5 -9.83301 -32.5 -16.5c-10.667 -6.66699 -21.667 -15.167 -33 -25.5s-21.666 -21.166 -30.999 -32.499l-71 -333h-132l120 561
c0.666992 5.33301 2 12 4 20s3.66699 16.667 5 26l4 28.5c1.33301 9.66699 2 18.834 2 27.501c0 8 -0.166992 15 -0.5 21s-1.5 12.333 -3.5 19z" />
    <glyph glyph-name="i" unicode="i" horiz-adv-x="268" 
d="M152 0h-132l107 503l136 21zM307 653c0 -23.333 -8 -43 -24 -59s-35.667 -24 -59 -24s-42.833 8 -58.5 24s-23.5 35.667 -23.5 59s8.16699 43 24.5 59s36.166 24 59.499 24c22.667 0 41.834 -8 57.501 -24s23.5 -35.667 23.5 -59z" />
    <glyph glyph-name="j" unicode="j" horiz-adv-x="258" 
d="M147 14c-5.33301 -25.333 -11.332 -47.001 -17.999 -65.001s-13.167 -33.333 -19.5 -46s-12.5 -22.667 -18.5 -30s-11.333 -13.333 -16 -18c-8 -8 -22 -19.667 -42 -35s-46 -28.666 -78 -39.999l-42 78c9.33301 4.66699 19.333 11 30 19s21.667 19.667 33 35
c10.667 14 18.167 28 22.5 42s9.16602 32.667 14.499 56l105 493l137 21zM299.001 652.999c0 -23.333 -8 -43 -24 -59s-35.667 -24 -59 -24s-42.833 8 -58.5 24s-23.5 35.667 -23.5 59s8.16699 43 24.5 59s36.166 24 59.499 24c22.667 0 41.834 -8 57.501 -24
s23.5 -35.667 23.5 -59z" />
    <glyph glyph-name="k" unicode="k" horiz-adv-x="503" 
d="M287 746c2 -6 3.16602 -11.499 3.49902 -16.499s0.5 -10.167 0.5 -15.5c0 -21.333 -1.66699 -45 -5 -71s-8.66602 -56 -15.999 -90l-118 -553h-132l120 562c5.33301 24.667 9 45.167 11 61.5s3 30.166 3 41.499c0 8 -0.333008 15 -1 21s-1.66699 11.667 -3 17z
M346.999 290.001l138 -290h-158l-110 290l173 222h166z" />
    <glyph glyph-name="l" unicode="l" horiz-adv-x="270" 
d="M285 746c0.666992 -5.33301 1.16406 -11.334 1.49707 -18.001s0.5 -13.667 0.5 -21c0 -21.333 -1.16699 -43.333 -3.5 -66s-5.16602 -40.667 -8.49902 -54l-81 -379l-5 -24.5l-6 -27.5c-2 -11.333 -3.5 -20.666 -4.5 -27.999s-1.5 -14 -1.5 -20
c0 -3.33301 0.5 -7.33301 1.5 -12s3.83301 -8.66699 8.5 -12c2 -1.33301 4.5 -2.33301 7.5 -3s6.16699 -1 9.5 -1c5.33301 0 10 0.666992 14 2l6 -80c-17.333 -6.66699 -33.666 -10.667 -48.999 -12s-26.666 -2 -33.999 -2c-19.333 0 -35.333 2.33301 -48 7
s-23 10.667 -31 18s-14.5 17 -19.5 29s-7.5 26 -7.5 42c0 15.333 2 31.5 6 48.5s7 30.5 9 40.5l81 382c5.33301 23.333 9.33301 43.333 12 60s4 32.667 4 48c0 14 -1.33301 27.333 -4 40z" />
    <glyph glyph-name="m" unicode="m" horiz-adv-x="792" 
d="M216 529c4.66699 -13.333 7.83398 -24.832 9.50098 -34.499s2.5 -21.5 2.5 -35.5v-12c22 24 48.667 43.333 80 58c12.667 5.33301 26 9.83301 40 13.5s28.667 5.5 44 5.5c28 0 50.667 -7 68 -21s26.666 -32.667 27.999 -56c5.33301 6 14.666 14.667 27.999 26
s30 21.666 50 30.999c28.667 13.333 57.667 20 87 20c14.667 0 28.334 -2 41.001 -6s23.667 -10.667 33 -20c8.66699 -8 15.667 -18.5 21 -31.5s8 -29.5 8 -49.5c0 -10.667 -1 -22.167 -3 -34.5s-3.66699 -23.166 -5 -32.499l-74 -350h-130l72 338
c1.33301 6 2.66602 13 3.99902 21s2 15 2 21c0 3.33301 -0.333008 7.5 -1 12.5s-3 9.16699 -7 12.5c-2.66699 2.66699 -6.16699 4.33398 -10.5 5.00098s-8.16602 1 -11.499 1c-20.667 0 -41 -7.66699 -61 -23s-36 -33.333 -48 -54l-71 -334h-130l71 333
c1.33301 3.33301 2.83301 10.166 4.5 20.499s2.5 20.166 2.5 29.499c0 11.333 -2.33301 18.666 -7 21.999c-3.33301 2.66699 -7.5 4.33398 -12.5 5.00098s-8.83301 1 -11.5 1c-12 0 -22.5 -2.16699 -31.5 -6.5s-16.167 -8.5 -21.5 -12.5
c-9.33301 -7.33301 -19.333 -16.833 -30 -28.5s-19 -21.5 -25 -29.5l-71 -334h-130l75 350c2 10 3.5 22.167 4.5 36.5s1.5 25.5 1.5 33.5c0 11.333 -0.833008 22 -2.5 32s-3.5 19.333 -5.5 28z" />
    <glyph glyph-name="n" unicode="n" horiz-adv-x="541" 
d="M217 529c8.66699 -20 13.0029 -44.334 13.0029 -73.001v-10c9.33301 10.667 20.166 20.834 32.499 30.501s25.166 17.834 38.499 24.501s28.833 12.167 46.5 16.5s36.167 6.5 55.5 6.5c20 0 36 -3 48 -9s21 -11.667 27 -17c10 -9.33301 17.167 -20.5 21.5 -33.5
s6.5 -28.167 6.5 -45.5c0 -10.667 -1 -23 -3 -37s-3.66699 -24.667 -5 -32l-74 -350h-132l71 333c1.33301 6.66699 2.83301 13.667 4.5 21s2.5 15.666 2.5 24.999c0 3.33301 -0.333008 7.5 -1 12.5s-3 9.16699 -7 12.5c-3.33301 2.66699 -7.16602 4.5 -11.499 5.5
s-8.83301 1.5 -13.5 1.5c-10.667 0 -21.334 -2 -32.001 -6s-20.667 -9.33301 -30 -16s-19 -15.5 -29 -26.5s-17.667 -20.5 -23 -28.5l-71 -334h-132l73 345c2 10.667 4 23 6 37s3 26 3 36s-0.833008 20.5 -2.5 31.5s-3.83398 21.167 -6.50098 30.5z" />
    <glyph glyph-name="o" unicode="o" horiz-adv-x="538" 
d="M365 348c0 9.33301 -0.995117 20.167 -2.99512 32.5s-7.66699 22.5 -17 30.5c-10 8.66699 -22 13 -36 13c-6.66699 0 -14.334 -1.16699 -23.001 -3.5s-18 -7.16602 -28 -14.499s-19.833 -17.833 -29.5 -31.5s-18.834 -31.834 -27.501 -54.501
c-4 -12 -8 -24.833 -12 -38.5s-7.5 -27.667 -10.5 -42s-5.5 -28.666 -7.5 -42.999s-3 -27.5 -3 -39.5c0 -8 1.16699 -17 3.5 -27s7.16602 -19 14.499 -27c12 -12 27.333 -18 46 -18c13.333 0 27.666 5 42.999 15s29.666 27 42.999 51c8 14 15 29.667 21 47
s10.833 34.666 14.5 51.999s6.5 34.5 8.5 51.5s3 32.5 3 46.5zM509.005 342.001c0 -41.333 -5.66602 -82.333 -16.999 -123s-27.666 -77 -48.999 -109c-16.667 -25.333 -35.167 -45.833 -55.5 -61.5s-41.333 -28 -63 -37s-42.834 -15.167 -63.501 -18.5s-40 -5 -58 -5
c-19.333 0 -40.333 2.83301 -63 8.5s-43.667 17.5 -63 35.5c-20.667 19.333 -34.334 41.333 -41.001 66s-10 50.667 -10 78c0 52 8.66699 100.667 26 146s42.333 85 75 119c6 6.66699 14.667 14.667 26 24s25 18.333 41 27s34.833 16.167 56.5 22.5s46.167 9.5 73.5 9.5
c36 0 65 -5.33301 87 -16s39 -21.667 51 -33c20 -20 32.833 -41.833 38.5 -65.5s8.5 -46.167 8.5 -67.5z" />
    <glyph glyph-name="p" unicode="p" horiz-adv-x="555" 
d="M177 111c9.33301 -8 20.668 -13.666 34.001 -16.999s24.666 -5 33.999 -5c14 0 26.5 2.16699 37.5 6.5s20.167 10.166 27.5 17.499c9.33301 9.33301 18.166 21.166 26.499 35.499s15.166 29.5 20.499 45.5c3.33301 10 6.83301 21.5 10.5 34.5s6.83398 26.667 9.50098 41
s4.83398 28.833 6.50098 43.5s2.5 28 2.5 40c0 5.33301 -0.666992 12.833 -2 22.5s-5.33301 17.834 -12 24.501c-7.33301 7.33301 -17.666 11 -30.999 11c-10 0 -20.333 -1.83301 -31 -5.5s-20.334 -8.5 -29.001 -14.5c-10.667 -7.33301 -21.167 -16.833 -31.5 -28.5
s-18.833 -22.5 -25.5 -32.5zM219.002 529.001c2.66699 -4.66699 5.49902 -12.5049 8.49902 -23.5049s4.5 -27.833 4.5 -50.5v-8c23.333 25.333 49.5 44.5 78.5 57.5s56.5 19.5 82.5 19.5c16 0 33.167 -3.16699 51.5 -9.5s34.5 -18.166 48.5 -35.499
c15.333 -19.333 25.333 -40.5 30 -63.5s7 -43.5 7 -61.5c0 -2.66699 -0.333008 -10.5 -1 -23.5s-2.66699 -29.5 -6 -49.5s-8.5 -42.5 -15.5 -67.5s-17.167 -50.5 -30.5 -76.5c-12.667 -25.333 -27 -47.166 -43 -65.499s-36 -34.833 -60 -49.5
c-20 -12 -40.167 -20.667 -60.5 -26s-42.166 -8 -65.499 -8c-24.667 0 -44.834 2.16699 -60.501 6.5s-28.167 9.16602 -37.5 14.499v-5c0 -4 -0.333008 -7.66699 -1 -11s-1.66699 -7.66602 -3 -12.999l-35 -166l-136 -34l122 573c2 8.66699 3.66699 18.334 5 29.001
s2 22 2 34c0 10.667 -0.666992 21.334 -2 32.001s-3.66602 21.334 -6.99902 32.001z" />
    <glyph glyph-name="q" unicode="q" horiz-adv-x="549" 
d="M384 411c-8.66699 3.33301 -17.833 5.33105 -27.5 5.99805s-22.167 1 -37.5 1c-11.333 0 -23.5 -2.83301 -36.5 -8.5s-23.5 -11.834 -31.5 -18.501c-14 -11.333 -25.833 -26.166 -35.5 -44.499s-17.5 -37.666 -23.5 -57.999s-10.333 -40.5 -13 -60.5s-4 -37.333 -4 -52
v-8c1.33301 -30 7.5 -50.5 18.5 -61.5s23.833 -16.5 38.5 -16.5c16 0 32.667 6.33301 50 19s33.333 31.334 48 56.001zM292.001 -27.002c2 10 5.00195 22.1641 9.00195 36.4971s7.66699 25.5 11 33.5c-16.667 -15.333 -37.334 -28.333 -62.001 -39s-47 -16 -67 -16
c-50 0 -87.5 13.167 -112.5 39.5s-37.5 69.5 -37.5 129.5c0 26.667 2.5 53.334 7.5 80.001s12 52.5 21 77.5s20.167 48.333 33.5 70s28 40.834 44 57.501c25.333 25.333 55 45.333 89 60s74.667 22 122 22c38 0 73.667 -2.83301 107 -8.5s59.666 -15.167 78.999 -28.5
c-5.33301 -15.333 -10.833 -34.166 -16.5 -56.499l-16.5 -67.5l-116 -550l-136 -34z" />
    <glyph glyph-name="r" unicode="r" horiz-adv-x="357" 
d="M359 395c-7.33301 4.66699 -14.335 7.49902 -21.002 8.49902s-12.667 1.5 -18 1.5s-12.666 -1.33301 -21.999 -4s-21 -10 -35 -22c-6.66699 -5.33301 -13.667 -12.166 -21 -20.499s-13.666 -16.166 -18.999 -23.499l-71 -335h-132l72 338c3.33301 16 5.83301 32 7.5 48
s2.5 30 2.5 42c0 18.667 -2.66699 36 -8 52l122 49c4.66699 -8.66699 8 -19 10 -31s3 -23.667 3 -35v-9c0 -2.66699 -0.333008 -5.33398 -1 -8.00098c11.333 12 23.333 23 36 33s25 18.333 37 25c9.33301 5.33301 20 10 32 14s25.667 6 41 6c16.667 0 31 -3.66699 43 -11z
" />
    <glyph glyph-name="s" unicode="s" horiz-adv-x="468" 
d="M406 390c-24 14 -47.333 23.1641 -70 27.4971s-40.667 6.5 -54 6.5c-8 0 -17.167 -0.833008 -27.5 -2.5s-20.166 -5.83398 -29.499 -12.501c-7.33301 -5.33301 -12.166 -11.333 -14.499 -18s-3.5 -13 -3.5 -19c0 -7.33301 1.16699 -13 3.5 -17s4.83301 -7.33301 7.5 -10
c6 -6.66699 12.833 -11.667 20.5 -15s15.167 -6.33301 22.5 -9l57 -20c14 -5.33301 27.5 -12 40.5 -20s24.167 -17.667 33.5 -29c8 -10 14.5 -21.667 19.5 -35s7.5 -27.666 7.5 -42.999c0 -25.333 -6 -50.166 -18 -74.499s-29.333 -45.166 -52 -62.499
c-19.333 -14.667 -43.5 -26.5 -72.5 -35.5s-63.167 -13.5 -102.5 -13.5c-26.667 0 -56.5 3.83301 -89.5 11.5s-68.5 22.834 -106.5 45.501l53 96c26.667 -17.333 54.167 -30.333 82.5 -39s52.833 -13 73.5 -13c9.33301 0 20 1.33301 32 4s23.333 8.66699 34 18
c5.33301 5.33301 9.83301 11.333 13.5 18s5.5 13.667 5.5 21c0 4 -0.833008 8.66699 -2.5 14s-5.16699 10.666 -10.5 15.999c-6.66699 5.33301 -15 10 -25 14s-18.667 7.33301 -26 10l-56 20c-12.667 4.66699 -24.334 10 -35.001 16s-20.667 14.667 -30 26
c-8.66699 10.667 -15.5 23.167 -20.5 37.5s-7.5 30.166 -7.5 47.499c0 7.33301 0.666992 16 2 26s4.16602 20.5 8.49902 31.5s10.5 22.333 18.5 34s18.667 22.834 32 33.501c20.667 16 45 28 73 36s58 12 90 12c43.333 0 79.333 -5.16699 108 -15.5s51 -20.166 67 -29.499z
" />
    <glyph glyph-name="t" unicode="t" horiz-adv-x="305" 
d="M329 420l-89 -0.00195312l-54 -257c-1.33301 -5.33301 -2.5 -12.166 -3.5 -20.499s-1.5 -16.5 -1.5 -24.5c0 -5.33301 0.666992 -10.666 2 -15.999s5 -10 11 -14c4.66699 -3.33301 9.5 -5.33301 14.5 -6s9.83301 -1 14.5 -1c3.33301 0 10.166 0.5 20.499 1.5
s21.166 3.83301 32.499 8.5v-81c-24 -9.33301 -46.167 -15.333 -66.5 -18s-36.166 -4 -47.499 -4c-21.333 0 -39.666 2.66699 -54.999 8s-27.666 12 -36.999 20c-18.667 16 -28 38 -28 66c0 7.33301 0.833008 17.333 2.5 30s3.16699 22.667 4.5 30l59 278h-51l20 92h51
c2.66699 14.667 5.16699 27.667 7.5 39s4.66602 21.5 6.99902 30.5s4.83301 17.5 7.5 25.5l9 26l140 34c-10.667 -34.667 -19 -64 -25 -88s-11.333 -46.333 -16 -67h119z" />
    <glyph glyph-name="u" unicode="u" horiz-adv-x="537" 
d="M442 133c-0.666992 -3.33301 -1.50391 -9.00195 -2.50391 -17.002s-1.5 -14 -1.5 -18c0 -10.667 1.16699 -22 3.5 -34s6.16602 -23.667 11.499 -35l-116 -46c-3.33301 6 -7.66602 14.667 -12.999 26s-9 25.333 -11 42c-9.33301 -9.33301 -19 -17.166 -29 -23.499
s-20 -12.166 -30 -17.499c-19.333 -9.33301 -36.666 -15.333 -51.999 -18s-28.333 -4 -39 -4c-18.667 0 -36.167 2.66699 -52.5 8s-29.5 12.333 -39.5 21c-6.66699 6 -13.5 15 -20.5 27s-10.5 27.667 -10.5 47c0 14.667 1.33301 30 4 46s4.66699 27.667 6 35l69 328l138 25
l-70 -329c-1.33301 -4 -2.66602 -11.333 -3.99902 -22s-2.66602 -18.667 -3.99902 -24c-1.33301 -6.66699 -2 -11.667 -2 -15v-8c0 -5.33301 0.666992 -10.166 2 -14.499s4 -8.83301 8 -13.5c6 -7.33301 14 -11 24 -11c5.33301 0 12.333 1.16699 21 3.5
s19.334 8.16602 32.001 17.499c22 14.667 40.333 33 55 55l71 333l135 27z" />
    <glyph glyph-name="v" unicode="v" horiz-adv-x="454" 
d="M234 0l-110.999 -0.00195312l-79 504l138 17l25 -231c1.33301 -8 2.66602 -22.333 3.99902 -43s2 -42.667 2 -66v-14c4 12.667 8.83301 25.334 14.5 38.001l16.5 36.5c5.33301 11.667 10.5 22.334 15.5 32.001l12.5 23.5l115 215h143z" />
    <glyph glyph-name="w" unicode="w" horiz-adv-x="689" 
d="M465 512l4.99805 -168.996c0.666992 -12.667 1 -24.834 1 -36.501v-34.5c0 -24.667 -0.166992 -46.334 -0.5 -65.001s-0.833008 -33.334 -1.5 -44.001l26.5 73l15.5 41.5c4 10.333 7.5 18.833 10.5 25.5l11.5 26l78 183h140l-255 -512h-123l-9 176
c0 6.66699 -0.166992 11.5 -0.5 14.5s-0.666016 6.5 -0.999023 10.5s-0.5 9.33301 -0.5 16v30v30c0 8.66699 0.166992 18 0.5 28s1.16602 25.333 2.49902 46l-3 -8c-5.33301 -13.333 -9.16602 -23.5 -11.499 -30.5s-6.16602 -16.167 -11.499 -27.5l-131 -285h-125l-33 503
l134 15v-197c0 -11.333 -0.166992 -23.833 -0.5 -37.5s-0.833008 -27.667 -1.5 -42s-1.16699 -28.333 -1.5 -42s-0.833008 -25.834 -1.5 -36.501c15.333 42.667 29.333 78 42 106l33 71l85 172h126z" />
    <glyph glyph-name="x" unicode="x" horiz-adv-x="458" 
d="M309 265l127.999 -265h-158l-25 68c-3.33301 10 -7.33301 20.333 -12 31s-9.66699 24 -15 40l-4 14c-1.33301 4.66699 -2.66602 10.667 -3.99902 18l-19.5 -28l-25.5 -35l-35.5 -46.5l-49.5 -61.5h-176l251 276l-96 213l138 37c8.66699 -19.333 17.5 -41.833 26.5 -67.5
s18.167 -54.167 27.5 -85.5c7.33301 12 16 25.167 26 39.5l29 41.5l17.5 22.5c5.66699 7 14.167 18.833 25.5 35.5h162z" />
    <glyph glyph-name="y" unicode="y" 
d="M273 -8c-18 -32 -33.832 -57.8291 -47.499 -77.4961s-25.667 -35.5 -36 -47.5s-19.5 -21.167 -27.5 -27.5s-15.667 -11.833 -23 -16.5c-15.333 -9.33301 -33.333 -18.333 -54 -27s-47.334 -15.334 -80.001 -20.001l-27 90c13.333 2.66699 28 6.5 44 11.5
s31.333 11.833 46 20.5c18.667 11.333 34.5 24.833 47.5 40.5s26.833 36.167 41.5 61.5h-37c-1.33301 19.333 -2.5 35.5 -3.5 48.5s-2 24.667 -3 35s-2 20.166 -3 29.499s-2.16699 19.666 -3.5 30.999l-46 360l138 16l25 -299c1.33301 -13.333 2.33301 -29.333 3 -48
s1 -37.667 1 -57c4.66699 12 10 25 16 39l18.5 41.5l18 39c5.66699 12.333 11.167 23.166 16.5 32.499l129 244h144z" />
    <glyph glyph-name="z" unicode="z" horiz-adv-x="416" 
d="M436 420l-295 -327h226l-42 -93h-377l8 83l313 335h-214l14 94h379z" />
    <glyph glyph-name="braceleft" unicode="{" horiz-adv-x="388" 
d="M449 618l-49.0049 0.00488281c-15.333 0 -27.666 -2 -36.999 -6s-16.833 -9.16699 -22.5 -15.5s-9.83398 -13.333 -12.501 -21s-4.66699 -14.834 -6 -21.501l-34 -161c-5.33301 -23.333 -12.666 -41.666 -21.999 -54.999s-19.666 -23.5 -30.999 -30.5
s-23.166 -11.667 -35.499 -14s-23.833 -3.83301 -34.5 -4.5v-2c8.66699 -0.666992 17.834 -1.83398 27.501 -3.50098s18.5 -4.66699 26.5 -9s14.667 -11 20 -20s8 -20.833 8 -35.5c0 -5.33301 -0.333008 -10.833 -1 -16.5s-1.66699 -11.834 -3 -18.501l-34 -162
c-2 -8 -3 -16 -3 -24c0 -10.667 3.5 -20 10.5 -28s21.5 -12 43.5 -12h49l-24 -114h-105c-30 0 -54.667 7.83301 -74 23.5s-29 41.167 -29 76.5c0 7.33301 0.333008 14.666 1 21.999s2 15.333 4 24l36 172c0.666992 3.33301 1 7.66602 1 12.999
c0 12.667 -3.83301 22.667 -11.5 30s-16.667 13 -27 17s-20.666 6.5 -30.999 7.5s-18.5 1.5 -24.5 1.5l24 114c6 0 15.167 0.666992 27.5 2s25 4.33301 38 9s25 11.667 36 21s18.167 21.666 21.5 36.999l37 173c11.333 52 31.5 89.167 60.5 111.5s62.167 33.5 99.5 33.5h105
z" />
    <glyph glyph-name="bar" unicode="|" horiz-adv-x="305" 
d="M142 -208h-126l204 964h126z" />
    <glyph glyph-name="braceright" unicode="}" horiz-adv-x="388" 
d="M361 231c-7.33301 0 -17.166 -0.672852 -29.499 -2.00586s-24.833 -4.33301 -37.5 -9s-24.334 -11.667 -35.001 -21s-17.667 -21.666 -21 -36.999l-36 -173c-11.333 -52 -31.5 -89.167 -60.5 -111.5s-62.167 -33.5 -99.5 -33.5h-105l24 114h49c15.333 0 27.833 2 37.5 6
s17.334 9.16699 23.001 15.5s9.83398 13.333 12.501 21s4.66699 14.834 6 21.501l34 161c4.66699 23.333 11.667 41.666 21 54.999s19.666 23.5 30.999 30.5s23.166 11.5 35.499 13.5s23.833 3.66699 34.5 5v2c-8.66699 0.666992 -17.834 1.83398 -27.501 3.50098
s-18.5 4.66699 -26.5 9s-14.667 10.833 -20 19.5s-8 20.667 -8 36c0 5.33301 0.333008 10.833 1 16.5s1.66699 11.834 3 18.501l35 162c2 6.66699 3 14.334 3 23.001c0 10.667 -3.5 20.167 -10.5 28.5s-21.833 12.5 -44.5 12.5h-49l25 114h108
c28.667 0 52.5 -7.83301 71.5 -23.5s28.5 -41.167 28.5 -76.5c0 -7.33301 -0.333008 -14.666 -1 -21.999s-2 -15.333 -4 -24l-37 -172c-0.666992 -3.33301 -1 -7.66602 -1 -12.999c0 -12.667 3.66699 -22.667 11 -30s16 -13 26 -17s20.333 -6.5 31 -7.5
s19.334 -1.5 26.001 -1.5z" />
    <glyph glyph-name="asciitilde" unicode="~" horiz-adv-x="561" 
d="M521 290c-8 -10.667 -16.998 -20.9971 -26.998 -30.9971s-21.333 -19 -34 -27s-26.334 -14.333 -41.001 -19s-30.334 -7 -47.001 -7c-19.333 0 -37.333 3.5 -54 10.5s-32.667 14.833 -48 23.5s-30.333 16.5 -45 23.5s-29.667 10.5 -45 10.5c-10 0 -19.667 -2 -29 -6
s-18.166 -9.16699 -26.499 -15.5s-16.5 -13.333 -24.5 -21s-15.667 -15.5 -23 -23.5l-27 104c8 10.667 17.167 21.167 27.5 31.5s21.833 19.666 34.5 27.999s26.5 15.166 41.5 20.499s30.833 8 47.5 8s33.5 -3.5 50.5 -10.5s33.667 -14.833 50 -23.5s32.5 -16.5 48.5 -23.5
s31.667 -10.5 47 -10.5c20 0 37.667 6.16699 53 18.5s30.666 26.166 45.999 41.499z" />
    <glyph glyph-name="nonbreakingspace" unicode="&#xa0;" horiz-adv-x="225" 
 />
    <glyph glyph-name="sterling" unicode="&#xa3;" horiz-adv-x="581" 
d="M571 551c-10.667 13.333 -24.502 22.833 -41.502 28.5s-32.167 8.5 -45.5 8.5c-22 0 -41.333 -3.66699 -58 -11s-30.667 -16.833 -42 -28.5s-20.5 -25 -27.5 -40s-12.167 -30.167 -15.5 -45.5l-10 -49h156l-22 -102h-156l-42 -198h253l-24 -114h-499l24 114h96l42 198
h-96l22 102h96l15 71c6.66699 33.333 18 64.333 34 93s36.5 53.5 61.5 74.5s54.333 37.5 88 49.5s71.834 18 114.501 18c38 0 73.333 -5.83301 106 -17.5s60.334 -30.167 83.001 -55.5z" />
    <glyph glyph-name="currency" unicode="&#xa4;" horiz-adv-x="647" 
d="M162 315c0 -22 4 -42.5 12 -61.5s18.833 -35.333 32.5 -49s30 -24.5 49 -32.5s39.5 -12 61.5 -12s42.5 4 61.5 12s35.333 18.833 49 32.5s24.5 30 32.5 49s12 39.5 12 61.5s-4 42.5 -12 61.5s-18.833 35.333 -32.5 49s-30 24.5 -49 32.5s-39.5 12 -61.5 12
s-42.5 -4 -61.5 -12s-35.333 -18.833 -49 -32.5s-24.5 -30 -32.5 -49s-12 -39.5 -12 -61.5zM114 48l-64 64l67 68c-15.333 22 -26 43.667 -32 65s-9 44.666 -9 69.999s3 48.666 9 69.999s16.667 43 32 65l-67 68l65 63l67 -67c17.333 12 37.166 22 59.499 30
s47.5 12 75.5 12s53.167 -4 75.5 -12s42.166 -18 59.499 -30l68 68l64 -64l-67 -68c15.333 -22 26 -43.667 32 -65s9 -44.666 9 -69.999s-3 -48.666 -9 -69.999s-16.667 -43 -32 -65l68 -68l-66 -63l-67 66c-22 -15.333 -43.667 -26 -65 -32s-44.666 -9 -69.999 -9
s-48.666 3 -69.999 9s-43 16.667 -65 32z" />
    <glyph glyph-name="section" unicode="&#xa7;" horiz-adv-x="539" 
d="M342 191c7.33301 4 14.165 8.99805 20.498 14.998s11.833 12.333 16.5 19s8.33398 13.5 11.001 20.5s4 13.167 4 18.5c0 15.333 -5.33301 27.833 -16 37.5s-22.667 18.167 -36 25.5l-99 53c-15.333 -7.33301 -28.166 -17.666 -38.499 -30.999
s-15.5 -27.666 -15.5 -42.999c0 -9.33301 2 -17.5 6 -24.5s9.33301 -13.333 16 -19s14 -10.667 22 -15l23 -12.5zM442.999 547.998c-3.33301 19.333 -13.1738 33.8291 -29.5068 43.4961s-34.166 14.5 -53.499 14.5c-9.33301 0 -18.5 -1.33301 -27.5 -4
s-17.333 -6.66699 -25 -12s-13.834 -11.833 -18.501 -19.5s-7 -16.167 -7 -25.5c0 -13.333 6.33301 -25.166 19 -35.499s28.667 -20.333 48 -30l62 -30c22 -10.333 42.667 -22.166 62 -35.499s35.333 -28.666 48 -45.999s19 -37.666 19 -60.999
c0 -38 -11.167 -70.5 -33.5 -97.5s-49.5 -47.833 -81.5 -62.5c11.333 -10.667 19.833 -22.5 25.5 -35.5s8.5 -28.5 8.5 -46.5c0 -36 -8 -67.5 -24 -94.5s-37.333 -49.5 -64 -67.5s-57.5 -31.5 -92.5 -40.5s-71.167 -13.5 -108.5 -13.5c-24.667 0 -48 2.16699 -70 6.5
s-41.667 11.333 -59 21s-32.333 22.667 -45 39s-22 36.5 -28 60.5l134 61c0.666992 -12 4 -22.333 10 -31s13.5 -15.667 22.5 -21s19.167 -9.33301 30.5 -12s22.666 -4 33.999 -4c8.66699 0 18.334 1.16699 29.001 3.5s20.667 6 30 11s17.166 11.5 23.499 19.5
s9.5 17.333 9.5 28c0 14.667 -6.16699 27.167 -18.5 37.5s-27.666 20 -45.999 29s-38.166 18 -59.499 27s-41.166 19.833 -59.499 32.5s-33.666 28 -45.999 46s-18.5 40 -18.5 66c0 32.667 11.333 64.5 34 95.5s52.334 56.5 89.001 76.5c-13.333 10 -23.5 21.833 -30.5 35.5
s-10.5 32.167 -10.5 55.5c0 31.333 7.33301 59 22 83s33.834 44.333 57.501 61s50.667 29.167 81 37.5s61.166 12.5 92.499 12.5c21.333 0 42.333 -1.66699 63 -5s39.834 -9.16602 57.501 -17.499s33.334 -19.333 47.001 -33s23.834 -30.834 30.501 -51.501z" />
    <glyph glyph-name="dieresis" unicode="&#xa8;" horiz-adv-x="426" 
d="M266 635c0 -20.667 -7.50195 -38.667 -22.502 -54s-33.167 -23 -54.5 -23c-10 0 -19.667 2.16699 -29 6.5s-17.5 10 -24.5 17s-12.5 15.167 -16.5 24.5s-6 19 -6 29c0 20.667 7.83301 38.667 23.5 54s33.834 23 54.501 23s38.334 -7.66699 53.001 -23s22 -33.333 22 -54z
M476.998 635c0 -20.667 -7.50195 -38.667 -22.502 -54s-33.167 -23 -54.5 -23s-39.333 7.66699 -54 23s-22 33.333 -22 54c0 10 2 19.667 6 29s9.5 17.5 16.5 24.5s15.333 12.667 25 17s19.834 6.5 30.501 6.5c20.667 0 38.334 -7.5 53.001 -22.5s22 -33.167 22 -54.5z" />
    <glyph glyph-name="copyright" unicode="&#xa9;" horiz-adv-x="840" 
d="M574 198c-20.667 -15.333 -40.335 -26.3301 -59.002 -32.9971s-39.667 -10 -63 -10c-27.333 0 -52.166 4.5 -74.499 13.5s-41.5 21.833 -57.5 38.5s-28.333 36.667 -37 60s-13 49.666 -13 78.999c0 30 4.33301 57.667 13 83s20.834 47.166 36.501 65.499
s34.834 32.666 57.501 42.999s48 15.5 76 15.5c20.667 0 40.667 -3.16699 60 -9.5s36.666 -15.833 51.999 -28.5l-46 -66c-13.333 9.33301 -25 15.833 -35 19.5s-20 5.5 -30 5.5c-50 0 -75 -38 -75 -114c0 -46 6.16699 -78.833 18.5 -98.5s32.5 -29.5 60.5 -29.5
c13.333 0 25.5 2.33301 36.5 7s21.167 11.667 30.5 21zM715.999 354.003c0 38.667 -7 75.167 -21 109.5s-33.333 64.166 -58 89.499s-53.334 45.5 -86.001 60.5s-67.667 22.5 -105 22.5s-72.333 -7.5 -105 -22.5s-61.334 -35.167 -86.001 -60.5s-44 -55.166 -58 -89.499
s-21 -70.833 -21 -109.5s7 -75.167 21 -109.5s33.333 -64.166 58 -89.499s53.334 -45.5 86.001 -60.5s67.667 -22.5 105 -22.5s72.333 7.5 105 22.5s61.334 35.167 86.001 60.5s44 55.166 58 89.499s21 70.833 21 109.5zM817.999 354.003
c0 -51.333 -9.83301 -99.5 -29.5 -144.5s-46.334 -84.333 -80.001 -118s-73 -60.334 -118 -80.001s-93.167 -29.5 -144.5 -29.5s-99.5 9.83301 -144.5 29.5s-84.333 46.334 -118 80.001s-60.334 73 -80.001 118s-29.5 93.167 -29.5 144.5s9.83301 99.5 29.5 144.5
s46.334 84.333 80.001 118s73 60.334 118 80.001s93.167 29.5 144.5 29.5s99.5 -9.83301 144.5 -29.5s84.333 -46.334 118 -80.001s60.334 -73 80.001 -118s29.5 -93.167 29.5 -144.5z" />
    <glyph glyph-name="guillemotleft" unicode="&#xab;" horiz-adv-x="563" 
d="M176 245l77 -171l-102 -59l-109 234l209 234l80 -63zM418 245l77 -171l-102 -59l-109 234l209 234l80 -63z" />
    <glyph glyph-name="logicalnot" unicode="&#xac;" horiz-adv-x="509" 
d="M437 58h-123l30 140h-318l23 109h441z" />
    <glyph glyph-name="registered" unicode="&#xae;" horiz-adv-x="840" 
d="M431 397c19.333 0 32.5 3 39.5 9s10.5 15.667 10.5 29c0 14 -4 24 -12 30s-20.333 9 -37 9h-27v-77h26zM499 171l-12 18.998l-9.5 15c-3 4.66699 -5.83301 9.33398 -8.5 14.001l-10 17l-23 38l-15 25c-4 6.66699 -7.16699 11.667 -9.5 15s-4.5 6 -6.5 8v-151h-97v382h153
c38 0 68 -10.667 90 -32s33 -49.666 33 -84.999c0 -28.667 -8.33301 -52.5 -25 -71.5s-37.667 -29.833 -63 -32.5c11.333 -4.66699 21 -12 29 -22s15.333 -20 22 -30c7.33301 -10.667 14.833 -22.167 22.5 -34.5l21.5 -35.5l23 -39h-115zM716 353.998
c0 38.667 -7 75.167 -21 109.5s-33.333 64.166 -58 89.499s-53.334 45.5 -86.001 60.5s-67.667 22.5 -105 22.5s-72.333 -7.5 -105 -22.5s-61.334 -35.167 -86.001 -60.5s-44 -55.166 -58 -89.499s-21 -70.833 -21 -109.5s7 -75.167 21 -109.5s33.333 -64.166 58 -89.499
s53.334 -45.5 86.001 -60.5s67.667 -22.5 105 -22.5s72.333 7.5 105 22.5s61.334 35.167 86.001 60.5s44 55.166 58 89.499s21 70.833 21 109.5zM818 353.998c0 -51.333 -9.83301 -99.5 -29.5 -144.5s-46.334 -84.333 -80.001 -118s-73 -60.334 -118 -80.001
s-93.167 -29.5 -144.5 -29.5s-99.5 9.83301 -144.5 29.5s-84.333 46.334 -118 80.001s-60.334 73 -80.001 118s-29.5 93.167 -29.5 144.5s9.83301 99.5 29.5 144.5s46.334 84.333 80.001 118s73 60.334 118 80.001s93.167 29.5 144.5 29.5s99.5 -9.83301 144.5 -29.5
s84.333 -46.334 118 -80.001s60.334 -73 80.001 -118s29.5 -93.167 29.5 -144.5z" />
    <glyph glyph-name="degree" unicode="&#xb0;" horiz-adv-x="386" 
d="M334 544c0 22 -7.66699 40.667 -23 56s-34 23 -56 23s-40.667 -7.66699 -56 -23s-23 -34 -23 -56s7.66699 -40.667 23 -56s34 -23 56 -23s40.667 7.66699 56 23s23 34 23 56zM425 544c0 -23.333 -4.5 -45.333 -13.5 -66s-21.167 -38.667 -36.5 -54
s-33.333 -27.5 -54 -36.5s-42.667 -13.5 -66 -13.5s-45.333 4.5 -66 13.5s-38.667 21.167 -54 36.5s-27.5 33.333 -36.5 54s-13.5 42.667 -13.5 66s4.5 45.333 13.5 66s21.167 38.667 36.5 54s33.333 27.5 54 36.5s42.667 13.5 66 13.5s45.333 -4.5 66 -13.5
s38.667 -21.167 54 -36.5s27.5 -33.333 36.5 -54s13.5 -42.667 13.5 -66z" />
    <glyph glyph-name="plusminus" unicode="&#xb1;" horiz-adv-x="494" 
d="M407 0h-419l24 113h419zM469 283h-150l-30 -143h-123l30 143h-150l24 113h150l29 137h123l-29 -137h150z" />
    <glyph glyph-name="acute" unicode="&#xb4;" horiz-adv-x="328" 
d="M151 554l-40 75l231 133l48 -105z" />
    <glyph glyph-name="mu" unicode="&#xb5;" horiz-adv-x="549" 
d="M454 133c-2.66699 -10.667 -4.00195 -21.667 -4.00195 -33c0 -17.333 2.33301 -31 7 -41s7.66699 -16.333 9 -19l-107 -54c-9.33301 7.33301 -16.166 15.666 -20.499 24.999s-7.16602 17.666 -8.49902 24.999c-5.33301 -4 -12.166 -8.66699 -20.499 -14
s-18.166 -10.666 -29.499 -15.999s-24.333 -9.83301 -39 -13.5s-30.334 -5.5 -47.001 -5.5c-7.33301 0 -14.333 0.5 -21 1.5s-13.667 4.16699 -21 9.5c-0.666992 -5.33301 -1.16699 -10.166 -1.5 -14.499s-1.16602 -8.83301 -2.49902 -13.5l-34 -156l-136 -34l153 720
l138 25l-70 -329c-2.66699 -13.333 -4.83398 -25.166 -6.50098 -35.499s-2.5 -21.166 -2.5 -32.499c0 -4.66699 0.666992 -9.83398 2 -15.501s5 -10.834 11 -15.501c7.33301 -6 16.666 -9 27.999 -9c20 0 39.667 5.33301 59 16c7.33301 4 14 8.5 20 13.5
s11.667 11.5 17 19.5l77 360l133 27z" />
    <glyph glyph-name="mu" unicode="&#x3bc;" horiz-adv-x="549" 
d="M454 133c-2.66699 -10.667 -4.00195 -21.667 -4.00195 -33c0 -17.333 2.33301 -31 7 -41s7.66699 -16.333 9 -19l-107 -54c-9.33301 7.33301 -16.166 15.666 -20.499 24.999s-7.16602 17.666 -8.49902 24.999c-5.33301 -4 -12.166 -8.66699 -20.499 -14
s-18.166 -10.666 -29.499 -15.999s-24.333 -9.83301 -39 -13.5s-30.334 -5.5 -47.001 -5.5c-7.33301 0 -14.333 0.5 -21 1.5s-13.667 4.16699 -21 9.5c-0.666992 -5.33301 -1.16699 -10.166 -1.5 -14.499s-1.16602 -8.83301 -2.49902 -13.5l-34 -156l-136 -34l153 720
l138 25l-70 -329c-2.66699 -13.333 -4.83398 -25.166 -6.50098 -35.499s-2.5 -21.166 -2.5 -32.499c0 -4.66699 0.666992 -9.83398 2 -15.501s5 -10.834 11 -15.501c7.33301 -6 16.666 -9 27.999 -9c20 0 39.667 5.33301 59 16c7.33301 4 14 8.5 20 13.5
s11.667 11.5 17 19.5l77 360l133 27z" />
    <glyph glyph-name="paragraph" unicode="&#xb6;" horiz-adv-x="578" 
d="M432 -126l-90 -0.000976562l162 762h-107l-162 -762h-90l99 464c-57.333 0 -101.5 13.333 -132.5 40s-46.5 61.334 -46.5 104.001c0 34 6.33301 64.833 19 92.5s30.667 51.5 54 71.5s52 35.333 86 46s72.667 16 116 16h269z" />
    <glyph glyph-name="guillemotright" unicode="&#xbb;" horiz-adv-x="564" 
d="M75 15l-80 63l155 175l-77 171l102 59l109 -234zM317 15l-80 63l155 175l-77 171l102 59l109 -234z" />
    <glyph glyph-name="divide" unicode="&#xf7;" horiz-adv-x="574" 
d="M337 68c0 -23.333 -8.5 -43.166 -25.5 -59.499s-37.5 -24.5 -61.5 -24.5c-23.333 0 -43.5 8.16699 -60.5 24.5s-25.5 36.166 -25.5 59.499c0 12 2.16699 23.333 6.5 34s10.333 20.167 18 28.5s16.667 14.833 27 19.5s21.5 7 33.5 7h2c24 -0.666992 44.333 -9.5 61 -26.5
s25 -37.833 25 -62.5zM535 214h-505l23 105h505zM422 467c0 -24 -8.5 -44.333 -25.5 -61s-37.5 -25 -61.5 -25c-23.333 0 -43.333 8.33301 -60 25s-25 36.667 -25 60c0 12 2.16699 23.333 6.5 34s10.333 20 18 28s16.667 14.333 27 19s21.5 7 33.5 7
c24 0 44.5 -8.5 61.5 -25.5s25.5 -37.5 25.5 -61.5z" />
    <glyph glyph-name="dotlessi" unicode="&#x131;" horiz-adv-x="270" 
d="M154 0h-134l107 503l138 21z" />
    <glyph glyph-name="florin" unicode="&#x192;" horiz-adv-x="395" 
d="M438 628c-8.66699 5.33301 -17.335 9.16602 -26.002 11.499s-17 3.5 -25 3.5c-15.333 0 -29.5 -5 -42.5 -15s-22.167 -24.333 -27.5 -43l-20 -73h118l-52 -94h-86l-105 -384c-11.333 -42 -22.666 -76.167 -33.999 -102.5s-24.166 -48.333 -38.499 -66
s-31.5 -32.667 -51.5 -45s-44.333 -25.5 -73 -39.5l-45 89c17.333 8.66699 32 17.5 44 26.5s22.333 18.833 31 29.5s16 22.834 22 36.501s11.667 29.5 17 47.5l111 408h-48l20 94h52l5 20l6 23c2.66699 8.66699 5 17.667 7 27c13.333 52 35.333 91.5 66 118.5
s73.667 40.5 129 40.5c20 0 39 -3.33301 57 -10s32.667 -14 44 -22z" />
    <glyph glyph-name="dotaccent" unicode="&#x2d9;" horiz-adv-x="167" 
d="M255 653c0 -23.333 -8 -43 -24 -59s-35.667 -24 -59 -24s-42.833 8 -58.5 24s-23.5 35.667 -23.5 59s8.16699 43 24.5 59s36.166 24 59.499 24c22.667 0 41.834 -8 57.501 -24s23.5 -35.667 23.5 -59z" />
    <glyph glyph-name="Delta" unicode="&#x394;" horiz-adv-x="668" 
d="M398 462l-206 -347h258zM0 0l380 638h124l104 -638h-608z" />
    <glyph glyph-name="Delta" unicode="&#x2206;" horiz-adv-x="668" 
d="M398 462l-206 -347h258zM0 0l380 638h124l104 -638h-608z" />
    <glyph glyph-name="afii10023" unicode="&#x401;" 
d="M351 817c0 -20.667 -7.16699 -38.167 -21.5 -52.5s-31.833 -21.5 -52.5 -21.5c-19.333 0 -36.333 7 -51 21s-22 31.667 -22 53c0 20.667 7.5 38.167 22.5 52.5s32.5 21.5 52.5 21.5s37 -7.16699 51 -21.5s21 -31.833 21 -52.5zM554 817
c0 -20.667 -7.16602 -38.167 -21.499 -52.5s-31.833 -21.5 -52.5 -21.5s-38 7.16699 -52 21.5s-21 31.833 -21 52.5s7.16699 38.167 21.5 52.5s32.166 21.5 53.499 21.5c20 0 37 -7 51 -21s21 -31.667 21 -53zM521.001 581h-236l-34 -161h197l-24 -114h-196l-39 -186h262
l-26 -120h-405l148 695h396z" />
    <glyph glyph-name="afii10051" unicode="&#x402;" horiz-adv-x="683" 
d="M559 579h-178.995l-36 -170c28.667 11.333 54.667 19.333 78 24s46.666 7 69.999 7c17.333 0 36.166 -2.5 56.499 -7.5s39.166 -17.5 56.499 -37.5c11.333 -13.333 19.833 -30 25.5 -50s8.5 -42 8.5 -66c0 -21.333 -2.16699 -43.333 -6.5 -66
s-10.666 -44.834 -18.999 -66.501s-18.833 -42 -31.5 -61s-27 -35.5 -43 -49.5c-22.667 -19.333 -45 -32.166 -67 -38.499s-43.667 -9.5 -65 -9.5c-16 0 -30.667 1.16699 -44 3.5s-27 6.16602 -41 11.499l-13 5l43 99c3.33301 -2 6.66602 -3.66699 9.99902 -5
s7 -2.66602 11 -3.99902c8.66699 -3.33301 18 -5 28 -5c13.333 0 24.166 2.66699 32.499 8s15.166 12.333 20.499 21s9.5 18 12.5 28s5.5 20 7.5 30l8 37c1.33301 4.66699 2.66602 11.5 3.99902 20.5s2 18.5 2 28.5c0 8 -0.666992 15.667 -2 23s-4.33301 13.666 -9 18.999
c-5.33301 6 -12.666 11 -21.999 15s-21 6 -35 6c-18 0 -35.5 -2.16699 -52.5 -6.5s-32.167 -9.16602 -45.5 -14.499l-65 -308h-142l123 579h-157l25 116h501z" />
    <glyph glyph-name="afii10052" unicode="&#x403;" horiz-adv-x="451" 
d="M237 743l-40 75l231 133l48 -105zM505 582h-219l-124 -582h-142l148 695h377z" />
    <glyph glyph-name="afii10053" unicode="&#x404;" horiz-adv-x="549" 
d="M541 558c-18 16 -37.001 26.5 -57.001 31.5s-37.667 7.5 -53 7.5c-28 0 -53.833 -5.16699 -77.5 -15.5s-43.167 -24.5 -58.5 -42.5c-10 -11.333 -18.667 -24.333 -26 -39s-12.666 -28 -15.999 -40l-10 -38h199l-24 -112h-202l-7 -33c-4.66699 -21.333 -7 -41 -7 -59
c0 -25.333 3.5 -44.5 10.5 -57.5s13.5 -22.5 19.5 -28.5c8 -8 16.5 -14.333 25.5 -19s18 -8 27 -10s17.667 -3.33301 26 -4s15.833 -1 22.5 -1c12 0 29.667 2.33301 53 7s50 17.334 80 38.001l45 -90c-26 -18 -56.5 -33.333 -91.5 -46s-75.167 -19 -120.5 -19
c-30 0 -56.5 3 -79.5 9s-42.833 13.833 -59.5 23.5s-30.5 20.167 -41.5 31.5s-19.833 22 -26.5 32c-13.333 20.667 -23.333 45 -30 73s-10 54.333 -10 79c0 35.333 4.83301 73.666 14.5 114.999s22.5 80.333 38.5 117c12 28 25.5 53.167 40.5 75.5s32.833 43.5 53.5 63.5
c22 20.667 44 37.667 66 51s43.667 23.5 65 30.5s42 11.833 62 14.5s38.667 4 56 4c46 0 82.667 -5.83301 110 -17.5s49.333 -24.167 66 -37.5z" />
    <glyph glyph-name="afii10054" unicode="&#x405;" horiz-adv-x="592" 
d="M536 544c-14.667 10.667 -29.3291 19.3379 -43.9961 26.0049s-28.5 11.5 -41.5 14.5s-24.833 5 -35.5 6s-19 1.5 -25 1.5c-19.333 0 -36 -2.33301 -50 -7s-26 -11 -36 -19c-14 -11.333 -23 -22.5 -27 -33.5s-6 -19.833 -6 -26.5c0 -17.333 6 -31 18 -41
c6 -5.33301 13 -10 21 -14s16 -7.66699 24 -11l78 -30c15.333 -6 32.333 -13.833 51 -23.5s35 -22.834 49 -39.501c9.33301 -11.333 17.5 -25.333 24.5 -42s10.5 -36.667 10.5 -60c0 -8 -0.666992 -18.333 -2 -31s-4.5 -26.667 -9.5 -42s-12.667 -31.333 -23 -48
s-24.166 -33 -41.499 -49c-11.333 -10.667 -25 -21.167 -41 -31.5s-34.5 -19.666 -55.5 -27.999s-44.667 -15 -71 -20s-55.833 -7.5 -88.5 -7.5c-32 0 -67.333 4 -106 12s-78.334 24.667 -119.001 50l73 105c19.333 -12 44 -23.833 74 -35.5s64.333 -17.5 103 -17.5
c21.333 0 41.166 2.66699 59.499 8s35.166 15 50.499 29c5.33301 5.33301 12.166 13.666 20.499 24.999s12.5 26.666 12.5 45.999c0 10 -1.5 19.167 -4.5 27.5s-7.16699 15.166 -12.5 20.499c-7.33301 8 -16.333 14.333 -27 19s-20.334 8.66699 -29.001 12l-72 27
c-25.333 9.33301 -45.5 19.166 -60.5 29.499s-26.167 20.166 -33.5 29.499c-9.33301 10.667 -16.833 23.667 -22.5 39s-8.5 33 -8.5 53c0 12.667 1.33301 26.334 4 41.001s7.5 29.667 14.5 45s16.5 30.833 28.5 46.5s27 30.5 45 44.5c24 18 52.667 33 86 45
s71.333 18 114 18c34 0 70 -4.83301 108 -14.5s73.333 -27.834 106 -54.501z" />
    <glyph glyph-name="afii10056" unicode="&#x407;" horiz-adv-x="284" 
d="M219 820c0 -20.667 -7.50195 -38.667 -22.502 -54s-33.167 -23 -54.5 -23c-10 0 -19.667 2.16699 -29 6.5s-17.5 10 -24.5 17s-12.5 15.167 -16.5 24.5s-6 19 -6 29c0 20.667 7.83301 38.667 23.5 54s33.834 23 54.501 23s38.334 -7.66699 53.001 -23s22 -33.333 22 -54z
M429.998 820c0 -20.667 -7.50195 -38.667 -22.502 -54s-33.167 -23 -54.5 -23s-39.333 7.66699 -54 23s-22 33.333 -22 54c0 10 2 19.667 6 29s9.5 17.5 16.5 24.5s15.333 12.667 25 17s19.834 6.5 30.501 6.5c20.667 0 38.334 -7.5 53.001 -22.5s22 -33.167 22 -54.5z
M161.996 0h-142l148 695h142z" />
    <glyph glyph-name="afii10057" unicode="&#x408;" horiz-adv-x="284" 
d="M191 135c-5.33301 -26 -10 -47.1689 -14 -63.502s-7.5 -29.166 -10.5 -38.499s-5.66699 -16.333 -8 -21l-6.5 -13c-6.66699 -12 -14.834 -25.333 -24.501 -40s-22 -29.5 -37 -44.5s-33.667 -29.5 -56 -43.5s-49.166 -26.667 -80.499 -38l-49 75
c19.333 10.667 38.333 23.834 57 39.501s32.667 30.5 42 44.5c12.667 20.667 21.5 40.5 26.5 59.5s10.167 41.833 15.5 68.5l122 575h142z" />
    <glyph glyph-name="afii10058" unicode="&#x409;" horiz-adv-x="928" 
d="M608 114c12 0 26.833 2 44.5 6s35.167 15 52.5 33c10.667 11.333 19.167 25.166 25.5 41.499s9.5 34.5 9.5 54.5c0 10.667 -1.5 20.834 -4.5 30.501s-9.16699 18.167 -18.5 25.5c-10 8 -21.167 12.833 -33.5 14.5s-22.833 2.5 -31.5 2.5h-79l-44 -208h79zM689 436
c10 0 22.1621 -0.496094 36.4951 -1.49609s29 -3 44 -6s29.833 -7.83301 44.5 -14.5s27.667 -15.334 39 -26.001c10.667 -10 20.834 -24.333 30.501 -43s14.5 -43 14.5 -73c0 -42 -8.83301 -82.333 -26.5 -121s-44.5 -70.667 -80.5 -96
c-24 -17.333 -52.167 -30.833 -84.5 -40.5s-67.166 -14.5 -104.499 -14.5h-236l124 585h-132l-27 -108l-30.5 -119c-12.333 -46.667 -29.833 -103.334 -52.5 -170.001c-9.33301 -28 -19.666 -53 -30.999 -75s-28.666 -43 -51.999 -63
c-12 -10.667 -28.5 -21.334 -49.5 -32.001s-51.167 -18.334 -90.5 -23.001l-45 -5l-5 103l18 3c13.333 2 25.333 5.83301 36 11.5s17.667 9.5 21 11.5c7.33301 4.66699 15.833 11.167 25.5 19.5s18.834 19.833 27.501 34.5c1.33301 2.66699 5.83301 12.167 13.5 28.5
s18.5 45.5 32.5 87.5c21.333 64 37.833 120.167 49.5 168.5l28.5 117.5l31 120h395l-55 -259h91z" />
    <glyph glyph-name="afii10059" unicode="&#x40a;" horiz-adv-x="928" 
d="M608 114c12 0 26.833 2 44.5 6s35.167 15 52.5 33c10.667 11.333 19.167 25.166 25.5 41.499s9.5 34.5 9.5 54.5c0 10.667 -1.5 20.834 -4.5 30.501s-9.16699 18.167 -18.5 25.5c-10 8 -21.167 12.833 -33.5 14.5s-22.833 2.5 -31.5 2.5h-79l-44 -208h79zM598 436
l90.998 0.000976562c10 0 22.167 -0.5 36.5 -1.5s29 -3 44 -6s29.833 -7.83301 44.5 -14.5s27.667 -15.334 39 -26.001c10.667 -10 20.834 -24.333 30.501 -43s14.5 -43 14.5 -73c0 -42 -8.83301 -82.333 -26.5 -121s-44.5 -70.667 -80.5 -96
c-24 -17.333 -52.167 -30.833 -84.5 -40.5s-67.166 -14.5 -104.499 -14.5h-239l66 310h-201l-66 -310h-142l148 695h142l-58 -270h201l58 270h142z" />
    <glyph glyph-name="afii10060" unicode="&#x40b;" horiz-adv-x="682" 
d="M559 579l-179.004 -0.00292969l-36 -170c28.667 11.333 54.667 19.333 78 24s46.666 7 69.999 7c32 0 58.167 -4.66699 78.5 -14s35.833 -20.666 46.5 -33.999c6.66699 -8.66699 11.834 -18.834 15.501 -30.501s5.5 -25.5 5.5 -41.5
c0 -7.33301 -0.333008 -14.666 -1 -21.999s-2 -15.333 -4 -24l-58 -274h-142l46 217c2.66699 10.667 4.33398 19.834 5.00098 27.501s1 14.834 1 21.501c0 12 -1.16699 21.167 -3.5 27.5s-4.83301 11.166 -7.5 14.499c-5.33301 6 -12.666 11 -21.999 15s-21 6 -35 6
c-17.333 0 -34.166 -2.16699 -50.499 -6.5s-31.166 -9.16602 -44.499 -14.499l-65 -308h-142l123 579h-157l25 116h501z" />
    <glyph glyph-name="afii10061" unicode="&#x40c;" horiz-adv-x="640" 
d="M331 743l-40 75l231 133l48 -105zM675 614l-33.999 -8.00586c-5.33301 -1.33301 -11 -3 -17 -5s-12 -5 -18 -9c-10 -6.66699 -18.167 -15.5 -24.5 -26.5s-10.166 -17.5 -11.499 -19.5l-33 -68c-10.667 -22 -19.334 -38.167 -26.001 -48.5s-12.667 -18.166 -18 -23.499
c-9.33301 -9.33301 -21.166 -17.333 -35.499 -24s-27.166 -11.667 -38.499 -15c19.333 -7.33301 34.333 -18 45 -32c6 -7.33301 11.333 -18.166 16 -32.499s7.66699 -27.5 9 -39.5l10 -103c1.33301 -8.66699 2.83301 -17.667 4.5 -27s7.5 -17.333 17.5 -24
c4 -2.66699 10 -5.66699 18 -9s14.333 -5.66602 19 -6.99902l19 -6l-46 -97l-74 9c-13.333 1.33301 -27.333 6.33301 -42 15s-25.667 17.667 -33 27c-8.66699 11.333 -13.5 24 -14.5 38s-1.83301 30 -2.5 48l-3 99c-0.666992 11.333 -2.83398 23.5 -6.50098 36.5
s-8.5 22.833 -14.5 29.5c-9.33301 10 -19.833 15.833 -31.5 17.5s-21.5 2.5 -29.5 2.5h-52l-66 -312h-142l148 695h142l-58 -272h69c10 0 21.5 2 34.5 6s22.833 8.66699 29.5 14c7.33301 5.33301 14.333 13.333 21 24s13.667 24.334 21 41.001l40 89
c5.33301 12.667 11.5 24.834 18.5 36.501s16.833 22.834 29.5 33.501c11.333 9.33301 23.666 16.333 36.999 21s27.666 8 42.999 10l72 9z" />
    <glyph glyph-name="afii10062" unicode="&#x40e;" horiz-adv-x="550" 
d="M559 854c-9.33301 -17.333 -19.999 -32.666 -31.999 -45.999s-24.667 -24.666 -38 -33.999c-21.333 -14.667 -41 -23.5 -59 -26.5s-36 -4.5 -54 -4.5c-15.333 0 -31.5 1.33301 -48.5 4s-33.833 11.667 -50.5 27c-8 7.33301 -15.667 17.666 -23 30.999
s-11.666 29.666 -12.999 48.999l74 29c1.33301 -6.66699 4.66602 -13.167 9.99902 -19.5s10 -11.166 14 -14.499c6 -4.66699 14.5 -8 25.5 -10s21.5 -3 31.5 -3c6 0 14.833 0.666992 26.5 2s23.167 5 34.5 11c7.33301 3.33301 14.666 8.16602 21.999 14.499
s13.333 12.833 18 19.5zM289.001 436c2 -12 4.83398 -30.168 8.50098 -54.501s6.5 -52.833 8.5 -85.5c8.66699 22 16.667 40.833 24 56.5l20.5 42l18.5 35l20 35.5l124 230h147l-274 -489c-27.333 -48 -50.666 -87.5 -69.999 -118.5s-40.333 -54.5 -63 -70.5
c-21.333 -15.333 -44.833 -26 -70.5 -32s-46.834 -10 -63.501 -12l-35 -4l-4 101l18 5l27.5 9.5c8.33301 3 18.166 7.16699 29.499 12.5c8.66699 4.66699 16.5 9.33398 23.5 14.001s13.667 10 20 16s12.5 13.167 18.5 21.5s12 18.5 18 30.5l19 36l-69 -10l-94 490h150z" />
    <glyph glyph-name="afii10145" unicode="&#x40f;" horiz-adv-x="612" 
d="M186 115h186l124 580h142l-148 -695h-168l-37 -172h-134l37 172h-168l148 695h142z" />
    <glyph glyph-name="afii10017" unicode="&#x410;" horiz-adv-x="578" 
d="M370 281l-9.99902 145c-2 30.667 -3 60 -3 88v30c-7.33301 -19.333 -13.833 -35.5 -19.5 -48.5s-10.834 -24.333 -15.501 -34s-9.16699 -18.5 -13.5 -26.5s-8.5 -16.333 -12.5 -25l-62 -129h136zM467.001 697l71 -697h-145l-14 165h-204l-84 -165h-151l376 697h151z" />
    <glyph glyph-name="afii10018" unicode="&#x411;" horiz-adv-x="610" 
d="M283 114c12 0 25.667 2.00098 41 6.00098s30.333 13.667 45 29c11.333 11.333 20 25.666 26 42.999s9 34.666 9 51.999c0 7.33301 -1 14.833 -3 22.5s-6 14.834 -12 21.501c-9.33301 10 -19.833 16.167 -31.5 18.5s-22.5 3.5 -32.5 3.5h-97l-42 -196h97zM605 695.001
l-39.999 -117.999h-280l-33 -153h112c12.667 0 26 -0.5 40 -1.5s28 -3.16699 42 -6.5s27.667 -8.33301 41 -15s25.333 -15.334 36 -26.001c11.333 -11.333 21.166 -26.333 29.499 -45s12.5 -43 12.5 -73c0 -17.333 -1.83301 -35.833 -5.5 -55.5
s-10.334 -39.167 -20.001 -58.5s-22.667 -37.833 -39 -55.5s-36.833 -33.5 -61.5 -47.5c-24 -13.333 -50.667 -23.333 -80 -30s-55.666 -10 -78.999 -10h-260l148 695h437z" />
    <glyph glyph-name="afii10019" unicode="&#x412;" horiz-adv-x="606" 
d="M275 114c14.667 0 28 1.83398 40 5.50098s22.667 8.5 32 14.5c15.333 10.667 28 25.667 38 45s15 38.666 15 57.999c0 24.667 -7 41.667 -21 51s-36.667 14 -68 14h-87l-40 -188h91zM330 417.001c19.333 0 34.168 1.83398 44.501 5.50098s19.833 8.5 28.5 14.5
c11.333 8 21.166 18.667 29.499 32s12.5 28.666 12.5 45.999c0 21.333 -5.5 36.833 -16.5 46.5s-31.167 14.5 -60.5 14.5h-87l-33 -159h82zM415.002 695.002c26 0 50.166 -3.17188 72.499 -9.50488s41.5 -15.666 57.5 -27.999s28.5 -28 37.5 -47s13.5 -40.833 13.5 -65.5
c0 -17.333 -2.83301 -34.666 -8.5 -51.999s-14.334 -34 -26.001 -50s-26.667 -30.5 -45 -43.5s-40.5 -23.167 -66.5 -30.5c32 -7.33301 57.333 -23.5 76 -48.5s28 -53.833 28 -86.5c0 -11.333 -1.16699 -23.666 -3.5 -36.999s-6.16602 -27.166 -11.499 -41.499
s-12 -28.5 -20 -42.5s-18 -27 -30 -39c-12.667 -13.333 -26 -24.666 -40 -33.999s-29.667 -17 -47 -23s-36.666 -10.333 -57.999 -13s-45.333 -4 -72 -4h-252l148 695h247z" />
    <glyph glyph-name="afii10020" unicode="&#x413;" horiz-adv-x="451" 
d="M505 582h-219l-124 -582h-142l148 695h377z" />
    <glyph glyph-name="afii10021" unicode="&#x414;" horiz-adv-x="637" 
d="M334 514c-6 -22.667 -12.001 -43.832 -18.001 -63.499s-12.333 -39 -19 -58s-14 -37.833 -22 -56.5s-17 -38.334 -27 -59.001c-17.333 -35.333 -34.166 -66 -50.499 -92s-34.5 -51 -54.5 -75h244l101 475h-141zM528.999 110.002l72.002 0.000976562l-59 -278h-135l36 168
h-362l-36 -168h-135l59 278h45c25.333 34.667 51.166 74.667 77.499 120s49.166 92.333 68.499 141l18.5 50.5c7 19.667 13.833 40.167 20.5 61.5l19.5 64c6.33301 21.333 11.5 40.666 15.5 57.999l22 90h396z" />
    <glyph glyph-name="afii10022" unicode="&#x415;" 
d="M521 581h-236l-34 -161h197l-24 -114h-196l-39 -186h262l-26 -120h-405l148 695h396z" />
    <glyph glyph-name="afii10024" unicode="&#x416;" horiz-adv-x="926" 
d="M966 614l-33.9932 -8.00195c-5.33301 -1.33301 -11 -3 -17 -5s-12 -5 -18 -9c-10 -6.66699 -18.167 -15.5 -24.5 -26.5s-10.166 -17.5 -11.499 -19.5l-33 -68c-10.667 -22 -19.334 -38.167 -26.001 -48.5s-12.667 -18.166 -18 -23.499
c-9.33301 -9.33301 -21.166 -17.333 -35.499 -24s-27.166 -11.667 -38.499 -15c19.333 -7.33301 34.333 -18 45 -32c6 -7.33301 11.333 -18.166 16 -32.499s7.66699 -27.5 9 -39.5l10 -103c1.33301 -8.66699 2.83301 -17.667 4.5 -27s7.5 -17.333 17.5 -24
c4 -2.66699 10 -5.66699 18 -9s14.333 -5.66602 19 -6.99902l19 -6l-46 -97l-74 9c-13.333 1.33301 -27.333 6.33301 -42 15s-25.667 17.667 -33 27c-8.66699 11.333 -13.5 24 -14.5 38s-1.83301 30 -2.5 48l-3 99c-0.666992 11.333 -2.83398 23.5 -6.50098 36.5
s-8.5 22.833 -14.5 29.5c-9.33301 10 -19.833 15.833 -31.5 17.5s-21.5 2.5 -29.5 2.5h-30l-66 -312h-138l66 312h-30c-7.33301 0 -16 -0.666992 -26 -2s-20.333 -4.83301 -31 -10.5s-21.334 -14.334 -32.001 -26.001s-20.334 -27.5 -29.001 -47.5l-44 -101
c-6 -13.333 -13 -27.833 -21 -43.5s-18.333 -29.834 -31 -42.501c-16 -15.333 -32.667 -25.5 -50 -30.5s-31.333 -8.16699 -42 -9.5l-81 -9l-6 97l20 6c5.33301 1.33301 12.833 3.83301 22.5 7.5s16.5 6.5 20.5 8.5c9.33301 4.66699 17.166 10.834 23.499 18.501
s13.166 18.5 20.499 32.5l51 103c12.667 26 29.334 48 50.001 66c11.333 9.33301 23.5 17.166 36.5 23.499s26.167 11.166 39.5 14.499c-22 7.33301 -38.667 18.333 -50 33c-10.667 13.333 -16.5 25.833 -17.5 37.5l-3.5 40.5l-6 68c-1.33301 14.667 -3.5 25.167 -6.5 31.5
s-6.16699 11.166 -9.5 14.499c-8 7.33301 -17.667 12 -29 14l-34 8l46 93l62 -9c15.333 -2.66699 28.666 -6 39.999 -10s20.666 -11 27.999 -21c9.33301 -12 14.5 -24 15.5 -36s1.83301 -23.333 2.5 -34l5 -89c0.666992 -10 1.66699 -21 3 -33s5.66602 -22 12.999 -30
c5.33301 -6.66699 13.5 -12 24.5 -16s21.833 -6 32.5 -6h47l58 272h138l-58 -272h47c10 0 21.5 2 34.5 6s22.833 8.66699 29.5 14c7.33301 5.33301 14.333 13.333 21 24s13.667 24.334 21 41.001l40 89c5.33301 12.667 11.5 24.834 18.5 36.501s16.833 22.834 29.5 33.501
c11.333 9.33301 23.666 16.333 36.999 21s27.666 8 42.999 10l72 9z" />
    <glyph glyph-name="afii10025" unicode="&#x417;" horiz-adv-x="521" 
d="M141 306l22.9971 105.002h69c13.333 0 27.333 1.5 42 4.5s28.667 9.16699 42 18.5c19.333 14.667 31.166 31 35.499 49s6.5 32.667 6.5 44c0 8.66699 -1.33301 17.667 -4 27s-9 18.333 -19 27s-20.5 13.834 -31.5 15.501s-21.833 2.5 -32.5 2.5
c-16.667 0 -35.167 -2 -55.5 -6s-44.166 -14.667 -71.499 -32l-46 89c5.33301 3.33301 14.5 8.16602 27.5 14.499s29 12.666 48 18.999s41.167 11.833 66.5 16.5s53.333 7 84 7c8.66699 0 19.167 -0.5 31.5 -1.5s25.333 -3.16699 39 -6.5s27.334 -8.33301 41.001 -15
s26.167 -16 37.5 -28c8.66699 -8.66699 17.834 -21.334 27.501 -38.001s14.5 -39 14.5 -67c0 -6.66699 -0.5 -15 -1.5 -25s-3.33301 -21 -7 -33s-9.16699 -24.667 -16.5 -38s-17.333 -26 -30 -38c-10.667 -10 -24 -19.833 -40 -29.5s-34.667 -17.167 -56 -22.5
c14 -2 27.667 -6.33301 41 -13s24.666 -14.667 33.999 -24c7.33301 -8 14.5 -19 21.5 -33s10.5 -32.667 10.5 -56c0 -10.667 -1.16699 -24.167 -3.5 -40.5s-7.5 -33.833 -15.5 -52.5s-20 -37.5 -36 -56.5s-37.667 -36.833 -65 -53.5c-10.667 -6 -22.167 -12 -34.5 -18
s-26.5 -11.167 -42.5 -15.5s-34.333 -7.83301 -55 -10.5s-44 -4 -70 -4c-48 0 -87.167 5.5 -117.5 16.5s-56.166 27.167 -77.499 48.5l84 91c20.667 -20.667 43 -33.834 67 -39.501s44 -8.5 60 -8.5c18.667 0 37.667 2.83301 57 8.5s35 13.5 47 23.5
c14.667 12 25.834 27.667 33.501 47s11.5 38 11.5 56c0 15.333 -2.66699 27.5 -8 36.5s-10.666 15.833 -15.999 20.5c-10.667 8.66699 -22.834 13.834 -36.501 15.501s-24.167 2.5 -31.5 2.5h-82z" />
    <glyph glyph-name="afii10026" unicode="&#x418;" horiz-adv-x="642" 
d="M378 0l72.999 344.001l7 31.5c2.66699 12.333 5.83398 25.166 9.50098 38.499l10.5 40c3.33301 13.333 6.66602 25.666 9.99902 36.999c-14 -27.333 -26.833 -50 -38.5 -68l-34.5 -53l-248 -370h-147l148 695h142l-73 -344l-17 -71
c-6.66699 -27.333 -13.667 -52.666 -21 -75.999c14.667 26.667 27.834 49.167 39.501 67.5l34.5 53.5l248 370h147l-148 -695h-142z" />
    <glyph glyph-name="afii10027" unicode="&#x419;" horiz-adv-x="642" 
d="M600 854c-9.33301 -17.333 -19.999 -32.666 -31.999 -45.999s-24.667 -24.666 -38 -33.999c-21.333 -14.667 -41 -23.5 -59 -26.5s-36 -4.5 -54 -4.5c-15.333 0 -31.5 1.33301 -48.5 4s-33.833 11.667 -50.5 27c-8 7.33301 -15.667 17.666 -23 30.999
s-11.666 29.666 -12.999 48.999l74 29c1.33301 -6.66699 4.66602 -13.167 9.99902 -19.5s10 -11.166 14 -14.499c6 -4.66699 14.5 -8 25.5 -10s21.5 -3 31.5 -3c6 0 14.833 0.666992 26.5 2s23.167 5 34.5 11c7.33301 3.33301 14.666 8.16602 21.999 14.499
s13.333 12.833 18 19.5zM378.001 0l72.999 344.001l7 31.5c2.66699 12.333 5.83398 25.166 9.50098 38.499l10.5 40c3.33301 13.333 6.66602 25.666 9.99902 36.999c-14 -27.333 -26.833 -50 -38.5 -68l-34.5 -53l-248 -370h-147l148 695h142l-73 -344l-17 -71
c-6.66699 -27.333 -13.667 -52.666 -21 -75.999c14.667 26.667 27.834 49.167 39.501 67.5l34.5 53.5l248 370h147l-148 -695h-142z" />
    <glyph glyph-name="afii10028" unicode="&#x41a;" horiz-adv-x="640" 
d="M675 614l-33.999 -8.00586c-5.33301 -1.33301 -11 -3 -17 -5s-12 -5 -18 -9c-10 -6.66699 -18.167 -15.5 -24.5 -26.5s-10.166 -17.5 -11.499 -19.5l-33 -68c-10.667 -22 -19.334 -38.167 -26.001 -48.5s-12.667 -18.166 -18 -23.499
c-9.33301 -9.33301 -21.166 -17.333 -35.499 -24s-27.166 -11.667 -38.499 -15c19.333 -7.33301 34.333 -18 45 -32c6 -7.33301 11.333 -18.166 16 -32.499s7.66699 -27.5 9 -39.5l10 -103c1.33301 -8.66699 2.83301 -17.667 4.5 -27s7.5 -17.333 17.5 -24
c4 -2.66699 10 -5.66699 18 -9s14.333 -5.66602 19 -6.99902l19 -6l-46 -97l-74 9c-13.333 1.33301 -27.333 6.33301 -42 15s-25.667 17.667 -33 27c-8.66699 11.333 -13.5 24 -14.5 38s-1.83301 30 -2.5 48l-3 99c-0.666992 11.333 -2.83398 23.5 -6.50098 36.5
s-8.5 22.833 -14.5 29.5c-9.33301 10 -19.833 15.833 -31.5 17.5s-21.5 2.5 -29.5 2.5h-52l-66 -312h-142l148 695h142l-58 -272h69c10 0 21.5 2 34.5 6s22.833 8.66699 29.5 14c7.33301 5.33301 14.333 13.333 21 24s13.667 24.334 21 41.001l40 89
c5.33301 12.667 11.5 24.834 18.5 36.501s16.833 22.834 29.5 33.501c11.333 9.33301 23.666 16.333 36.999 21s27.666 8 42.999 10l72 9z" />
    <glyph glyph-name="afii10029" unicode="&#x41b;" horiz-adv-x="622" 
d="M358 0l123.997 585.003h-129l-27 -108l-30.5 -119c-12.333 -46.667 -29.833 -103.334 -52.5 -170.001c-9.33301 -28 -19.666 -53 -30.999 -75s-28.666 -43 -51.999 -63c-12 -10.667 -28.5 -21.334 -49.5 -32.001s-51.167 -18.334 -90.5 -23.001l-45 -5l-5 103l18 3
c13.333 2 25.333 5.83301 36 11.5s17.667 9.5 21 11.5c7.33301 4.66699 15.833 11.167 25.5 19.5s18.834 19.833 27.501 34.5c1.33301 2.66699 5.83301 12.167 13.5 28.5s18.5 45.5 32.5 87.5c14.667 44 28.5 90.833 41.5 140.5l36.5 145.5l28 120h398l-148 -695h-142z" />
    <glyph glyph-name="afii10030" unicode="&#x41c;" horiz-adv-x="817" 
d="M719 0l-136 0.00195312l55 379c1.33301 9.33301 2.5 18.166 3.5 26.499s2.83301 19.5 5.5 33.5c0.666992 3.33301 1.16699 6.16602 1.5 8.49902s0.833008 5.16602 1.5 8.49902c1.33301 6.66699 2.5 13.167 3.5 19.5s2.16699 12.833 3.5 19.5
c-3.33301 -9.33301 -6.5 -17.666 -9.5 -24.999s-6.33301 -15 -10 -23l-12.5 -26l-17 -33l-194 -388h-115l-22 373c-2 38.667 -3 67.334 -3 86.001c0 8 0.166992 15 0.5 21s0.5 11.333 0.5 16c-2 -10.667 -4.66699 -22.167 -8 -34.5l-9.5 -36.5l-8 -32.5
c-2.33301 -9.66699 -4.16602 -16.834 -5.49902 -21.501l-106 -371h-136l211 695h177l15 -358c0.666992 -11.333 1 -19.833 1 -25.5v-14.5v-25v-20v-11c0 -4 -0.333008 -8.66699 -1 -14c4.66699 12.667 10.667 27.667 18 45s17.666 40 30.999 68l170 355h180z" />
    <glyph glyph-name="afii10031" unicode="&#x41d;" horiz-adv-x="626" 
d="M504 0h-142l66 310h-200l-66 -310h-142l148 695h142l-58 -270h200l58 270h142z" />
    <glyph glyph-name="afii10032" unicode="&#x41e;" horiz-adv-x="688" 
d="M523 485c0 15.333 -1.66504 30.3311 -4.99805 44.998s-11 28.334 -23 41.001c-9.33301 10 -20.666 17 -33.999 21s-27.666 6 -42.999 6c-4.66699 0 -11.334 -0.5 -20.001 -1.5s-18.5 -3.5 -29.5 -7.5s-22.667 -10.167 -35 -18.5s-24.5 -19.5 -36.5 -33.5
c-14.667 -18 -27.834 -41.167 -39.501 -69.5s-21.5 -58 -29.5 -89s-14 -61.167 -18 -90.5s-6 -54 -6 -74c0 -5.33301 0.333008 -11.833 1 -19.5s2 -16 4 -25s5 -17.833 9 -26.5s9.66699 -16.334 17 -23.001c6 -5.33301 15.167 -10.666 27.5 -15.999s29.166 -8 50.499 -8
c30 0 53.5 5.33301 70.5 16s31.167 22.667 42.5 36c15.333 18.667 29 42.334 41 71.001s22.167 58.667 30.5 90s14.666 62.5 18.999 93.5s6.5 58.5 6.5 82.5zM681.002 455.998c0 -44 -5.33398 -88.165 -16.001 -132.498s-26 -86 -46 -125s-44.333 -74 -73 -105
s-61 -55.167 -97 -72.5c-18.667 -9.33301 -41.167 -17.166 -67.5 -23.499s-56.166 -9.5 -89.499 -9.5c-46 0 -83.167 6.33301 -111.5 19s-51.166 28.334 -68.499 47.001c-22.667 24 -38.334 51.167 -47.001 81.5s-13 64.5 -13 102.5c0 40 4.16699 79.667 12.5 119
s20.5 76.666 36.5 111.999s35.5 67.833 58.5 97.5s49.167 55.5 78.5 77.5c8 6 18.333 12.667 31 20s27.5 14.166 44.5 20.499s36.333 11.666 58 15.999s45.5 6.5 71.5 6.5c77.333 0 137 -23.667 179 -71c24.667 -28 40.667 -57.833 48 -89.5s11 -61.834 11 -90.501z" />
    <glyph glyph-name="afii10033" unicode="&#x41f;" horiz-adv-x="617" 
d="M494 0h-138l124 585h-198l-124 -585h-138l148 695h474z" />
    <glyph glyph-name="afii10034" unicode="&#x420;" horiz-adv-x="561" 
d="M312 370c27.333 0 48.832 2.83203 64.499 8.49902s28.167 14.167 37.5 25.5c10.667 12.667 19.334 28.334 26.001 47.001s10 38 10 58c0 23.333 -6.33301 41.333 -19 54s-32 19 -58 19h-86l-45 -212h70zM350.999 694.999c47.333 0 84.833 -2.5 112.5 -7.5
s50.167 -13.167 67.5 -24.5c22 -13.333 39.167 -31 51.5 -53s18.5 -46.667 18.5 -74c0 -60.667 -13.833 -112.5 -41.5 -155.5s-67.5 -76.5 -119.5 -100.5c-17.333 -8 -39.5 -14 -66.5 -18s-54.5 -6 -82.5 -6h-74l-54 -256h-143l148 695h183z" />
    <glyph glyph-name="afii10035" unicode="&#x421;" horiz-adv-x="539" 
d="M525 561c-8.66699 8 -21.166 16.0029 -37.499 24.0029s-38.5 12 -66.5 12c-25.333 0 -49 -5.5 -71 -16.5s-41.667 -26.167 -59 -45.5c-14 -16 -26.667 -36.667 -38 -62s-21.333 -52.333 -30 -81s-15.334 -57.5 -20.001 -86.5s-7 -55.167 -7 -78.5
c0 -15.333 1.66699 -31.833 5 -49.5s11.333 -33.5 24 -47.5c14 -15.333 29.667 -24.833 47 -28.5s31.666 -5.5 42.999 -5.5c10.667 0 27.167 2.33301 49.5 7s49.166 18 80.499 40l48 -90c-36 -25.333 -71.667 -42.5 -107 -51.5s-69 -13.5 -101 -13.5
c-24.667 0 -46.667 2 -66 6s-36.166 9 -50.499 15s-26.833 12.667 -37.5 20s-19.334 14.333 -26.001 21c-7.33301 6.66699 -14.666 15.167 -21.999 25.5s-14.333 23 -21 38s-12 32.167 -16 51.5s-6 41.333 -6 66c0 26.667 2.5 54.5 7.5 83.5s12 57.667 21 86
s20 55.666 33 81.999s27.5 50.166 43.5 71.499c35.333 47.333 79 84.666 131 111.999s107.667 41 167 41c22.667 0 42.834 -1.83301 60.501 -5.5s33.167 -8.33398 46.5 -14.001s24.5 -11.667 33.5 -18s16.5 -12.166 22.5 -17.499z" />
    <glyph glyph-name="afii10036" unicode="&#x422;" horiz-adv-x="491" 
d="M559 579h-164l-123 -579h-144l123 579h-170l25 116h501z" />
    <glyph glyph-name="afii10037" unicode="&#x423;" horiz-adv-x="550" 
d="M289 436c2 -12 4.83398 -30.168 8.50098 -54.501s6.5 -52.833 8.5 -85.5c8.66699 22 16.667 40.833 24 56.5l20.5 42l18.5 35l20 35.5l124 230h147l-274 -489c-27.333 -48 -50.666 -87.5 -69.999 -118.5s-40.333 -54.5 -63 -70.5c-21.333 -15.333 -44.833 -26 -70.5 -32
s-46.834 -10 -63.501 -12l-35 -4l-4 101l18 5l27.5 9.5c8.33301 3 18.166 7.16699 29.499 12.5c8.66699 4.66699 16.5 9.33398 23.5 14.001s13.667 10 20 16s12.5 13.167 18.5 21.5s12 18.5 18 30.5l19 36l-69 -10l-94 490h150z" />
    <glyph glyph-name="afii10038" unicode="&#x424;" horiz-adv-x="778" 
d="M371 538c-23.333 0 -42.5 -3.50195 -57.5 -10.502s-26.167 -13.5 -33.5 -19.5c-12 -9.33301 -22.833 -21.666 -32.5 -36.999s-18 -32.166 -25 -50.499s-12.5 -38 -16.5 -59s-6 -41.833 -6 -62.5c0 -12 1.16699 -23.833 3.5 -35.5s7.5 -22.834 15.5 -33.501
c12 -15.333 25.5 -24.666 40.5 -27.999s28.167 -5 39.5 -5h13l72 341h-13zM438 196.998l12.999 0.000976562c15.333 0 31 2.16699 47 6.5s31.667 13.166 47 26.499c14 12 25.833 26.833 35.5 44.5s17.5 36.167 23.5 55.5s10.333 38.833 13 58.5s4 37.167 4 52.5
c0 13.333 -1.16699 26 -3.5 38s-9.16602 23.333 -20.499 34c-12 11.333 -25 18.333 -39 21s-25.667 4 -35 4h-13zM262.999 -0.000976562l21.999 102.004h-24c-34 0 -65.333 5.33301 -94 16s-51.667 25.667 -69 45c-15.333 16 -26.833 36 -34.5 60s-11.5 50 -11.5 78
c0 23.333 2.83301 47.666 8.5 72.999s14 50.333 25 75s24.5 47.667 40.5 69s34 39.666 54 54.999c26 19.333 56.333 34.166 91 44.499s69 15.5 103 15.5h24l20 97h140l-20 -97h24c34 0 63.833 -4.5 89.5 -13.5s46.5 -20.5 62.5 -34.5
c12.667 -11.333 22.834 -23.5 30.501 -36.5s13.5 -26 17.5 -39s6.5 -25.667 7.5 -38s1.5 -23.5 1.5 -33.5c0 -54.667 -9.83301 -103.834 -29.5 -147.501s-45.834 -80.167 -78.501 -109.5c-22.667 -20 -51.667 -38.167 -87 -54.5s-77.666 -24.5 -126.999 -24.5h-24l-22 -102
h-140z" />
    <glyph glyph-name="afii10039" unicode="&#x425;" horiz-adv-x="528" 
d="M379 366l134 -366h-164l-74 240l-171 -240h-180l300 375l-122 320h163l61 -194l136 194h167z" />
    <glyph glyph-name="afii10040" unicode="&#x426;" horiz-adv-x="617" 
d="M306 695l-124 -585h188l124 585h138l-124 -581h80l-61 -286h-135l37 172h-409l148 695h138z" />
    <glyph glyph-name="afii10041" unicode="&#x427;" horiz-adv-x="578" 
d="M314 0l60.999 284.997c-4.66699 -2 -11.834 -4.33301 -21.501 -7s-21.167 -5.5 -34.5 -8.5s-28.166 -5.5 -44.499 -7.5s-33.5 -3 -51.5 -3c-8 0 -16.667 0.5 -26 1.5s-19 2.83301 -29 5.5s-19.667 6.33398 -29 11.001s-18 10.667 -26 18
c-13.333 13.333 -22.333 29 -27 47s-7 34.333 -7 49c0 7.33301 0.333008 13.833 1 19.5s1.33398 10.167 2.00098 13.5l58 271h138l-47 -218c-1.33301 -6.66699 -2.66602 -14.167 -3.99902 -22.5s-2 -16.833 -2 -25.5c0 -9.33301 1.16699 -18.333 3.5 -27s6.5 -16 12.5 -22
c7.33301 -7.33301 16.333 -11.666 27 -12.999s20 -2 28 -2c14.667 0 29.167 1.33301 43.5 4s33.166 8.33398 56.499 17.001l66 309h138l-148 -695h-138z" />
    <glyph glyph-name="afii10042" unicode="&#x428;" horiz-adv-x="900" 
d="M183 115h170l124 580h139l-124 -580h170l124 580h139l-148 -695h-757l148 695h139z" />
    <glyph glyph-name="afii10043" unicode="&#x429;" horiz-adv-x="910" 
d="M183 115h170l124 580h139l-124 -580h170l124 580h139l-124 -581h80l-61 -286h-135l37 172h-702l148 695h139z" />
    <glyph glyph-name="afii10044" unicode="&#x42a;" horiz-adv-x="663" 
d="M342 112c4 0 10.001 0.332031 18.001 0.999023s16.833 2.5 26.5 5.5s19.667 7.66699 30 14s20.166 15.166 29.499 26.499c10 12.667 17.333 27.334 22 44.001s7 32.334 7 47.001c0 13.333 -1.83301 23.833 -5.5 31.5s-7.16699 13.5 -10.5 17.5
c-5.33301 6.66699 -13.833 12.5 -25.5 17.5s-27.167 7.5 -46.5 7.5h-79l-45 -212h79zM332.001 435.999l91.001 -0.000976562c14 0 28.5 -0.5 43.5 -1.5s29.667 -3.16699 44 -6.5s28.333 -8.33301 42 -15s26.167 -15.667 37.5 -27l12.5 -15.5
c5 -6.33301 9.66699 -14.5 14 -24.5s8.16602 -21.667 11.499 -35s5 -28.666 5 -45.999c0 -44 -11.5 -86.333 -34.5 -127s-55.5 -73 -97.5 -97c-12.667 -7.33301 -32.667 -16 -60 -26s-62.333 -15 -105 -15h-239l123 580h-170l25 115h312z" />
    <glyph glyph-name="afii10045" unicode="&#x42b;" horiz-adv-x="859" 
d="M884 695l-148 -695h-142l148 695h142zM261 112c16 0 32 3.00098 48 9.00098s30 14.333 42 25c14 12.667 24.5 28.334 31.5 47.001s10.5 38 10.5 58c0 9.33301 -1.5 18.666 -4.5 27.999s-9.16699 17.666 -18.5 24.999c-8 6.66699 -17.667 11.667 -29 15s-23 5 -35 5h-75
l-45 -212h75zM310 695.001l-54.999 -258.999h87c24.667 0 51.167 -2.33301 79.5 -7s54.166 -17.334 77.499 -38.001c32.667 -30 49 -69.667 49 -119c0 -20.667 -2.33301 -41.667 -7 -63s-12.167 -42 -22.5 -62s-23.833 -39.167 -40.5 -57.5s-37 -34.5 -61 -48.5
c-30 -17.333 -59 -28.5 -87 -33.5s-53 -7.5 -75 -7.5h-235l148 695h142z" />
    <glyph glyph-name="afii10046" unicode="&#x42c;" horiz-adv-x="585" 
d="M265 112c10.667 0 25.165 2.00195 43.498 6.00195s35.833 14.667 52.5 32c12 13.333 21.167 29.166 27.5 47.499s9.5 35.166 9.5 50.499c0 16.667 -2.5 29.5 -7.5 38.5s-10.167 15.833 -15.5 20.5c-9.33301 8 -20.166 12.833 -32.499 14.5s-23.166 2.5 -32.499 2.5h-79
l-45 -212h79zM309.998 695.002l-55.001 -259.004h91c14 0 28.5 -0.5 43.5 -1.5s29.667 -3.16699 44 -6.5s28.333 -8.33301 42 -15s26.167 -15.667 37.5 -27c18 -17.333 29.5 -36.666 34.5 -57.999s7.5 -41.666 7.5 -60.999c0 -32 -4.5 -60.5 -13.5 -85.5
s-20 -46.667 -33 -65s-27.167 -33.666 -42.5 -45.999s-29.333 -22.166 -42 -29.499c-17.333 -10 -39.666 -19.333 -66.999 -28s-60 -13 -98 -13h-239l148 695h142z" />
    <glyph glyph-name="afii10047" unicode="&#x42d;" horiz-adv-x="567" 
d="M112 652c21.333 14 47.998 26.6631 79.998 37.9961s70.667 17 116 17c28 0 53.167 -2.66699 75.5 -8s42 -12.666 59 -21.999s31.667 -20 44 -32s22.833 -24.333 31.5 -37c15.333 -23.333 26.166 -50 32.499 -80s9.5 -60 9.5 -90c0 -21.333 -2.16699 -47.166 -6.5 -77.499
s-11.833 -62.166 -22.5 -95.499s-25.334 -66.333 -44.001 -99s-42.334 -62.334 -71.001 -89.001c-20 -18.667 -41 -33.834 -63 -45.501s-43.5 -20.667 -64.5 -27s-41.167 -10.666 -60.5 -12.999s-37 -3.5 -53 -3.5c-25.333 0 -47.666 2 -66.999 6s-36.5 9.33301 -51.5 16
s-28 13.667 -39 21s-20.167 14.666 -27.5 21.999l80 89c23.333 -19.333 44.833 -31.5 64.5 -36.5s36.834 -7.5 51.501 -7.5c22.667 0 47 3.83301 73 11.5s48.667 22.834 68 45.501c13.333 15.333 24.5 34 33.5 56s15.167 43.333 18.5 64l6 33h-202l20 111h198l3 25
c0.666992 5.33301 1.33398 11 2.00098 17s1 12.333 1 19c0 10 -1.16699 20.333 -3.5 31s-6.16602 21.334 -11.499 32.001c-8.66699 16 -21.667 29 -39 39s-40.666 15 -69.999 15c-20 0 -41 -3.16699 -63 -9.5s-43 -16.166 -63 -29.499z" />
    <glyph glyph-name="afii10048" unicode="&#x42e;" horiz-adv-x="944" 
d="M684 600c-18 0 -33.833 -2.66699 -47.5 -8s-25.5 -11.666 -35.5 -18.999s-18.5 -15.333 -25.5 -24s-12.833 -16.334 -17.5 -23.001c-11.333 -16.667 -21.833 -37.667 -31.5 -63s-18.167 -52.166 -25.5 -80.499s-13.166 -56.833 -17.499 -85.5s-6.5 -54.667 -6.5 -78
c0 -18 1.66699 -34.333 5 -49c2 -7.33301 4.66699 -15.333 8 -24s8.5 -16.834 15.5 -24.501s16.167 -14 27.5 -19s25.666 -7.5 42.999 -7.5c18 0 33.833 2.5 47.5 7.5s25.5 11.333 35.5 19s18.5 15.834 25.5 24.501s12.833 16.667 17.5 24c10.667 16.667 21 37.667 31 63
s18.667 52.166 26 80.499s13.166 56.833 17.499 85.5s6.5 54.667 6.5 78c0 18 -1.66699 34.333 -5 49c-2 6.66699 -4.66699 14.334 -8 23.001s-8.5 16.667 -15.5 24s-16.167 13.666 -27.5 18.999s-25.666 8 -42.999 8zM307 695l-58.001 -269.999h112
c9.33301 30.667 23.5 63.334 42.5 98.001s43.167 66 72.5 94c10.667 10 23.167 20.167 37.5 30.5s31 20 50 29s40.333 16.333 64 22s49.834 8.5 78.501 8.5c15.333 0 31.666 -1.16699 48.999 -3.5s34.5 -6.83301 51.5 -13.5s33.333 -16.167 49 -28.5
s29.834 -28.166 42.501 -47.499c13.333 -20.667 23.166 -44.5 29.499 -71.5s9.5 -55.5 9.5 -85.5c0 -32.667 -3.5 -66.334 -10.5 -101.001s-17.167 -68.5 -30.5 -101.5s-29.333 -64.333 -48 -94s-40 -55.834 -64 -78.501c-31.333 -30 -65.666 -53.167 -102.999 -69.5
s-80 -24.5 -128 -24.5c-28.667 0 -54 3 -76 9s-41.167 14.333 -57.5 25s-30.333 23 -42 37s-21.167 28.667 -28.5 44c-8.66699 17.333 -15 36.666 -19 57.999s-6 43.333 -6 66c0 29.333 3 57 9 83h-108l-66 -310h-139l148 695h139z" />
    <glyph glyph-name="afii10049" unicode="&#x42f;" horiz-adv-x="603" 
d="M391 583c-10.667 0 -21.999 -0.666992 -33.999 -2s-24.667 -5.66602 -38 -12.999c-19.333 -11.333 -33 -26 -41 -44s-12 -35.667 -12 -53c0 -8 1.33301 -16.667 4 -26s8 -18 16 -26c10 -10.667 21.167 -17.334 33.5 -20.001s24.166 -4 35.499 -4h73l40 188h-77z
M482.001 0l-138.002 -0.000976562l60 283h-56c-10.667 0 -22.334 -1 -35.001 -3s-24.667 -7.66699 -36 -17c-4 -3.33301 -8.16699 -7.66602 -12.5 -12.999s-8.66602 -11.166 -12.999 -17.499s-8.33301 -12.666 -12 -18.999s-6.5 -12.166 -8.5 -17.499l-32 -71l-23 -50
c-6.66699 -14 -17 -27.333 -31 -40c-5.33301 -5.33301 -15.166 -11.833 -29.499 -19.5s-34.5 -13.167 -60.5 -16.5l-84 -9l-6 97l23 6c6.66699 1.33301 14.5 4 23.5 8s16.5 7.66699 22.5 11c5.33301 3.33301 11.5 8.16602 18.5 14.499s14.5 17.5 22.5 33.5l40 79
c6.66699 12.667 13.334 24.5 20.001 35.5s16.667 21.833 30 32.5c15.333 12.667 30.5 21.667 45.5 27s25.5 8.66602 31.5 9.99902c-22.667 3.33301 -42.5 10.166 -59.5 20.499s-29.833 21.833 -38.5 34.5c-8.66699 12 -14.667 25.5 -18 40.5s-5 29.167 -5 42.5
c0 28 7.33301 56.667 22 86s35 54 61 74c14.667 11.333 30.167 20.5 46.5 27.5s32.833 12.333 49.5 16s33 6.16699 49 7.5s31.333 2 46 2h235z" />
    <glyph glyph-name="afii10065" unicode="&#x430;" horiz-adv-x="519" 
d="M351 412c-6 3.33301 -13.1689 5.49902 -21.502 6.49902s-15.166 1.5 -20.499 1.5c-19.333 0 -36 -3.5 -50 -10.5s-26.667 -18.167 -38 -33.5c-13.333 -17.333 -23.666 -35.5 -30.999 -54.5s-13 -36.833 -17 -53.5c-4 -16 -7.5 -34.167 -10.5 -54.5
s-4.5 -40.166 -4.5 -59.499c0 -15.333 1.16699 -26.333 3.5 -33s3.83301 -10.667 4.5 -12c4 -7.33301 9.16699 -12.166 15.5 -14.499s12.166 -3.5 17.499 -3.5c10.667 0 21.167 2.5 31.5 7.5s19.833 11.333 28.5 19s16.334 16.167 23.001 25.5s12 18.666 16 27.999z
M336.998 -14.001c-8 5.33301 -15.332 12.666 -21.999 21.999s-12.334 23 -17.001 41c-17.333 -19.333 -37.666 -34.333 -60.999 -45s-48.333 -16 -75 -16c-28.667 0 -51.167 4.5 -67.5 13.5s-28.833 18.5 -37.5 28.5c-14.667 16.667 -24.334 35 -29.001 55s-7 41.333 -7 64
c0 60 9.83301 116 29.5 168s45.834 94.333 78.501 127c18 18 36.167 32.333 54.5 43s36.5 18.667 54.5 24s35 8.83301 51 10.5s30.667 2.5 44 2.5c44 0 79 -3.5 105 -10.5s47.667 -15.167 65 -24.5c-6.66699 -21.333 -12.834 -43.166 -18.501 -65.499
s-10.5 -42.5 -14.5 -60.5l-41 -194c-2 -10.667 -3.16699 -19.667 -3.5 -27s-0.5 -12 -0.5 -14c0 -13.333 2 -24.5 6 -33.5s9.66699 -17.5 17 -25.5z" />
    <glyph glyph-name="afii10066" unicode="&#x431;" horiz-adv-x="564" 
d="M319 414c-18 0 -32 -3.33105 -42 -9.99805s-17.333 -12.334 -22 -17.001c-9.33301 -9.33301 -16.833 -19.666 -22.5 -30.999s-10.167 -22.333 -13.5 -33c-3.33301 -9.33301 -6.83301 -20.5 -10.5 -33.5s-7.16699 -26.667 -10.5 -41s-6 -28.5 -8 -42.5s-3 -26.333 -3 -37
c0 -2.66699 0.333008 -9.83398 1 -21.501s3.33398 -22.167 8.00098 -31.5c4 -8 10.167 -15 18.5 -21s20.166 -9 35.499 -9s27.833 2.66699 37.5 8s18.5 12.666 26.5 21.999c8.66699 9.33301 15.667 19.166 21 29.499s10.333 21.833 15 34.5
c2.66699 8 5.83398 18.833 9.50098 32.5s7.16699 28.167 10.5 43.5s6.16602 30.5 8.49902 45.5s3.5 28.167 3.5 39.5c0 8 -0.833008 15.833 -2.5 23.5s-4.5 15.167 -8.5 22.5c-3.33301 6.66699 -9 12.834 -17 18.501s-19.667 8.5 -35 8.5zM592 660.002
c-5.33301 -2.66699 -10.9971 -5.33203 -16.9971 -7.99902s-14 -5.83398 -24 -9.50098s-22.5 -8 -37.5 -13s-33.5 -10.833 -55.5 -17.5s-38.833 -11.5 -50.5 -14.5l-30.5 -8l-26.5 -7.5c-9 -2.66699 -21.833 -7.33398 -38.5 -14.001c-15.333 -6 -29.833 -13.333 -43.5 -22
s-26.834 -23.334 -39.501 -44.001c-4.66699 -7.33301 -8.83398 -15 -12.501 -23s-6.66699 -15.5 -9 -22.5s-4.16602 -13 -5.49902 -18s-2.33301 -8.5 -3 -10.5c9.33301 10.667 19.5 20.667 30.5 30s22.833 17.666 35.5 24.999c15.333 9.33301 33.166 16.5 53.499 21.5
s40.833 7.5 61.5 7.5c27.333 0 51.166 -5.66699 71.499 -17s36.166 -26.666 47.499 -45.999c10 -15.333 17 -33 21 -53s6 -39.667 6 -59c0 -22.667 -2.16699 -46.167 -6.5 -70.5s-11.166 -48.5 -20.499 -72.5s-21 -47.167 -35 -69.5s-30.333 -42.833 -49 -61.5
c-8 -8 -17.667 -16.333 -29 -25s-24.5 -16.667 -39.5 -24s-32.167 -13.5 -51.5 -18.5s-41 -7.5 -65 -7.5c-36.667 0 -66 5.83301 -88 17.5s-39 24.167 -51 37.5c-14 15.333 -25.333 34.833 -34 58.5s-13 49.5 -13 77.5c0 18 2.16699 42.667 6.5 74
s14.833 73.666 31.5 126.999c8 25.333 16.667 49.833 26 73.5s19.666 46.167 30.999 67.5c14.667 28 30.334 51.667 47.001 71s34.334 35.833 53.001 49.5s38.167 24.834 58.5 33.501s41.833 16.334 64.5 23.001l59 18c12 4 21.333 6.83301 28 8.5
s14.167 3.83398 22.5 6.50098s19.666 6.5 33.999 11.5l63.5 22.5z" />
    <glyph glyph-name="afii10067" unicode="&#x432;" horiz-adv-x="544" 
d="M175 90c11.333 -3.33301 23.333 -5.66602 36 -6.99902s22 -2 28 -2c12 0 24.167 1.16699 36.5 3.5s23.5 7.16602 33.5 14.499c8 5.33301 15.833 13.833 23.5 25.5s11.5 27.167 11.5 46.5c0 8 -1 15.333 -3 22s-6.33301 12.667 -13 18c-8 6.66699 -16 10.667 -24 12
s-16.333 2 -25 2h-75zM285 304c15.333 0 27.667 2.16504 37 6.49805s16.333 8.5 21 12.5c8.66699 7.33301 15.667 16.333 21 27s8 23.334 8 38.001c0 5.33301 -0.833008 10.833 -2.5 16.5s-5.5 10.834 -11.5 15.501c-5.33301 4 -11.5 6.83301 -18.5 8.5s-14.5 2.5 -22.5 2.5
c-9.33301 0 -19 -1.5 -29 -4.5s-18.667 -7.83301 -26 -14.5c-12.667 -10 -21 -22 -25 -36s-7.33301 -27.333 -10 -40l-6 -32h64zM93.001 327.998c8.66699 39.333 20.666 70.667 35.999 94s31.666 41.666 48.999 54.999s38.833 24.5 64.5 33.5s55.834 13.5 90.501 13.5
c20.667 0 38.667 -1.33301 54 -4s28.5 -6 39.5 -10s20 -8.16699 27 -12.5s12.167 -7.83301 15.5 -10.5c7.33301 -6 15.833 -16.167 25.5 -30.5s14.5 -33.166 14.5 -56.499c0 -17.333 -3.5 -34.333 -10.5 -51s-17.5 -31.334 -31.5 -44.001c-8 -7.33301 -17.5 -14 -28.5 -20
s-21.833 -10.667 -32.5 -14c11.333 -2.66699 22.333 -7 33 -13s19.334 -12.667 26.001 -20c9.33301 -10 15.333 -20.333 18 -31s4 -20 4 -28c0 -28.667 -6.83301 -55.667 -20.5 -81s-30.167 -45 -49.5 -59c-23.333 -17.333 -52.5 -30.166 -87.5 -38.499
s-72.833 -12.5 -113.5 -12.5c-32 0 -64 2.5 -96 7.5s-63 12.833 -93 23.5z" />
    <glyph glyph-name="afii10068" unicode="&#x433;" horiz-adv-x="438" 
d="M81 467c11.333 8.66699 22.3262 15.6689 32.9932 21.002s22.334 10.333 35.001 15c19.333 7.33301 39.333 12.833 60 16.5s42.334 5.5 65.001 5.5c17.333 0 36.5 -2.33301 57.5 -7s40.167 -14.667 57.5 -30c18 -16 29.5 -32.833 34.5 -50.5s7.5 -34.5 7.5 -50.5
c0 -19.333 -2.66699 -37 -8 -53s-15.666 -31.667 -30.999 -47c-16 -16.667 -33.667 -29.834 -53 -39.501s-38 -17.5 -56 -23.5l-35 -12c-26 -9.33301 -46.833 -16.5 -62.5 -21.5s-28.167 -11.5 -37.5 -19.5c-6.66699 -5.33301 -11.5 -11 -14.5 -17s-4.5 -13.667 -4.5 -23
c0 -12 3.66699 -21.667 11 -29s16.333 -11.666 27 -12.999s19 -2 25 -2c22.667 0 43.334 2.66699 62.001 8s34.667 11 48 17c7.33301 3.33301 14.666 7.16602 21.999 11.499l22 13.5l32 -91l-14 -9c-12 -8 -26 -15 -42 -21s-30.667 -10.667 -44 -14
c-32.667 -8.66699 -67.334 -13 -104.001 -13c-19.333 0 -39.666 2.16699 -60.999 6.5s-40.666 13.833 -57.999 28.5c-14 12 -25 27 -33 45s-12 37.667 -12 59c0 17.333 3.16699 35.333 9.5 54s18.833 36.334 37.5 53.001c10 9.33301 23.333 18.5 40 27.5s39 18.167 67 27.5
l27 9c18.667 6 34 11.5 46 16.5l29.5 12.5c7.66699 3.33301 13.334 6.33301 17.001 9s6.5 4.66699 8.5 6c4 3.33301 8.33301 8.33301 13 15s7 15 7 25c0 9.33301 -1.83301 16.5 -5.5 21.5s-8.16699 9.16699 -13.5 12.5s-12 5.66602 -20 6.99902s-15.333 2 -22 2
c-11.333 0 -24.166 -1.33301 -38.499 -4s-27.166 -6.33398 -38.499 -11.001c-8.66699 -3.33301 -17.5 -7.5 -26.5 -12.5s-16.5 -9.83301 -22.5 -14.5z" />
    <glyph glyph-name="afii10069" unicode="&#x434;" horiz-adv-x="568" 
d="M388 371c-5.33301 5.33301 -11 9.66504 -17 12.998s-11.667 6.33301 -17 9c-6.66699 2.66699 -13.5 4.83398 -20.5 6.50098s-13.833 2.5 -20.5 2.5c-16.667 0 -31 -3.66699 -43 -11s-22 -16.166 -30 -26.499s-14.5 -21.5 -19.5 -33.5s-9.16699 -23 -12.5 -33
c-12 -36 -19.5 -65.333 -22.5 -88s-4.5 -39.667 -4.5 -51c0 -27.333 5.66699 -46.333 17 -57s23.666 -16 36.999 -16c11.333 0 24.5 3.33301 39.5 10s29.167 21 42.5 43c13.333 21.333 24.333 46.333 33 75s17.334 63 26.001 103zM233 738.999
c11.333 1.33301 22.834 2.49609 34.501 3.49609s23.5 1.5 35.5 1.5c17.333 0 34 -0.833008 50 -2.5s31 -4.5 45 -8.5c20.667 -5.33301 39.5 -13.666 56.5 -24.999s32.167 -26.666 45.5 -45.999c9.33301 -14 16.666 -28.667 21.999 -44s9.16602 -30.5 11.499 -45.5
s3.83301 -29.667 4.5 -44s1 -27.833 1 -40.5c0 -38 -2.83301 -77 -8.5 -117s-13.667 -78.5 -24 -115.5s-23 -71.167 -38 -102.5s-31.5 -57.333 -49.5 -78c-9.33301 -10.667 -20.666 -21.167 -33.999 -31.5s-28.5 -19.666 -45.5 -27.999s-35.833 -15 -56.5 -20
s-43 -7.5 -67 -7.5c-23.333 0 -47 3.5 -71 10.5s-45 20.5 -63 40.5c-18 19.333 -29.667 40.833 -35 64.5s-8 45.167 -8 64.5c0 28 2.83301 55.333 8.5 82s13.334 52 23.001 76s21.334 46 35.001 66s28.5 37 44.5 51c14.667 13.333 34.167 26.166 58.5 38.499
s53.5 18.5 87.5 18.5c12 0 22.667 -1 32 -3s19 -4.66699 29 -8c9.33301 -3.33301 17.833 -6.66602 25.5 -9.99902s15.834 -8.66602 24.501 -15.999c2 12.667 3 27.667 3 45c0 13.333 -0.833008 26.5 -2.5 39.5s-4.5 24.5 -8.5 34.5c-10 22.667 -25.667 39 -47 49
c-14.667 7.33301 -29.334 11.833 -44.001 13.5s-28.334 2.5 -41.001 2.5c-17.333 0 -31.833 -0.833008 -43.5 -2.5s-22.834 -4.16699 -33.501 -7.5z" />
    <glyph glyph-name="afii10070" unicode="&#x435;" horiz-adv-x="506" 
d="M201 308c5.33301 -1.33301 11.002 -2.5 17.002 -3.5s13 -1.5 21 -1.5c11.333 0 25.166 1 41.499 3s31.166 6.66699 44.499 14c12 6 21.5 13.5 28.5 22.5s10.5 20.167 10.5 33.5c0 17.333 -4.66699 30 -14 38c-3.33301 3.33301 -8 6.33301 -14 9s-14.667 4 -26 4
c-16 0 -29.833 -3 -41.5 -9s-22.167 -14.333 -31.5 -25c-10 -12 -18 -26.167 -24 -42.5s-10 -30.5 -12 -42.5zM436.002 58c-22 -16 -43.1641 -28.5029 -63.4971 -37.5029s-39.333 -16 -57 -21s-34 -8.16699 -49 -9.5s-27.833 -2 -38.5 -2s-22.334 0.5 -35.001 1.5
s-25.5 3.33301 -38.5 7s-25.833 9 -38.5 16s-24.334 16.167 -35.001 27.5c-17.333 18 -29.5 38.833 -36.5 62.5s-10.5 48.167 -10.5 73.5s2.83301 51.333 8.5 78s13.5 52.334 23.5 77.001s22 47.834 36 69.501s29.667 40.5 47 56.5c16.667 15.333 33.167 27.5 49.5 36.5
s32.166 15.667 47.499 20s29.666 7.16602 42.999 8.49902s25.333 2 36 2c34 0 61.333 -3.83301 82 -11.5s37 -16.167 49 -25.5c3.33301 -2.66699 7.5 -6.66699 12.5 -12s9.66699 -12 14 -20s8.16602 -17.833 11.499 -29.5s5 -25.167 5 -40.5c0 -16 -2 -30.333 -6 -43
s-9 -23.834 -15 -33.501s-12.667 -18.167 -20 -25.5s-14.333 -13.666 -21 -18.999c-28 -21.333 -58.667 -35.833 -92 -43.5s-68.333 -11.5 -105 -11.5c-11.333 0 -21.5 0.333008 -30.5 1s-19.167 2.66699 -30.5 6c-3.33301 -15.333 -5 -30.666 -5 -45.999
c0 -18 2.66699 -32.333 8 -43s11.666 -18.667 18.999 -24c9.33301 -7.33301 19.833 -11.666 31.5 -12.999s20.834 -2 27.501 -2c28.667 0 55.334 6 80.001 18s45.334 24 62.001 36z" />
    <glyph glyph-name="afii10072" unicode="&#x436;" horiz-adv-x="873" 
d="M366 223l-62.0029 0.00292969c-9.33301 -39.333 -23 -73 -41 -101s-34.333 -49.667 -49 -65c-15.333 -16.667 -34.5 -32.334 -57.5 -47.001s-51.833 -22 -86.5 -22c-22 0 -43 3.66699 -63 11s-37.667 20 -53 38l67 82c5.33301 -10 12.5 -18 21.5 -24s18.833 -9 29.5 -9
c15.333 0 27.833 4.16699 37.5 12.5s19.167 20.166 28.5 35.499c15.333 25.333 29.833 56.5 43.5 93.5s20.5 76.5 20.5 118.5c0 9.33301 -0.666992 20.333 -2 33s-6 23.667 -14 33c-4.66699 5.33301 -9.33398 9 -14.001 11s-10.667 3 -18 3
c-9.33301 0 -20.5 -2.66699 -33.5 -8s-26.167 -16.666 -39.5 -33.999l-43 73c19.333 22.667 41.666 39.5 66.999 50.5s53 16.5 83 16.5c18 0 35.333 -3 52 -9s32.334 -17.333 47.001 -34c27.333 -31.333 41 -75.333 41 -132v-15.5c0 -5 -0.333008 -10.167 -1 -15.5h60
l38 182l138 25l-44 -207h65c7.33301 21.333 17.166 43.166 29.499 65.499s29.833 45.833 52.5 70.5c8 8.66699 16.667 17.167 26 25.5s19.666 15.833 30.999 22.5s24.166 12 38.499 16s30.5 6 48.5 6c23.333 0 44.833 -4.16699 64.5 -12.5s36.834 -21.166 51.501 -38.499
l-67 -80c-4 7.33301 -8.5 13.166 -13.5 17.499s-10 7.66602 -15 9.99902s-9.66699 3.83301 -14 4.5s-7.5 1 -9.5 1c-13.333 0 -25.333 -4.33301 -36 -13s-20.667 -20 -30 -34c-7.33301 -11.333 -14.666 -25 -21.999 -41s-14.166 -33.5 -20.499 -52.5
s-11.5 -38.667 -15.5 -59s-6 -40.166 -6 -59.499c0 -10 0.666992 -21.333 2 -34s6 -23.667 14 -33c5.33301 -6 10.5 -9.83301 15.5 -11.5s10.5 -2.5 16.5 -2.5c13.333 0 25.833 3.16699 37.5 9.5s23.5 17.166 35.5 32.499l43 -75
c-13.333 -15.333 -27.166 -27.333 -41.499 -36s-28.166 -15.167 -41.499 -19.5s-25.666 -7 -36.999 -8s-21 -1.5 -29 -1.5c-14 0 -30.5 2.5 -49.5 7.5s-36.167 16.5 -51.5 34.5c-13.333 16 -23.166 35.5 -29.499 58.5s-9.5 46.833 -9.5 71.5c0 11.333 0.5 22.333 1.5 33
s2.16699 20.667 3.5 30h-59l-47 -223h-132z" />
    <glyph glyph-name="afii10073" unicode="&#x437;" horiz-adv-x="456" 
d="M210 315c8.66699 0 17.998 1.49414 27.998 4.49414s18.667 7.16699 26 12.5c15.333 10.667 23 25 23 43c0 7.33301 -0.833008 14.5 -2.5 21.5s-6.16699 13.167 -13.5 18.5c-6 4.66699 -12.833 7.83398 -20.5 9.50098s-14.834 2.5 -21.501 2.5
c-14.667 0 -27.667 -1.16699 -39 -3.5s-22.666 -6.16602 -33.999 -11.499c-9.33301 -4 -17.5 -8.16699 -24.5 -12.5s-13.833 -9.16602 -20.5 -14.499l-38 77c9.33301 7.33301 20.5 15 33.5 23s28.5 15 46.5 21c18.667 6.66699 38 11.334 58 14.001s39 4 57 4
c16.667 0 34.834 -1.83301 54.501 -5.5s38.5 -12.167 56.5 -25.5c16.667 -12.667 28.667 -27 36 -43s11 -33.667 11 -53c0 -24 -4 -43.667 -12 -59s-16.333 -27 -25 -35c-11.333 -11.333 -22.666 -19.666 -33.999 -24.999s-19.333 -8.66602 -24 -9.99902
c18.667 -4 34.667 -15 48 -33c7.33301 -10 11.833 -19.833 13.5 -29.5s2.5 -20.834 2.5 -33.501c0 -20 -2.66699 -37.667 -8 -53s-12.333 -28.833 -21 -40.5s-18 -21.667 -28 -30s-20 -15.5 -30 -21.5c-21.333 -13.333 -46.5 -23.166 -75.5 -29.499s-58.5 -9.5 -88.5 -9.5
c-31.333 0 -56.5 3.33301 -75.5 10s-35.167 14.667 -48.5 24c-8 5.33301 -15.333 10.833 -22 16.5s-12.667 12.167 -18 19.5l77 80c7.33301 -11.333 17.333 -21.666 30 -30.999c11.333 -8.66699 22.333 -14.334 33 -17.001s22.667 -4 36 -4c9.33301 0 19.833 1 31.5 3
s22.167 6.33301 31.5 13s17.333 15.667 24 27s10 25.333 10 42c0 11.333 -2.16699 20 -6.5 26s-8.5 10.667 -12.5 14c-6.66699 4.66699 -15.5 7.66699 -26.5 9s-20.833 2 -29.5 2h-38l18 93h52z" />
    <glyph glyph-name="afii10074" unicode="&#x438;" horiz-adv-x="537" 
d="M442 133c-0.666992 -3.33301 -1.50391 -9.00195 -2.50391 -17.002s-1.5 -14 -1.5 -18c0 -10.667 1.16699 -22 3.5 -34s6.16602 -23.667 11.499 -35l-116 -46c-3.33301 6 -7.66602 14.667 -12.999 26s-9 25.333 -11 42c-9.33301 -9.33301 -19 -17.166 -29 -23.499
s-20 -12.166 -30 -17.499c-19.333 -9.33301 -36.666 -15.333 -51.999 -18s-28.333 -4 -39 -4c-18.667 0 -36.167 2.66699 -52.5 8s-29.5 12.333 -39.5 21c-6.66699 6 -13.5 15 -20.5 27s-10.5 27.667 -10.5 47c0 14.667 1.33301 30 4 46s4.66699 27.667 6 35l69 328l138 25
l-70 -329c-1.33301 -4 -2.66602 -11.333 -3.99902 -22s-2.66602 -18.667 -3.99902 -24c-1.33301 -6.66699 -2 -11.667 -2 -15v-8c0 -5.33301 0.666992 -10.166 2 -14.499s4 -8.83301 8 -13.5c6 -7.33301 14 -11 24 -11c5.33301 0 12.333 1.16699 21 3.5
s19.334 8.16602 32.001 17.499c22 14.667 40.333 33 55 55l71 333l135 27z" />
    <glyph glyph-name="afii10075" unicode="&#x439;" horiz-adv-x="539" 
d="M534 713c-9.33301 -18.667 -20.6689 -35.6689 -34.002 -51.002s-27 -27.666 -41 -36.999c-17.333 -11.333 -36.333 -19.666 -57 -24.999s-41.334 -8 -62.001 -8c-24 0 -44.667 3.16699 -62 9.5s-31.666 14.5 -42.999 24.5c-10 9.33301 -18.5 21.5 -25.5 36.5
s-11.167 31.833 -12.5 50.5l78 29c2 -6 5.33301 -12.167 10 -18.5s10.667 -12.166 18 -17.499c10 -6.66699 20 -10.667 30 -12s19.333 -2 28 -2c10 0 20.667 0.833008 32 2.5s22.333 5.5 33 11.5c6.66699 3.33301 14.334 8.66602 23.001 15.999s15.334 14 20.001 20z
M441.997 132.998c-2.66699 -12.667 -4 -25.333 -4 -38c0 -15.333 1.66699 -28.5 5 -39.5s6.66602 -19.833 9.99902 -26.5l-116 -46c-3.33301 6 -7.66602 14.667 -12.999 26s-9 25.333 -11 42c-9.33301 -8.66699 -19.166 -16.5 -29.499 -23.5s-20.5 -13.167 -30.5 -18.5
c-13.333 -6.66699 -27.833 -11.834 -43.5 -15.501s-31.834 -5.5 -48.501 -5.5c-35.333 0 -64.333 8.66699 -87 26s-34 43 -34 77c0 14.667 1.16699 29.334 3.5 44.001s4.5 27 6.5 37l69 328l138 25l-70 -329c-1.33301 -4 -2.83301 -11.5 -4.5 -22.5l-3.5 -23.5
c-1.33301 -6.66699 -2 -11.667 -2 -15v-8c0 -11.333 3 -20.333 9 -27c6.66699 -8 15 -12 25 -12c9.33301 0 19.333 2.5 30 7.5s21 11.333 31 19s19.167 16 27.5 25s14.833 17.167 19.5 24.5l71 333l135 27z" />
    <glyph glyph-name="afii10076" unicode="&#x43a;" horiz-adv-x="530" 
d="M17 0l105.999 499.999l137 25l-37 -164l-33 -105h2l24 42c10.667 18.667 21.834 37.167 33.501 55.5s28.167 38.166 49.5 59.499c13.333 13.333 27 25.5 41 36.5s29.667 21.167 47 30.5c18.667 10 39 18.833 61 26.5s44.333 13.834 67 18.501l25 -90l-20 -6
c-15.333 -4.66699 -31.666 -10.667 -48.999 -18s-34.833 -16.5 -52.5 -27.5s-34.834 -23.833 -51.501 -38.5s-32 -32 -46 -52c16 -1.33301 31.333 -4.66602 46 -9.99902s26.334 -14 35.001 -26c5.33301 -7.33301 9.66602 -16.666 12.999 -27.999s5.33301 -22 6 -32l2 -59
c0 -2.66699 0.5 -8.16699 1.5 -16.5s3.16699 -14.833 6.5 -19.5c5.33301 -6.66699 13 -11 23 -13l28 -8l-38 -91l-46 5c-15.333 1.33301 -30.5 4.83301 -45.5 10.5s-26.833 15.834 -35.5 30.501c-6.66699 11.333 -10.5 23.5 -11.5 36.5s-1.83301 24.833 -2.5 35.5l-2 68
c0 4 -0.5 8.16699 -1.5 12.5s-4.16699 8.16602 -9.5 11.499c-4 2.66699 -8.66699 4.5 -14 5.5s-10 1.5 -14 1.5c-21.333 -26 -41 -54.833 -59 -86.5s-38 -71.834 -60 -120.501h-126z" />
    <glyph glyph-name="afii10077" unicode="&#x43b;" horiz-adv-x="530" 
d="M372 420h-90.9961l-11 -45c-2.66699 -10 -6.83398 -26.667 -12.501 -50s-11.834 -46 -18.501 -68c-12.667 -43.333 -22.834 -76.166 -30.501 -98.499s-14.5 -39.833 -20.5 -52.5s-13.833 -26.167 -23.5 -40.5s-21.5 -26.833 -35.5 -37.5s-29.167 -18.167 -45.5 -22.5
s-34.5 -7.83301 -54.5 -10.5l-42 -5l-12 92l27 7c6 1.33301 15 4.66602 27 9.99902s22.667 13.666 32 24.999c7.33301 9.33301 13.666 19.333 18.999 30s10 21 14 31c8.66699 22 16.5 44 23.5 66s13.833 44.667 20.5 68c5.33301 18.667 10.5 38.334 15.5 59.001l17.5 70
l16 64h337l-109 -512h-132z" />
    <glyph glyph-name="afii10078" unicode="&#x43c;" horiz-adv-x="674" 
d="M476 0l36 266.002c1.33301 6.66699 2.16602 13.167 2.49902 19.5s1.5 14.833 3.5 25.5l3 12c1.33301 5.33301 2.33301 10.166 3 14.499s1.66699 9.16602 3 14.499l-10.5 -22.5l-11 -23c-3.66699 -7.66699 -7.16699 -14.5 -10.5 -20.5s-5.66602 -10.333 -6.99902 -13
l-152 -273h-102l-29 261c-1.33301 7.33301 -2.33301 18 -3 32s-1 28.667 -1 44v15c-3.33301 -18 -7.33301 -35.833 -12 -53.5s-8.33398 -30.834 -11.001 -39.501l-74 -259h-119l162 512h156l20 -253c0.666992 -8.66699 1.5 -16.5 2.5 -23.5s1.5 -15.167 1.5 -24.5v-33
c5.33301 13.333 11.833 28.333 19.5 45s13.834 29.334 18.501 38.001l132 251h154l-57 -512h-118z" />
    <glyph glyph-name="afii10079" unicode="&#x43d;" horiz-adv-x="537" 
d="M17 0l106 500l138 25l-45 -208h138l39 183l138 25l-112 -525h-132l47 223h-138l-47 -223h-132z" />
    <glyph glyph-name="afii10080" unicode="&#x43e;" horiz-adv-x="538" 
d="M365 348c0 9.33301 -0.995117 20.167 -2.99512 32.5s-7.66699 22.5 -17 30.5c-10 8.66699 -22 13 -36 13c-6.66699 0 -14.334 -1.16699 -23.001 -3.5s-18 -7.16602 -28 -14.499s-19.833 -17.833 -29.5 -31.5s-18.834 -31.834 -27.501 -54.501
c-4 -12 -8 -24.833 -12 -38.5s-7.5 -27.667 -10.5 -42s-5.5 -28.666 -7.5 -42.999s-3 -27.5 -3 -39.5c0 -8 1.16699 -17 3.5 -27s7.16602 -19 14.499 -27c12 -12 27.333 -18 46 -18c13.333 0 27.666 5 42.999 15s29.666 27 42.999 51c8 14 15 29.667 21 47
s10.833 34.666 14.5 51.999s6.5 34.5 8.5 51.5s3 32.5 3 46.5zM509.005 342.001c0 -41.333 -5.66602 -82.333 -16.999 -123s-27.666 -77 -48.999 -109c-16.667 -25.333 -35.167 -45.833 -55.5 -61.5s-41.333 -28 -63 -37s-42.834 -15.167 -63.501 -18.5s-40 -5 -58 -5
c-19.333 0 -40.333 2.83301 -63 8.5s-43.667 17.5 -63 35.5c-20.667 19.333 -34.334 41.333 -41.001 66s-10 50.667 -10 78c0 52 8.66699 100.667 26 146s42.333 85 75 119c6 6.66699 14.667 14.667 26 24s25 18.333 41 27s34.833 16.167 56.5 22.5s46.167 9.5 73.5 9.5
c36 0 65 -5.33301 87 -16s39 -21.667 51 -33c20 -20 32.833 -41.833 38.5 -65.5s8.5 -46.167 8.5 -67.5z" />
    <glyph glyph-name="afii10081" unicode="&#x43f;" horiz-adv-x="541" 
d="M217 529c8.66699 -20 13.0029 -44.334 13.0029 -73.001v-10c9.33301 10.667 20.166 20.834 32.499 30.501s25.166 17.834 38.499 24.501s28.833 12.167 46.5 16.5s36.167 6.5 55.5 6.5c20 0 36 -3 48 -9s21 -11.667 27 -17c10 -9.33301 17.167 -20.5 21.5 -33.5
s6.5 -28.167 6.5 -45.5c0 -10.667 -1 -23 -3 -37s-3.66699 -24.667 -5 -32l-74 -350h-132l71 333c1.33301 6.66699 2.83301 13.667 4.5 21s2.5 15.666 2.5 24.999c0 3.33301 -0.333008 7.5 -1 12.5s-3 9.16699 -7 12.5c-3.33301 2.66699 -7.16602 4.5 -11.499 5.5
s-8.83301 1.5 -13.5 1.5c-10.667 0 -21.334 -2 -32.001 -6s-20.667 -9.33301 -30 -16s-19 -15.5 -29 -26.5s-17.667 -20.5 -23 -28.5l-71 -334h-132l73 345c2 10.667 4 23 6 37s3 26 3 36s-0.833008 20.5 -2.5 31.5s-3.83398 21.167 -6.50098 30.5z" />
    <glyph glyph-name="afii10082" unicode="&#x440;" horiz-adv-x="555" 
d="M177 111c9.33301 -8 20.668 -13.666 34.001 -16.999s24.666 -5 33.999 -5c14 0 26.5 2.16699 37.5 6.5s20.167 10.166 27.5 17.499c9.33301 9.33301 18.166 21.166 26.499 35.499s15.166 29.5 20.499 45.5c3.33301 10 6.83301 21.5 10.5 34.5s6.83398 26.667 9.50098 41
s4.83398 28.833 6.50098 43.5s2.5 28 2.5 40c0 5.33301 -0.666992 12.833 -2 22.5s-5.33301 17.834 -12 24.501c-7.33301 7.33301 -17.666 11 -30.999 11c-10 0 -20.333 -1.83301 -31 -5.5s-20.334 -8.5 -29.001 -14.5c-10.667 -7.33301 -21.167 -16.833 -31.5 -28.5
s-18.833 -22.5 -25.5 -32.5zM219.002 529.001c2.66699 -4.66699 5.49902 -12.5049 8.49902 -23.5049s4.5 -27.833 4.5 -50.5v-8c23.333 25.333 49.5 44.5 78.5 57.5s56.5 19.5 82.5 19.5c16 0 33.167 -3.16699 51.5 -9.5s34.5 -18.166 48.5 -35.499
c15.333 -19.333 25.333 -40.5 30 -63.5s7 -43.5 7 -61.5c0 -2.66699 -0.333008 -10.5 -1 -23.5s-2.66699 -29.5 -6 -49.5s-8.5 -42.5 -15.5 -67.5s-17.167 -50.5 -30.5 -76.5c-12.667 -25.333 -27 -47.166 -43 -65.499s-36 -34.833 -60 -49.5
c-20 -12 -40.167 -20.667 -60.5 -26s-42.166 -8 -65.499 -8c-24.667 0 -44.834 2.16699 -60.501 6.5s-28.167 9.16602 -37.5 14.499v-5c0 -4 -0.333008 -7.66699 -1 -11s-1.66699 -7.66602 -3 -12.999l-35 -166l-136 -34l122 573c2 8.66699 3.66699 18.334 5 29.001
s2 22 2 34c0 10.667 -0.666992 21.334 -2 32.001s-3.66602 21.334 -6.99902 32.001z" />
    <glyph glyph-name="afii10083" unicode="&#x441;" horiz-adv-x="432" 
d="M385 380c-8 9.33301 -18.5078 17.999 -31.5078 25.999s-27.5 12 -43.5 12c-9.33301 0 -19.5 -2.16699 -30.5 -6.5s-21.833 -12.166 -32.5 -23.499c-10 -11.333 -18.667 -24.833 -26 -40.5s-13 -28.834 -17 -39.501c-7.33301 -20.667 -13.666 -44.334 -18.999 -71.001
s-8 -51 -8 -73c0 -8 0.666992 -16.667 2 -26s4.33301 -17.666 9 -24.999c10 -17.333 26.333 -26 49 -26c10.667 0 20.834 1.5 30.501 4.5s17.834 6.16699 24.501 9.5c8.66699 4 18 9.33301 28 16s19.333 13.667 28 21l45 -82c-19.333 -15.333 -38.166 -27.5 -56.499 -36.5
s-35.666 -15.833 -51.999 -20.5s-31.166 -7.66699 -44.499 -9s-24.666 -2 -33.999 -2c-25.333 0 -49.166 3.5 -71.499 10.5s-41.833 19.167 -58.5 36.5c-16 17.333 -27.333 37 -34 59s-10 46.333 -10 73c0 28.667 3.16699 57.167 9.5 85.5s15.166 55.333 26.499 81
s24.833 49.667 40.5 72s33.167 41.833 52.5 58.5c6 5.33301 14 11.5 24 18.5s21.833 13.5 35.5 19.5s29.334 11.167 47.001 15.5s37.5 6.5 59.5 6.5c8 0 17.167 -0.666992 27.5 -2s21.5 -4.16602 33.5 -8.49902s24.333 -10.5 37 -18.5s25 -18.333 37 -31z" />
    <glyph glyph-name="afii10084" unicode="&#x442;" horiz-adv-x="792" 
d="M216 529c4.66699 -13.333 7.83398 -24.832 9.50098 -34.499s2.5 -21.5 2.5 -35.5v-12c22 24 48.667 43.333 80 58c12.667 5.33301 26 9.83301 40 13.5s28.667 5.5 44 5.5c28 0 50.667 -7 68 -21s26.666 -32.667 27.999 -56c5.33301 6 14.666 14.667 27.999 26
s30 21.666 50 30.999c28.667 13.333 57.667 20 87 20c14.667 0 28.334 -2 41.001 -6s23.667 -10.667 33 -20c8.66699 -8 15.667 -18.5 21 -31.5s8 -29.5 8 -49.5c0 -10.667 -1 -22.167 -3 -34.5s-3.66699 -23.166 -5 -32.499l-74 -350h-130l72 338
c1.33301 6 2.66602 13 3.99902 21s2 15 2 21c0 3.33301 -0.333008 7.5 -1 12.5s-3 9.16699 -7 12.5c-2.66699 2.66699 -6.16699 4.33398 -10.5 5.00098s-8.16602 1 -11.499 1c-20.667 0 -41 -7.66699 -61 -23s-36 -33.333 -48 -54l-71 -334h-130l71 333
c1.33301 3.33301 2.83301 10.166 4.5 20.499s2.5 20.166 2.5 29.499c0 11.333 -2.33301 18.666 -7 21.999c-3.33301 2.66699 -7.5 4.33398 -12.5 5.00098s-8.83301 1 -11.5 1c-12 0 -22.5 -2.16699 -31.5 -6.5s-16.167 -8.5 -21.5 -12.5
c-9.33301 -7.33301 -19.333 -16.833 -30 -28.5s-19 -21.5 -25 -29.5l-71 -334h-130l75 350c2 10 3.5 22.167 4.5 36.5s1.5 25.5 1.5 33.5c0 11.333 -0.833008 22 -2.5 32s-3.5 19.333 -5.5 28z" />
    <glyph glyph-name="afii10085" unicode="&#x443;" 
d="M273 -8c-18 -32 -33.832 -57.8291 -47.499 -77.4961s-25.667 -35.5 -36 -47.5s-19.5 -21.167 -27.5 -27.5s-15.667 -11.833 -23 -16.5c-15.333 -9.33301 -33.333 -18.333 -54 -27s-47.334 -15.334 -80.001 -20.001l-27 90c13.333 2.66699 28 6.5 44 11.5
s31.333 11.833 46 20.5c18.667 11.333 34.5 24.833 47.5 40.5s26.833 36.167 41.5 61.5h-37c-1.33301 19.333 -2.5 35.5 -3.5 48.5s-2 24.667 -3 35s-2 20.166 -3 29.499s-2.16699 19.666 -3.5 30.999l-46 360l138 16l25 -299c1.33301 -13.333 2.33301 -29.333 3 -48
s1 -37.667 1 -57c4.66699 12 10 25 16 39l18.5 41.5l18 39c5.66699 12.333 11.167 23.166 16.5 32.499l129 244h144z" />
    <glyph glyph-name="afii10086" unicode="&#x444;" horiz-adv-x="760" 
d="M339 387c-9.33301 13.333 -19.667 21.332 -31 23.999s-20.333 4 -27 4c-21.333 0 -40 -9.33301 -56 -28c-7.33301 -9.33301 -14.666 -23.166 -21.999 -41.499s-13.833 -38.5 -19.5 -60.5s-10.334 -44.167 -14.001 -66.5s-5.5 -41.833 -5.5 -58.5
c0 -14.667 1.33301 -25.667 4 -33c6 -15.333 13.333 -24.833 22 -28.5s18.667 -5.5 30 -5.5c8.66699 0 18 1.5 28 4.5s21.333 10.167 34 21.5zM413.999 118.999c9.33301 -11.333 18.001 -18.501 26.001 -21.501s16.667 -4.5 26 -4.5c13.333 0 25 2.33301 35 7
s20.333 13.667 31 27c8 10 15.5 23.667 22.5 41s13.167 36.333 18.5 57s9.66602 41.334 12.999 62.001s5 39.667 5 57c0 18.667 -2 33 -6 43c-5.33301 11.333 -11.5 18.833 -18.5 22.5s-15.5 5.5 -25.5 5.5c-9.33301 0 -20 -1.83301 -32 -5.5s-24.667 -11.167 -38 -22.5z
M346 -202.002l-132 -0.00292969l46 218c-18 -13.333 -34.667 -21.333 -50 -24s-27.666 -4 -36.999 -4c-33.333 0 -59.5 6.83301 -78.5 20.5s-32.833 27.834 -41.5 42.501c-9.33301 14 -16 30.667 -20 50s-6 40.666 -6 63.999c0 26 2.66699 53.333 8 82s13 56.667 23 84
s22 52.833 36 76.5s30 43.834 48 60.501c22 20.667 44.5 35.167 67.5 43.5s44.167 12.5 63.5 12.5c12 0 26.333 -2 43 -6s31.667 -13 45 -27l47 218l139 32l-54 -250c16.667 12 34.167 20.5 52.5 25.5s34.833 7.5 49.5 7.5c15.333 0 33.166 -3.5 53.499 -10.5
s38.166 -22.167 53.499 -45.5c10 -15.333 17.333 -32.833 22 -52.5s7 -40.167 7 -61.5c0 -28 -3.16699 -56.667 -9.5 -86s-15 -57.666 -26 -84.999s-23.5 -52.5 -37.5 -75.5s-28.333 -41.833 -43 -56.5c-26 -25.333 -52 -42.166 -78 -50.499s-49.333 -12.5 -70 -12.5
c-11.333 0 -23.666 1.66699 -36.999 5s-26 11 -38 23z" />
    <glyph glyph-name="afii10087" unicode="&#x445;" horiz-adv-x="458" 
d="M309 265l127.999 -265h-158l-25 68c-3.33301 10 -7.33301 20.333 -12 31s-9.66699 24 -15 40l-4 14c-1.33301 4.66699 -2.66602 10.667 -3.99902 18l-19.5 -28l-25.5 -35l-35.5 -46.5l-49.5 -61.5h-176l251 276l-96 213l138 37c8.66699 -19.333 17.5 -41.833 26.5 -67.5
s18.167 -54.167 27.5 -85.5c7.33301 12 16 25.167 26 39.5l29 41.5l17.5 22.5c5.66699 7 14.167 18.833 25.5 35.5h162z" />
    <glyph glyph-name="afii10088" unicode="&#x446;" horiz-adv-x="547" 
d="M445 160c-3.33301 -16.667 -4.99902 -29.999 -4.99902 -39.999c0 -8.66699 1 -17.334 3 -26.001h64l-55 -259h-123l35 165h-28c-8.66699 7.33301 -14.834 15.5 -18.501 24.5s-6.16699 17.833 -7.5 26.5c-9.33301 -8.66699 -19.166 -16.5 -29.499 -23.5
s-20.5 -13.167 -30.5 -18.5c-13.333 -6.66699 -27.833 -11.834 -43.5 -15.501s-31.834 -5.5 -48.501 -5.5c-35.333 0 -64.333 8.66699 -87 26s-34 43 -34 77c0 14.667 1.16699 29.334 3.5 44.001s4.5 27 6.5 37l69 328l138 25l-70 -329
c-1.33301 -4 -2.83301 -11.5 -4.5 -22.5l-3.5 -23.5c-1.33301 -6.66699 -2 -11.667 -2 -15v-8c0 -11.333 3 -20.333 9 -27c6.66699 -8 15.667 -12 27 -12s22.333 2.83301 33 8.5s19.667 11.5 27 17.5c10 8 18.667 16 26 24s14 16.667 20 26l71 333l135 27z" />
    <glyph glyph-name="afii10089" unicode="&#x447;" horiz-adv-x="490" 
d="M485 525l-112.001 -524.999h-132l42 198c-17.333 -6.66699 -35.166 -11.667 -53.499 -15s-35.166 -5 -50.499 -5c-32 0 -56.667 4.83301 -74 14.5s-29.666 20.167 -36.999 31.5c-5.33301 8 -9 16.5 -11 25.5s-3 18.167 -3 27.5c0 8 0.666992 16 2 24l4 23l37 176l138 25
l-40 -188l-2 -12c-0.666992 -4 -1 -8.33301 -1 -13c0 -10 2.66699 -18.667 8 -26c5.33301 -6.66699 11.666 -10.667 18.999 -12s13.666 -2 18.999 -2c8 0 17.833 1.16699 29.5 3.5s23.167 6.16602 34.5 11.499l45 213z" />
    <glyph glyph-name="afii10090" unicode="&#x448;" horiz-adv-x="791" 
d="M777 524l-77.001 -362.997c-2.66699 -12 -4.16699 -26.5 -4.5 -43.5s-0.5 -31.5 -0.5 -43.5c0 -7.33301 0.666992 -14.5 2 -21.5s3 -14.167 5 -21.5l-124 -49c-4.66699 13.333 -7.83398 24.833 -9.50098 34.5s-2.5 21.5 -2.5 35.5v12
c-22.667 -23.333 -48.5 -41.833 -77.5 -55.5s-57.833 -20.5 -86.5 -20.5s-51.167 6.83301 -67.5 20.5s-25.166 32.167 -26.499 55.5c-20 -21.333 -44.5 -39.333 -73.5 -54s-59.5 -22 -91.5 -22c-14 0 -27.333 1.83301 -40 5.5s-23.667 9.66699 -33 18
s-16.833 19.166 -22.5 32.499s-8.5 30 -8.5 50c0 7.33301 0.5 15.833 1.5 25.5s3.5 23.5 7.5 41.5l71 339l135 24l-74 -351c-3.33301 -13.333 -5.16602 -23.333 -5.49902 -30s-0.5 -11.334 -0.5 -14.001s0.166992 -5.66699 0.5 -9s1.5 -6.5 3.5 -9.5s5 -5.5 9 -7.5
s9.66699 -3 17 -3c19.333 0 39 7.16699 59 21.5s36.667 32.833 50 55.5l68 323l132 24l-73 -346c-3.33301 -13.333 -5.33301 -23.333 -6 -30s-1 -13.334 -1 -20.001c0 -2 0.166992 -4.5 0.5 -7.5s1.5 -6 3.5 -9s5 -5.66699 9 -8s9.66699 -3.5 17 -3.5
c22 0 42.167 7.66699 60.5 23s34.833 33.333 49.5 54l68 323z" />
    <glyph glyph-name="afii10091" unicode="&#x449;" horiz-adv-x="800" 
d="M698 161c-1.33301 -7.33301 -2.50391 -14.3301 -3.50391 -20.9971s-1.5 -13 -1.5 -19c0 -9.33301 1 -18.333 3 -27h64l-55 -259h-123l35 165h-28c-9.33301 7.33301 -15.833 15.833 -19.5 25.5s-5.5 19.834 -5.5 30.501v8c-22.667 -23.333 -48.5 -41.833 -77.5 -55.5
s-57.833 -20.5 -86.5 -20.5s-51.167 6.83301 -67.5 20.5s-25.166 32.167 -26.499 55.5c-20 -21.333 -44.5 -39.333 -73.5 -54s-59.5 -22 -91.5 -22c-14 0 -27.333 1.83301 -40 5.5s-23.667 9.66699 -33 18s-16.833 19.166 -22.5 32.499s-8.5 30 -8.5 50
c0 7.33301 0.5 15.833 1.5 25.5s3.5 23.5 7.5 41.5l71 339l135 24l-74 -351c-3.33301 -13.333 -5.16602 -23.333 -5.49902 -30s-0.5 -11.334 -0.5 -14.001s0.333008 -6.33398 1 -11.001s3.33398 -8.66699 8.00098 -12c6 -4 13 -6 21 -6c10.667 0 21.5 2.33301 32.5 7
s21.5 10.667 31.5 18c9.33301 7.33301 17.833 15.5 25.5 24.5s14.167 18.167 19.5 27.5l68 323l132 24l-73 -346c-3.33301 -13.333 -5.33301 -23.333 -6 -30s-1 -13.334 -1 -20.001c0 -2.66699 0.333008 -6 1 -10s3 -7.66699 7 -11c3.33301 -3.33301 7 -5.33301 11 -6
s7.66699 -1 11 -1c10 0 20.167 2 30.5 6s19.833 9.33301 28.5 16c8 6 16.833 14.333 26.5 25s17.834 20.667 24.501 30l68 323l136 24z" />
    <glyph glyph-name="afii10092" unicode="&#x44a;" horiz-adv-x="565" 
d="M230 94c7.33301 -3.33301 15.501 -5.66602 24.501 -6.99902s17.5 -2 25.5 -2c19.333 0 34.833 2.16699 46.5 6.5s20.5 9.16602 26.5 14.499c9.33301 8 16.5 18.667 21.5 32s7.5 27 7.5 41c0 7.33301 -0.833008 15.333 -2.5 24s-7.16699 16.334 -16.5 23.001
c-7.33301 5.33301 -15.5 8.66602 -24.5 9.99902s-17.167 2 -24.5 2c-12.667 0 -23.334 -1 -32.001 -3s-16 -4 -22 -6zM283.001 324c16.667 3.33301 31.5029 5.66797 44.5029 7.00098s26.167 2 39.5 2c7.33301 0 15.833 -0.333008 25.5 -1s19.834 -2.16699 30.501 -4.5
s21.167 -5.66602 31.5 -9.99902s19.833 -9.83301 28.5 -16.5c17.333 -13.333 28.666 -28.333 33.999 -45s8 -33.667 8 -51c0 -24.667 -4.83301 -50.5 -14.5 -77.5s-26.834 -51.5 -51.501 -73.5c-16.667 -14.667 -34.334 -26.334 -53.001 -35.001
s-37.5 -15.334 -56.5 -20.001s-37.667 -7.66699 -56 -9s-35.5 -2 -51.5 -2c-32.667 0 -61.334 2.33301 -86.001 7s-50 12.667 -76 24l92 399h-127l39 94h242z" />
    <glyph glyph-name="afii10093" unicode="&#x44b;" horiz-adv-x="756" 
d="M613 500l138 25l-112 -525h-132zM168 94c2.66699 -1.33301 8.16797 -3.16211 16.501 -5.49512s19.833 -3.5 34.5 -3.5c19.333 0 34.666 2.16699 45.999 6.5s20 9.16602 26 14.499c7.33301 7.33301 13.833 17 19.5 29s8.5 26.667 8.5 44c0 7.33301 -1 15.166 -3 23.499
s-7.66699 16.166 -17 23.499c-7.33301 5.33301 -14.833 8.66602 -22.5 9.99902s-15.167 2 -22.5 2c-5.33301 0 -13.333 -0.333008 -24 -1s-21.667 -2.33398 -33 -5.00098zM217.001 324.004c14 3.33301 28.6689 5.66895 44.002 7.00195s28.666 2 39.999 2
c19.333 0 39.833 -2.33301 61.5 -7s40.167 -13 55.5 -25c16.667 -13.333 28 -28.333 34 -45s9 -33.667 9 -51c0 -24.667 -4.5 -50.5 -13.5 -77.5s-25.5 -51.5 -49.5 -73.5c-16 -14.667 -33.333 -26.334 -52 -35.001s-37.5 -15.334 -56.5 -20.001s-37.667 -7.66699 -56 -9
s-35.5 -2 -51.5 -2c-32.667 0 -61.334 2.33301 -86.001 7s-50 12.667 -76 24l102 481l138 25z" />
    <glyph glyph-name="afii10094" unicode="&#x44c;" horiz-adv-x="497" 
d="M168 94c2.66699 -1.33301 8.16797 -3.16211 16.501 -5.49512s19.833 -3.5 34.5 -3.5c19.333 0 34.666 2.16699 45.999 6.5s20 9.16602 26 14.499c7.33301 7.33301 13.833 17 19.5 29s8.5 26.667 8.5 44c0 7.33301 -1 15.166 -3 23.499s-7.66699 16.166 -17 23.499
c-7.33301 5.33301 -14.833 8.66602 -22.5 9.99902s-15.167 2 -22.5 2c-5.33301 0 -13.333 -0.333008 -24 -1s-21.667 -2.33398 -33 -5.00098zM217.001 324.004c14 3.33301 28.6689 5.66895 44.002 7.00195s28.666 2 39.999 2c19.333 0 39.833 -2.33301 61.5 -7
s40.167 -13 55.5 -25c16.667 -13.333 28 -28.333 34 -45s9 -33.667 9 -51c0 -24.667 -4.5 -50.5 -13.5 -77.5s-25.5 -51.5 -49.5 -73.5c-16 -14.667 -33.333 -26.334 -52 -35.001s-37.5 -15.334 -56.5 -20.001s-37.667 -7.66699 -56 -9s-35.5 -2 -51.5 -2
c-32.667 0 -61.334 2.33301 -86.001 7s-50 12.667 -76 24l102 481l138 25z" />
    <glyph glyph-name="afii10095" unicode="&#x44d;" horiz-adv-x="463" 
d="M158 317l127.993 0.00390625c0.666992 4 1.5 9.33301 2.5 16s1.5 13 1.5 19c0 7.33301 -0.666992 15.166 -2 23.499s-3.66602 15.5 -6.99902 21.5c-4 7.33301 -10.333 13.833 -19 19.5s-21.667 8.5 -39 8.5c-14.667 0 -27.667 -1.66699 -39 -5
s-20.666 -6.66602 -27.999 -9.99902c-3.33301 -1.33301 -8.66602 -4 -15.999 -8s-15.666 -9.66699 -24.999 -17l-44 83c4.66699 4 12.167 9.16699 22.5 15.5s23.333 12.833 39 19.5s33.834 12.334 54.501 17.001s43.667 7 69 7c10.667 0 22.334 -0.833008 35.001 -2.5
s25.334 -4.83398 38.001 -9.50098s24.834 -11.167 36.501 -19.5s22.167 -18.833 31.5 -31.5c1.33301 -2 4 -6.33301 8 -13s8 -15.834 12 -27.501s7.5 -25.834 10.5 -42.501s4.5 -36.334 4.5 -59.001c0 -20.667 -2 -42.834 -6 -66.501s-10 -47.334 -18 -71.001
s-18 -46.167 -30 -67.5s-26.333 -40 -43 -56c-8.66699 -8 -19 -16.333 -31 -25s-26.167 -16.5 -42.5 -23.5s-34.833 -12.833 -55.5 -17.5s-43.667 -7 -69 -7c-21.333 0 -40.5 2 -57.5 6s-34.167 10.333 -51.5 19c-12 6 -22.5 12.333 -31.5 19s-17.833 15.334 -26.5 26.001
l79 81c13.333 -16 28.666 -28.167 45.999 -36.5s35 -12.5 53 -12.5c14.667 0 29.834 2.33301 45.501 7s29.5 15.667 41.5 33c7.33301 10 13.166 22.5 17.499 37.5s7.5 27.167 9.5 36.5l4 19h-128z" />
    <glyph glyph-name="afii10096" unicode="&#x44e;" horiz-adv-x="776" 
d="M556 424c-7.33301 0 -15.332 -1.16699 -23.999 -3.5s-17.834 -7.16602 -27.501 -14.499s-19 -17.833 -28 -31.5s-17.5 -31.834 -25.5 -54.501c-3.33301 -9.33301 -6.83301 -20.333 -10.5 -33s-7.16699 -26.334 -10.5 -41.001s-6.16602 -29.667 -8.49902 -45
s-3.5 -30 -3.5 -44c0 -7.33301 0.833008 -15.833 2.5 -25.5s5.83398 -18.167 12.501 -25.5c4 -4.66699 9.16699 -8.83398 15.5 -12.501s14.166 -5.5 23.499 -5.5c20 0 36.167 5.5 48.5 16.5s22.166 23.167 29.499 36.5c8 12.667 15.167 27.167 21.5 43.5s12 33.333 17 51
s8.83301 35.5 11.5 53.5s4 35.333 4 52c0 24.667 -2.16699 41.834 -6.5 51.501s-7.83301 15.834 -10.5 18.501c-4 4 -8.83301 7.16699 -14.5 9.5s-11.167 3.5 -16.5 3.5zM305.001 317c8.66699 28 20.167 53.166 34.5 75.499s30.166 41.5 47.499 57.5
c23.333 21.333 50 38.666 80 51.999s63 20 99 20c18 0 37.667 -2.5 59 -7.5s41 -14.5 59 -28.5s33 -33.667 45 -59s18 -58.333 18 -99c0 -38.667 -5.66699 -77.167 -17 -115.5s-27.666 -72.5 -48.999 -102.5c-10 -14 -22 -28 -36 -42s-30.333 -26.833 -49 -38.5
s-39.834 -21.167 -63.501 -28.5s-50.167 -11 -79.5 -11c-25.333 0 -49.5 3.5 -72.5 10.5s-43.167 20.5 -60.5 40.5c-17.333 19.333 -28.666 40.833 -33.999 64.5s-8 45.834 -8 66.501c0 10.667 0.333008 20.334 1 29.001s1.66699 16 3 22h-86l-47 -223h-132l106 500l138 25
l-45 -208h89z" />
    <glyph glyph-name="afii10097" unicode="&#x44f;" horiz-adv-x="516" 
d="M361 419c-3.33301 1.33301 -8.5 2.66699 -15.5 4s-17.167 2 -30.5 2c-11.333 0 -22.833 -1.33301 -34.5 -4s-21.834 -7.33398 -30.501 -14.001c-9.33301 -6.66699 -17.166 -16 -23.499 -28s-9.5 -26 -9.5 -42c0 -13.333 2 -23.166 6 -29.499s7.66699 -10.833 11 -13.5
c8 -6.66699 17.667 -10.667 29 -12s19.333 -2 24 -2h45zM282 195.001c-7.33301 0 -14.9971 -0.666016 -22.9971 -1.99902s-16.667 -5 -26 -11c-10 -6.66699 -18 -14.5 -24 -23.5s-10.667 -17.5 -14 -25.5l-19 -43c-6 -13.333 -12.167 -25.333 -18.5 -36s-13.5 -20 -21.5 -28
c-13.333 -12.667 -28.833 -21.167 -46.5 -25.5s-38.5 -7.16602 -62.5 -8.49902l-47 -2l-5 92l19 4c2 0.666992 6.66699 2 14 4s13.666 4.66699 18.999 8c9.33301 5.33301 16.333 11.666 21 18.999l12 19l22 37c6 10 11.667 18.167 17 24.5s12.333 12.833 21 19.5
c8 6 15.667 10.833 23 14.5s15.666 6.16699 24.999 7.5c-27.333 6 -48.666 19 -63.999 39c-13.333 17.333 -20 37.666 -20 60.999c0 27.333 6.83301 54 20.5 80s35.5 47.667 65.5 65c4.66699 2.66699 11.5 6.16699 20.5 10.5s20.167 8.5 33.5 12.5s29.166 7.5 47.499 10.5
s39.166 4.5 62.499 4.5c20 0 39 -1 57 -3s34.667 -4.33301 50 -7s28.833 -5.5 40.5 -8.5l28.5 -7.5l-106 -496h-132l41 195h-31z" />
    <glyph glyph-name="afii10071" unicode="&#x451;" horiz-adv-x="506" 
d="M201 308c5.33301 -1.33301 11.002 -2.5 17.002 -3.5s13 -1.5 21 -1.5c11.333 0 25.166 1 41.499 3s31.166 6.66699 44.499 14c12 6 21.5 13.5 28.5 22.5s10.5 20.167 10.5 33.5c0 17.333 -4.66699 30 -14 38c-3.33301 3.33301 -8 6.33301 -14 9s-14.667 4 -26 4
c-16 0 -29.833 -3 -41.5 -9s-22.167 -14.333 -31.5 -25c-10 -12 -18 -26.167 -24 -42.5s-10 -30.5 -12 -42.5zM436.002 58c-22 -16 -43.1641 -28.5029 -63.4971 -37.5029s-39.333 -16 -57 -21s-34 -8.16699 -49 -9.5s-27.833 -2 -38.5 -2s-22.334 0.5 -35.001 1.5
s-25.5 3.33301 -38.5 7s-25.833 9 -38.5 16s-24.334 16.167 -35.001 27.5c-17.333 18 -29.5 38.833 -36.5 62.5s-10.5 48.167 -10.5 73.5s2.83301 51.333 8.5 78s13.5 52.334 23.5 77.001s22 47.834 36 69.501s29.667 40.5 47 56.5c16.667 15.333 33.167 27.5 49.5 36.5
s32.166 15.667 47.499 20s29.666 7.16602 42.999 8.49902s25.333 2 36 2c34 0 61.333 -3.83301 82 -11.5s37 -16.167 49 -25.5c3.33301 -2.66699 7.5 -6.66699 12.5 -12s9.66699 -12 14 -20s8.16602 -17.833 11.499 -29.5s5 -25.167 5 -40.5c0 -16 -2 -30.333 -6 -43
s-9 -23.834 -15 -33.501s-12.667 -18.167 -20 -25.5s-14.333 -13.666 -21 -18.999c-28 -21.333 -58.667 -35.833 -92 -43.5s-68.333 -11.5 -105 -11.5c-11.333 0 -21.5 0.333008 -30.5 1s-19.167 2.66699 -30.5 6c-3.33301 -15.333 -5 -30.666 -5 -45.999
c0 -18 2.66699 -32.333 8 -43s11.666 -18.667 18.999 -24c9.33301 -7.33301 19.833 -11.666 31.5 -12.999s20.834 -2 27.501 -2c28.667 0 55.334 6 80.001 18s45.334 24 62.001 36zM294.005 626.997c0 -19.333 -7 -35.834 -21 -49.501s-30 -20.5 -48 -20.5
s-34 6.83301 -48 20.5s-21 30.167 -21 49.5c0 18.667 7 34.834 21 48.501s30.333 20.5 49 20.5s34.667 -7 48 -21s20 -30 20 -48zM484.005 626.996c0 -19.333 -7.00098 -35.832 -21.001 -49.499s-30 -20.5 -48 -20.5c-19.333 0 -35.666 7 -48.999 21s-20 30.333 -20 49
c0 18 6.83301 34 20.5 48s30.167 21 49.5 21c18.667 0 34.667 -6.83301 48 -20.5s20 -29.834 20 -48.501z" />
    <glyph glyph-name="afii10099" unicode="&#x452;" horiz-adv-x="565" 
d="M314 750l-24.0029 -117h195l-38 -68h-172l-14 -66l-11 -43c25.333 19.333 52.166 33.333 80.499 42s53.833 13 76.5 13c16 0 33.833 -2.83301 53.5 -8.5s35.167 -14.834 46.5 -27.501c7.33301 -8.66699 12.5 -18.5 15.5 -29.5s4.5 -22.5 4.5 -34.5
c0 -9.33301 -0.666992 -18.666 -2 -27.999s-3 -18.666 -5 -27.999l-64 -301c-3.33301 -14.667 -7.5 -30.834 -12.5 -48.501s-11.5 -35.667 -19.5 -54s-18 -36.333 -30 -54s-26.667 -34.167 -44 -49.5c-13.333 -12 -29.666 -24 -48.999 -36s-40.666 -22.667 -63.999 -32
l-40 74l16 13.5l17.5 15c5.66699 5 10.834 9.83301 15.501 14.5l12 12c14 15.333 27 35.333 39 60s21 51.667 27 81l59 279c1.33301 5.33301 2.33301 10.833 3 16.5s1 11.167 1 16.5c0 10.667 -2.66699 19.5 -8 26.5s-15.666 10.5 -30.999 10.5
c-18 0 -37.833 -4.5 -59.5 -13.5s-41.167 -20.167 -58.5 -33.5l-75 -352h-132l120 565h-51l15 68h51l18 85z" />
    <glyph glyph-name="afii10100" unicode="&#x453;" horiz-adv-x="438" 
d="M206 554l-40 75l231 133l48 -105zM81 467c11.333 8.66699 22.3262 15.6689 32.9932 21.002s22.334 10.333 35.001 15c19.333 7.33301 39.333 12.833 60 16.5s42.334 5.5 65.001 5.5c17.333 0 36.5 -2.33301 57.5 -7s40.167 -14.667 57.5 -30
c18 -16 29.5 -32.833 34.5 -50.5s7.5 -34.5 7.5 -50.5c0 -19.333 -2.66699 -37 -8 -53s-15.666 -31.667 -30.999 -47c-16 -16.667 -33.667 -29.834 -53 -39.501s-38 -17.5 -56 -23.5l-35 -12c-26 -9.33301 -46.833 -16.5 -62.5 -21.5s-28.167 -11.5 -37.5 -19.5
c-6.66699 -5.33301 -11.5 -11 -14.5 -17s-4.5 -13.667 -4.5 -23c0 -12 3.66699 -21.667 11 -29s16.333 -11.666 27 -12.999s19 -2 25 -2c22.667 0 43.334 2.66699 62.001 8s34.667 11 48 17c7.33301 3.33301 14.666 7.16602 21.999 11.499l22 13.5l32 -91l-14 -9
c-12 -8 -26 -15 -42 -21s-30.667 -10.667 -44 -14c-32.667 -8.66699 -67.334 -13 -104.001 -13c-19.333 0 -39.666 2.16699 -60.999 6.5s-40.666 13.833 -57.999 28.5c-14 12 -25 27 -33 45s-12 37.667 -12 59c0 17.333 3.16699 35.333 9.5 54s18.833 36.334 37.5 53.001
c10 9.33301 23.333 18.5 40 27.5s39 18.167 67 27.5l27 9c18.667 6 34 11.5 46 16.5l29.5 12.5c7.66699 3.33301 13.334 6.33301 17.001 9s6.5 4.66699 8.5 6c4 3.33301 8.33301 8.33301 13 15s7 15 7 25c0 9.33301 -1.83301 16.5 -5.5 21.5s-8.16699 9.16699 -13.5 12.5
s-12 5.66602 -20 6.99902s-15.333 2 -22 2c-11.333 0 -24.166 -1.33301 -38.499 -4s-27.166 -6.33398 -38.499 -11.001c-8.66699 -3.33301 -17.5 -7.5 -26.5 -12.5s-16.5 -9.83301 -22.5 -14.5z" />
    <glyph glyph-name="afii10101" unicode="&#x454;" horiz-adv-x="430" 
d="M176 223l-4.99512 -18.998c-2 -8.66699 -3.83301 -17 -5.5 -25s-2.5 -16.667 -2.5 -26c0 -5.33301 0.833008 -12.5 2.5 -21.5s6.16699 -17.5 13.5 -25.5c9.33301 -9.33301 19.833 -15 31.5 -17s20.5 -3 26.5 -3c16 0 30.833 2 44.5 6s26.834 9.66699 39.501 17
c7.33301 4 14.166 8.5 20.499 13.5s11.833 9.16699 16.5 12.5l44 -77c-7.33301 -6 -16.5 -12.667 -27.5 -20s-20.833 -13.333 -29.5 -18c-28 -15.333 -53.833 -24.5 -77.5 -27.5s-41.167 -4.5 -52.5 -4.5c-9.33301 0 -19.5 0.5 -30.5 1.5s-22.5 3 -34.5 6
s-24.167 7.66699 -36.5 14s-23.833 14.5 -34.5 24.5c-11.333 10.667 -20.5 22.167 -27.5 34.5s-12.333 24.666 -16 36.999s-6.16699 24.5 -7.5 36.5s-2 23.333 -2 34c0 18.667 1.5 36.667 4.5 54s6.16699 32.833 9.5 46.5s6.66602 25.167 9.99902 34.5
s5.66602 15.333 6.99902 18c3.33301 8 7.66602 17.5 12.999 28.5s11.5 22.667 18.5 35s15 24.5 24 36.5s18.833 23 29.5 33c21.333 20 46.166 35.833 74.499 47.5s61.5 17.5 99.5 17.5s72.333 -6.66699 103 -20c12 -5.33301 22.333 -11 31 -17s17 -13.333 25 -22l-77 -79
c-8 8.66699 -18.333 17 -31 25c-10 5.33301 -19.667 9.16602 -29 11.499s-20 3.5 -32 3.5c-18.667 0 -33.334 -2.83301 -44.001 -8.5s-18.667 -11.167 -24 -16.5c-9.33301 -8.66699 -17.333 -20.167 -24 -34.5s-11.667 -27.5 -15 -39.5l-3 -13h133l-20 -94h-133z" />
    <glyph glyph-name="afii10102" unicode="&#x455;" horiz-adv-x="468" 
d="M406 390c-24 14 -47.333 23.1641 -70 27.4971s-40.667 6.5 -54 6.5c-8 0 -17.167 -0.833008 -27.5 -2.5s-20.166 -5.83398 -29.499 -12.501c-7.33301 -5.33301 -12.166 -11.333 -14.499 -18s-3.5 -13 -3.5 -19c0 -7.33301 1.16699 -13 3.5 -17s4.83301 -7.33301 7.5 -10
c6 -6.66699 12.833 -11.667 20.5 -15s15.167 -6.33301 22.5 -9l57 -20c14 -5.33301 27.5 -12 40.5 -20s24.167 -17.667 33.5 -29c8 -10 14.5 -21.667 19.5 -35s7.5 -27.666 7.5 -42.999c0 -25.333 -6 -50.166 -18 -74.499s-29.333 -45.166 -52 -62.499
c-19.333 -14.667 -43.5 -26.5 -72.5 -35.5s-63.167 -13.5 -102.5 -13.5c-26.667 0 -56.5 3.83301 -89.5 11.5s-68.5 22.834 -106.5 45.501l53 96c26.667 -17.333 54.167 -30.333 82.5 -39s52.833 -13 73.5 -13c9.33301 0 20 1.33301 32 4s23.333 8.66699 34 18
c5.33301 5.33301 9.83301 11.333 13.5 18s5.5 13.667 5.5 21c0 4 -0.833008 8.66699 -2.5 14s-5.16699 10.666 -10.5 15.999c-6.66699 5.33301 -15 10 -25 14s-18.667 7.33301 -26 10l-56 20c-12.667 4.66699 -24.334 10 -35.001 16s-20.667 14.667 -30 26
c-8.66699 10.667 -15.5 23.167 -20.5 37.5s-7.5 30.166 -7.5 47.499c0 7.33301 0.666992 16 2 26s4.16602 20.5 8.49902 31.5s10.5 22.333 18.5 34s18.667 22.834 32 33.501c20.667 16 45 28 73 36s58 12 90 12c43.333 0 79.333 -5.16699 108 -15.5s51 -20.166 67 -29.499z
" />
    <glyph glyph-name="afii10103" unicode="&#x456;" horiz-adv-x="268" 
d="M152 0h-132l107 503l136 21zM307 653c0 -23.333 -8 -43 -24 -59s-35.667 -24 -59 -24s-42.833 8 -58.5 24s-23.5 35.667 -23.5 59s8.16699 43 24.5 59s36.166 24 59.499 24c22.667 0 41.834 -8 57.501 -24s23.5 -35.667 23.5 -59z" />
    <glyph glyph-name="afii10104" unicode="&#x457;" horiz-adv-x="270" 
d="M188 635c0 -20.667 -7.50195 -38.667 -22.502 -54s-33.167 -23 -54.5 -23c-10 0 -19.667 2.16699 -29 6.5s-17.5 10 -24.5 17s-12.5 15.167 -16.5 24.5s-6 19 -6 29c0 20.667 7.83301 38.667 23.5 54s33.834 23 54.501 23s38.334 -7.66699 53.001 -23s22 -33.333 22 -54z
M398.998 635c0 -20.667 -7.50195 -38.667 -22.502 -54s-33.167 -23 -54.5 -23s-39.333 7.66699 -54 23s-22 33.333 -22 54c0 10 2 19.667 6 29s9.5 17.5 16.5 24.5s15.333 12.667 25 17s19.834 6.5 30.501 6.5c20.667 0 38.334 -7.5 53.001 -22.5s22 -33.167 22 -54.5z
M153.996 0h-134l107 503l138 21z" />
    <glyph glyph-name="afii10105" unicode="&#x458;" horiz-adv-x="258" 
d="M147 14c-5.33301 -25.333 -11.332 -47.001 -17.999 -65.001s-13.167 -33.333 -19.5 -46s-12.5 -22.667 -18.5 -30s-11.333 -13.333 -16 -18c-8 -8 -22 -19.667 -42 -35s-46 -28.666 -78 -39.999l-42 78c9.33301 4.66699 19.333 11 30 19s21.667 19.667 33 35
c10.667 14 18.167 28 22.5 42s9.16602 32.667 14.499 56l105 493l137 21zM299.001 652.999c0 -23.333 -8 -43 -24 -59s-35.667 -24 -59 -24s-42.833 8 -58.5 24s-23.5 35.667 -23.5 59s8.16699 43 24.5 59s36.166 24 59.499 24c22.667 0 41.834 -8 57.501 -24
s23.5 -35.667 23.5 -59z" />
    <glyph glyph-name="afii10106" unicode="&#x459;" horiz-adv-x="748" 
d="M425 94c2.66699 -1.33301 8.16797 -3.16406 16.501 -5.49707s19.833 -3.5 34.5 -3.5c19.333 0 34.666 2.16699 45.999 6.5s20 9.16602 26 14.499c7.33301 7.33301 13.833 17 19.5 29s8.5 26.667 8.5 44c0 7.33301 -1 15.166 -3 23.499s-7.66699 16.166 -17 23.499
c-7.33301 5.33301 -15 8.66602 -23 9.99902s-16.667 2 -26 2c-14 0 -25.333 -0.666992 -34 -2s-15 -2.66602 -19 -3.99902zM474.001 324.002c14 3.33301 28.6729 5.66699 44.0059 7s28.666 2 39.999 2c19.333 0 39.833 -2.33301 61.5 -7s40.167 -13 55.5 -25
c16.667 -13.333 28 -28.333 34 -45s9 -33.667 9 -51c0 -30 -5.33301 -58 -16 -84s-26.334 -48.333 -47.001 -67c-28 -25.333 -60.833 -42.333 -98.5 -51s-76.5 -13 -116.5 -13c-32 0 -60.5 2.33301 -85.5 7s-50.833 12.667 -77.5 24l85 399h-91l-11 -45
c-2.66699 -10 -6.83398 -26.667 -12.501 -50s-11.834 -46 -18.501 -68c-12.667 -43.333 -22.834 -76.166 -30.501 -98.499s-14.5 -39.833 -20.5 -52.5s-13.833 -26.167 -23.5 -40.5s-21.5 -26.833 -35.5 -37.5s-29.167 -18.167 -45.5 -22.5s-34.5 -7.83301 -54.5 -10.5
l-42 -5l-12 92l27 7c6 1.33301 15 4.66602 27 9.99902s22.667 13.666 32 24.999c7.33301 9.33301 13.666 19.333 18.999 30s10 21 14 31c8.66699 22 16.5 44 23.5 66s13.833 44.667 20.5 68c5.33301 18.667 10.5 38.334 15.5 59.001l17.5 70l16 64h337z" />
    <glyph glyph-name="afii10107" unicode="&#x45a;" horiz-adv-x="768" 
d="M439 94c2.66699 -1.33301 8.16797 -3.16406 16.501 -5.49707s19.833 -3.5 34.5 -3.5c19.333 0 34.666 2.16699 45.999 6.5s20 9.16602 26 14.499c7.33301 7.33301 13.833 17 19.5 29s8.5 26.667 8.5 44c0 7.33301 -1 15.166 -3 23.499s-7.66699 16.166 -17 23.499
c-7.33301 5.33301 -15 8.66602 -23 9.99902s-16.667 2 -26 2c-14 0 -25.333 -0.666992 -34 -2s-15 -2.66602 -19 -3.99902zM488.001 324.002c14 3.33301 28.667 5.66992 44 7.00293s28.666 2 39.999 2c19.333 0 39.833 -2.33301 61.5 -7s40.167 -13 55.5 -25
c16.667 -13.333 28 -28.333 34 -45s9 -33.667 9 -51c0 -24.667 -4.5 -50.5 -13.5 -77.5s-25.5 -51.5 -49.5 -73.5c-16 -14.667 -33.333 -26.334 -52 -35.001s-37.5 -15.334 -56.5 -20.001s-37.667 -7.66699 -56 -9s-35.166 -2 -50.499 -2c-32 0 -60.667 2.66699 -86 8
s-51 13.666 -77 24.999l43 202h-138l-47 -223h-132l106 500l138 25l-45 -208h138l39 183l138 25z" />
    <glyph glyph-name="afii10108" unicode="&#x45b;" horiz-adv-x="565" 
d="M313 0l70 328.998c2.66699 11.333 4 22.333 4 33s-2 18.667 -6 24c-4.66699 6.66699 -10.5 10.5 -17.5 11.5s-12.167 1.5 -15.5 1.5c-18 0 -37.833 -4.5 -59.5 -13.5s-41.167 -20.167 -58.5 -33.5l-75 -352h-132l120 565h-51l15 68h51l18 85l138 32l-24 -117h195l-38 -68
h-172l-14 -66l-11 -43c22.667 17.333 47.167 30.833 73.5 40.5s54.166 14.5 83.499 14.5c6.66699 0 14.334 -0.333008 23.001 -1s17.5 -2.16699 26.5 -4.5s17.833 -6 26.5 -11s16.667 -11.5 24 -19.5c7.33301 -9.33301 12.5 -19.5 15.5 -30.5s4.5 -22.167 4.5 -33.5
c0 -9.33301 -0.666992 -18.666 -2 -27.999s-3 -18.666 -5 -27.999l-75 -355h-132z" />
    <glyph glyph-name="afii10109" unicode="&#x45c;" horiz-adv-x="530" 
d="M252 554l-40 75l231 133l48 -105zM17 0l105.999 499.999l137 25l-37 -164l-33 -105h2l24 42c10.667 18.667 21.834 37.167 33.501 55.5s28.167 38.166 49.5 59.499c13.333 13.333 27 25.5 41 36.5s29.667 21.167 47 30.5c18.667 10 39 18.833 61 26.5
s44.333 13.834 67 18.501l25 -90l-20 -6c-15.333 -4.66699 -31.666 -10.667 -48.999 -18s-34.833 -16.5 -52.5 -27.5s-34.834 -23.833 -51.501 -38.5s-32 -32 -46 -52c16 -1.33301 31.333 -4.66602 46 -9.99902s26.334 -14 35.001 -26
c5.33301 -7.33301 9.66602 -16.666 12.999 -27.999s5.33301 -22 6 -32l2 -59c0 -2.66699 0.5 -8.16699 1.5 -16.5s3.16699 -14.833 6.5 -19.5c5.33301 -6.66699 13 -11 23 -13l28 -8l-38 -91l-46 5c-15.333 1.33301 -30.5 4.83301 -45.5 10.5s-26.833 15.834 -35.5 30.501
c-6.66699 11.333 -10.5 23.5 -11.5 36.5s-1.83301 24.833 -2.5 35.5l-2 68c0 4 -0.5 8.16699 -1.5 12.5s-4.16699 8.16602 -9.5 11.499c-4 2.66699 -8.66699 4.5 -14 5.5s-10 1.5 -14 1.5c-21.333 -26 -41 -54.833 -59 -86.5s-38 -71.834 -60 -120.501h-126z" />
    <glyph glyph-name="afii10110" unicode="&#x45e;" 
d="M510 713c-9.33301 -18.667 -20.6689 -35.6689 -34.002 -51.002s-27 -27.666 -41 -36.999c-17.333 -11.333 -36.333 -19.666 -57 -24.999s-41.334 -8 -62.001 -8c-24 0 -44.667 3.16699 -62 9.5s-31.666 14.5 -42.999 24.5c-10 9.33301 -18.5 21.5 -25.5 36.5
s-11.167 31.833 -12.5 50.5l78 29c2 -6 5.33301 -12.167 10 -18.5s10.667 -12.166 18 -17.499c10 -6.66699 20 -10.667 30 -12s19.333 -2 28 -2c10 0 20.667 0.833008 32 2.5s22.333 5.5 33 11.5c6.66699 3.33301 14.334 8.66602 23.001 15.999s15.334 14 20.001 20z
M272.997 -8.00195c-18 -32 -33.832 -57.8291 -47.499 -77.4961s-25.667 -35.5 -36 -47.5s-19.5 -21.167 -27.5 -27.5s-15.667 -11.833 -23 -16.5c-15.333 -9.33301 -33.333 -18.333 -54 -27s-47.334 -15.334 -80.001 -20.001l-27 90c13.333 2.66699 28 6.5 44 11.5
s31.333 11.833 46 20.5c18.667 11.333 34.5 24.833 47.5 40.5s26.833 36.167 41.5 61.5h-37c-1.33301 19.333 -2.5 35.5 -3.5 48.5s-2 24.667 -3 35s-2 20.166 -3 29.499s-2.16699 19.666 -3.5 30.999l-46 360l138 16l25 -299c1.33301 -13.333 2.33301 -29.333 3 -48
s1 -37.667 1 -57c4.66699 12 10 25 16 39l18.5 41.5l18 39c5.66699 12.333 11.167 23.166 16.5 32.499l129 244h144z" />
    <glyph glyph-name="afii10193" unicode="&#x45f;" horiz-adv-x="537" 
d="M125 -183l25 121l131 36l-33 -157h-123zM442 133c-2.66699 -12.667 -4.00098 -25.334 -4.00098 -38.001c0 -15.333 1.66699 -28.5 5 -39.5s6.66602 -19.833 9.99902 -26.5l-116 -46c-3.33301 6 -7.66602 14.667 -12.999 26s-9 25.333 -11 42
c-4.66699 -4.66699 -11.5 -10.5 -20.5 -17.5s-19.667 -14 -32 -21s-26.666 -13 -42.999 -18s-33.833 -7.5 -52.5 -7.5c-16 0 -31.5 1.83301 -46.5 5.5s-28.333 9.66699 -40 18s-21 19 -28 32s-10.5 29.167 -10.5 48.5c0 14 1.16699 28.5 3.5 43.5s4.5 27.5 6.5 37.5l69 328
l138 25l-70 -329c-3.33301 -15.333 -5.83301 -29.333 -7.5 -42s-2.5 -21.667 -2.5 -27c0 -9.33301 2.5 -18.166 7.5 -26.499s13.167 -12.5 24.5 -12.5c8.66699 0 18 2.16699 28 6.5s20 10 30 17s19.5 15 28.5 24s16.833 18.5 23.5 28.5l71 333l135 27z" />
    <glyph glyph-name="afii10050" unicode="&#x490;" horiz-adv-x="473" 
d="M420 695l18 87h135l-42 -200h-247l-124 -582h-140l148 695h252z" />
    <glyph glyph-name="afii10098" unicode="&#x491;" horiz-adv-x="429" 
d="M17 0l109 512h222l20 97h121l-40 -191h-211l-89 -418h-132z" />
    <glyph glyph-name="endash" unicode="&#x2013;" horiz-adv-x="556" 
d="M520 223h-487l22 103h487z" />
    <glyph glyph-name="emdash" unicode="&#x2014;" horiz-adv-x="782" 
d="M746 223h-713l22 103h713z" />
    <glyph glyph-name="quoteleft" unicode="&#x2018;" horiz-adv-x="260" 
d="M322 660c-22 -8 -41.165 -17 -57.498 -27s-24.5 -20.333 -24.5 -31c0 -12.667 4.66699 -21.667 14 -27c13.333 -8 22.333 -18.5 27 -31.5s7 -27.5 7 -43.5c0 -24 -8.5 -44.333 -25.5 -61s-37.5 -25 -61.5 -25c-29.333 0 -53 9.16699 -71 27.5s-27 45.166 -27 80.499
c0 22 5.5 43.5 16.5 64.5s25.167 40.333 42.5 58s36.666 32.834 57.999 45.501s42.666 21.667 63.999 27z" />
    <glyph glyph-name="quoteright" unicode="&#x2019;" horiz-adv-x="260" 
d="M80 465c22 8 41.168 17 57.501 27s24.5 20.333 24.5 31c0 12.667 -4.66699 21.667 -14 27c-13.333 8 -22.333 18.5 -27 31.5s-7 27.5 -7 43.5c0 24 8.5 44.333 25.5 61s37.5 25 61.5 25c29.333 0 53 -9.16699 71 -27.5s27 -45.166 27 -80.499
c0 -22 -5.5 -43.5 -16.5 -64.5s-25.167 -40.333 -42.5 -58s-36.833 -32.834 -58.5 -45.501s-42.834 -21.667 -63.501 -27z" />
    <glyph glyph-name="quotedblleft" unicode="&#x201c;" horiz-adv-x="485" 
d="M322 660c-22 -8 -41.165 -17 -57.498 -27s-24.5 -20.333 -24.5 -31c0 -12.667 4.66699 -21.667 14 -27c13.333 -8 22.333 -18.5 27 -31.5s7 -27.5 7 -43.5c0 -24 -8.5 -44.333 -25.5 -61s-37.5 -25 -61.5 -25c-29.333 0 -53 9.16699 -71 27.5s-27 45.166 -27 80.499
c0 22 5.5 43.5 16.5 64.5s25.167 40.333 42.5 58s36.666 32.834 57.999 45.501s42.666 21.667 63.999 27zM548.002 660c-22 -8 -41.165 -17 -57.498 -27s-24.5 -20.333 -24.5 -31c0 -12.667 4.66699 -21.667 14 -27c13.333 -8 22.333 -18.5 27 -31.5s7 -27.5 7 -43.5
c0 -24 -8.5 -44.333 -25.5 -61s-37.5 -25 -61.5 -25c-29.333 0 -53 9.16699 -71 27.5s-27 45.166 -27 80.499c0 22 5.5 43.5 16.5 64.5s25.167 40.333 42.5 58s36.666 32.834 57.999 45.501s42.666 21.667 63.999 27z" />
    <glyph glyph-name="quotedblright" unicode="&#x201d;" horiz-adv-x="486" 
d="M81 465c22 8 41.168 17 57.501 27s24.5 20.333 24.5 31c0 12.667 -4.66699 21.667 -14 27c-13.333 8 -22.333 18.5 -27 31.5s-7 27.5 -7 43.5c0 24 8.5 44.333 25.5 61s37.5 25 61.5 25c29.333 0 53 -9.16699 71 -27.5s27 -45.166 27 -80.499
c0 -22 -5.5 -43.5 -16.5 -64.5s-25.167 -40.333 -42.5 -58s-36.833 -32.834 -58.5 -45.501s-42.834 -21.667 -63.501 -27zM307.001 465c22 8 41.168 17 57.501 27s24.5 20.333 24.5 31c0 12.667 -4.66699 21.667 -14 27c-13.333 8 -22.333 18.5 -27 31.5s-7 27.5 -7 43.5
c0 24 8.5 44.333 25.5 61s37.5 25 61.5 25c29.333 0 53 -9.16699 71 -27.5s27 -45.166 27 -80.499c0 -22 -5.5 -43.5 -16.5 -64.5s-25.167 -40.333 -42.5 -58s-36.833 -32.834 -58.5 -45.501s-42.834 -21.667 -63.501 -27z" />
    <glyph glyph-name="quotedblbase" unicode="&#x201e;" horiz-adv-x="485" 
d="M-42 -90c22 8 41.168 17 57.501 27s24.5 20.333 24.5 31c0 12.667 -4.66699 21.667 -14 27c-13.333 8 -22.333 18.5 -27 31.5s-7 27.5 -7 43.5c0 24 8.5 44.333 25.5 61s37.5 25 61.5 25c29.333 0 53 -9.16699 71 -27.5s27 -45.166 27 -80.499
c0 -22 -5.5 -43.5 -16.5 -64.5s-25.167 -40.333 -42.5 -58s-36.833 -32.834 -58.5 -45.501s-42.834 -21.667 -63.501 -27zM184.001 -90c22 8 41.168 17 57.501 27s24.5 20.333 24.5 31c0 12.667 -4.66699 21.667 -14 27c-13.333 8 -22.333 18.5 -27 31.5s-7 27.5 -7 43.5
c0 24 8.5 44.333 25.5 61s37.5 25 61.5 25c29.333 0 53 -9.16699 71 -27.5s27 -45.166 27 -80.499c0 -22 -5.5 -43.5 -16.5 -64.5s-25.167 -40.333 -42.5 -58s-36.833 -32.834 -58.5 -45.501s-42.834 -21.667 -63.501 -27z" />
    <glyph glyph-name="dagger" unicode="&#x2020;" horiz-adv-x="485" 
d="M488 424h-139l-90 -424h-132l90 424h-150l26 121h150l32 150h132l-32 -150h162z" />
    <glyph glyph-name="bullet" unicode="&#x2022;" horiz-adv-x="481" 
d="M442 354c0 -24.667 -4.66699 -47.667 -14 -69s-22 -40 -38 -56s-34.667 -28.667 -56 -38s-44.333 -14 -69 -14s-47.667 4.66699 -69 14s-40 22 -56 38s-28.667 34.667 -38 56s-14 44.333 -14 69s4.66699 47.667 14 69s22 40 38 56s34.667 28.667 56 38s44.333 14 69 14
s47.667 -4.66699 69 -14s40 -22 56 -38s28.667 -34.667 38 -56s14 -44.333 14 -69z" />
    <glyph glyph-name="ellipsis" unicode="&#x2026;" horiz-adv-x="809" 
d="M199 73c0 -12 -2.33301 -23.5 -7 -34.5s-11 -20.5 -19 -28.5s-17.333 -14.333 -28 -19s-22 -7 -34 -7c-24.667 0 -45.5 8.66699 -62.5 26s-25.5 38.333 -25.5 63c0 24 8.5 44.5 25.5 61.5s37.5 25.5 61.5 25.5c24.667 0 45.667 -8.5 63 -25.5s26 -37.5 26 -61.5zM449 73
c0 -12 -2.33301 -23.5 -7 -34.5s-11 -20.5 -19 -28.5s-17.333 -14.333 -28 -19s-22 -7 -34 -7c-24.667 0 -45.5 8.66699 -62.5 26s-25.5 38.333 -25.5 63c0 24 8.5 44.5 25.5 61.5s37.5 25.5 61.5 25.5c24.667 0 45.667 -8.5 63 -25.5s26 -37.5 26 -61.5zM699 73
c0 -12 -2.33301 -23.5 -7 -34.5s-11 -20.5 -19 -28.5s-17.333 -14.333 -28 -19s-22 -7 -34 -7c-24.667 0 -45.5 8.66699 -62.5 26s-25.5 38.333 -25.5 63c0 24 8.5 44.5 25.5 61.5s37.5 25.5 61.5 25.5c24.667 0 45.667 -8.5 63 -25.5s26 -37.5 26 -61.5z" />
    <glyph glyph-name="afii61352" unicode="&#x2116;" horiz-adv-x="967" 
d="M627 201l13 61h277l-13 -61h-277zM890 531c2 9.33301 3.83008 19.998 5.49707 31.998s2.5 21.667 2.5 29c0 16 -4.16699 26.833 -12.5 32.5s-17.166 8.5 -26.499 8.5c-15.333 0 -27.166 -4.16699 -35.499 -12.5s-14.166 -15.166 -17.499 -20.499
c-4 -7.33301 -8 -16.333 -12 -27s-7.5 -22.167 -10.5 -34.5s-5.33301 -24.666 -7 -36.999s-2.5 -23.5 -2.5 -33.5c0 -4 0.5 -8.83301 1.5 -14.5s3.5 -11.167 7.5 -16.5c3.33301 -4 7.5 -7.5 12.5 -10.5s10.5 -4.5 16.5 -4.5c14 0 27.333 5.66699 40 17
c6.66699 6.66699 13.167 16.667 19.5 30s12.5 34 18.5 62zM868.997 694.998c6.66699 0 14.333 -0.5 23 -1.5s17.5 -3 26.5 -6s17.833 -7.66699 26.5 -14s16.667 -14.833 24 -25.5c7.33301 -11.333 12.166 -22.333 14.499 -33s3.5 -21 3.5 -31c0 -6 -0.5 -15.833 -1.5 -29.5
s-4 -28.834 -9 -45.501s-12.5 -34.167 -22.5 -52.5s-23.667 -35.166 -41 -50.499c-33.333 -29.333 -71.666 -44 -114.999 -44c-19.333 0 -36.5 3.5 -51.5 10.5s-27.167 15.5 -36.5 25.5c-6.66699 7.33301 -12.5 17.333 -17.5 30s-7.5 28.667 -7.5 48
c0 14.667 1.66699 30.167 5 46.5s8.16602 32.666 14.499 48.999s14.333 31.833 24 46.5s20.834 27.334 33.501 38.001c19.333 16 38.5 26.5 57.5 31.5s35.5 7.5 49.5 7.5zM351.996 -0.00195312l-59 274.004c-2.66699 13.333 -5.5 26.333 -8.5 39l-10.5 44
c-4 16.667 -8.16699 36.5 -12.5 59.5l-15.5 85.5c-2.66699 -18.667 -5.5 -37.334 -8.5 -56.001s-6 -36.334 -9 -53.001s-5.83301 -31.334 -8.5 -44.001l-6 -29l-68 -320h-126l148 695h144l68 -289l12.5 -53l10.5 -47c3.33301 -15.333 6.33301 -30.833 9 -46.5
s5 -32.5 7 -50.5c0.666992 8 2.5 21.167 5.5 39.5s6 37.666 9 57.999l8.5 57.5c2.66699 18 4.66699 30 6 36l63 295h126l-148 -695h-137z" />
    <glyph glyph-name="trademark" unicode="&#x2122;" horiz-adv-x="951" 
d="M411 623h-103l-70 -348h-109l72 348h-107l17 85h336zM886 275l-102 -0.000976562l31 231c0 1.33301 0.166992 2.83301 0.5 4.5s0.5 3.16699 0.5 4.5l-2 -4l-2 -4l-118 -232h-89l-17 227c0 4.66699 -0.333008 8.33398 -1 11.001l-3 -15l-62 -223h-107l132 433h126l15 -216
c0.666992 -5.33301 1 -10 1 -14v-11c2 4.66699 4.33301 9.5 7 14.5l8 15.5l104 211h128z" />
    <glyph glyph-name="radical" unicode="&#x221a;" horiz-adv-x="590" 
d="M292 -8l-108.999 0.000976562l-58 426h-66l20 94h166l36 -239c1.33301 -10.667 2 -23 2 -37s0.666992 -26 2 -36c4 8 8.66699 18.167 14 30.5s10.666 23.166 15.999 32.499l262 459h136z" />
    <glyph glyph-name="infinity" unicode="&#x221e;" horiz-adv-x="948" 
d="M352 290c-10.667 9.33301 -22.6689 16.667 -36.002 22s-27.666 8 -42.999 8c-23.333 0 -43.833 -7.16699 -61.5 -21.5s-26.5 -33.5 -26.5 -57.5c0 -15.333 5.33301 -27.5 16 -36.5s25.667 -13.5 45 -13.5c16.667 0 34.834 4 54.501 12s38.167 17.667 55.5 29l37 23z
M813.998 275.001c0 15.333 -5.33301 27.499 -16 36.499s-25.667 13.5 -45 13.5c-16 0 -34 -3.66699 -54 -11s-38.667 -16.666 -56 -27.999l-39 -25l43 -33c11.333 -8.66699 23.5 -16.167 36.5 -22.5s27.167 -9.5 42.5 -9.5c23.333 0 43.833 7.16699 61.5 21.5
s26.5 33.5 26.5 57.5zM948.998 297c0 -33.333 -6.83301 -63.668 -20.5 -91.001s-32 -50.5 -55 -69.5s-49.5 -33.667 -79.5 -44s-61 -15.5 -93 -15.5s-61.5 5.16699 -88.5 15.5s-50.833 24.166 -71.5 41.499l-62 51l-76 -48c-34 -21.333 -66 -36.833 -96 -46.5
s-61 -14.5 -93 -14.5c-18 0 -36.667 2.5 -56 7.5s-37 13.333 -53 25s-29.333 26.5 -40 44.5s-16 40 -16 66c0 34 6.83301 64.667 20.5 92s32 50.5 55 69.5s49.5 33.667 79.5 44s61.667 15.5 95 15.5c31.333 0 60.833 -5.5 88.5 -16.5s53.167 -26.167 76.5 -45.5l57 -46
l77 50c32 20.667 64.167 35.667 96.5 45s62.833 14 91.5 14c18 0 36.5 -2.66699 55.5 -8s36.5 -13.666 52.5 -24.999s29.167 -26.166 39.5 -44.499s15.5 -40.5 15.5 -66.5z" />
    <glyph glyph-name="approxequal" unicode="&#x2248;" horiz-adv-x="562" 
d="M516 162c-8 -10.667 -16.6699 -21.167 -26.0029 -31.5s-20 -19.5 -32 -27.5s-25 -14.5 -39 -19.5s-29.333 -7.5 -46 -7.5c-17.333 0 -34.666 3.16699 -51.999 9.5s-34.666 13.833 -51.999 22.5l-49.5 24c-16.333 8 -31.166 12 -44.499 12
c-10 0 -19.667 -2.16699 -29 -6.5s-18.166 -9.66602 -26.499 -15.999s-16.5 -13.5 -24.5 -21.5l-23 -24l-13 108c8 10.667 16.667 21.167 26 31.5s20 19.5 32 27.5s25 14.5 39 19.5s29.333 7.5 46 7.5c17.333 0 34.833 -3.16699 52.5 -9.5s35.167 -13.833 52.5 -22.5
l49.5 -24c16.333 -8 31.166 -12 44.499 -12c10 0 19.5 2.16699 28.5 6.5s17.667 9.66602 26 15.999s16.5 13.5 24.5 21.5l23 24zM558.997 362c-8 -10.667 -16.665 -21.167 -25.998 -31.5s-20 -19.5 -32 -27.5s-25 -14.5 -39 -19.5s-29.333 -7.5 -46 -7.5
c-17.333 0 -34.833 3.16699 -52.5 9.5s-35.167 13.833 -52.5 22.5l-49.5 24c-16.333 8 -31.166 12 -44.499 12c-10 0 -19.5 -2.16699 -28.5 -6.5s-17.667 -9.66602 -26 -15.999s-16.5 -13.5 -24.5 -21.5l-23 -24l-13 108c8 10.667 16.667 21.167 26 31.5s20 19.5 32 27.5
s25 14.5 39 19.5s29.333 7.5 46 7.5c17.333 0 34.666 -3.16699 51.999 -9.5s34.666 -13.833 51.999 -22.5l49.5 -24c16.333 -8 31.166 -12 44.499 -12c10 0 19.5 2.16699 28.5 6.5s17.833 9.66602 26.5 15.999s17 13.5 25 21.5l23 24z" />
    <glyph glyph-name="notequal" unicode="&#x2260;" horiz-adv-x="648" 
d="M639 336h-208l-51 -66h245l-26 -126h-315l-124 -153l-69 49l44 55c3.33301 4.66699 7.83301 9.66699 13.5 15l16.5 16c6 6 12.333 12 19 18h-133l26 126h208l51 66h-245l27 126h315l124 153l69 -49l-44 -55c-3.33301 -4.66699 -7.83301 -9.66699 -13.5 -15l-16.5 -16
c-6.66699 -6 -13 -12 -19 -18h133z" />
    <glyph glyph-name="lessequal" unicode="&#x2264;" horiz-adv-x="433" 
d="M373 0h-383l23 109h383zM458 401l-224 -87l191 -70l-27 -128l-353 142l20 96l421 178z" />
    <glyph glyph-name="greaterequal" unicode="&#x2265;" horiz-adv-x="433" 
d="M383 0h-383l23 109h383zM438 258l-413 -142l27 130l221 68l-188 87l28 131l345 -178z" />
    <glyph glyph-name="Acute" unicode="&#xf6c9;" horiz-adv-x="377" 
d="M200 743l-40 75l231 133l48 -105z" />
    <glyph glyph-name="Dieresis" unicode="&#xf6cb;" horiz-adv-x="473" 
d="M313 820c0 -20.667 -7.50195 -38.667 -22.502 -54s-33.167 -23 -54.5 -23c-10 0 -19.667 2.16699 -29 6.5s-17.5 10 -24.5 17s-12.5 15.167 -16.5 24.5s-6 19 -6 29c0 20.667 7.83301 38.667 23.5 54s33.834 23 54.501 23s38.334 -7.66699 53.001 -23s22 -33.333 22 -54z
M523.998 820c0 -20.667 -7.50195 -38.667 -22.502 -54s-33.167 -23 -54.5 -23s-39.333 7.66699 -54 23s-22 33.333 -22 54c0 10 2 19.667 6 29s9.5 17.5 16.5 24.5s15.333 12.667 25 17s19.834 6.5 30.501 6.5c20.667 0 38.334 -7.5 53.001 -22.5s22 -33.167 22 -54.5z" />
    <glyph glyph-name="cyrBreve" unicode="&#xf6d1;" horiz-adv-x="408" 
d="M488 854c-9.33301 -17.333 -19.999 -32.666 -31.999 -45.999s-24.667 -24.666 -38 -33.999c-21.333 -14.667 -41 -23.5 -59 -26.5s-36 -4.5 -54 -4.5c-15.333 0 -31.5 1.33301 -48.5 4s-33.833 11.667 -50.5 27c-8 7.33301 -15.667 17.666 -23 30.999
s-11.666 29.666 -12.999 48.999l74 29c1.33301 -6.66699 4.66602 -13.167 9.99902 -19.5s10 -11.166 14 -14.499c6 -4.66699 14.5 -8 25.5 -10s21.5 -3 31.5 -3c6 0 14.833 0.666992 26.5 2s23.167 5 34.5 11c7.33301 3.33301 14.666 8.16602 21.999 14.499
s13.333 12.833 18 19.5z" />
    <glyph glyph-name="cyrbreve" unicode="&#xf6d4;" horiz-adv-x="457" 
d="M487 713c-9.33301 -18.667 -20.6689 -35.6689 -34.002 -51.002s-27 -27.666 -41 -36.999c-17.333 -11.333 -36.333 -19.666 -57 -24.999s-41.334 -8 -62.001 -8c-24 0 -44.667 3.16699 -62 9.5s-31.666 14.5 -42.999 24.5c-10 9.33301 -18.5 21.5 -25.5 36.5
s-11.167 31.833 -12.5 50.5l78 29c2 -6 5.33301 -12.167 10 -18.5s10.667 -12.166 18 -17.499c10 -6.66699 20 -10.667 30 -12s19.333 -2 28 -2c10 0 20.667 0.833008 32 2.5s22.333 5.5 33 11.5c6.66699 3.33301 14.334 8.66602 23.001 15.999s15.334 14 20.001 20z" />
    <glyph glyph-name=".null" horiz-adv-x="0" 
 />
    <glyph glyph-name="nonmarkingreturn" horiz-adv-x="225" 
 />
    <glyph glyph-name="afii10055" horiz-adv-x="284" 
d="M162 0h-142l148 695h142z" />
  </font>
</defs>
</svg>
